<svg style="display: none;" version="1.1" xmlns="http://www.w3.org/2000/svg" xmlns:xlink="http://www.w3.org/1999/xlink">
	<symbol id="foot-print" viewBox="0 0 58 50">
		<path d="M46.2,44.2c0,7.9-9.1,5.4-18.1,5.4s-16.8,1.7-16.8-6.3S19.5,24,28.5,24S46.2,36.3,46.2,44.2z"/>
		<path d="M44.2,8.9c-1.1,6-3.9,10.7-8.4,9.9c-4-0.7-5.1-4-4.4-10C32,2.5,34.5,0,38.6,0S45.2,3.1,44.2,8.9z"/>
		<path d="M56.2,24.8c-2.7,4.5-6.4,6.9-10,4.9c-3.3-1.9-4.2-5-1.8-9.6c2.5-4.9,6.5-6.9,10-5.6C58,15.7,58.9,20.4,56.2,24.8z"/>
		<path d="M13.3,21.1c2.1,4.2,0.1,7.8-4,8.4c-4.2,0.6-7.7-2.2-8.6-6.8c-1-4.8,0-7.6,4.2-8.3C8.7,13.6,10.9,16.5,13.3,21.1z"/>
		<path d="M26.9,11.1c0.2,5.2-2.4,9.2-7.3,8.3c-4.5-0.9-6.6-5.3-6.3-10.5C13.7,4,17,1,21.5,1.9C25.4,2.6,26.6,5.5,26.9,11.1z"/>
	</symbol>
	<symbol id="index" viewBox="0 0 63 50">
		<path d="M31.5,10.1L9.1,28.6c0,0,0,0.1,0,0.1c0,0.1,0,0.1,0,0.1v18.7c0,0.7,0.2,1.3,0.7,1.8c0.5,0.5,1.1,0.7,1.8,0.7h15V35h10v15h15c0.7,0,1.3-0.2,1.8-0.7c0.5-0.5,0.7-1.1,0.7-1.8V28.8c0-0.1,0-0.2,0-0.2L31.5,10.1z M62.5,24.4l-8.5-7.1V1.4c0-0.4-0.1-0.7-0.4-0.9c-0.2-0.2-0.5-0.4-0.9-0.4h-7.5c-0.4,0-0.7,0.1-0.9,0.4C44.1,0.7,44,1,44,1.4V9l-9.5-8c-0.8-0.7-1.8-1-3-1c-1.1,0-2.1,0.3-3,1l-28,23.3c-0.3,0.2-0.4,0.5-0.4,0.8c0,0.4,0.1,0.7,0.3,0.9L2.8,29c0.2,0.2,0.5,0.4,0.8,0.4c0.3,0,0.6-0.1,0.9-0.3l27-22.5l27,22.5c0.2,0.2,0.5,0.3,0.8,0.3h0.1c0.3-0.1,0.6-0.2,0.8-0.4l2.4-2.9c0.2-0.3,0.3-0.6,0.3-0.9C62.9,24.8,62.7,24.6,62.5,24.4z"/>
	</symbol>
	<symbol id="facebook" viewBox="0 0 50 50">
		<path style="fill:#FFFFFF;" d="M39.8,30.6c0.3-2.4,0.7-4.8,1-7.2c-0.5,0-1,0-1.4,0c-1.7,0-5.7,0-5.7,0s0-3.6,0.1-5.1c0.1-2.1,1.3-2.7,3-2.8c1.2,0,2.4,0,3.7,0h0.4V9.1c-0.7-0.1-1.4-0.2-2.1-0.2c-1.3-0.1-2.5-0.1-3.8-0.1c-1.9,0.1-3.8,0.5-5.4,1.7c-1.8,1.4-2.8,3.2-3.2,5.4c-0.1,0.9-0.2,1.8-0.2,2.7c0,1.4,0,2.8,0,4.3v0.5h-6.1v7.1h6.1V50h7.5V30.6H39.8z"/>
		<path d="M38.8,0H11.2C5,0,0,5,0,11.2v27.6C0,45,5,50,11.2,50h15V30.5h-6.1v-7.1h6.1v-0.5c0-1.5,0-2.9,0-4.3c0-0.9,0.1-1.8,0.2-2.7c0.4-2.2,1.4-4,3.2-5.4c1.6-1.2,3.5-1.6,5.4-1.7c1.3,0,2.5,0,3.8,0.1c0.7,0,1.4,0.1,2.1,0.2v6.4H41h-0.1h-0.4c-1.3,0-2.5,0-3.7,0c-1.7,0.1-2.9,0.7-3,2.8c-0.1,1.5-0.1,5.1-0.1,5.1s4,0,5.7,0c0.4,0,0.9,0,1.4,0c-0.3,2.4-0.7,4.8-1,7.2h-6.1V50h5.1C45,50,50,45,50,38.8V11.2C50,5,45,0,38.8,0z"/>
	</symbol>
	<symbol id="line" viewBox="0 0 53 50">
		<path style="fill:#FFFFFF;" d="M24.5,28.3h1.8c0.3,0,0.5-0.2,0.5-0.5v-7l5.2,7.1l0.1,0.1h0.1H34c0.3,0,0.5-0.2,0.5-0.5V16.1c-0.2-0.3-0.4-0.5-0.7-0.5H32c-0.3,0-0.5,0.2-0.5,0.5v6.8l-5.2-7h-1.8c-0.3,0-0.5,0.2-0.5,0.5v11.4C24,28.1,24.2,28.3,24.5,28.3z"/>
		<path style="fill:#FFFFFF;" d="M19.4,28h1.8c0.3,0,0.5-0.2,0.5-0.5V16.1c0-0.3-0.2-0.5-0.5-0.5h-1.8c-0.3,0-0.5,0.2-0.5,0.5v11.4C18.9,27.8,19.1,28,19.4,28z"/>
		<path style="fill:#FFFFFF;" d="M36.6,27.8h7.3c0.3,0,0.5-0.2,0.5-0.5v-1.8c0-0.3-0.2-0.5-0.5-0.5h-5v-2h5c0.3,0,0.5-0.2,0.5-0.5v-1.8c0-0.3-0.2-0.5-0.5-0.5h-5v-1.9h5v0.1c0.3,0,0.5-0.2,0.5-0.5v-1.8c0-0.3-0.2-0.5-0.5-0.5h-7.3c-0.1,0-0.2,0.1-0.3,0.1c-0.1,0.2-0.1,0.3-0.1,0.4v11.3c0,0.1,0.1,0.2,0.1,0.3C36.4,27.8,36.5,27.8,36.6,27.8z"/>
		<path style="fill:#FFFFFF;" d="M9.3,27.8h7.3c0.3,0,0.5-0.2,0.5-0.5v-1.8c0.1-0.2-0.1-0.4-0.4-0.4h-5v-9c0-0.3-0.2-0.5-0.5-0.5H9.4c-0.3,0-0.5,0.2-0.5,0.5v11.3c0,0.1,0.1,0.2,0.1,0.3C9.1,27.8,9.2,27.8,9.3,27.8z"/>
		<path d="M0.4,21.2c0,10.5,9.2,19.3,21.9,21.1c0.8,0.2,2,0.5,2.3,1.3c0.3,0.6,0.2,1.7,0.1,2.3c0,0-0.3,1.8-0.4,2.2c-0.1,0.6-0.5,2.7,2.2,1.5c2.9-1.2,15.1-8.7,20.6-15.1c3.7-4.2,5.5-8.5,5.5-13.3C52.6,9.7,40.9,0,26.5,0C12.2,0,0.4,9.5,0.4,21.2z M36.2,16.1c0-0.1,0-0.2,0.1-0.4c0.1,0,0.2-0.1,0.3-0.1h7.3c0.3,0,0.5,0.2,0.5,0.5v1.8c0,0.3-0.2,0.5-0.5,0.5v-0.1h-5v1.9h5c0.3,0,0.5,0.2,0.5,0.5v1.8c0,0.3-0.2,0.5-0.5,0.5h-5v2h5c0.3,0,0.5,0.2,0.5,0.5v1.8c0,0.3-0.2,0.5-0.5,0.5h-7.3c-0.1,0-0.2,0-0.3-0.1c0-0.1-0.1-0.2-0.1-0.3V16.1z M24,16.4c0-0.3,0.2-0.5,0.5-0.5h1.8l5.2,7v-6.8c0-0.3,0.2-0.5,0.5-0.5h1.8c0.3,0,0.5,0.2,0.7,0.5v11.4c0,0.3-0.2,0.5-0.5,0.5h-1.8h-0.1L32,27.9l-5.2-7.1v7c0,0.3-0.2,0.5-0.5,0.5h-1.8c-0.3,0-0.5-0.2-0.5-0.5V16.4z M18.9,16.1c0-0.3,0.2-0.5,0.5-0.5h1.8c0.3,0,0.5,0.2,0.5,0.5v11.4c0,0.3-0.2,0.5-0.5,0.5h-1.8c-0.3,0-0.5-0.2-0.5-0.5V16.1z M8.9,16.1c0-0.3,0.2-0.5,0.5-0.5h1.8c0.3,0,0.5,0.2,0.5,0.5v9h5c0.3,0,0.5,0.2,0.4,0.4v1.8c0,0.3-0.2,0.5-0.5,0.5H9.3c-0.1,0-0.2,0-0.3-0.1c0-0.1-0.1-0.2-0.1-0.3V16.1z"/>
	</symbol>
	<symbol id="play" viewBox="0 0 51 50">
		<path d="M32.3,25.3l-9.1,8.4l-0.1-16L32.3,25.3z"/>
		<path d="M25.5,0C11.6,0,0.4,11.2,0.4,25.1c0,12.8,9.6,23.4,22,24.9v-3.8C12.1,44.7,4.2,35.8,4.2,25.1c0-11.8,9.6-21.3,21.3-21.3c11.8,0,21.3,9.6,21.3,21.3c0,10.4-7.4,19-17.2,20.9v3.8c11.9-2,21-12.3,21-24.8C50.6,11.2,39.4,0,25.5,0z"/>
	</symbol>
	<symbol id="encounter" viewBox="0 0 48 50">
		<path d="M8.3,0.1c7.2,0,14.3,0.1,21.5,0.1c2.7,0,5.3-0.1,8,0.1c2.6,0.2,4.9,0.6,6.8,2.6c2,2.2,2.7,5.4,2.9,8.3c0.2,3.2,0,6.7-1.4,9.6c-1.3,2.7-3.6,4.6-6.6,5.1C37.8,26.2,36,26,34.3,26c-2.8,0-5.7,0-8.5,0c-3.6,0-7.2,0-10.8,0c-2.8,0-6.1-0.4-8.6,1.2c-2.5,1.6-3.7,4.7-4,7.5c-0.3,2.9-0.2,6.1,1.1,8.8c1.3,2.8,3.7,4.5,6.8,4.7c0.5,0,1.5-0.2,2,0.1c0.4,0.2,0.5,1.1,0.2,1.4c-0.5,0.8-3.4,0.2-4.2,0C1.9,48.3,0,41,0.5,35.4c0.3-3.1,1.1-6.3,3.3-8.5c1.9-2,4.5-2.8,7.2-2.7c6.5,0,12.9,0.1,19.4,0.1c2.5,0,5,0,7.5,0c2.3,0,4.4-0.8,5.8-2.7c1.9-2.5,2.2-5.9,2.2-8.9c0-2.9-0.5-6.3-2.6-8.6C41.9,2.6,40,2.1,38,2c-2.7,0-5.3,0-8-0.1c-6.9,0-13.9,0-20.8-0.1c-0.6,0-1.6-0.1-1.7-0.8c-0.1-0.9,0.8-1,1.4-1C8.7,0.1,8.5,0.1,8.3,0.1C9.7,0.1,8.2,0.1,8.3,0.1z"/>
	</symbol>
	<symbol id="abandon" viewBox="0 0 360 300">
		<path style="opacity:0.43;fill:#3A333C;" d="M0,211.4c2.8,7.5,8.4,9.8,13.4,11.6c17,6.1,34.1,12.1,51.4,12.7s35.1-4.6,50-19.9c3.1-3.1,6.4-9.9,4.1-14.7c-1.4-2.9-3.9-2.7-6-2.2c-27,5.5-54.2,7-81.3,4.6c-10.2-0.9-21.1-2.1-29.9,6.8"/>
		<path style="opacity:0.43;fill:#3A333C;" d="M60.6,224.1c2.8,7.4,8.2,9.8,13.1,11.6c16.6,6,33.3,12.1,50.2,12.7s34.3-4.6,48.9-19.8c3-3.1,6.3-9.9,4-14.7c-1.3-2.9-3.8-2.7-5.9-2.2c-26.4,5.4-53,7-79.5,4.6c-10-0.9-20.6-2.1-29.2,6.8"/>
		<path style="fill:#231815;" d="M49.9,152.4c1-1.3,0.8-3.1,0.5-4.8c-1.4-8.6-3.2-17.1-5.3-25.6c-0.2-0.6-0.5-1.4-1.1-1.4c-0.5,0-0.8,0.5-1.1,0.9c-2.4,3.7-4.8,7.5-7.2,11.2c-2.4-1.9-4.8-3.7-7.2-5.6c-0.4-0.3-0.9-0.7-1.5-0.7c-1,0-1.6,1-2.2,1.8c-0.6,0.8-1.9,1.4-2.5,0.6c-0.1,2.7-0.6,5.3-1.6,7.8c-1.9-0.2-3.9-0.3-5.8-0.5c1.1,1.7,2.2,3.4,3.2,5.1c-3.2-0.3-6.4-0.5-9.6-0.8c4.8,4,9.6,8.1,14.5,12.1c1.2,1,2.5,2.1,4.1,2.5c1.3,0.4,2.6,0.3,3.9,0.2c4.7-0.3,9.4-0.6,14.1-1c1.5-0.1,3.3-0.4,4.1-1.7"/>
		<path style="fill:#393228;" d="M90,214L90,214C90.1,214,90.1,214,90,214C90.1,214,90,214,90,214z"/>
		<path style="fill:#393228;" d="M90.1,214c0.1-0.3,0.2-0.6,0.3-1L90.1,214z"/>
		<path style="fill:#393228;" d="M83,173.5c-4.7-10.3-12.3-19.6-22.6-24.2c-2-0.9-4-1.6-6.1-2.1c-1.4-8.5-3.2-16.9-5.2-25.2c-0.2-0.6-0.5-1.4-1.1-1.4c-0.5,0-0.8,0.5-1.1,0.9c-2.4,3.7-4.8,7.5-7.2,11.2c-2.4-1.9-4.8-3.7-7.2-5.6c-0.4-0.3-0.9-0.7-1.5-0.7c-1,0-1.6,1-2.2,1.8c-0.6,0.8-1.9,1.4-2.5,0.6c-0.1,2.7-0.6,5.3-1.6,7.8c-1.9-0.2-3.9-0.3-5.8-0.5c1.1,1.7,2.2,3.4,3.2,5.1c-3.2-0.3-6.4-0.5-9.6-0.8c4.8,4,9.6,8.1,14.5,12.1c0.3,0.2,0.5,0.4,0.8,0.7c-4.2,3.9-7.1,9.1-9.6,14.3c-5,10.6-8.7,23.3-3.2,33.6c3.9,7.2,11.5,11.6,19,14.9c13.6,5.9,32.1,4.5,46.8,2.9c3.6-0.4,7.9-1.8,9.1-5C94.3,199,89.4,187.7,83,173.5z"/>
		<path style="fill:#231815;" d="M39.5,146.9c-0.8-4.3-1.6-8.5-2.4-12.8c-0.1-0.6-0.2-1.2,0-1.7c0.3-0.6,0.9-0.9,1.4-1.3c2.2-1.8,2-5.9,4.6-7c-0.7,4.9-1.4,9.8-2.1,14.7C41.1,138.8,40.2,142.2,39.5,146.9z"/>
		<path style="fill:#231815;" d="M30.1,144.9c-1-2.8-2.8-5.2-5.1-7L30.1,144.9z"/>
		<path style="fill:#231815;" d="M29.3,155.4c1.3-0.2,2.1,1.4,2.4,2.8c1.8,11.1-3.7,23.1,0.9,33.4c0.5,1.1,1.1,2.2,2.1,2.9c2.4,1.7,5.6,0.5,8.4-0.3c10.8-3.1,24.4-2.8,31,6.3c3,4.1,6.9,9.3,3.2,12.8c-2.6,2.4-7.1,3.7-12.6,3.7c-13.8-0.1-28.3-2.6-40.2-9.7c-3-1.8-6-3.8-7.8-6.8c-3.1-5.2-2-11.7-0.7-17.6c2-9.7,4.5-20,11.9-26.5L29.3,155.4z"/>
		<path style="fill:#705C56;" d="M29.6,153.2c-0.5-0.6-1.4-0.9-2.3-0.2c0,0-0.1,0.1-0.1,0.1c-1.1,0.8-1.3,2.1-0.4,3.1c2.3,2.6,8.9-0.9,11.3-1.7c5.3-1.8,10.4-4,15.4-6.5c2.3-1.1,0.3-4.6-2-3.4l0,0c-3.8,1.9-7.8,3.7-11.8,5.1c-1.8,0.6-3.5,1.3-5.3,1.8c-0.6,0.2-5.2,1.4-4.8,1.9L29.6,153.2z"/>
		<path style="fill:#39393A;" d="M152.1,45.5c-24.5-1.1-49.7-2.4-73.8,1.9C67.7,49.3,51.5,53.2,44.1,61l2.3-0.4c-0.8,0.3-1.5,0.5-1.6,0.6c-0.3,0.3-0.4,0.8-0.4,1.3c-0.2,3.8,1,10.9,0.8,14.7l-0.5-0.1c2.4,1.3,4.8,2.5,7.3,3.7l17.6,138.5c0,0,74.6,28.4,116,0c-0.4,0,1.4-102.8,2-137.6c2.3-1,4.6-2,6.8-3l0.4-1.1c0.2-7.4,2-8.9,2-16.3V52C184,46.9,165.7,46.1,152.1,45.5z"/>
		<path style="fill:#231815;" d="M62.3,65.8c2.8,4.2,8.2,5.5,13.2,6.5c16.7,3.4,33.5,6.8,50.6,7.1c17.1,0.3,34.5-2.6,49.3-11.2c3-1.8,6.3-5.6,4.1-8.3c-1.3-1.6-3.8-1.5-5.9-1.3c-26.6,3.1-53.4,3.9-80.1,2.6c-10-0.5-20.7-1.2-29.5,3.8"/>
		<path style="opacity:0.15;fill:#040000;" d="M54.2,81.3c-1-0.8-2-1.8-2.5-2.9c-1.8-3.6,1.8-8.6,5.8-8c3.5,0.5,5.7,4,8.4,6.4c2.8,2.5,6.3,3.8,9.9,4.9c14.4,4.6,29.5,6.4,44.6,6.6c16.4,0.2,32.7-1.6,48.8-4.6c1-0.2,2.2-0.4,3.2-0.1c1,0.3,1.9,1.4,1.6,2.4c-2.7,2.5-6.5,3.5-10.1,4.3c-17.2,3.9-34.7,6.1-52.3,6.7c-2.5,0.1-5.1,0.1-7.5-0.5c-2-0.5-3.9-1.5-6-1.5c-1.7,0-3.3,0.6-5,0.6c-2.8,0-5.2-1.8-7.6-3.1C75.4,87.2,62.8,88.2,54.2,81.3z"/>
		<path style="opacity:0.15;fill:#040000;" d="M74.5,141c-0.2-5.3-0.5-10.9,1.6-15.8c2.1-4.9,7.1-9,12.4-8.2c4,0.6,7.2,3.9,8.8,7.6c1.6,3.7,1.9,7.8,2.2,11.9c1.8,24.5,3.5,55.6,5.3,80.1c-6.7,3.2-15-0.7-21.9-3.5c-6.1-17.5-6.8-38.9-7.6-57.4C75,150.9,74.8,145.9,74.5,141z"/>
		<path style="opacity:0.15;fill:#040000;" d="M111.9,134.5c-0.2-5.3-0.5-10.9,1.6-15.8c2.1-4.9,7.1-9,12.4-8.2c4,0.6,7.2,3.9,8.8,7.6c1.6,3.7,1.9,7.8,2.2,11.9c1.8,24.5,3.9,62.1,5.7,86.6c-6.7,3.2-14.7,3.5-21.6,0.7c-6.1-17.5-7.5-49.5-8.4-68.1C112.3,144.3,112.1,139.4,111.9,134.5z"/>
		<path style="opacity:0.15;fill:#040000;" d="M147.4,141c-0.2-5.3-0.5-10.9,1.6-15.8c2.1-4.9,7.1-9,12.4-8.2c4,0.6,7.2,3.9,8.8,7.6c1.6,3.7,1.9,7.8,2.2,11.9c1.8,24.5,3.5,51.6,5.3,76.1c-6.2,6.6-11.7,5.7-21.4,6.6c-6.1-17.5-7.3-45-8.1-63.5C147.9,150.9,147.7,145.9,147.4,141z"/>
		<path style="fill:#824041;" d="M109.5,38.8c0.3-0.8,0-1.9-0.3-2.8c-1.7-4.7-3.5-9.4-5.5-14c-0.1-0.3-0.4-0.7-0.7-0.7c-0.2,0-0.3,0.3-0.4,0.6c-0.7,2.4-1.4,4.7-2,7.1c-1.3-0.8-2.7-1.7-4-2.5c-0.2-0.2-0.5-0.3-0.8-0.3c-0.5,0.1-0.6,0.7-0.8,1.3c-0.2,0.5-0.7,1-1.1,0.6c0.3,1.5,0.3,3.1,0.2,4.6c-0.9,0.1-1.8,0.2-2.7,0.3c0.7,0.9,1.4,1.7,2.1,2.6c-1.5,0.2-3,0.3-4.5,0.5c2.7,1.8,5.4,3.7,8.1,5.5c0.7,0.5,1.4,1,2.2,1.1c0.6,0.1,1.2-0.1,1.8-0.3c2.1-0.6,4.3-1.3,6.4-1.9c0.7-0.2,1.5-0.5,1.7-1.4"/>
		<path style="fill:#D54E4E;" d="M139,72.9L139,72.9C139.1,72.9,139.1,72.9,139,72.9C139.1,72.9,139.1,72.9,139,72.9z"/>
		<path style="fill:#D54E4E;" d="M131.7,47.4c-3.9-5.3-9.3-9.7-15.7-11.1c-2.7-0.6-5.5-0.6-8.2,0c-1.6-4.5-3.3-9-5.2-13.3c-0.1-0.3-0.4-0.7-0.7-0.7c-0.2,0-0.3,0.3-0.4,0.6c-0.7,2.4-1.4,4.7-2,7.1c-1.3-0.8-2.7-1.7-4-2.5c-0.2-0.2-0.5-0.3-0.8-0.3c-0.5,0.1-0.6,0.7-0.8,1.3c-0.2,0.5-0.7,1-1.1,0.6c0.3,1.5,0.3,3.1,0.2,4.6c-0.9,0.1-1.8,0.2-2.7,0.3c0.7,0.9,1.4,1.7,2.1,2.6c-1.5,0.2-3,0.3-4.5,0.5c2.7,1.8,5.4,3.7,8.1,5.5c0.5,0.3,1,0.6,1.5,0.8c-1.6,2.5-2.5,5.5-3.2,8.4c-1.6,6.6-2.2,14.2,2.1,19.5c3,3.7,7.9,5.2,12.6,6.2c8.4,1.8,17.3,2.2,25.5-0.5c2-0.7,4.3-1.9,4.6-3.9C139.7,63.9,137.1,54.7,131.7,47.4z"/>
		<path style="fill:#D54E4E;" d="M139.1,72.9c0-0.2,0-0.4,0-0.6L139.1,72.9z"/>
		<path style="fill:#824041;" d="M101.2,33.5c0.1-0.1,0.2-0.2,0.2-0.3c-0.2-2.9-0.5-5.7-0.7-8.6c0-0.4-0.5-0.6-0.8-0.3c-0.5,0.6-0.7,1-0.8,1.7c-0.2,1-0.2,1.8-0.6,2.7c-0.1,0.3-0.5,0.6-0.6,1c-0.2,1,0.5,2.2,0.8,3c0.6,1.8,1.3,3.5,1.9,5.3c0.2,0.4,0.9,0.4,0.9-0.1C101.4,36.4,101.3,35,101.2,33.5z"/>
		<path style="fill:#824041;" d="M98.8,37.1c-1-1.5-2.3-2.8-3.9-3.6c-0.6-0.3-1.1,0.6-0.5,0.9c1.5,0.7,2.7,1.8,3.5,3.2C98.2,38.1,99.1,37.6,98.8,37.1z"/>
		<path style="fill:#231815;" d="M107.8,35.7c-1.7,1.4-3.4,2.8-5.2,4c-0.8,0.6-1.7,1.1-2.6,1.6c-0.4,0.3-0.9,0.5-1.3,0.8c-0.4,0.1-0.6,0.2-0.6,0.3c-0.4-0.1-0.9,0-1.3,0.4c0,0,0,0-0.1,0.1c-0.5,0.6-0.6,1.5,0,2c1.7,1.5,4.3-0.8,5.7-1.7c2.6-1.6,5.1-3.5,7.4-5.5C111.2,36.6,109.2,34.5,107.8,35.7z"/>
		<path style="fill:#824041;" d="M136.1,61.6c-0.8-11.3-9.6-18.7-18.2-24.9c-0.2-0.3-0.6-0.6-1.1-0.8c0,0,0,0,0,0c0,0,0,0,0,0c-0.5-0.4-1-0.4-1.5-0.3c-2.7-0.4-5.6,0.4-5.7,3.7c-0.2,3.6,3.8,6.4,6.4,8.2c1.8,1.3,3.9,2.4,5.3,4.1c3,3.6,2,8.8-2.4,10.5c-4.5,1.7-9.1,0.9-12.7,4.8c-2.4,2.7-2.2,5.7,0.7,7.8c3.9,2.8,9.8,2.6,14.4,2.4C130.4,76.7,136.8,71.4,136.1,61.6z"/>
		<path style="fill:#9A825D;" d="M148.3,25.1c-0.8-1-0.6-2.4-0.4-3.6c1.1-6.5,2.4-12.9,4-19.3c0.1-0.5,0.4-1,0.8-1c0.4,0,0.6,0.3,0.8,0.6c1.8,2.8,3.6,5.6,5.5,8.5c1.8-1.4,3.6-2.8,5.4-4.2c0.3-0.3,0.7-0.5,1.1-0.5c0.7,0,1.2,0.8,1.6,1.4c0.4,0.6,1.4,1.1,1.9,0.5c0.1,2,0.5,4,1.2,5.9c1.5-0.1,2.9-0.2,4.4-0.4c-0.8,1.3-1.6,2.6-2.4,3.9c2.4-0.2,4.8-0.4,7.2-0.6c-3.6,3.1-7.3,6.1-10.9,9.2c-0.9,0.8-1.9,1.6-3.1,1.9c-1,0.3-2,0.2-3,0.1c-3.6-0.2-7.1-0.5-10.7-0.7c-1.2-0.1-2.5-0.3-3.1-1.3"/>
		<path style="fill:#F7C877;" d="M120.7,75.6C120.7,75.5,120.7,75.5,120.7,75.6C120.7,75.5,120.7,75.5,120.7,75.6L120.7,75.6z"/>
		<path style="fill:#F7C877;" d="M172.2,36.7c-1.9-3.9-4-7.9-7.2-10.8c0.2-0.2,0.4-0.3,0.6-0.5c3.6-3.1,7.3-6.1,10.9-9.2c-2.4,0.2-4.8,0.4-7.2,0.6c0.8-1.3,1.6-2.6,2.4-3.9c-1.5,0.1-2.9,0.2-4.4,0.4c-0.7-1.9-1.1-3.9-1.2-5.9c-0.4,0.6-1.4,0.1-1.9-0.5c-0.4-0.6-0.9-1.4-1.6-1.4c-0.4,0-0.8,0.3-1.1,0.5c-1.8,1.4-3.6,2.8-5.4,4.2c-1.8-2.8-3.6-5.6-5.5-8.5c-0.2-0.3-0.5-0.7-0.8-0.6c-0.5,0-0.7,0.6-0.8,1c-1.6,6.3-2.9,12.6-3.9,19c-1.6,0.4-3.2,0.9-4.6,1.6c-7.8,3.5-13.6,10.5-17.1,18.3c-4.9,10.7-5.8,23.1-2.6,34.4c0.9,2.4,4.1,3.5,6.9,3.8c11.1,1.2,22.4-1.6,32.6-6.1c5.7-2.5,11.4-5.8,14.4-11.2C178.7,54.2,175.9,44.6,172.2,36.7z"/>
		<path style="fill:#F7C877;" d="M120.7,75.5l-0.2-0.7C120.5,75,120.6,75.3,120.7,75.5z"/>
		<path style="fill:#9A825D;" d="M159.6,9c-0.7-1.4-2-2.2-2.6-3.7c-0.6-1.4-1.3-2.4-2.6-3.2c-1.6-0.9-3.1,0.6-2.9,2.2c0.5,3.7,1.1,7.4,1.6,11.1c0.1,0.4,0.2,0.7,0.4,0.9c0.3,1.7,0.5,3.4,0.8,5.1c0.3,1.9,3.5,1.9,3.8,0c0.5-2.6,1-5.2,1.4-7.8C159.8,12.2,160.4,10.5,159.6,9z"/>
		<path style="fill:#9A825D;" d="M165.7,12.8c-2,1.6-3.5,3.8-4.4,6.2c-0.4,1,0.4,2.2,1.4,2.4c1.1,0.3,2.1-0.4,2.4-1.4c0.7-1.8,1.9-3.2,3.3-4.4c0.8-0.7,0.7-2.1,0-2.8C167.7,12,166.6,12.2,165.7,12.8L165.7,12.8z"/>
		<path style="fill:#9A825D;" d="M163.9,27.4c-1-0.2-1.6,1.1-1.8,2.1c-1.4,8.4,2.8,17.5-0.7,25.2c-0.4,0.8-0.9,1.7-1.6,2.2c-1.8,1.2-4.2,0.4-6.3-0.2c-8.1-2.3-17.6,0.9-22.5,7.8c-2.2,3.1-3.4,7.8-0.6,10.5c1.9,1.8,5,1.8,7.6,1.5c10.4-1.2,20.5-4.6,29.5-9.9c2.3-1.4,4.5-2.9,5.9-5.2c2.4-3.9,1.5-8.9,0.6-13.3c-1.5-7.3-3.4-15.1-9-20"/>
		<path style="fill:#705C56;" d="M166.6,26.5c0-0.1,0-0.1,0-0.2c-0.4-1.4-1.8-1.7-2.9-1.1c-1.8,0-6.1-2-7.4-2.5c-3-1.1-6-2.4-8.9-3.9c-2.3-1.1-4.3,2.3-2,3.4c3.4,1.7,6.9,3.2,10.4,4.5c2.3,0.8,7,3.3,9.4,2.2C166.2,28.5,166.9,27.6,166.6,26.5z"/>
		<path style="opacity:0.46;fill:#231815;" d="M177.3,288c-3.3,1.5-7.3,4.5-5.7,7.8c0.9,2,3.5,2.6,5.7,2.8c8.9,0.8,18.1-1.6,25.5-6.6c5.7,6.2,15.6,6.6,23.6,4.1c8-2.6,15.1-7.5,22.9-10.8c5.8-2.5,12-4,18.1-5.7c11.5-3.1,28.1-7,39.2-11.3c-4.3,6.3-1.1,15.7,5.1,20.1c6.2,4.5,9.1,5.2,16.7,4.7c-2.3-1.2-4.6-2.3-6.3-4.2c-1.7-1.9-2.8-4.6-2-7c1-3.1,4.4-4.6,7.3-5.9c9.6-4.4,22.3-7.6,29-15.8c1.7-2.2,5.2-8.1,2.7-12.4c-1.4-2.4-3.2-4.4-5.5-5.8c-1.7-1-3.8-1.1-5.8-1c-12.4,0.5-24.5,3.4-36.7,5c-9.3,1.2-18.7,1.7-28.1,2.6c-22.5,2-44.9,6-66.7,11.8c-5.8,1.5-11.5,3.2-16.8,5.9c-9.8,5.1-17.5,13.5-24.9,21.7"/>
		<path style="fill:#957643;" d="M276.2,211.4c9.6,2.1,19.1-6.1,28.9-4.8c3.2,0.4,6.5,1.9,9.6,0.8c2.1-0.7,3.6-2.3,5.1-3.9c1.1-1.2,2.3-2.6,2.3-4.2c0.1-2.4-2.3-4.2-4.6-4.6c-2.3-0.4-4.7,0.2-7.1,0.4s-5-0.1-6.6-1.9c-0.4-0.4-0.7-1-1-1.5c-6.3,2.2-12,5.1-13.6,6c-2.6,1.4-5.5,1.6-8.3,1.9c-5.5,0.5-10.5,1.1-15.2,2C267.3,206.3,271.3,210.3,276.2,211.4z"/>
		<path style="fill:#957643;" d="M351,199.1c-2.7,1-5.3,2.2-7.6,3.9c-3.3,2.4-5.9,6.1-6.2,10.2c-0.2,3.8,1.8,7.5,4.8,9.8c3,2.3,7,3.1,10.8,2.7c2.2-0.3,4.3-1,6.3-2c-0.2-7.3-2.3-14.4-5.2-20.1C353.1,201.9,352.1,200.4,351,199.1z"/>
		<path style="fill:#603E33;" d="M183.3,193.9c-11.3,9.7-19,22.8-26.5,35.6c-3.6,6.2-7.3,12.4-10.9,18.6c-2.9,5-5.9,10.1-7.9,15.5c-0.7,1.8-1.3,3.7-0.9,5.6c0.3,1.9,1.8,3.7,3.7,3.7c1.6,0,2.9-1.1,4-2.2c4.7-4.4,8.5-9.6,12.4-14.8c5.3-7.1,10.5-14.1,15.8-21.2c5.2-7,10.5-14.1,14.4-21.8c3.4-6.7,5.8-13.8,7.1-21.2c0.2-0.9,0.2-1.9-0.5-2.4c-0.7-0.5-1.6-0.2-2.4,0.2c-4.1,2-8.1,4.5-11.7,7.3"/>
		<path style="fill:#F6B139;" d="M359.1,223.6c-1.9,1.1-4.1,1.8-6.3,2c-3.8,0.4-7.7-0.4-10.8-2.7c-3-2.3-5-6-4.8-9.8c0.2-4.1,2.9-7.7,6.2-10.2c2.3-1.7,4.9-2.9,7.6-3.9c-8.6-10.3-24.9-11.8-38.3-9.9c-3.1,0.4-6.5,1.4-9.8,2.5c0.3,0.5,0.6,1,1,1.5c1.6,1.8,4.2,2.1,6.6,1.9c2.4-0.2,4.7-0.8,7.1-0.4c2.3,0.4,4.7,2.2,4.6,4.6c-0.1,1.6-1.2,3-2.3,4.2c-1.5,1.6-3,3.3-5.1,3.9c-3.1,1-6.4-0.4-9.6-0.8c-9.8-1.3-19.2,6.9-28.9,4.8c-4.9-1.1-8.9-5.1-10.4-9.8c-5,0.9-9.7,2.2-14.7,4c0.8-6.7-2.8-13.6-7.4-18.8c-1.8-2.1-3.9-4-6.4-5.2c-4.1-1.9-8.5-4.5-13-3.7c-8.6,0.1-14.8,0.1-22.8,3.4c-8,3.3-15.7,13.4-19.3,21.3c-1.9,4.2-2.7,8.7-3.9,13.1c-1.5,5.1-3.5,10-5.1,15.1c-3,9.7-4.2,20-3.4,30.1c0.4,5.8,1.8,12.1,6.1,16c4.7,4.2,11.6,4.5,18,4.6c5.1,0.1,10.2,0.1,15.2,0.2c0,0,0,0.1,0,0.1c-1.3,5.3,2.5,11.2,7.2,12c4.7,0.8,9.4-2.6,11.6-7.5c0.6-1.2,1-2.6,1.8-3.7c1.3-1.8,3.3-2.7,5.2-3.4c2.5-1,5-2,7.6-3c1.5-0.6,3.1-1.2,4.4-2.4c1.3-1.1,2.3-2.9,2.2-4.8c0-0.1,0-0.1,0-0.2c0.3-0.1,0.7-0.1,1-0.2c21.1-5,42.2-10,63.3-15c-8.8,6-11.7,21-5.8,30.6c5.9,9.6,19.3,11.7,27.3,4.4c-5.7,3.9-14.6,3.6-17.4-3.3c-2.8-6.8,2.5-14.6,8.3-18.2c5.8-3.6,16.7-5.8,21-11.5c4.6-6,7.8-11.6,10.5-19C358.6,232.4,359.2,228,359.1,223.6z"/>
		<path style="fill:#F8CD88;" d="M206.6,213.9c-3.2,5.8-6.3,11.5-9.5,17.3c-1.5,2.7-3,5.5-5.1,7.8c-2.6,2.9-6,4.9-9.1,7.2c-4.4,3.2-8.5,7.2-10.6,12.3c-2.1,5-2.1,11.3,1.3,15.6c3.4,4.3,9.1,6,14.6,6.8c8.7,1.3,17.6,1,26.4,0.8c5.8-0.2,12.4-0.7,15.8-5.4c3.6-4.9,1.7-12.1-2.1-16.8c-3.8-4.8-9.1-8.1-13.2-12.5c-8-8.6-11.1-21.4-7.8-32.7"/>
		<path style="fill:#603E33;" d="M190.9,258.1c4.2,0.9,8.3,2.1,12.3,3.5c-0.5-1.2-1-2.4-1.5-3.7c-0.5,1-2.5,4.6-4,4.3c-1.3-0.2-2.8-4.5-3.2-5.6c-1,1-2.1,2.1-3.1,3.1c2.8,0.6,5.1,1.9,7.1,3.9c0.8-1.4,1.6-2.8,2.4-4.2c-1.6-0.3-2.8-0.8-4.1-1.7c0,1.4,0,2.9,0,4.3c0.1-0.1,0.2-0.1,0.3-0.2c-0.6,0.1-1.3,0.2-1.9,0.3c-0.2-0.1-0.4-0.3-0.5-0.4c1.1,3,5.5,1.8,4.8-1.3c-0.2-0.8-0.3-1.5-0.5-2.3c-0.6-2.8-4.9-2.1-4.9,0.7c0,0.6,0,1.2,0,1.8c0,2.2,2.7,3.3,4.3,1.8c0.6-0.6,1.2-1.2,1.8-1.8c-1,0.1-2,0.3-3,0.4c1.3,0.7,2.5,1,4,1.1c-0.4-1.6-0.8-3.1-1.3-4.7c-1.2,0.6-2.4,1.2-3.6,1.9c-2.8,1.7-0.3,5.9,2.5,4.3c1.1-0.6,2-1.3,2.8-2.2c-1.4-0.6-2.8-1.2-4.3-1.8c0,0.5,0,0.9,0,1.4c0.4-0.7,0.8-1.4,1.2-2.2c-0.7,0.3-1.3,0.8-1.9,1.3c1.2,0,2.4,0,3.5,0c0.1,0.1,0.2,0.3,0.3,0.4c-1.7,0-3.3,0-5,0c-0.1,0.2-0.1,0.3-0.2,0.5c1.4,0.6,2.8,1.2,4.3,1.8c0.1-1.2,0-2.3-0.4-3.4c-0.8-2.3-4.1-2.5-4.8,0c-0.1,0.5-0.3,1-0.4,1.4c-0.9,3.1,3.9,4.4,4.8,1.3c0.1-0.5,0.3-1,0.4-1.4c-1.6,0-3.2,0-4.8,0c0.3,0.8,0.3,1.3,0.2,2.1c-0.2,2.2,2.9,3.2,4.3,1.8c1.1-1.2,1.6-2.4,1.7-4c0.1-3.3-4.7-3.2-5,0c-0.1,1.3,0.4,2.2,1.2,3.1c0.9,1.1,2.6,0.8,3.5,0c0.2-0.2,0.5-0.4,0.9-0.5c0.8-0.4,1.2-1.3,1.2-2.2c0-0.5,0-0.9,0-1.4c0-2.1-2.8-3.4-4.3-1.8c-0.6,0.6-1,1-1.8,1.4c0.8,1.4,1.7,2.9,2.5,4.3c1.2-0.7,2.4-1.3,3.6-1.9c2.5-1.2,0.9-4.4-1.3-4.7c-0.5-0.1-1-0.2-1.4-0.5c-1-0.5-2.2-0.4-3,0.4c-0.6,0.6-1.2,1.2-1.8,1.8c1.4,0.6,2.8,1.2,4.3,1.8c0-0.6,0-1.2,0-1.8c-1.6,0.2-3.3,0.4-4.9,0.7c0.2,0.8,0.3,1.5,0.5,2.3c1.6-0.4,3.2-0.9,4.8-1.3c-0.8-2.2-2.8-4.1-5.2-2.6c-1.7,1-1.5,3.2,0,4.3c1.6,1.1,3.4,1.9,5.3,2.2c2.3,0.4,4.3-2.3,2.4-4.2c-2.6-2.6-5.7-4.4-9.3-5.2c-1.7-0.4-3.8,1.2-3.1,3.1c1.2,3.2,3.3,8.6,7.2,9.2c4,0.7,7.5-3.6,9.1-6.7c0.8-1.5,0.1-3.1-1.5-3.7c-4-1.4-8.1-2.6-12.3-3.5C189.1,252.6,187.8,257.4,190.9,258.1L190.9,258.1z"/>
		<path style="fill:#603E33;" d="M192.1,257.2c4.6,0,9,0.6,13.5,1.7c-0.5-1.2-1-2.4-1.5-3.7c-1.2,2-2.6,3.5-4.6,4.7c1.1,1.1,2.3,2.3,3.4,3.4c0.6-1.4,1.2-2.7,1.9-4.1c0.6-1.4,0.2-3.3-1.5-3.7c-1.7-0.4-3.3-0.8-5-1.1c0,1.6,0,3.2,0,4.8c2.1-0.6,3.9-0.5,5.9,0.3c-0.4-1.4-0.7-2.8-1.1-4.2c-0.6,0.6-1.2,1.2-1.8,1.7c-2.3,2.3,1.2,5.8,3.5,3.5c0.6-0.6,1.2-1.2,1.8-1.7c1.5-1.4,0.6-3.5-1.1-4.2c-2.8-1.1-5.7-1.2-8.6-0.3c-2.3,0.7-2.5,4.3,0,4.8c1.7,0.4,3.3,0.8,5,1.1c-0.5-1.2-1-2.4-1.5-3.7c-0.6,1.4-1.2,2.7-1.9,4.1c-1,2.1,1.1,4.8,3.4,3.4c2.7-1.7,4.8-3.8,6.4-6.5c0.8-1.4,0.1-3.3-1.5-3.7c-4.9-1.2-9.8-1.8-14.8-1.9C188.8,252.2,188.8,257.2,192.1,257.2L192.1,257.2z"/>
		<path style="fill:#F6B139;" d="M165.5,286.6c0.8-4.8,4-9.2,8.4-11.4s9.7-2.4,14.2-0.6c4.2,1.7,7.8,5.6,7.8,10.1c0,1-0.2,2.1-0.9,2.8c-0.5,0.6-1.3,1-2.1,1.4c-3.7,1.6-7.7,2.1-11.6,2.5c-4.6,0.5-9.5,0.8-13.4-1.7c-1.2-0.8-2.3-2.4-1.5-3.6"/>
		<path style="fill:#603E33;" d="M292.1,223.4c-5.1-0.2-9.5,2.7-12.1,7c-2.9,4.9-2.9,10.9-2.6,16.5c-2.1,0.5-4,1.3-6.1,1.9c-2.3,0.6-4.5,0-6.8,0.2c-1.8,0.1-3.4,0.5-5,1.2c-1.6-1.2-3-2.5-4.1-4.1c-3-4.5-2.6-10.3-2.2-15.7c0.6-8.8,0.7-17.7-1.2-26.2c-1.9-8.6-5.9-16.9-12.5-22.7l-2.1,0.2c3.5,14.1,7,28.6,4.9,43c-1.7,11.3-6.8,21.9-7.6,33.3c-0.3,4,0.1,8.4,3,11.2c2.1,2.1,5.2,2.9,8.2,3.3c4.3,0.7,8.7,0.9,13.1,0.8c5.5-0.2,12.1-2.1,13.4-7.5c1-4.4-2.4-8.7-6.2-11.3c-0.6-0.4-1.2-0.8-1.8-1.2c1.5-0.1,3.1-0.1,4.8-0.1c3.6,0.1,7.2-2.2,10.8-2.8c0.8-0.1,1.5-1.1,1.5-1.9c-0.5-7.7-0.4-21.6,10.6-21.1C294.6,227.5,294.6,223.5,292.1,223.4z"/>
		<path style="fill:#603E33;" d="M200.5,201.1c-1.6,1-3.3,1.9-4.9,2.9c-2.2,1.3-0.2,4.7,2,3.4c1.6-1,3.3-1.9,4.9-2.9C204.7,203.2,202.7,199.8,200.5,201.1L200.5,201.1z"/>
		<path style="fill:#603E33;" d="M213.7,204.1c1.6,1.6,3.5,2.8,5.6,3.5c2.4,0.8,3.5-3,1.1-3.8c-1.5-0.5-2.8-1.4-3.8-2.5C214.7,199.5,211.9,202.3,213.7,204.1L213.7,204.1z"/>
		<path style="fill:#603E33;" d="M215,220c3.7,3.8,10,3.1,13-1.2c1.5-2.1-2-4.1-3.4-2c-1.5,2.2-5,2.2-6.8,0.4C216.1,215.4,213.3,218.2,215,220L215,220z"/>
		<path style="fill:#603E33;" d="M184.3,221.8c3.6,4.9,9.2,2.3,13.1-0.8c2-1.6-0.8-4.4-2.8-2.8c-1.5,1.2-5.1,3.9-6.8,1.6C186.2,217.7,182.7,219.7,184.3,221.8L184.3,221.8z"/>
		<path style="fill:#94D3E5;" d="M227.8,222.6c-0.5,4-0.9,8-1.4,12c-0.4,3.1-0.5,6.8,1.9,8.8c0.3,0.3,0.7,0.5,1.1,0.5c1.2,0,1.7-1.6,1.7-2.8c0.1-6.3-1.2-12.7-3.7-18.5"/>
	</symbol>
	<symbol id="shelter" viewBox="0 0 455 270">
		<path style="opacity:0.33;fill:#231815;" d="M94.4,208.2c-12.6-3.7-27.8-7-37.8,1.6c-1.7,1.5-3.2,3.2-5.1,4.4c-1.9,1.2-4.2,1.6-6.4,2.3c-12.1,3.8-22.2,14.5-34.9,14c-2.9-0.1-6.2-0.8-8.4,1.2c-2.1,1.8-2,5.2-0.9,7.7c2.8,6.6,10.5,9.4,17.4,11.3c19.1,5.2,38.7,8.6,58.4,9.9c10.2,0.7,20.5,0.9,30.8,1.1c6.8,0.1,13.6,0.3,20.3-0.6c6.4-0.8,12.7-2.5,18.9-4.2c11.2-3.1,22.5-6.1,33.7-9.2c2.4-0.6,5-1.5,6.2-3.6c1.2-2.1,0.7-4.9,2-6.9c2-2.9,6.3-2.3,9.8-2.9c6.4-1.1,10.7-7,13.4-12.9c0.9-2,1.8-4.2,1.5-6.3c-0.7-5.7-7.8-7.7-13.5-8.3c-33.5-3.7-67.3-4.3-101-1.8"/>
		<path style="fill:#B56B2E;" d="M44.5,0c-1-0.2-1.9,0.6-2.6,1.3c-10,11-16.5,25.2-18.1,40c-0.4,3.7-0.5,7.5,0.2,11.2c1,4.9,3.4,9.5,6.9,13l0.5-1.9c3.2-0.9,6.4-1.8,9.6-2.6c-3.1-4.8-4-10.6-4.4-16.2C35.6,29.6,38.3,14.1,44.5,0z"/>
		<path style="fill:#B87624;" d="M155.8,188.3c-2.9,1-4.9,3.8-6.1,6.6c-1.3,3.1-2.1,6.7-0.7,9.8c1.3,2.8,4.2,4.5,7.1,5.2c3,0.7,6.1,0.5,9.1,0.2c11.2-0.9,22.5-1.7,33.7-2.6c-1.3,2.1,0.2,5.2,2.7,5.9s5.1-0.7,6.4-2.9c1.3-2.1,1.5-4.8,1.1-7.2c-0.2-1.5-0.7-3.1-1.7-4.2c-1.3-1.5-3.4-2.1-5.4-2.5c-5-1-10.2-1-15.3-0.4c-4.3,0.5-8.5,1.5-12.8,1.2c-4.3-0.2-8.8-1.9-11.2-5.4c-0.9-1.3-1.4-2.8-2.5-3.8c-1.1-1.1-3-1.6-4.1-0.5"/>
		<path style="fill:#B87624;" d="M32.8,160.7c-0.7-0.6-1.5,0.7-1.5,1.6c-0.1,5.9,2.1,11.8,6,16.2c1.5,1.7,3.2,3.2,4,5.3c0.6,1.5,0.7,3.1,0.7,4.7c0.4,8.2,0.7,16.4,1.1,24.5c0.1,1.5,0.2,3,1.1,4.2c0.8,1,2,1.4,3.2,1.8c4.6,1.5,10.3,2.1,13.7-1.3c2.1-2.1,2.7-5.5,1.5-8.2c-1.2-2.7-4.1-4.5-7-4.5c-0.3-8.5-0.6-16.9-0.9-25.4c0-0.9-0.1-1.7,0.1-2.6c0.3-1.4,1.2-2.6,2-3.8c5-7.5,6.8-17.1,4.7-25.9c-1.3-5.7-4.8-11.6-10.4-13.1c-6.4-1.8-13.2,2.7-16.3,8.6c-3.1,5.9-3.3,12.8-3.5,19.4"/>
		<path style="fill:#AA8043;" d="M160,187.6c8.6-9.1,21.6-12.5,33.9-14.7c4.9-0.9,9.9-1.7,14.8-2.3c4.2-0.6,8.5-1,12.6,0s10.8,3.3,9.1,8c-4.7,8.5-12.4,6.1-19,8c-8.4,2.4-17,4.9-25.7,5.7s-17.9-0.1-25.7-4"/>
		<path style="fill:#EBC1B7;" d="M198.3,171.4c5.7-8.5,16.4-12.9,26.5-11.1c2.2,0.4,4.5,1.2,5.9,3.1c0.7,1,1.1,2.2,1.3,3.4c0.7,4.7-2.5,9.5-6.8,10.4c-2.1,0.5-4.3,0.1-6.4,0.5c-3.1,0.5-5.8,2.3-8.3,4.2c-2.5,1.9-5,3.9-8.1,4.7c-3,0.9-6.7,0.3-8.9-2.2c-2.1-2.5-2.3-6.3-1-9c1.4-2.8,4-4.6,6.9-5.6"/>
		<path style="fill:#A03A4C;" d="M227.3,168.9c-6,0.9-12,1.7-18,2.6c0.5-0.6,0.8-1.3,0.7-2.1C215.7,167.9,221.6,167.7,227.3,168.9z"/>
		<path style="fill:#B56B2E;" d="M122.7,173.5c-16.5-8.6-26.3-28.5-23.1-46.8c0.6-3.7,1.8-7.3,3.9-10.4c4.7-6.8,13.8-9.5,22-8.5c4.6,0.6,9.3,2.3,12.4,5.7s4.4,8.8,2.1,12.9c-3,5.4-10.6,6.6-14.5,11.4c-3.1,3.8-3.3,9.3-2.3,14.2c1,4.8,3.1,9.4,4.1,14.3c0.3,1.4,0.5,2.9-0.1,4.2s-2.3,2.2-3.5,1.5"/>
		<path style="fill:#F9F9DA;" d="M115.5,160.7c-3.5-0.7-15.2-17.4-13.2-28.7c0.4-2.3,1.1-4.5,2.4-6.4c2.9-4.2,8.5-5.9,13.6-5.3c2.9,0.3,5.7,1.4,7.7,3.5c1.9,2.1,2.7,5.5,1.3,8c-1.9,3.4-6.6,4.1-9,7.1c-1.9,2.4-2,5.8-1.4,8.8s1.9,5.8,2.5,8.8c0.2,0.9,0.4,1.9-0.1,2.6C119.2,159.2,117.6,161,115.5,160.7C115.5,160.7,119.1,161.4,115.5,160.7z"/>
		<path style="fill:#DA9C45;" d="M219.3,133.9c-4.5-5.7-13-6.7-20.1-4.9s-13.3,5.8-20,8.7c-8.1,3.5-13.6,5.4-22,7.7c-8.5,2.3-15.5,2.3-26.4,7.1c-6.3,2.7-11.1,8.3-15.1,15.7c-4.8-3-8.4-7.9-11.4-12.8c-6.7-11-11.4-23.2-13.8-35.8c-1.8-9.4-2.3-19-5-28.2c-1.9-6.4-4.8-12.5-8.6-18c-5-7.1-11.6-13.2-19.6-16.5c-8-3.3-17.5-3.5-25.2,0.5c-9.1,2.9-16.9,9.6-21.5,18c-4.6,8.4-6,18.4-4.6,27.8c2,12.6,8.8,23.8,13.9,35.5c5.1,11.7,8.5,25.3,3.5,37c-1.2,2.7-2.8,5.3-4.9,7.4c-1,1-2.2,2-2.7,3.3c-0.4,1-0.3,2-0.3,3c0.6,14.1,1.2,28.1,1.7,42.2c0.1,1.5,0.3,3.3,1.6,4.1c0.7,0.4,1.5,0.4,2.2,0.4c5.4,0.1,11.2-0.4,15.4-3.8c1-0.8,1.8-1.7,2.3-2.9c1.1-2.8-0.7-6.1-3.2-7.8c-2.6-1.6-5.7-2-8.7-2.4c-1.7-7.1-2.8-14.4-3.2-21.8c-0.1-2.1-0.1-4.4,0.9-6.3c0.5-1,1.3-1.8,2.1-2.7c12.6-13.9,22-30.7,27.4-48.8c4.5,19.1,1.5,40.7,12.2,57.1c4.9,7.4,12.1,13,19.8,17.4c2.6,1.5,5.2,2.9,8.1,3.5c3.9,0.9,7.9,0.5,11.9,0.1c5.7-0.6,11.5-1.2,17.2-1.8c0.1,0.1,0.3,0.2,0.4,0.3c2.6,1.6,5.4,2.9,8.3,3.8c-0.4,2.4-0.3,4.9,0.7,7.1c1.6,3.4,5.1,5.6,8.8,6.4c3.7,0.8,7.5,0.6,11.2,0.3c13.8-1,27.7-2.1,41.5-3.1c-1.6,2.6,0.3,6.4,3.3,7.2c3,0.8,6.2-0.9,7.8-3.5c1.6-2.6,1.9-5.9,1.4-8.9c-0.3-1.9-0.8-3.8-2.1-5.2c-1.6-1.9-4.2-2.6-6.6-3.1c-6.2-1.2-12.6-1.2-18.9-0.5c-5.3,0.6-10.5,1.8-15.8,1.5c-1-0.1-2-0.2-3-0.3c1.4-0.6,2.8-1.3,4.2-2c24.3-12.1,44-33.1,54.6-58.1c1.7-3.9,3.1-8,3.4-12.3C222.8,141.7,221.9,137.2,219.3,133.9z"/>
		<path style="fill:#B56B2E;" d="M129.8,204.7c-16.5,8.6-25.1,27.8-21.9,46.2c0.6,3.7,1.8,7.3,3.9,10.4c4.7,6.8,13.8,9.5,22,8.5c4.6-0.6,9.3-2.3,12.4-5.7c3.1-3.4,4.4-8.8,2.1-12.9c-3-5.4-10.6-6.6-14.5-11.4c-3.1-3.8-3.3-9.3-2.3-14.2c1-4.8,3.1-9.4,4.1-14.3c0.3-1.4,0.5-2.9-0.1-4.2C134.8,205.9,131,204,129.8,204.7"/>
		<path style="fill:#F9F9DA;" d="M125,216.9c-10.1,5.3-15.9,17.3-13.9,28.6c0.4,2.3,1.1,4.5,2.4,6.4c2.9,4.2,8.5,5.8,13.5,5.2c2.8-0.3,5.7-1.4,7.6-3.5c1.9-2.1,2.7-5.4,1.3-7.9c-1.9-3.3-6.5-4-8.9-7c-1.9-2.4-2-5.7-1.4-8.7c0.6-3,1.9-5.8,2.5-8.8c0.2-0.9,0.3-1.8-0.1-2.6c-0.4-0.8-1.9-2.3-2.7-1.9L125,216.9z"/>
		<path style="fill:#FBF2D0;" d="M184.3,136.3c7.7,0.1,15.5,0.2,23.2,0.3c-6.7,3.6-11.6,9.9-15.3,16.4c-1.9,3.5-3.6,7.4-3.2,11.2c0.3,2.6,1.6,5,3.1,7.1c2.9,4.2,7.7,8.4,12.8,6.9c2.8-0.8,4.9-3,6.7-5.3c4.2-5.1,7.8-10.7,9.6-16.9c1.8-6.2,1.8-13-1.2-18.6c-3-5.6-9.1-9.6-15.6-9.3c-3,0.1-5.9,1.1-8.7,2.3c-3.3,1.4-6.4,3.1-9.4,5.1"/>
		<path style="fill:#4A3316;" d="M195.4,130.3c2,7,5.3,13.5,9.7,19.3c0.5,0.7,1.1,1.4,2,1.4c0.6,0,1.2-0.3,1.7-0.6c3.7-2.3,6.6-5.8,8.4-9.7c1.1-2.5,1.8-5.6,0.2-7.8c-0.8-1.1-2-1.8-3.3-2.4c-5.6-2.7-12-3.4-18.1-2.1"/>
		<path style="fill:#928F8C;" d="M197.4,164.9c1.8,0,1.8-2.8,0-2.8C195.6,162.1,195.6,164.9,197.4,164.9L197.4,164.9z"/>
		<path style="fill:#928F8C;" d="M211.9,162.1c1.8,0,1.8-2.8,0-2.8C210.1,159.3,210.1,162.1,211.9,162.1L211.9,162.1z"/>
		<path style="fill:#928F8C;" d="M203.9,153.5c-0.2-0.2-0.5-0.5-0.7-0.7c-1.3-1.3-3.3,0.7-2,2c0.2,0.2,0.5,0.5,0.7,0.7C203.2,156.8,205.2,154.8,203.9,153.5L203.9,153.5z"/>
		<path style="fill:#EBD0B1;" d="M136.4,164.3c1.6,0.9,3.2,1.8,4.9,2.7c2.8,1.6,5.3-2.7,2.5-4.3c-1.6-0.9-3.2-1.8-4.9-2.7C136.1,158.4,133.6,162.7,136.4,164.3L136.4,164.3z"/>
		<path style="fill:#EBD0B1;" d="M156.6,181.3c-0.2-1.8-0.4-3.7-0.5-5.5c-0.1-1.3-1-2.5-2.5-2.5c-1.2,0-2.6,1.1-2.5,2.5c0.2,1.8,0.4,3.7,0.5,5.5c0.1,1.3,1,2.5,2.5,2.5C155.3,183.7,156.7,182.6,156.6,181.3L156.6,181.3z"/>
		<path style="fill:#654137;" d="M148.6,160.4C148.6,160.5,148.6,160.5,148.6,160.4c0.1-0.5,0.2-1,0.2-1.6c0,0,0,0,0,0c0.3-0.3,0.5-0.5,0.8-0.8c0,0,0,0,0,0c0.4-0.1,0.7-0.2,1.1-0.3c0.4,0.1,0.6,0.1,0.4,0c0.3,0.2,0.6,0.4,0.9,0.5c0,0,0,0,0,0c0.2,0.3,0.4,0.6,0.5,0.9c0,0,0,0,0,0c-0.1,0.5-0.1,1.1-0.2,1.6c0,0,0,0,0,0c0.3-0.4,0.3-1.2,0.2-1.6c-0.1-0.5-0.5-1-1-1.3c-1.1-0.6-2.2-0.2-2.9,0.8c-0.5,0.6-0.4,1.6,0,2.2c0.3,0.5,0.8,0.9,1.4,1c0.7,0.2,1.6,0,2.2-0.6c0.5-0.6,0.8-1.4,0.5-2.1c-0.4-1-1.4-1.8-2.6-1.5C149.1,158.2,148.2,159.3,148.6,160.4L148.6,160.4z"/>
		<path style="fill:#654137;" d="M158.7,169.9c-0.1,0.1-0.2,0.2-0.3,0.3c-0.8,0.8-0.8,2.2,0,3c0.8,0.8,2.1,0.8,3,0c0.1-0.1,0.2-0.2,0.3-0.3c0.8-0.8,0.8-2.2,0-3C160.9,169.1,159.6,169.1,158.7,169.9L158.7,169.9z"/>
		<path style="fill:#231815;" d="M150,162.7c3.2,0,3.2-5,0-5C146.8,157.7,146.8,162.7,150,162.7L150,162.7z"/>
		<path style="fill:#231815;" d="M160.4,173.1c3.2,0,3.2-5,0-5C157.2,168.1,157.2,173.1,160.4,173.1L160.4,173.1z"/>
		<path style="fill:#FFFFFF;" d="M150.6,160.2c1.6,0,1.6-2.5,0-2.5C149,157.7,149,160.2,150.6,160.2L150.6,160.2z"/>
		<path style="fill:#FFFFFF;" d="M160.4,171.2c1.6,0,1.6-2.5,0-2.5C158.8,168.7,158.8,171.2,160.4,171.2L160.4,171.2z"/>
		<path style="fill:#923941;" d="M353.9,80.5c31.9-20.5,64.3-40.4,97-59.7c1.3,1.7,2.6,3.4,4,5.1c-29.9,18-59.8,36-89.8,53.9c-2.9,1.7-7.3,3.2-9.2,0.6"/>
		<path style="fill:#571520;" d="M335.4,92.2c31.9-20.5,64.3-40.4,97-59.7c1.3,1.7,2.6,3.4,4,5.1c-29.9,18-59.8,36-89.8,53.9c-2.9,1.7-7.3,3.2-9.2,0.6"/>
		<path style="fill:#908A85;" d="M432.2,113.7c-8.4-9.2-22.6-11.6-34-14.3c-17.5-4.2-35.3-7-53.2-8.7c-1.6-0.1-1.6,2.3,0,2.5c17.7,1.7,35.2,4.5,52.5,8.6c5.4,1.3,10.8,2.5,16.1,4.2c-0.2,0-0.5,0-0.7,0.1c-2.9,1.5-5.7,3-8.6,4.6c-1.4-2.4-3-4.6-4.8-6.8c-1-1.2-2.8,0.5-1.8,1.8c1.6,2,3.1,4.1,4.4,6.2c-3,1.6-5.9,3.2-8.8,4.9c-1.8-3.5-4-7-6.4-10.2c2-1.1,3.9-2.2,5.9-3.3c1.4-0.8,0.2-2.9-1.3-2.2c-2.1,1.1-4.1,2.3-6.2,3.5c-1.1-1.3-2.2-2.7-3.4-3.9c-1.1-1.2-2.9,0.6-1.8,1.8c1,1.1,2,2.2,3,3.4c-2.1,1.2-4.1,2.4-6.2,3.6c-1.5-2.7-3.1-5.3-4.8-7.8c0.6-0.3,1.2-0.6,1.9-0.8c1.5-0.6,0.2-2.8-1.3-2.2c-4.1,1.8-8,3.7-11.9,5.8c-1-2.5-2.1-4.9-3.3-7.3c-0.7-1.4-2.9-0.2-2.2,1.3c1.2,2.4,2.3,4.8,3.3,7.2c-3.8,2.2-7.4,4.5-11,7c-1.3,0.9-0.1,3.1,1.3,2.2c3.5-2.5,7-4.7,10.7-6.8c1.3,3.2,2.4,6.5,3.3,9.8c-3.5,2.2-7,4.4-10.4,6.7c-0.2,0-0.5,0.1-0.7,0.3c-0.4,0.3-0.7,0.6-1.1,0.9c-1.1,0.9,0.3,2.7,1.5,2c3.8-2.5,7.6-4.9,11.4-7.3c1.1,4.2,2,8.4,2.6,12.6c-3.7,2.4-7.5,4.8-11.1,7.3c-1.3,0.9-0.1,3,1.3,2.2c3.4-2.3,6.8-4.5,10.2-6.7c0.7,5.4,1,10.8,1,16.2c-2.9,1.9-5.9,3.9-8.8,5.9c-1.3,0.9-0.1,3.1,1.3,2.2c2.5-1.7,4.9-3.3,7.4-5c-0.2,4.9-0.7,9.8-1.4,14.6c-0.3,1.6,2.1,2.2,2.4,0.7c0.9-5.6,1.4-11.3,1.5-16.9c4.9-3.2,9.9-6.4,14.8-9.5c0.5,5.9,0.5,11.9-0.2,17.9c-0.2,1.6,2.3,1.6,2.5,0c0.8-6.5,0.8-13,0.1-19.4c3.3-2.1,6.7-4.1,10.1-6.2c1,5.4,1.4,10.9,1.1,16.5c-0.1,1.6,2.4,1.6,2.5,0c0.3-6-0.1-12-1.3-17.8c3.1-1.8,6.2-3.7,9.2-5.5c0.4,2.2,0.8,4.4,0.9,6.7c0.1,1.2,0.7,7.1,0.2,8.9c-0.1,0-0.1,0.1-0.2,0.1c-0.1,0-0.1,0.1-0.2,0.1c-0.6,0.3-0.8,1.1-0.4,1.7c0.1,0.1,0.1,0.2,0.2,0.3c0.3,0.5,1.2,0.9,1.7,0.4c1.9-1.4,1.4-4.6,1.4-6.6c0.1-4.3-0.3-8.6-1.2-12.9c3.2-1.9,6.5-3.7,9.7-5.5c2,4.3,3,9.1,2.8,14c0,1.6,2.4,1.6,2.5,0c0.2-5.4-1-10.5-3.2-15.2c2.6-1.5,5.3-2.9,7.9-4.3c0.2-0.1,0.3-0.2,0.4-0.3c2.7,3.3,4.2,7.2,2.8,11.5c-2.3,6.8-11.8,12.4-17.3,16.4c-6.4,4.8-13.1,9.2-20.1,13.3c-13.7,8.1-28.3,14.8-43.4,20c-1.5,0.5-0.9,2.9,0.7,2.4c26.6-9.1,51.4-22.8,73.1-40.7c4-3.2,8.6-6.9,9.7-12.2C438,122.3,435.4,117.3,432.2,113.7z M384.7,107.8c2.5,3.2,4.6,6.6,6.4,10.2c-2.8,1.6-5.5,3.2-8.2,4.8c-1.3-3.8-2.9-7.5-4.8-11.2C380.3,110.3,382.5,109.1,384.7,107.8z M361.8,106.8c2.6-1.5,5.3-2.8,8-4.1c1.8,2.6,3.4,5.3,4.9,8c-3.2,1.9-6.4,3.8-9.6,5.8C364.2,113.2,363,110,361.8,106.8z M365.8,119c3.3-2.1,6.7-4.1,10.1-6.1c1.9,3.6,3.4,7.4,4.7,11.2c-4.1,2.4-8.1,4.9-12.1,7.5C367.9,127.3,367,123.1,365.8,119z M370.1,150.3c0-5.4-0.4-10.8-1.1-16.1c4.1-2.6,8.3-5.2,12.5-7.7c1.5,4.7,2.5,9.6,3.1,14.5C379.7,144.1,374.9,147.2,370.1,150.3z M386.9,139.6c-0.7-4.9-1.8-9.7-3.2-14.4c2.8-1.7,5.7-3.3,8.5-5c2,4.3,3.5,8.7,4.6,13.3C393.5,135.5,390.2,137.5,386.9,139.6z M399.1,132.2c-1.1-4.5-2.7-9-4.7-13.2c3-1.7,6-3.3,9-5c1.9,3.5,3.5,7.2,4.6,11.1c0.2,0.5,0.3,1.1,0.4,1.7C405.2,128.5,402.1,130.4,399.1,132.2z M410.6,125.4c-1.2-4.4-2.9-8.6-5.1-12.6c1.7-0.9,3.4-1.8,5.1-2.7c0.1,0.1,0.1,0.1,0.2,0.2c3.8,2.7,6.8,6.1,9,9.9C416.7,121.9,413.6,123.7,410.6,125.4z M413,108.9c0.4-0.2,0.7-0.4,1.1-0.6c1-0.5,0.7-1.8-0.1-2.2c2,0.7,4,1.4,5.9,2.2c3.1,1.4,6.9,3.6,9.8,6.4c-2.6,1.4-5.2,2.8-7.8,4.3C419.7,115.1,416.7,111.7,413,108.9z"/>
		<path style="fill:#2C2D2D;" d="M360.1,145.7c-2.4-9.8-5.9-19.2-7.8-29.2c-1.8-9.4-3.5-18.9-8.3-27.3c-1.4-2.4-4.8-0.8-4.6,1.5c-0.7-0.1-1.4,0.1-2,0.8c-11.2,12.8-25.6,25.6-31.5,41.9c-5.3,14.5-3.4,31.4,7.5,42.8c9.1,9.5,25.5,15.1,37.3,6.9C362.6,174.8,363.2,158.5,360.1,145.7z M355.1,168.9c-3.2,8.9-10.9,13.9-20.4,12.9c-19-2-29.1-21.9-26.1-39.3c1.7-9.8,6.7-18,13.1-25.5c6.3-7.5,12.8-14.7,19.3-22.1c0.1-0.1,0.2-0.2,0.3-0.4c3.4,7.3,4.8,15.3,6.3,23.3c1.7,9.1,4.8,17.7,7.2,26.6C356.8,152.6,358,160.9,355.1,168.9z"/>
		<path style="fill:#767777;" d="M354.5,152.4c-1.4-1.7-3-1.9-5.1-2c-2.1-0.1-4.3,0-6.5,0.1c-0.9-6.1-1.5-12.2-1.9-18.4c1.3-0.3,2.5-0.6,3.8-0.9c1.6-0.4,0.9-2.8-0.7-2.4c-1.1,0.2-2.2,0.5-3.3,0.8c-0.1-2.6-0.2-5.3-0.3-7.9c0.9-0.2,1.8-0.4,2.7-0.6c1.6-0.3,0.9-2.7-0.7-2.4c-0.7,0.1-1.4,0.3-2.1,0.5c0-0.5,0-1,0-1.4c0-1.6-2.5-1.6-2.5,0c0,0.7,0,1.4,0,2.1c-0.5,0.1-1,0.3-1.5,0.4c0.9-3,1.8-5.9,2.7-8.9c0.5-1.5-1.9-2.2-2.4-0.7c-1.1,3.4-2.1,6.9-3.1,10.4c-3.5,1.1-6.9,2.4-10.3,3.9c-1.5,0.6-0.2,2.8,1.3,2.2c2.7-1.2,5.4-2.2,8.2-3.1c-0.8,2.8-1.5,5.6-2.2,8.4c-1.6,0.5-3.3,1-4.9,1.6c-3.9,1.3-8.5,2.2-11,5.8c-0.9,1.3,1.2,2.6,2.2,1.3c2.3-3.2,8.8-4.7,13.2-5.8c-1.2,5.6-2.1,11.2-2.5,16.8c-2,0.2-3.9,0.5-5.8,0.7c-2.2,0.3-3.9,0.3-5.1,2.2c-0.9,1.3,1.3,2.6,2.2,1.3c1.2-1.8,6.3-1.5,8.6-1.7c-0.1,3.4-0.1,6.8,0.2,10.2c-1.1,0.2-2.2,0.4-3.3,0.6c-1.6,0.3-0.9,2.7,0.7,2.4c1-0.2,1.9-0.4,2.9-0.6c0.2,2,0.6,4.1,1,6.1c0.3,1.6,2.7,0.9,2.4-0.7c-0.4-1.9-0.7-3.9-1-5.8c4.3-0.7,8.6-1,12.9-1.1c0.7,2.9,1.5,6.1,2.2,8.3c-0.1,0-0.1,0.1-0.2,0.1c-0.1,0.1-0.2,0.1-0.2,0.2c-0.4,0.3-0.8,0.9-0.6,1.4c0.3,0.8,0.5,1.2,1.4,1.4c0.5,0.1,1.1-0.1,1.4-0.6c1.4-2.5-0.6-6.3-1.2-8.9c-0.1-0.6-0.3-1.2-0.4-1.9c0.3,0,0.6,0,0.9,0c1.6,0,1.6-2.5,0-2.5c-0.5,0-1,0-1.5,0c-0.7-3.5-1.4-6.9-1.9-10.4c4-0.4,8.1-0.3,9.4,1.4C353.7,155.4,355.4,153.6,354.5,152.4z M335.8,123c0.8-0.2,1.6-0.5,2.4-0.7c0,2.6,0.1,5.3,0.3,7.9c-1.7,0.4-3.3,0.9-4.9,1.3C334.2,128.7,335,125.9,335.8,123z M332.8,134.4c1.9-0.6,3.8-1.1,5.7-1.6c0.3,4.8,0.8,9.6,1.4,14.4c0.2,1.2,0.3,2.3,0.5,3.5c-2,0.2-3.9,0.4-5.8,0.5c-1.5,0.1-3,0.3-4.5,0.5C330.5,145.9,331.5,140.1,332.8,134.4z M342,159.8c0.1,0.4,0.4,1.7,0.8,3.4c-4.2,0.1-8.4,0.4-12.5,1.1c-0.3-3.4-0.3-6.7-0.2-10c1.9-0.2,3.8-0.4,5.7-0.5c1.1-0.1,3-0.4,5.1-0.7C341.1,155.2,341.5,157.5,342,159.8z"/>
	</symbol>
	<symbol id="euthanasia" viewBox="0 0 326 300">
		<path style="opacity:0.46;fill:#343535;" d="M311.2,215c3.9,1.4,7.4,4.1,9.6,7.7c0.7,1.2,1.3,2.6,1,3.9c-0.5,2.3-3.4,3.2-5.8,3.6c-9.2,1.3-18.7,0.8-27.8,3c-9.1,2.2-18.1,8.2-20.2,17.3c-2.3,9.8,8.9,9.5,17.3,15.1c8.4,5.6,18.4,8.2,27.5,12.6c2.2,1.1,3.9,2.8,5,5c3.5,7.3-5.9,17.3-17.5,16.3c-6.7-0.5-6.7,1.4-13.3-0.2c-16.9-4-25-13.7-37.5-25.8c-1.9-1.9-3.9-3.9-6.4-4.8c-2.3-0.9-4.9-0.8-7.3-0.7c-35,1.6-77.7,7-112.7,5.5c-9.6-0.4-19.3-1.3-28.6-3.9c-13.4-3.9-25.9-11.6-39.8-12.9c-2.1-0.2-4.3-0.2-6.4,0.3c-2.6,0.6-4.9,2.1-7.2,3.3c-8,4.2-17.4,5.8-26.4,4.4c-2.3-0.3-4.9-1.1-6-3.2c-0.7-1.3-0.6-2.9-0.2-4.4c1.7-7.6,8.4-12.9,15.1-16.7c9.4-5.3,19.8-8.6,30.4-11c12.4-2.8,25-4.1,37.6-5.5c21.1-2.3,42.2-4.6,63.4-4.8c15.4-0.1,30.8,1,46.1-0.5c18.8-1.8,37-7.5,55.7-10.4c18.7-2.8,38.8-2.5,55.2,6.8"/>
		<path style="fill:#E0D3AB;" d="M58.6,232c0.6-4.4,2.5-8.3,4.5-12.1c6.1-12.1,13.3-24.5,24.4-30.5c4.8-2.6,10-3.8,15.2-5c6.6-1.5,13.2-3.1,19.9-3.8c17.3-2,34.7,1.4,51.7,5.6c22.9,5.7,46.6,13.8,62.8,32.8l-1.9-2.8c6.1,4.2,11.6,10.3,13.6,18.1c2,7.8-0.3,17.3-6.6,21.2c-1.9,1.2-4.1,1.8-6.2,2.4c-8.2,2.2-16.5,3.8-24.9,4.3c1.7-6.2,0.1-13.3-4.2-18.2c-4.4-5.1-11.6-7.6-18.3-6.4c-6.7,1.2-12.4,5.8-19.1,7.2c-4.2,0.9-9.2,0.8-11.7,4.2c-1.6,2.2-1.6,5.4-0.5,7.9c0.6,1.3,1.4,2.4,2.4,3.5c-2.2,0.6-4.4,1.1-6.6,1.5c-6,1-12,0.7-18,0.2c-8.4-0.8-16.7-2.2-24.9-4.1c1.1-2,2-4.1,2.4-6.4c0.8-4,0.2-8.3-2.2-11.6c-2.4-3.3-6.7-5.2-10.6-4.3c-2,0.4-3.8,1.6-5.5,2.8c-3,2.1-5.7,4.6-8.1,7.3c-1.1,1.2-2.2,2.5-2.8,4.1c0,0,0,0,0,0c-6.3-2.4-12.5-5.1-18.6-8.1c-2.5-1.3-5.3-2.9-6.1-5.9C58.4,234.5,58.4,233.3,58.6,232z"/>
		<path style="fill:#815D33;" d="M261,214c8.1-4.2,16.2-8.4,24.4-12.6c5.1-2.6,10.4-5.3,16.1-5.4c4.6-0.1,9,1.6,13.3,3.2c4.3,1.6,9,3.7,10.7,8c1.7,4.4-0.9,9.6-4.9,12.1c-4,2.5-9,2.8-13.7,2.3c-4.7-0.5-9.3-1.7-14-1.9c-8.4-0.4-16.9,2.4-25.2,1.3c-1.8-0.2-3.6-0.7-5-1.8c-1.4-1.1-2.3-3-1.7-4.7"/>
		<path style="fill:#E0D3AB;" d="M181.7,199.5c1-5.9,2-12,1.5-18c-0.5-6-2.7-12.1-6.9-15.5c-3.2-2.6-7.2-3.2-11-3.9c-2.7-0.4-5.5-0.9-8.2-1.3c-1.4-0.2-2.7-0.4-4.1-0.1c-1,0.3-2,0.9-2.8,1.7c-2,1.8-3.3,4.6-3.4,7.6c-0.1,3,1.3,6,3.5,7.3c2.8,1.6,6.3,0.1,8.5-2.4c0.4-0.5,0.9-1.1,1.5-1.2c0.5-0.2,1.1,0,1.6,0.2c2.5,0.8,5.1,1.6,7.6,2.5c0.6,0.2,1.1,0.4,1.5,0.9c0.4,0.5,0.5,1.2,0.6,1.8c0.6,5.1-2.1,10.8,0,15.3c1.6,3.4,5.2,4.4,8.4,4.5"/>
		<path style="fill:#E0D3AB;" d="M133.4,191.6c5.5-3.6,7.9-13.1,5.2-20c-2.4-6.1-8-9.5-13.4-9.7s-10.7,2.1-15.6,4.9c2.3-2.4,4.2-5.4,5.2-8.9c0.9-3.5,0.7-7.7-1-10.7c-1.9-3.3-5.3-4.8-8.5-5.2c-6.2-0.9-13.7,2.4-15.2,10.1c-0.4,2.1-0.1,4.8,1.4,5.8c0.7,0.5,1.6,0.4,2.4,0.4c4.1-0.3,8.3-1.1,12.2-2.6c-4,8.7-8.1,17.5-12.1,26.2c-0.5,1.2-1.1,2.5-0.9,3.9c0.4,2.1,2.4,3,4,3.3c12.1,2.9,24.5,3.4,36.7,1.7"/>
		<path style="fill:#DDAF79;" d="M204.1,199.6c0.1-0.8-0.3-1.6-0.7-2.3c-3-5.5-9.3-7.2-14.9-8.5c-28.6-6.4-58.2-12.5-86.8-6.2c-5.5,1.2-11.2,3-15.6,6.9c-4.5,3.9-7.5,10.5-6.3,16.7c0.9,4.6,4,8.4,7.4,11.1c11.6,9.4,26.9,9.3,41.1,8.8c13.7-0.5,27.3-0.9,41-1.4c7.8-0.3,16.3-0.9,21.9-6.9C196.3,212.3,199.3,205.6,204.1,199.6"/>
		<path style="fill:#E0D3AB;" d="M167.6,238.7c2.6-5.3,5.2-10.7,6.3-16.6c1.1-5.9,0.5-12.5-2.9-17.2c-2.6-3.6-6.4-5.6-10.1-7.6c-2.7-1.4-5.3-2.8-8-4.2c-1.3-0.7-2.7-1.4-4.1-1.5c-1.1-0.1-2.2,0.2-3.2,0.6c-2.5,1.1-4.6,3.2-5.4,6.1c-0.9,2.8-0.3,6.2,1.7,8.2c2.4,2.5,6.3,2.3,9.2,0.7c0.6-0.3,1.2-0.7,1.8-0.7c0.6,0,1.1,0.4,1.6,0.7c2.4,1.7,4.7,3.4,7.1,5.1c0.5,0.4,1.1,0.8,1.3,1.4c0.3,0.6,0.2,1.3,0.1,1.9c-0.8,5.1-5,9.5-4,14.6c0.7,3.8,4.1,6.1,7.4,7.3"/>
		<path style="fill:#E0D3AB;" d="M126.2,206.3c-3.9-9.4-12.9-14.5-21.7-14.9c-8.7-0.4-17.2,3.2-25.2,7.5c3.7-3.6,6.8-8.2,8.4-13.6c1.5-5.4,1.2-11.8-1.6-16.4c-3.1-5.1-8.5-7.3-13.7-8c-10-1.4-22.1,3.7-24.5,15.5c-0.7,3.3-0.2,7.4,2.3,8.9c1.2,0.7,2.6,0.7,3.9,0.6c6.7-0.4,13.3-1.7,19.7-3.9c-6.5,13.4-13,26.8-19.5,40.2c-0.9,1.8-1.8,3.9-1.4,5.9c0,0.1,0,0.2,0.1,0.2c-8.1-0.4-16.3,0.5-24.3,2.4c-8.9,2.1-18,5.8-23.6,13.8c-2.8,4.1-4.6,9.2-4.9,14.3c-0.2,3.3,0.2,6.9,2.2,9.5c1.9,2.5,5.7,3.5,7.9,1.3c1.3-1.2,1.8-3.1,2.2-5c0.6-3,1-6.1,1-9.2c1.9,5.3,5.8,9.7,10.5,11.7c1.3,0.6,2.7,1,4,0.7c2.5-0.5,4.2-3.3,4.6-6.1c0.4-2.8-0.2-5.7-0.9-8.4c1.7,0.7,2.2,3.2,3.7,4.4c1.9,1.5,4.7,0.1,5.8-2.1c1.2-2.2,1.2-5,1.1-7.6c1.3,1.1,2.8,2.3,4.4,2.3c1.6,0,3.3-1.9,2.7-3.6c4.3,3,10.1,3.2,14.6,0.6c4-2.3,7-6.9,7.8-11.9c15.4,2.3,31.1,2.4,46.6,0.3l-0.7,1.2C126.7,231.5,130.7,216.9,126.2,206.3z"/>
		<path style="fill:#EA5F5F;" d="M209,167.5c-2.2-1.4-5.1-0.4-7.3,0.9c-3.6,2.2-6.8,5.1-9.2,8.7c-1.3,1.9-2.3,4.1-2,6.3c0.3,2.2,2.6,4.3,4.8,3.5c1.1-0.4,1.9-1.3,2.6-2.2c2.5-3,4.9-6,7.4-9.1c1.9-2.3,3.9-4.8,4.4-7.7"/>
		<path style="fill:#E0D3AB;" d="M216.5,261.1c0,0,49.8,1.5,63.3-23.9c13.5-21.3,0.6-60.3-20.6-73.4c-12-8.3-26.7,4-28.6-6.3c-1.8-10.3-35.5-4.8-30,13.2C206.2,188.7,216.5,261.1,216.5,261.1z"/>
		<path style="fill:#815D33;" d="M261.6,233.6c5.4,8.1,4.3,14.2,10.5,18.1c6.2,3.9,13.7,5.3,20.9,6.5c7.2,1.2,14.7,2.3,21.2,5.7c4,2.1,8,6,7.1,10.5c-1,5.1-5.2,13.6-10.3,14.3c-12,1.6-11.8,0.6-23.6-0.1c-3.8-0.2-7.8-3.3-11-5.2c-3.8-2.2-5.5-5.2-9.2-10.6c-5-7.2-6-9.2-10.8-15.2c-2.6-3.2-5.5-6.3-6.6-10.3C247.8,240,251.6,230.1,261.6,233.6"/>
		<path style="fill:#231815;" d="M264.1,212.4c-1.3-1.1-2.6-2.2-4-3.3c0.9-0.8,1.9-1.7,2.8-2.5c1.9-1.7-0.9-4.5-2.8-2.8c-1.1,1-2.2,1.9-3.3,2.9c-2.5-1.7-5.1-3.3-7.8-4.7c-2.3-1.2-4.3,2.3-2,3.4c2.3,1.2,4.6,2.5,6.7,4c-1.6,1.4-3.2,2.9-4.9,4.3c-1.9,1.7,0.9,4.5,2.8,2.8c1.8-1.6,3.6-3.2,5.4-4.8c1.4,1.1,2.8,2.2,4.2,3.4C263.2,216.9,266,214.1,264.1,212.4z"/>
		<path style="fill:#231815;" d="M283.4,200.7c-0.5-0.3-1-0.7-1.5-1c0.7-0.9,1.4-1.8,2.1-2.7c0.7-0.9,0.1-2.2-0.7-2.7c-1-0.6-2.1-0.1-2.7,0.7c-0.6,0.8-1.3,1.7-1.9,2.5c-1.2-0.8-2.3-1.5-3.5-2.3c-2.1-1.4-4.1,2-2,3.4c1,0.7,2,1.4,3,2c-0.3,0.5-0.7,0.9-1,1.4c-0.7,0.9-0.1,2.2,0.7,2.7c1,0.6,2.1,0.1,2.7-0.7c0.3-0.4,0.6-0.8,0.9-1.2c0.7,0.4,1.3,0.9,2,1.3C283.5,205.6,285.5,202.1,283.4,200.7z"/>
		<path style="fill:#5FC2EF;" d="M234.3,207.3c0.4,4.3,1.3,8.5,2.7,12.5c1.2,3.4,2.8,6.8,2.5,10.3c-0.2,3.6-3.1,7.3-6.6,6.9c-2.4-0.3-4.3-2.4-5-4.8c-0.7-2.3-0.4-4.8,0.1-7.2c1.2-6.7,3.5-13.3,6.6-19.4"/>
		<path style="fill:#FBEAB6;" d="M228,164.5c0.2,1.2,0.5,2.3,0.7,3.5c0.3,1.6,0.7,3.1,0.6,4.7c-0.2,4.2-3.3,8-7.1,9.9c-3.8,1.9-8.2,2.3-12.4,2.1c1.1,1.2,2.2,2.6,2.5,4.2c0.3,1.6-0.7,3.6-2.3,3.7c-2,0.2-3.2-2.2-3.8-4.1c-1.9-6.4-3.7-12.7-5.4-19.2c-0.5-1.8-0.9-3.6-0.8-5.4c0.3-3.3,2.7-6.1,5.5-7.8c2.8-1.7,6.1-2.4,9.3-3.1c2.6-0.6,5.5-1.1,7.8,0.2c0.9,0.5,1.7,1.3,2.3,2.1c2,2.5,3.1,5.8,2.9,9.1"/>
		<path style="fill:#231815;" d="M229.4,151.4c2.4,2.9,3.8,6.5,4.1,10.3c0.1,0.8,0,1.8-0.6,2.3c-0.4,0.3-1,0.4-1.5,0.4c-5.5,0-10.8-3.7-12.6-8.9c-0.4-1-0.6-2.3,0.1-3.1c0.6-0.7,1.5-0.9,2.4-1.1c3.1-0.5,3.2-0.8,6.3-0.5"/>
		<path style="fill:#DDAF79;" d="M124.3,193.9c-0.3,0,0.5,0,0.5,0c-0.2,0,0.4,0.1,0.5,0.1c0.4,0.1,0.4,0.2,0.7,0.6c0.2-1.3,0.3-2.6,0.5-3.9c-0.7,0.4-1.4,0.3-2-0.5c0.2,0.8,0.4,1.6,0.6,2.4c0.1-0.5-0.3,0.4-0.5,0.5c-0.5,0.3-1.1,0-1.5-0.3c1.1,0.8,2.5,1,3.5,0c0.9-0.9,1.1-2.7,0-3.5c-1.4-1.1-3-1.4-4.6-0.5c-1.7,1-2.5,3.3-1.2,4.9c2,2.3,5.5,2.8,8.1,1.3c1.5-0.9,1.5-2.7,0.5-3.9c-1.6-2-4.2-2.4-6.6-2c-1.3,0.2-2.1,1.9-1.7,3.1C121.7,193.6,123,194.1,124.3,193.9L124.3,193.9z"/>
		<path style="fill:#231815;" d="M124.2,189.3c1-0.2,1.9,0.1,2.7,0.6c-0.2-0.9-0.5-1.8-0.7-2.7c-0.2,0.3-0.3,0.4-0.6,0.4c-0.1,0-0.3,0-0.4,0c0.4,0-0.2-0.1,0,0c0.2,0.1-0.3-0.1-0.3-0.2c0.1,0.1,0.2,0.3,0,0c-0.1,0.8-0.2,1.6-0.3,2.4c-0.3,0.2-0.6,0.2-0.9,0.1c0.9,0.6,2.2,0.2,2.7-0.7c0.6-1,0.2-2.1-0.7-2.7c-1.2-0.8-2.9-0.6-3.9,0.5c-0.6,0.6-0.8,1.6-0.3,2.4c1.8,2.9,6.6,3,8.2-0.2c0.5-1,0.2-2.1-0.7-2.7c-1.7-1.2-3.8-1.4-5.8-1c-1.1,0.2-1.7,1.5-1.4,2.4C122.1,189,123.2,189.5,124.2,189.3L124.2,189.3z"/>
		<path style="fill:#DDAF79;" d="M220.9,169.7c-0.2,0.5-0.4,0.9-0.5,1.4c-0.2,0.5,0,1.1,0.2,1.5c0.2,0.4,0.7,0.8,1.2,0.9c1.1,0.3,2-0.3,2.4-1.4c0.2-0.5,0.4-0.9,0.5-1.4c0.2-0.5,0-1.1-0.2-1.5c-0.2-0.4-0.7-0.8-1.2-0.9C222.2,168.1,221.4,168.7,220.9,169.7L220.9,169.7z"/>
		<path style="fill:#DDAF79;" d="M216.8,161.8c-0.3,0-0.6,0-0.9,0c-1,0-2,0.9-2,2c0,1.1,0.9,2,2,2c0.3,0,0.6,0,0.9,0c1,0,2-0.9,2-2C218.8,162.7,217.9,161.8,216.8,161.8L216.8,161.8z"/>
		<path style="fill:#DDAF79;" d="M214,175.5c-1.6-1.5-2.3-1.9-2.1-1.1c-0.1-0.2-0.1-0.4,0-0.5c0-0.2,0-0.2,0-0.1c0.1-0.3,0.2-0.4,0.1-0.2c-0.2,0.3-0.3,0.7-0.4,1.1c-0.3,1.3,0.5,2.7,1.9,2.9c1,0.1,1.9-0.4,2.3-1.2c0.4-0.6,0.3-1.4,0-2.1c-0.4-0.7-1.1-1-1.8-1c-1-0.1-2,1-2,2c0.1,1.1,0.9,1.9,2,2c-0.1,0-0.3,0-0.4-0.1c-0.3-0.2-0.6-0.3-0.9-0.5c0,0,0,0,0,0c-0.2-0.3-0.3-0.6-0.5-0.9c0,0,0,0,0,0c0-0.4,0-0.7,0-1.1c0.1-0.3,0.2-0.5,0.4-0.7c0.9-0.9,1.9-0.4,2.9,1.5c0.1-0.2,0-0.1-0.1,0.1c0-0.1,0.1-0.1,0.1-0.2c0.2-0.5,0.4-1,0.4-1.5c0-0.6-0.3-1.3-0.7-1.8c-0.6-0.6-1.4-0.7-2.2-0.6c-0.5,0.1-1,0.5-1.2,0.9c-0.2,0.4-0.4,1.1-0.2,1.5c0.2,0.5,0.5,0.9,0.9,1.2C213,175.5,213.5,175.5,214,175.5L214,175.5z"/>
		<path style="fill:#DDAF79;" d="M206.8,163.7c-0.2,0.3-0.3,0.6-0.5,0.9c-0.5,0.9-0.3,2.2,0.7,2.7c0.9,0.5,2.2,0.3,2.7-0.7c0.2-0.3,0.3-0.6,0.5-0.9c0.5-0.9,0.3-2.2-0.7-2.7C208.6,162.5,207.3,162.7,206.8,163.7L206.8,163.7z"/>
		<path style="fill:#815D33;" d="M157.3,256.8c-1.1-2.5-1.2-5.7,0.5-7.9c2.5-3.4,7.5-3.4,11.7-4.2c6.7-1.4,12.4-6,19.1-7.2c6.7-1.2,13.8,1.4,18.3,6.4c4.3,4.9,5.8,11.9,4.2,18.2c-5,0.3-10.1,0.2-15.1-0.5c-9.1-1.2-18.2-4.2-27.4-3.2c-3,0.3-5.9,1.1-8.8,1.9C158.8,259.3,157.9,258.1,157.3,256.8z"/>
		<path style="fill:#815D33;" d="M86.1,245.7c2.4-2.7,5.2-5.2,8.1-7.3c1.7-1.2,3.5-2.3,5.5-2.8c4-0.9,8.2,1.1,10.6,4.3c2.4,3.3,3,7.6,2.2,11.6c-0.4,2.2-1.3,4.4-2.4,6.4c-9.1-2.1-18.1-4.8-26.8-8.1c0,0,0,0,0,0C84,248.2,85,246.9,86.1,245.7z"/>
		<path style="opacity:0.76;fill:#424242;" d="M124.2,16.9c-1.4-4.9-2-10-0.8-15c0.2-0.7,0.4-1.4,1-1.7c0.7-0.4,1.5,0.1,2.1,0.7c3.6,2.9,6.9,6.1,10,9.6c6.2-1.8,12.8-2.1,19.3-1.5c11.9,1.2,23.8,5.6,32.4,13.9c4.8-1.9,9.8-3.4,14.9-4.5c0.8-0.2,1.9-0.3,2.5,0.3c0.5,0.5,0.4,1.3,0.3,2c-1.1,5.8-4.6,10.6-8.8,14.8c2.8,6.4,3.8,13.4,2.5,20.2c-2.4,11.8-12.9,21.9-24.9,22.3c-7.8,0.3-15.8-3.2-23.2-0.5c-1.8,0.7-3.8,2.1-3.7,4.1c0,1.9,1.9,3.3,3.6,4.3c3.7,2.2,7.4,4.4,11.2,6.6c2.5,1.5,5,3,6.6,5.3c1.6,2.4,2,5.8,0.1,8c-1.1,1.2-2.7,1.9-4.2,2.4c-9.7,3.2-20.1,4.1-30.2,2.6l-0.3,0.3c0.6-4.8,9.3-5.4,9.3-10.3c0-2.7-3-4.4-5.6-5.3c-5.2-1.8-10.9-3.3-14.7-7.3c-3.9-4-4.6-11.6,0.1-14.4c3.8-2.3,9.8-1,12-4.8c-1.7-8.3-12.9-10.2-18.3-16.7c-3.4-4.1-4.3-9.8-3.7-15.1C114.3,29.3,118.3,21.9,124.2,16.9z"/>
	</symbol>
	<symbol id="taiwan-map" viewBox="0 0 360 360">
		<path style="fill:#886B55;" d="M191.4,266.7l-2.8,0.9l-1.1,8.8l0.3,12.3l17.9,18.4l9,1.1l9,3l18.3,25.5l1,8l0.1,7.3l6.3-3.5l7.4,3.9l3.5-19.2l0.8-7.1l1.9-8.1l12.6-39l34.5-47.1l5.8-25.4l0.5-2.9l3.7-21.2l4.3-36.3l8.1-28.5l0.6-1.1l5.4-10.2l6.6-13.9c0,0-19.6-26.1,6.8-41.9c0-0.1-0.1-0.4-0.3-0.9c-0.3-0.9-1-2.3-1.7-4c-2.2-4.9-5.4-11.6-5.4-11.6l-12.5-3l-7.8,3.5l-3.5-4.3l-9.5-6.9L299.8,29l-6.1,12.5l0,0l-9,2.4l-3.9,1l-12,9.1l-10.2,7.7l-4.6,3.5l-2.8,7.3l-4.4,11.5l0,0l-2.3,6.2l-11.2,2.2l-10.9,23.5l-10.1,21.9l-0.3,0.7l-0.3,0.6l-14.9,31.7l-0.1,0.3l-2.7,6l-0.1-0.1l-5.1,10.8l-6.9,8.4l-1.1,9.9l-0.3,3c0,0.1,0,0.1,0,0.2l-1.9,16.1c0,0.3,0.2,0.6,0.5,0.8l1.4,0.4l0,0l0,0l-0.1,0.2l-1.8-0.6l-9.9,9l0,0v12.3l17.6,20.9l2.4-0.8 M253.4,201.1c0,0,0-0.1,0-0.1l0,0V201.1z M182.1,207.5c0,0-0.1,0-0.1,0C182,207.5,182.1,207.4,182.1,207.5L182.1,207.5z"/>
		<polygon style="fill:#85A454;" points="299.6,66.7 295.1,56 285.6,52.5 283.9,41.7 289,37 289,32.2 277.8,27.3 273.9,28.3 261.9,37.4 251.7,45.2 261.8,50.8 271.3,57.7 289.9,78 293.9,76.2 296.6,74.9 302,72.4"/>
		<path style="fill:#8EB052;" d="M238.9,107.9l7,3.9l8.1-4.3l6.1,4.3L277.6,97l-0.2,0.1l-4.5-9.1c0,0-14,3.9-14,2.6s-1.9-10.4-1.9-10.4l-8.6-7.8l-8.3-4.9l-2.3,6.2l-11.2,2.2l-10.9,23.5l16.1,10.6L238.9,107.9z"/>
		<path style="fill:#6A8744;" d="M289.9,78l-18.6-20.3l-9.5-6.9l-10.1-5.7l-4.6,3.5l-2.8,7.3h5.2l7.2,4.3l-8.5,4.3v7.8l8.6,7.8c0,0,1.9,9.1,1.9,10.4s14-2.6,14-2.6l4.5,9.1l0.2-0.1l8-2.1L289.9,78L289.9,78z"/>
		<polygon style="fill:#8EB052;" points="240,67.5 248.3,72.4 240,67.5"/>
		<polygon style="fill:#799A4D;" points="256.8,60.3 249.5,56 244.3,56 240,67.5 248.3,72.4 248.3,64.6"/>
		<path style="fill:#63803C;" d="M339.2,74.1c0,0-19-24.6,6.1-40.2c0-0.1-0.1-0.4-0.3-0.9l-13.1,8.2l-9.1,9.5l-11.7,5.6v6.5l-9.1,9.5l-5.4,2.5l-6.7,3.1l-2.8,11l10,5.4l2.4-4.8l24.2,7.4l5.3,4.5l4.1-10.1L339.2,74.1z"/>
		<polygon style="fill:#8EB052;" points="323.7,97.1 299.5,89.6 297.1,94.4 287.1,89 285.6,94.9 294.6,99.7 298.8,101.9 299.4,102.2 320.2,102.2 328.7,102.2 329,101.5"/>
		<polygon style="fill:#8EB052;" points="289.9,115.2 290,115 289.9,114.9"/>
		<path style="fill:#8EB052;" d="M173.8,189.5l-0.4,3.1c0.6-0.6,1.2-1.2,1.8-1.8L173.8,189.5z"/>
		<polygon style="fill:#85A454;" points="294.6,99.7 285.6,94.9 277.6,97 260.1,111.7 254,107.4 245.9,111.7 238.9,107.9 231.6,110 215.5,99.4 205.4,121.3 205,122 210.9,131.6 218.2,133.8 221.1,135.6 228.6,140.3 229,140.1 236,137.2 240,129.9 244.1,134.2 248.6,128.2 276.9,115.2 289.9,115.2 289.9,114.9 290,115 298.8,101.9"/>
		<path style="fill:#8EB052;" d="M181.9,183.9l33.6-9.5l16.8,2.1l-7.1-2.1l1.2-12.1h-10.8h-11.1h-15.1l-2.3-1.9l-5.1,10.8l-6.9,8.4l-1.1,9.9l1.4,1.3C178.8,187.1,181.9,183.9,181.9,183.9z"/>
		<polyline style="fill:#61823E;" points="189.8,154.5 187,160.7 189.4,162.6 204.5,162.4 215.6,162.2 226.4,162 226.3,162.3 232.9,162.3 232.1,157.6 229,140.1 228.6,140.3 221.1,135.6 218.2,133.8 210.9,131.6 205,122 204.8,122.6 189.9,154.3"/>
		<polygon style="fill:#506B36;" points="276.9,115.2 248.6,128.2 244.1,134.2 240,129.9 236,137.2 229,140.1 232.1,157.6 232.9,162.3 226.3,162.3 225.2,174.5 232.3,176.5 236,177 235.6,177.5 240,178.7 246.5,184.4 246.5,191.7 251.7,191.7 264.6,191.7 273.1,180.5 279.6,176.6 283.7,168.4 277.6,155.8 285.6,151.5 285.6,134.7 285.6,125.1 285.6,120.4 289.9,119.1 289.9,115.2"/>
		<polygon style="fill:#8EB052;" points="232.3,176.5 235.6,177.5 236,177"/>
		<polygon style="fill:#9DC051;" points="320.2,102.2 299.4,102.2 298.8,101.9 290,115 289.9,115.2 289.9,119.1 285.6,120.4 285.6,125.1 285.6,134.7 285.6,151.5 277.6,155.8 283.7,168.4 279.6,176.6 273.1,180.5 264.6,191.7 263.6,193 261,201.6 261.6,202.1 276.9,215.9 282.6,215.9 285.6,220 293.9,223.7 298.2,209.4 302,196.9 306.8,188.7 309.1,189.8 309.6,186.9 313.2,165.8 317.6,129.5 328.7,102.2"/>
		<polygon style="fill:#8EB052;" points="171.5,209.5 171,213.5 173.3,210.1"/>
		<polygon points="208.1,294.3 210.5,294.8 209.7,292.5"/>
		<polygon style="fill:#8EB052;" points="306.8,188.7 302,196.9 298.2,209.4 293.9,223.7 285.6,220 282.6,215.9 276.9,215.9 265.6,205.8 253.2,217.2 248.6,235.4 248.4,241.5 248.3,246.6 255.8,251.8 253.7,253.1 255.8,254.4 250.4,266.9 242,285.1 244.1,302.4 250.4,314.9 256.8,318 256.8,313.5 256.8,311 269.6,269.9 303.7,220.7 309.1,189.8"/>
		<path style="fill:#799A4D;" d="M250,191.5h-2.7c-0.4,0-0.7-0.3-0.7-0.7v-6.3c0-0.2-0.1-0.4-0.2-0.5l-6.2-5.3c-0.1-0.1-0.2-0.1-0.3-0.1l-3.7-1.1c-0.2-0.1-0.4,0-0.5,0.1l-3.3-1l-16.8-2.1l-33.6,9.5c0,0-3.1,3.2-6.7,6.8l0.1,0.1c-0.2,0-0.4,0.1-0.5,0.2c-0.4,0.4-0.8,0.8-1.2,1.2c-0.1,0.1-0.2,0.3-0.2,0.4l-1.9,16.1c0,0.3,0.2,0.6,0.5,0.8l1.4,0.4l-0.1,0.2l9.9,3.2l7.8-9.5l20.2-2.6c0.1,0.1,0.1,0.1,0.2,0.2l1.3,7.5l2.9,8.2h0.4l0.2-0.2h9.8c0.3,0,0.6-0.2,0.7-0.6l1.1-6.2c0.1-0.3,0.4-0.6,0.7-0.6h4.3c0.2,0,0.4-0.1,0.5-0.2l17.3-16.7C250.9,192.3,250.6,191.5,250,191.5z"/>
		<polygon style="fill:#ADCE69;" points="261.6,202.1 261,201.6 263.6,193 264.6,191.7 251.7,191.7 232.9,209.9 227.7,209.9 226.5,217.2 219.5,235.4 208.4,249.2 184.5,250.1 181.7,251 183.2,252.6 187.5,276.4 205.6,293.7 208.1,294.3 209.7,292.5 202.5,272.1 213.5,250.3 244.8,242.4 248.4,241.5 248.6,235.4 253.2,217.2 265.6,205.8"/>
		<polygon style="fill:#46622F;" points="250.4,314.5 244.1,301.9 242,284.6 250.4,266.5 255.8,253.9 253.7,252.7 255.8,251.4 248.3,246.2 248.4,241.1 244.8,242 213.5,249.8 202.5,271.7 209.7,292.1 210.5,294.4 222.9,297.2 241.1,325.7 243,344.7 249.5,340.4 256.8,344.7 256.8,317.6"/>
		<polygon style="fill:#8EB052;" points="215.9,217.3 215.5,217.3 212.7,209.1 211.5,201.3 191.2,203.8 183.3,213.2 173.4,210 171.1,213.3 168.4,235.2 179.2,248 181.6,250.9 184.4,250 208.3,249.3 219.5,235.5 226.5,217.4"/>
		<path style="fill:#8EB052;" d="M343.2,29.1c-2.2-4.9-5.4-11.6-5.4-11.6l-5.9-1.4l-3.4,6.3v7.5l-5.5,4.2l-2.3-1.3l-1.3,0.1l-5.2,0.3l-0.3,4.3l-5,5.1l-3.7-3.6l-4.9-3.6v-5.5l-3.6-2l-1.9-3.6l8.1-6.5l3.9,6.5l3.6,3.6l1.3-5.5l0.9-0.6l6-4.3l-1.1,0.5l-3.5-4.3l-9.5-6.9l-11.7,5.6l-6.1,12.5l0,0l-9,2.4l11.2,4.9V37l-5.2,4.8l1.7,10.8l9.5,3.5l4.5,10.7l2.4,5.8l9.1-9.5v-6.5l11.7-5.6l9.1-9.5l13.1-8.2C344.6,32.2,344,30.8,343.2,29.1z"/>
		<path style="fill:#8EB052;" d="M312.6,21.8l-0.4,0.3l0.5-0.1C312.7,21.9,312.7,21.8,312.6,21.8z"/>
		<path style="fill:#729349;" d="M315.2,21.6l13.4,8.1v-7.2l3.4-6.3l-6.6-1.6l-6.7,3l-6,4.3c0,0.1,0.1,0.1,0.1,0.2L315.2,21.6z"/>
		<polygon style="fill:#ADCE69;" points="315.2,21.6 312.7,22 312.3,22 311.7,22.4 311.2,24.8 310.4,27.9 306.9,24.3 303,17.8 294.9,24.3 296.8,27.9 300.4,29.9 300.4,35.4 305.2,39 309,42.5 314,37.4 314.3,33.1 315.8,33 319.5,32.9 320.8,32.8 323.1,34.1 328.6,29.9 328.6,29.6"/>
		<polygon style="fill:#6A4D3A;" points="168.4,247.5 168.4,235.2 183.2,252.6 186,268.4"/>
		<polygon style="fill:#6A4D3A;" points="205.6,293.7 205.6,307.1 223.7,311.2 222.9,297.2"/>
		<polygon style="fill:#6A4D3A;" points="243,344.7 243.1,352.1 249.4,348.6 249.5,340.4"/>
		<polygon style="fill:#6A4D3A;" points="256.8,352.5 256.1,353.7 260.4,346.2 261,324.8 256.9,317.9"/>
		<polygon style="fill:#6A4D3A;" points="269.6,269.9 275.5,279 309.1,233.3 303.7,220.7"/>
		<path style="fill:#6A4D3A;" d="M317.6,129.5l6.8,16.7c0,0,22.2-54.4,21.6-55.3c-0.6-0.9-6.8-5.9-6.8-17.1L317.6,129.5z"/>
		<polygon style="fill:#886B55;" points="10.5,249.9 13.1,255.1 7.1,262.2 10.1,266.7 19.5,266.7 21.3,253.2 27.3,256.6 31.8,254 31.8,247.6 22.5,245.7 19,248.7 12.3,247.2"/>
		<polygon style="fill:#8EB052;" points="10.5,245.7 13.1,251 7.1,258.1 10.1,262.6 18,262.6 19.8,249.1 27.3,252.5 31.8,249.9 31.8,243.5 22.5,241.6 19.5,246.5 12.3,243.1"/>
		<polygon style="fill:#6A4D3A;" points="10.5,245.7 10.5,250.2 11.8,252.5 13.1,251"/>
		<polygon style="fill:#6A4D3A;" points="7.1,258.1 7.1,262.2 10.1,266.7 10.1,262.6"/>
		<polygon style="fill:#6A4D3A;" points="18,262.6 19.5,266.7 21.3,253.2 19.8,249.1"/>
		<polygon style="fill:#6A4D3A;" points="27.3,252.5 27.3,256.6 31.8,254 31.8,249.9"/>
		<polygon style="fill:#886B55;" points="20.2,259.4 22.8,264.6 16.8,271.8 19.8,276.3 29.2,276.3 31.1,262.8 37.1,266.1 41.5,263.5 41.5,257.2 32.2,255.3 28.7,258.2 22.1,256.8"/>
		<polygon style="fill:#8EB052;" points="20.2,255.3 22.8,260.5 16.8,267.6 19.8,272.1 27.7,272.1 29.6,258.7 37.1,262 41.5,259.4 41.5,253 32.2,251.2 29.2,256 22.1,252.7"/>
		<polygon style="fill:#6A4D3A;" points="20.2,255.3 20.2,259.8 21.5,262.1 22.8,260.5"/>
		<polygon style="fill:#6A4D3A;" points="16.8,267.6 16.8,271.8 19.8,276.3 19.8,272.1"/>
		<polygon style="fill:#6A4D3A;" points="27.7,272.1 29.2,276.3 31.1,262.8 29.6,258.7"/>
		<polygon style="fill:#6A4D3A;" points="37.1,262 37.1,266.1 41.5,263.5 41.5,259.4"/>
		<polygon style="fill:#886B55;" points="45.9,79.4 52.1,84.1 44.2,88.4 44.2,92.1 52.1,96.1 59.8,88.2 66.9,86.5 72.1,91.2 75.8,90.2 77.1,73.3 75.4,68 64.7,79.4 57.6,79.7 46.4,75.2"/>
		<polygon style="fill:#8EB052;" points="46.4,75.1 50.4,78.8 44.2,84.7 44.2,88.4 50.4,90.8 58.1,83 65.2,81.3 70.4,85.9 74.1,85 75.4,68 66.7,68 63,74.2 55.9,74.5 48.5,71.3"/>
		<polygon style="fill:#6A4D3A;" points="45.9,79.4 47.8,81.3 51.1,78.4 46.4,75.1"/>
		<polygon style="fill:#6A4D3A;" points="50.4,90.8 52.1,96.1 59.8,88.2 58.1,83"/>
		<polygon style="fill:#6A4D3A;" points="74.1,85 75.8,90.2 77.1,73.3 75.4,68"/>
		<polygon style="fill:#6A4D3A;" points="65.2,81.3 66.9,86.5 72.1,91.2 70.4,85.9"/>
		<polygon style="fill:#886B55;" points="32.4,85.3 32.4,97.1 40.2,90.9 40.2,85 38.6,82.1"/>
		<polygon style="fill:#8EB052;" points="32.4,82.1 32.4,93.9 38.6,88 38.6,82.1"/>
		<polygon style="fill:#6A4D3A;" points="38.6,88 40.2,90.9 40.2,85 38.6,82.1"/>
	</symbol>
	<symbol id="bg-circle" viewBox="0 0 50 32">
		<path style="opacity:0.78;fill:#FFFFFF;" d="M19.1,0.4C37.3,1.3,50.5,6,50,15.9c-0.6,10-7.4,15.4-24.9,15.7C14.6,31.7,3,32.1,0.8,17.3C-1,4.5,8.6-0.1,19.1,0.4z"/>
		<path style="opacity:0.56;fill:#FFFFFF;" d="M24.2,1.3C41.6,2.1,51.9,3.7,49.1,15c-2.3,9.3-9.8,14.1-26.4,14.5c-10,0.2-20.4,2.9-22.5-11.3C-1.7,6,14.2,0.8,24.2,1.3z"/>
	</symbol>
	<symbol id="play-ball" viewBox="0 0 360 280">
		<path style="fill:#70D481;" d="M355.4,158.9c-2.1-14.2-11.7-26.4-23.6-33.4c-11.9-7.1-25.8-9.5-39.5-9.6c-6.5,0-13.3,0.4-19.4-2.2c-6.1-2.6-10.8-7.9-16.7-11.1c-6.2-3.4-13.6-6.1-20.4-8.1c-28.1-8.3-56-5.2-84.3-2c-20,2.2-41.5,11.5-57.5,24.3c-1.6,1.3-3.2,2.7-4.7,4.2c-19.6,2.5-40.4,11.7-56,24.1c-16,12.8-26,36-18.7,55.7c4.4,12,14.5,21.1,25.7,26.2c11.2,5.2,23.6,6.9,35.8,7.8c9.9,0.7,20.2,1,29.2,5.3c11.3,5.4,19.2,16.3,29.3,23.7c12.1,8.8,27.1,12.2,41.7,13.3c23,1.8,46.4-1.8,68-10.3c10.7-4.3,21.3-9.9,29.1-18.7c0.3-0.4,0.6-0.7,0.9-1.1c10.4-1.8,20.7-4.7,30.6-8.6c10.7-4.3,21.3-9.9,29.1-18.7c6.2-7,10.5-15.7,14.2-24.5C353.3,183.9,357.2,171.3,355.4,158.9z"/>
		<path style="fill:#E5C573;" d="M234.1,3l0.5,1.8c-0.1,0.1-6.3,2-6.3,2s-12.9,3.4-17.9,4.8c-0.4,1.3-0.6,2.7-0.6,4.1c0,8.5,6.9,15.5,15.5,15.5s15.5-6.9,15.5-15.5C240.9,10.4,238.2,5.8,234.1,3z"/>
		<path style="fill:#EAD18B;" d="M234.6,4.8L234.1,3c-2.5-1.7-5.5-2.7-8.8-2.7c-7.1,0-13.1,4.8-14.9,11.4c5-1.4,17.9-4.8,17.9-4.8S234.5,4.9,234.6,4.8z"/>
		<path style="opacity:0.33;fill-rule:evenodd;clip-rule:evenodd;" d="M281.5,162.9c-25.1,0-45.4,3.4-45.4,7.7c0,4.3,20.3,7.7,45.4,7.7c25.1,0,45.4-3.4,45.4-7.7C326.9,166.4,306.6,162.9,281.5,162.9z"/>
		<path style="opacity:0.19;fill-rule:evenodd;clip-rule:evenodd;" d="M225.2,99c-3.9,0-7,1.4-7,3.1s3.1,3.1,7,3.1c3.9,0,7-1.4,7-3.1S229.1,99,225.2,99z"/>
		<path style="fill:#F7B94D;" d="M307.8,161.5c-1.2,2.2-2.5,4.4-3.7,6.5c-1.3-0.8-2.2-2.2-2.2-3.7s0.6-3,1.9-3.9c-2.8-1-5.3-2.7-6.9-5.2c-1.6-2.5-2-5.7-0.7-8.4c0.1-0.1,0.1-0.2,0.2-0.3c0.1-0.1,0.3,0,0.5,0c3.7,1,7.5,2.1,11.2,3.1c0.2,0.1,0.5,0.1,0.7,0.3c0.3,0.3,0.3,0.8,0.2,1.3c-0.3,2.9-0.3,5.8,0.1,8.6"/>
		<path style="fill:#F7B94D;" d="M246,125.4c0.2,0.5,0.5,1,1,1.2c0.7,0.3,1.5,0,2-0.6s0.8-1.3,1-2c0.3-0.8,0.5-1.6,0.8-2.4c1.2,2.9,2.6,5.8,4.2,8.5c0.3,0.5,0.7,1.1,1.3,1.1c0.3,0,0.6-0.1,0.9-0.2c1-0.6,1.5-1.7,1.6-2.8c0.1-1.1-0.1-2.2-0.4-3.3c-0.2-1.1-0.5-2.2-0.9-3.2c-1.4-3-4.7-4.8-8-4.6c-1,0-2,0.3-2.6,1c-0.3,0.3-0.5,0.7-0.7,1.2C245.5,121.2,245.2,123.5,246,125.4z"/>
		<path style="fill:#825731;" d="M279.7,100.2c3.6-2.3,7.2-4.7,10.8-7.1c0.5-0.4,1.1-0.8,1.2-1.4c0.1-0.8-0.6-1.5-1.3-2c-2.1-1.5-4.3-2.7-6.7-3.6c-1.1-0.4-2.2-0.8-3.4-0.6c-1.1,0.1-2.3,0.9-2.5,2c-0.4,1.9,1.6,3.3,3.3,4.2c-0.2,2.7-0.8,5.3-1.8,7.8"/>
		<path style="fill:#825731;" d="M308.8,135.5c-3.3,1.5-8-1.2-10.2-4.4c-0.7-0.9-1.2-2-1.3-3c-0.1-0.9,0.2-1.7,0.7-2.4c1.6,0.6,3.2,1.3,4.8,2.1c3,1.5,5.8,3.3,8.3,5.4C310.6,134.2,309.9,135,308.8,135.5z"/>
		<path style="fill:#C3504E;" d="M258.9,102.7c-2.1-2.7-3-6.3-5.2-9c-0.4-0.5-0.9-0.9-1.5-1.1c-0.6-0.2-1.3,0-1.6,0.5c-0.4,0.7,0.1,1.6,0.6,2.3c0.4,0.5,0.7,1,1.1,1.4c2,2.6,4.1,5.4,7.1,6.6"/>
		<path style="fill:#825731;" d="M322,132.9C322,132.9,322.1,132.8,322,132.9c2.5-1.6,4.6-3.6,6.9-5.4c0.3-0.2,0.7-0.4,1-0.2c0.2,0.2,0.2,0.5,0.1,0.7c-0.4,3-1.2,6-2.9,8.5C325.2,135.9,323.3,134.5,322,132.9z"/>
		<path style="fill:#E7A133;" d="M258.9,88.2c3.3,0,6.5-1.6,8.5-4.1c1.1,1.7,2.3,3.5,4,5.9c3.3-0.1,6.6,0.9,9.3,2.7c3.7,2.5,6.3,6.6,6.8,11c0.5,4.4-1.2,9.1-4.7,11.9c-0.4,0.4-0.9,0.7-1.4,1c-0.3,0.4-0.7,0.7-1.1,1.1c-0.5,0.4-0.9,0.9-1.4,1.3c0.4,0.2,0.9,0.3,1.3,0.5c4,1.4,8,2.8,12.1,4.2c1.9,0.6,3.8,1.3,5.6,2c-0.5,0.7-0.8,1.5-0.7,2.4c0.1,1,0.6,2.1,1.3,3c2.2,3.2,6.9,5.9,10.2,4.4c1.1-0.5,1.8-1.4,2.3-2.4c0,0,0,0,0,0c1,0.8,1.9,1.6,2.7,2.5l0.1-0.7c2.8,0.5,5.7-0.6,8.1-2.1c1.3,1.6,3.2,3,5.1,3.7c-0.4,0.6-0.8,1.1-1.3,1.6c-2.2,2.3-5.8,3.5-8.8,2.6c1,2.9,0.7,6.3-1.3,8.5c-0.7,0.7-1.5,1.3-2.1,2.1c-1.1,1.6-1,3.6-0.4,5.4c0.8,2.7,2.5,5.1,4.7,6.9c-1.3,2.7-2.6,5.3-4,8c-0.4,0.7-0.8,1.5-1.5,1.8c-1,0.4-2.2-0.2-2.8-1.1c-1.7-2.2-0.6-5.8,1.9-6.8c-5-3.4-8.5-8.9-9.4-14.9c-11.8-1.7-23.3-5.5-33.7-11.3c-3.3,2.9-7.2,5-11.4,6.2c-1.9,0.5-3.8,0.8-5.7,0.5c-1.9-0.3-3.7-1.3-4.7-3c-0.5-0.9-0.8-2.1-0.5-3.1s1.2-1.9,2.3-1.9c0.9,0,1.7,0.5,2.5,0.8c1.5,0.5,3.1,0.3,4.4-0.5c0.6-0.4,1.1-0.9,1.3-1.6c0.6-1.7-0.7-3.3-1.7-4.8c-3-4.8-1.9-11.6,2.1-15.4c-1.8-1.4-3.6-2.7-5-4.5c-2.6-3.3-6.5-9.9-4.1-16.3c1.4-4.9,0.4,3.8,8.6,4.5c-4-3.5-4.6-8.4-3.9-13.5c0-0.1,0-0.3,0.1-0.4C254.4,87.5,256.6,88.2,258.9,88.2z"/>
		<path style="fill:#825731;" d="M287.1,129.6c1.5-0.2,2.9,0.9,3.4,2.3c0.6,1.4,0.4,2.9,0.1,4.4c-0.4,2.1-1.2,4.2-3,5.3c-3,1.7-6.8-0.6-8.5-3.6c-0.5-0.9-0.9-1.8-0.9-2.8c0-1.9,1.4-3.6,3.1-4.5c1.7-0.9,3.6-1.1,5.5-1.3"/>
		<path style="fill:#825731;" d="M275.8,98.5c-0.1-0.4-0.4-0.8-0.7-1c0,0,0-0.1,0-0.1c-0.2-0.9-1.2-1.6-2.1-1.3c-1.1,0.3-1.8,1.3-1.9,2.3c-0.2,0.6-0.1,1.3,0.3,1.8c0.3,0.3,0.6,0.4,1,0.5c0.3,0.2,0.7,0.3,1,0.3c0.9,0,1.6-0.4,2.1-1.1C275.8,99.5,275.9,98.9,275.8,98.5z"/>
		<path style="fill:#FBE2D0;" d="M273.3,97.1c0.1,0.2,0.1,0.3,0.2,0.5c0.2,0.4,0.6,0.8,1.1,0.7c0.4-0.1,0.8-0.6,0.7-1.1c-0.1-0.2-0.1-0.3-0.2-0.5c-0.2-0.4-0.6-0.8-1.1-0.7C273.5,96.2,273.1,96.7,273.3,97.1L273.3,97.1z"/>
		<path style="fill:#825731;" d="M277.7,106.3c6.4-1.4,12-1.1,18,1.6c1.5,2.4,2,4,2.1,6.1c0.1,1.8-0.3,4-0.9,5.6c-0.6,1.7-2.3,3-4.1,2.7c-1.6-0.3-2.7-1.8-3.3-3.4c-0.6-1.5-0.9-3.2-1.9-4.5c-2.1-2.7-6-2.8-8.9-4.5c-0.7-0.4-1.4-1-1.7-1.7C276.7,107.6,276.9,106.6,277.7,106.3"/>
		<path style="fill:#D5CAC7;" d="M261.5,75.5c2.7,3.5,4.1,5.8,5.9,8.6c-2.1,2.5-5.3,4.1-8.5,4.1c-2.2,0-4.4-0.8-6.2-2C253.4,81.2,256.9,77,261.5,75.5z"/>
		<path style="fill:#231815;" d="M264.8,79.1c0.2-0.9,0.6-2,0.1-2.9c-0.4-0.8-1.2-1.1-2.1-1.2c-0.8-0.1-1.6-0.3-2.4-0.4c-2-0.1-3.1,1.5-2.5,3.4c0.5,1.6,1.4,3.1,2.5,4.4c0.5,0.5,1.1,0.6,1.6,0.5c0.8,0.1,1.6-0.2,2-1.1C264.3,80.9,264.6,80,264.8,79.1z"/>
		<path style="fill:#9D8963;" d="M176.5,277.3c-14.7-1.1-29.6-4.6-41.7-13.3c-10.2-7.4-18.1-18.3-29.3-23.7c-9.1-4.3-19.3-4.6-29.2-5.3c-12.2-0.9-24.6-2.6-35.8-7.8C29.1,222,19,213,14.6,200.9c-6.9-18.8,1.9-40.9,16.6-53.9c-3.5,2.1-6.9,4.4-10.1,6.8c-16,12.2-26,34.2-18.7,53c4.4,11.4,14.5,20,25.7,24.9c11.2,4.9,23.6,6.5,35.8,7.4c9.9,0.7,20.2,0.9,29.2,5.1c11.3,5.1,19.2,15.5,29.3,22.5c12.1,8.3,27.1,11.6,41.7,12.7c14.9,1.1,30,0,44.7-3C198.2,277.8,187.3,278.1,176.5,277.3z"/>
		<path style="fill:#725C34;" d="M359,169.2c-0.9-3.7-2.1-7.2-3.6-10.4c0,0,0,0,0,0.1c1.8,12.4-2.1,25-6.9,36.5c-3.6,8.8-7.9,17.5-14.2,24.5c-7.9,8.8-18.4,14.5-29.1,18.7c-9.9,3.9-20.2,6.8-30.6,8.6c-0.3,0.4-0.6,0.7-0.9,1.1c-3.4,3.8-7.2,7-11.4,9.7c2.2,0,4.3,0,6.5,0c2.6-0.3,5.2-0.6,7.8-0.8c12.5-1.1,24.6-4.2,36.2-8.8c8.1-3.2,15.7-7.2,22.3-12.9c6.9-5.9,11.5-13.5,15.1-21.7c3.8-8.6,7.1-17.4,8.7-26.7c0.4-2.3,0.7-4.5,1-6.8c0-1.7,0-3.3,0-5C359.7,173.2,359.4,171.2,359,169.2z"/>
		<path style="fill:#70D481;" d="M205.2,110.9C203.9,111,210.4,110.9,205.2,110.9L205.2,110.9z"/>
		<path style="fill:#22B2A4;" d="M232.6,5.6l0,0.1l1.5,0.5l0.1,0c0.8-0.4,2.2-0.3,3.3-0.2c-2.5-3.1-6.1-5.2-10.3-5.6C231.7,1.7,232.5,5.6,232.6,5.6z"/>
		<path style="fill:#EA5449;" d="M235.5,4l-2,0.5c0,0.1,0.9,5.8,0.9,5.8l5,12.2c1-2,1.6-4.3,1.6-6.8C240.9,11,238.8,6.8,235.5,4z"/>
		<path style="fill:#22B2A4;" d="M240.4,19.6c-0.4-4.2-1.7-9.8-6.1-11.8l-0.1,0L232.8,8l0,0.2c0,0.2,2.6,16.7-9,22.9c0.5,0.1,1.1,0.1,1.6,0.1C232.6,31.2,238.7,26.3,240.4,19.6z"/>
		<path style="fill:#EA5449;" d="M230.9,7.5c0.1,0,0.1,0,0.2,0l-0.7-1.5c0,0-0.1,0-0.2-0.1c-1.6-0.7-11.5-5-18.9,3.3c-0.9,2-1.5,4.2-1.5,6.6c0,3.8,1.4,7.3,3.7,10C216.1,21.8,225,8.9,230.9,7.5z"/>
		<ellipse transform="matrix(0.8358 0.549 -0.549 0.8358 41.7338 -126.4602)" style="fill:#EFEFEF;" cx="232.3" cy="6.6" rx="3.2" ry="2"/>	
	</symbol>
	<symbol id="senior-official" viewBox="0 0 333 360">
		<path style="fill:#B5A27E;" d="M330.1,260.1c-5.2,13.5-17,23.6-30.3,29.3c-13.2,5.8-27.8,7.7-42.2,8.7c-11.7,0.8-23.8,1.1-34.4,5.9c-13.2,6-22.5,18.2-34.5,26.5c-14.3,9.8-31.8,13.7-49.1,14.9c-27.1,2-54.6-2-80.1-11.6C47,329.2,34.6,322.8,25.3,313c-7.3-7.8-12.4-17.6-16.7-27.4c-3.7-8.4-6.9-17.4-8.1-26.4c-2,13.8,2.6,27.7,8.1,40.5c4.3,9.8,9.3,19.6,16.7,27.4c9.2,9.9,21.7,16.2,34.3,20.9c25.4,9.6,53,13.5,80.1,11.6c17.3-1.3,34.8-5.1,49.1-14.9c12-8.3,21.3-20.5,34.5-26.5c10.7-4.8,22.7-5.1,34.4-5.9c14.4-1,29-2.9,42.2-8.7s25.1-15.9,30.3-29.3c2.8-7.3,3.4-15,2.3-22.5C332,254.4,331.2,257.3,330.1,260.1z"/>
		<path style="fill:#3EA64F;" d="M188.8,330.6c-14.3,9.8-31.8,13.7-49.1,14.9c-27.1,2-54.6-2-80.1-11.6C47,329.2,34.6,322.8,25.3,313c-7.3-7.8-12.4-17.6-16.7-27.4C3,272.7-1.6,258.7,0.6,244.8c2.5-15.9,13.8-29.5,27.7-37.4s30.4-10.6,46.4-10.8c7.7-0.1,15.6,0.4,22.8-2.4c7.2-2.9,12.7-8.8,19.6-12.4c7.3-3.8,16-6.8,24-9c33.1-9.3,65.9-5.8,99.2-2.3c23.5,2.5,48.9,12.9,67.7,27.2s30.6,40.3,22.1,62.3c-5.2,13.5-17,23.6-30.3,29.3c-13.2,5.8-27.8,7.7-42.2,8.7c-11.7,0.8-23.8,1.1-34.4,5.9C210.1,310.1,200.8,322.3,188.8,330.6z"/>
		<path style="fill:#46290E;" d="M90.9,150.8c0,0,7.2,19.9,7.9,27.8c0.6,7.9-4.6,23.7-6.4,30.1c-1.8,6.3-2.3,3.6-2.3,3.6l-11.7,1.1c0,0,3.2-28.2,1.7-38.5c-1.5-10.3-12.7-27.2-12.7-27.2L90.9,150.8z"/>
		<path style="fill:#603813;" d="M99.5,140l-62.8-1.5c0,0-1.2,16,4.1,18.7c0.7,0.4,2.3,0.8,4.4,1.3c2.8,5.3,5.6,11.5,6.3,16.3c1.5,10.3-3.5,35.3-3.5,35.3h14.8c0,0,1.5-4.6,3.3-10.9c1.8-6.3,4.7-12.9,4.1-20.7c-0.3-3.9-2.2-10.8-4.1-16.7c14.8,1.5,30.6,1.3,32-4.6C100.4,146.7,99.5,140,99.5,140z"/>
		<path style="fill:#F6BA97;" d="M128.3,125.2c0,0,3.8-2.1,7.4-2.1c3.6,0,8.4,4.7,8.6,5.9c0.2,1-0.3,3.3-2.1,3.1c-0.5-0.1-5.7-3.1-7.5-3c-1.7,0.1-1.4,1.9-0.6,3.2c0.8,1.2,1.4,2.1,0.1,2.4c-1.1,0.3-2.9-3.1-4-3.4c-2-0.6-4.3-0.8-4.3-0.8L128.3,125.2z"/>
		<path style="fill:#B14A4C;" d="M106.4,67.5c0,0,8.4,8.8,6.7,25.5c-1.7,16.7-3.8,25.1,0.4,27.6c4.2,2.5,14.4,4.3,14.4,4.3l0.1,6.8c0,0-28.1,3.1-29.6-6.9C96.4,110.4,101.8,67.5,106.4,67.5z"/>
		<ellipse style="opacity:0.8;fill:#353535;" cx="70" cy="229.7" rx="39.6" ry="5.9"/>
		<path style="fill:#BD4E51;" d="M101.8,144.7c-0.5-4.2-1-7.5-1.5-9c-2.3-7.2-2.4-14.5,2.1-26.9c1-2.8,2.8-4.3,3.9-9.4c1-4.8-1-14.4-1.2-20.8c-0.1-4.7,2.8-11,2.1-13.3c-2.5-8.9-16.1-14.5-33.1-16.7c-17-2.2-27.3,11.3-27.3,11.3c-3.5,5.4-7.7,16.7-9.1,31.1c-1.2,12.9-0.3,27.2,0,32.9c0.2,3.6-1.4,11.3-2.8,18.4C49.3,146.6,75.5,151.9,101.8,144.7z"/>
		<path style="fill:#F6BA97;" d="M56.8,145.3c0,0,4.6,3.3,5.1,6.2c0.5,2.9,3.1,5.6,1.2,5.9c-1.8,0.3-2.3-0.8-2.7-3.1c-0.4-2.2-2.1-3.1-2.7-3c-0.6,0.1,2.1,6,3.4,7.2c1.3,1.2,2.7,2.2,1.9,3.8c-0.8,1.7-6.2,1.2-7.8,0.1c-1.6-1.1-3.5-4.3-4.6-7.2c-0.5-1.5-0.1-2.9,0-4.5c0.1-1.6-0.3-3.2-0.3-3.2L56.8,145.3z"/>
		<path style="fill:#CF5659;" d="M27.2,103.8c2-25.1,17.7-42.3,24.4-44.8c3.6,5.2,6.2,20,2.5,24.6c-3.8,4.6-6.1,6.6-7.4,9.3c-1.4,2.9-4.3,7.2-2.8,18.2c1,7.9,14.1,34.8,14.1,34.8l-8.4,2.1C49.5,148,25.6,122.4,27.2,103.8z"/>
		<path style="fill:#F6BA97;" d="M107.6,18.3c-5.6-5.2-15.8-6.9-21.8-6.9c-6.1,0-16.3,1.7-21.8,6.9c-5.9,5.5-3.9,10.6-3.1,18.5c0.2,1.9,0.3,3.7,0.3,5.3c0,1.3-0.1,2.6-0.1,3.9c0.3,14,4.7,29.6,27.6,29.6c26.1,0,23.7-18,21.8-29.6c0-1.3-0.1-2.6-0.1-3.9c0-1.7,0.1-3.5,0.3-5.3C111.5,28.9,113.5,23.8,107.6,18.3z"/>
		<path style="fill:#EAA981;" d="M80.4,57.3c-0.2,0.5-1.9,0.4-3.2,3.2c-0.7,1.6-0.8,4.5-1.5,4.5c-0.6,0-0.2-4.9,1.6-6.6c0.7-0.7,1.3-1.2,1.8-1.4C79.8,56.6,80.5,56.8,80.4,57.3z"/>
		<path style="fill:#EAA981;" d="M102.6,56c0.1,0.5,1.5,0.4,2.5,3.2c0.6,1.6,0.7,4.5,1.1,4.5c0.5,0,0.2-4.9-1.2-6.6c-0.6-0.7-1-1.2-1.4-1.4C103.1,55.4,102.5,55.5,102.6,56z"/>
		<ellipse style="fill:#3A5983;" cx="82.7" cy="47.4" rx="1.6" ry="1.9"/>
		<ellipse style="fill:#3A5983;" cx="101" cy="47.4" rx="1.6" ry="1.9"/>
		<path style="fill:#EC777A;" d="M103.3,60.4c-0.7-1.4-2.3-2.2-2.5-1.6c-0.2,0.6,0.7,0.5,0.2,1.5c-0.5,0.9-2.7,2.2-7.2,2.3c-4.9,0.2-9.8-1.4-10.3-2.3c-0.5-1,0.3-0.9,0.1-1.5c-0.2-0.6-1.7,0.2-2.5,1.6c-0.4,0.8,0,1.4,0.3,1c0.2-0.4,0.6-0.7,0.8-0.5c0.2,0.2,2.1,2.3,4.2,3.5c1.5,0.9,3.2,2.2,7.4,2.1c4.3-0.1,8.1-5.4,8.4-5.6c0.2-0.2,0.6,0.1,0.8,0.5C103.3,61.8,103.7,61.2,103.3,60.4z"/>
		<path style="fill:#EAA981;" d="M104.2,47.7c0,0,3.2-0.6,3.6,0c0.4,0.6-1.3,0.2-2.4,0.3C104.4,48.2,103.6,48,104.2,47.7z"/>
		<path style="fill:#EAA981;" d="M104.1,48.6c0,0,3.2,0.4,3.3,0.9c0.1,0.5-1.6,0-2.5-0.2C104,49.1,103.7,48.6,104.1,48.6z"/>
		<path style="fill:#EAA981;" d="M79.6,47.7c0,0-3.2-0.6-3.6,0c-0.4,0.6,1.3,0.2,2.4,0.3C79.4,48.2,80.2,48,79.6,47.7z"/>
		<path style="fill:#EAA981;" d="M79.7,48.6c0,0-3.2,0.4-3.3,0.9c-0.1,0.5,1.6,0,2.5-0.2C79.8,49.1,80.2,48.6,79.7,48.6z"/>
		<path style="fill:#F1987F;" d="M91.4,43.6c0.9-0.9,3.1,0.7,3.4,2.6c0.3,1.9,1,4.3,2,6.2c0.7,1.3,1.6,2.6-0.7,3.7c-2.2,1.1-8,1.1-7.6-3.9C89,46.5,90.5,44.5,91.4,43.6z"/>
		<path d="M108.6,224.4c-0.5-3-6.2-4-8.7-5.2c-2.4-1.1-4.8-2.2-6.5-3.9c-0.1-0.1-0.3-0.2-0.4-0.3c4.2-11.1,5.3-21.6,5.9-21.8c-8.6,2-20.7-0.5-21-0.9c-0.9,3.8-0.6,30.4-0.4,31c0,0,0,0.3,0,0.3c0.2,2.5,0.3,3.8,4.2,3.8c3.9,0,24,0.5,24,0.5S109,227.4,108.6,224.4z"/>
		<path style="fill:#686868;" d="M70.8,1.5C66.6,1.6,62.6,5,59.4,8.9c-4.8,5.9-8.6,13.2-10,21.2s0,16.6,4.3,22.3c0.9,1.2,2.2,2.3,3.5,1.5c0.6-0.4,1-1.1,1.3-1.8c3.1-6.3,3.8-13.8,4.8-20.9c1.1-8.1,2.8-16.2,4.8-24.1C68.8,5.1,70,3.4,70.8,1.5z"/>
		<path style="fill:#F6BA97;" d="M60.3,35.8c-3.2-0.7-7.3-0.6-8.6,2.3c-3.4,7.7,3.8,13.8,9.9,14C62.5,48.5,61,38.1,60.3,35.8z"/>
		<path d="M77.8,229.4c-0.5-3-6.2-4-8.7-5.2c-2.4-1.1-4.8-2.2-6.5-3.9c-0.1-0.1-0.3-0.2-0.4-0.3c4.2-11.1,5.3-21.6,5.9-21.8c-4.5,1.1-9.9,0.9-14.1,0.4c0.7-2.3,0.9-4.8,1.1-7.3c0.5-10.6-0.5-21.3-3.1-31.6l-0.9,0.2c2.6,10.2,3.6,20.8,3.1,31.3c-0.1,2.3-0.3,4.8-1.1,7.2c-3.4-0.4-5.8-1-5.9-1.2c-0.9,3.8-0.6,30.4-0.4,31c0,0,0,0.3,0,0.3c0.2,2.5,0.3,3.8,4.2,3.8c3.9,0,24,0.5,24,0.5S78.2,232.4,77.8,229.4z"/>
		<path style="fill:#686868;" d="M115.3,23.2c-1.4-4.9-1.5-4.9-4-9.3c-2.5-4.4-6.2-8.3-10.8-10.3c-2.8-1.2-6.6-3.2-9.6-3.4c-9.6-0.5-15.4-0.8-23.5,4.3c-1.2,0.8-5.6,5.9-6.5,7c-1.5,1.7-2.2,4-2.7,6.3c-1.2,5.1-1.8,10.3-1.9,15.5c0.5,0.5,1.2,0.5,1.8,0.4c0,1,0.2,2,0.8,2.7c1,1.3,2.9,1.3,4.5,1.1c6.8-1.1,12.8-5.8,15.5-12c0,1.3,0,2.5,0,3.8c1.6-2.1,2.9-4.4,4.1-6.7c0.7,3.3,0,6.9-1.9,9.7c4.6-1.9,7.8-5.8,10-10.3c0.7,2.1,1.8,4.1,3.2,5.8c0.5-0.1,0.5-0.7,0.5-1.2c-0.1-2-0.2-4-0.3-6c0.4,2.6,1.9,5.1,4.1,6.6c0.1-1.7,0-3.4-0.5-5c1,2.1,2.3,4.1,3.9,5.8c0.6,0.6,1.3,1.2,2.1,1.2c0.8-0.1,1.5-1.2,0.8-1.7c1-0.1,1.8,0.9,2.6,1.6c1.4,1.3,3.4,2,5.3,2c0,0,0,0,0,0c0,0,0.1,0,0.1,0c0.1,0,0.2,0,0.4,0c0-0.1,0-0.1,0-0.2C114.4,29.7,115.3,26.6,115.3,23.2z"/>
		<path style="fill:#343535;" d="M225.9,222.4c3.7,1,5.2,4.7,6.5,7.9c0.5,1.3,2.7,0.8,2.2-0.6c-1.6-4-3.6-8.2-8.1-9.5C225.1,219.9,224.5,222,225.9,222.4L225.9,222.4z"/>
		<path style="fill:#343535;" d="M233.2,218.4c7.7,4.1,7.3,13.8,6.4,21.3c-0.2,1.4,2.1,1.4,2.3,0c1-8.3,0.9-18.7-7.5-23.2C233.1,215.8,231.9,217.7,233.2,218.4L233.2,218.4z"/>
		<path style="fill:#343535;" d="M226,227.3c-2.1-1.4-5.7-1-6.2,1.4c3.6,1.6,4.1,7.1,1.7,10.2c-2.5,3.1-6.8,4.1-10.7,3.9c-0.5,0-1-0.1-1.4-0.2c0.9-8.5,2.4-17.1,2.8-25.6c0.5-12.2-1.6-24.5-5.9-35.9c3.4,0.7,6.9,0.8,10.2-0.4c0.9-0.3,1.9-1,1.8-1.9c-0.1-0.6-0.6-1.1-1.1-1.5c-3-2.2-6.2-4.1-9.5-5.6c-0.4-3-2.3-5.7-4.4-8c-4.8-5.5-10.2-10.4-16.3-14.5c-2.9-2-6.2-3.9-9.7-3.7c-1.9,0.1-3.8,0.8-5.5,1.7c-2.7,1.4-5.2,3.4-6.2,6.3c-1.1,3.2-0.1,6.7,1.3,9.7c2.5,5.4,6.3,10.2,9.4,15.3c-1.8,1.7-3.5,3.5-5,5.4c-0.4,0.5-0.8,1.1-0.7,1.7c0.2,1,1.3,1.4,2.2,1.5c2,0.2,4,0.1,5.9-0.4c-0.6,3.6-1.1,7.3-1.5,11c-3.5-1.9-6.4-5.1-9.6-7.4c-1.2-0.9-2.7-1.7-4.1-1.3c-0.7,0.2-1.4,0.7-1.9,1.2c-1.7,1.6-2.5,4.6-0.9,6.2c1.5,1.5,4,1,6,0.3c2,1.5,3.2,3.9,4.6,6c1.3,1.9,2.9,3.8,5,4.6c-0.2,2.4-0.3,4.9-0.4,7.3c-0.5,13.6,0.9,27.3,5.7,40c1.6,4.4,3.7,9,2.6,13.5c-0.9-1.4-3.3-1.1-4.2,0.3c-0.9,1.4-0.6,3.3,0.4,4.6c1,1.3,2.5,2.1,4,2.7c1.5,0.6,3.3,1.1,4.5,0.1c0.9-0.7,1.1-2,1.3-3.1c0.5-3.6,0.7-7.3,0.6-10.9c-0.1-2.8-0.3-5.7,0.7-8.4c1.1-2.6,3.9-4.7,6.6-3.9c2.9,0.9,3.8,4.5,4.2,7.6c0.6,4,1.2,8.1,1.8,12.1c0.4,2.5,1.1,5.5,3.5,6.3c0.8,0.3,1.8,0.3,2.6,0.1c2-0.4,3.9-1.9,4.2-3.9c0.2-2-2.1-4.1-3.9-3.2c-1.6-5.9-2-12-1.7-18.1c4.4,0,8.7-1,12.5-3.1c3.5-2,6.7-5,8-8.8C230.5,234.3,229.4,229.5,226,227.3z"/>
		<path style="fill:#D04D52;" d="M168.6,149c-0.4-0.9-0.8-1.7-1.4-2.4c-0.6-0.7-1.4-1.3-2.4-1.4c-0.3-0.1-0.7-0.1-1,0.1c-0.3,0.1-0.6,0.4-0.7,0.8c-0.6,1.1-0.4,2.5,0.5,3.4c0.7,0.8,1.9,1.1,2.9,1.2c0.7,0.1,1.5,0.1,2-0.4l-0.1-0.5C168.7,149.6,168.7,149.2,168.6,149z"/>
		<path style="fill:#ACACAC;" d="M176.7,146.1c3.4-0.2,6.9,1,9.5,3.3c1,0.9,2,2.3,1.4,3.6c-0.4,1-1.6,1.5-2.6,1.7c-4,0.7-8.3-1.4-10.2-4.9c1.1,2.5,1.1,5.6-0.6,7.7s-5.3,2.7-7.2,0.7c-1.5-1.6-1.5-4.2-0.7-6.3c1.6-4,6-6.8,10.4-6.4"/>
		<path style="fill:#231815;" d="M174.4,147.7c0.9,0.1,1.8,0.3,2.6,0.7s1.4,1.3,1.3,2.2c-0.1,0.9-0.9,1.6-1.7,1.9c-0.8,0.3-1.8,0.2-2.6,0.2c-0.7,0-1.6-0.2-1.9-0.8c-0.2-0.4-0.1-0.8-0.1-1.2c0.3-1.3,1.1-2.5,2.2-3.3"/>
		<ellipse style="opacity:0.8;fill:#343535;" cx="193" cy="272.3" rx="27.2" ry="5.9"/>
		<path style="fill:#CDA073;" d="M185.5,166.4c0-0.1,0-0.3-0.1-0.4c-0.3-0.4-0.7-0.7-1.3-0.7c-0.4,0-0.9,0.2-1.2,0.5c-0.8,0.7-0.5,2,0.4,2.5c1,0.6,2.3-0.1,2.3-1.2C185.6,166.8,185.5,166.6,185.5,166.4z"/>
		<path style="fill:#CDA073;" d="M193,162.4c-0.6-0.1-1.3,0.2-1.6,0.7c-0.5,0.9,0,2.1,1,2.4c1,0.3,2.1-0.5,2.2-1.6C194.7,163,193.9,162.3,193,162.4z"/>
		<path style="fill:#FFFFFF;" d="M194,162.2c-0.2-0.4-0.6-0.6-1-0.7c-0.1,0-0.1,0-0.2,0c0,0-0.1,0-0.1,0c0,0,0,0,0,0c-0.3,0-0.5,0.1-0.7,0.2c-0.5,0.3-0.7,1-0.4,1.5c0,0,0.1,0.1,0.1,0.1c0.1,0.4,0.4,0.8,0.8,1c0.4,0.3,1,0.2,1.4-0.2C194.2,163.7,194.4,162.9,194,162.2z"/>
		<path style="fill:#FFFFFF;" d="M184.1,167.6c1.5,0,1.5-2.3,0-2.3C182.7,165.3,182.7,167.6,184.1,167.6L184.1,167.6z"/>
		<path style="fill:#231815;" d="M192.6,163.7c1.5,0,1.5-2.3,0-2.3C191.1,161.4,191.1,163.7,192.6,163.7L192.6,163.7z"/>
		<path style="fill:#231815;" d="M185,165c-0.1-0.1-0.1-0.1-0.2-0.2c-0.4-0.4-1.2-0.5-1.6,0c-0.4,0.5-0.4,1.2,0,1.6c0.1,0.1,0.1,0.1,0.2,0.2c0.4,0.4,1.2,0.5,1.6,0C185.4,166.2,185.5,165.5,185,165L185,165z"/>
	</symbol>
	<symbol id="dog-food-1" viewBox="0 0 50 52">
		<path style="opacity:0.46;fill:#455549;" d="M25,38.3c13.8,0,25,3.1,25,6.8c0,3.8-11.2,6.8-25,6.8S0,48.9,0,45.2C0,41.4,11.2,38.3,25,38.3z"/>
		<path style="fill:#B16A2A;" d="M23.9,47.7h1.5c15,0,22.3-4.6,22.3-7.5c0-0.1,0-0.3,0-0.4l0,0c-0.2-2.6-1.9-2.5-1.9-2.5l0,0l0.8,1.9c0,0-3.3,6.8-22.6,6.8S2.9,39.5,2.9,39.5l0.6-2.2c0,0-1.7,0-1.9,2.5l0,0c0,0.1,0,0.3,0,0.4C1.6,43.1,8.9,47.7,23.9,47.7z"/>
		<path style="fill:#E36B26;" d="M23.9,46c19.3,0,22.6-6.8,22.6-6.8l-0.8-1.9l-4.1-10c0,2.6-7.9,4.7-17.8,4.7S6.1,29.8,6.1,27.2l-2.6,10l-0.6,2.2C2.9,39.5,4.5,46,23.9,46z"/>
		<path style="fill:#7C4111;" d="M23.9,31.9c9.8,0,17.8-2.1,17.8-4.7s-7.9-4.5-17.8-4.5S6.1,24.7,6.1,27.2C6.1,29.8,14,31.9,23.9,31.9z M23.9,24.5c7.9,0,14.3,1.2,14.3,2.9c0,0.2-0.1,0.4-0.4,0.6c-1.4,1.2-7.2,2.2-14,2.2s-12.6-1-14-2.2c-0.2-0.2-0.4-0.4-0.4-0.6C9.5,25.7,15.9,24.5,23.9,24.5z"/>
		<path style="fill:#FFD11B;" d="M18.7,43.2c1.4,0,2.6-1.1,2.6-2.6c0-0.1,0-0.2,0-0.3h6.8c0,0.1,0,0.2,0,0.3c0,1.4,1.1,2.6,2.6,2.6c1.4,0,2.6-1.1,2.6-2.6c0-0.7-0.2-1.2-0.6-1.6c0.4-0.5,0.6-1.1,0.6-1.6c0-1.4-1.1-2.6-2.6-2.6s-2.6,1.1-2.6,2.6c0,0.1,0,0.2,0,0.3h-6.9c0-0.1,0-0.2,0-0.3c0-1.4-1.1-2.6-2.6-2.6S16,35.9,16,37.4c0,0.7,0.2,1.2,0.6,1.6C16.2,39.5,16,40,16,40.6C16.1,42,17.3,43.2,18.7,43.2z"/>
		<path style="fill:#CE7B2D;" d="M2.9,39.5l0.6-2.2c0,0-1.7,0-1.9,2.5l0,0c0,0.1,0,0.3,0,0.4c0,1.1,1.1,2.5,3.2,3.7c0.2-0.5,0.5-1.1,0.8-1.5C3.2,40.8,2.9,39.5,2.9,39.5z"/>
		<path style="fill:#ED7027;" d="M12,30.8c-3.6-0.9-5.9-2.1-5.9-3.4l-2.6,9.9l-0.6,2.2c0,0,0.4,1.4,2.6,2.9c1.6-2.8,4-5.4,5.4-8.2C11.4,33.2,11.7,32,12,30.8z"/>
		<path style="fill:#8C582D;" d="M9.8,27.9c-0.2-0.2-0.4-0.4-0.4-0.6c0-0.6,1-1.1,2.6-1.6c-0.1-0.6-0.3-1.1-0.5-1.6c-3.4,0.8-5.5,2-5.5,3.2c0,1.3,2.3,2.6,5.9,3.4c0.1-0.6,0.2-1.1,0.3-1.8C11.2,28.6,10.3,28.3,9.8,27.9z"/>
		<path style="fill:#9B5E26;" d="M47.7,40.1c0-0.1,0-0.3,0-0.4l0,0c-0.2-2.6-1.9-2.5-1.9-2.5l0,0l0.8,1.9c0,0-1.2,2.6-6.9,4.6c-0.1,0.7-0.1,1.4-0.1,2.2C45,44.3,47.7,41.9,47.7,40.1z"/>
		<path style="fill:#CD6228;" d="M46.5,39.2l-0.8-1.9l-4.1-10c0,1.1-1.5,2.1-3.9,3c1.2,0.7,2.1,1.7,2.5,3.4c0.3,2.4,0.8,5,0,7.4c-0.3,0.9-0.5,1.8-0.6,2.8C45.2,41.8,46.5,39.2,46.5,39.2z"/>
		<path style="fill:#A0581D;" d="M40.5,25.6c-0.2-0.6-0.7-1-1.2-1.3c-0.5-0.3-0.6-0.3-0.6-0.9c0-0.4-0.1-0.8-0.3-1.2c-0.4-1.1-1.5-2.3-2.8-1.6c0-0.3-0.4-0.6-0.4-1c0-0.4,0.4-0.7,0.3-1.2c-0.2-0.8-1.2-1.2-1.9-1.4c-0.4-0.1-0.3-0.1-0.5-0.4c-0.1-0.2-0.2-0.5-0.3-0.7c-0.2-0.5-0.6-0.9-1-1.2c-0.7-0.6-1.7-0.8-2.4-0.1c0-0.4-0.9-1.1-1.2-1.3c-0.5-0.3-1-0.5-1.6-0.2c-1.2,0.5-1.5,2.1-1.3,3.2C24.9,16,24.4,16,24,16c-0.2-1-0.9-2.1-1.9-2.6c-1.8-0.9-2.8,0.9-2.8,2.5c-1.3-0.6-2.3,1-2.4,2c-1-0.3-1.7,0.1-2.2,1.1c-1.1-1.3-2.7-0.9-3.3,0.6c-0.1,0.4-0.2,0.8-0.2,1.2c0,0.6,0.2,0.7-0.4,1.1c-0.6,0.5-1.4,1.1-1.7,1.8c-0.6,1.3,0.6,2,1.7,2.3c0.7,0.2,1.4,0.3,2.1,0.4c0.3,0,0.6,0,0.9,0c0.5,0.1,0.9,0.3,1.3,0.6c2.8,1.5,6.3,1.8,9.4,2c1.7,0.2,3.5,0.1,5.3,0.1c0.9,0,1.8-0.1,2.7-0.2c0.8-0.1,1.7-0.3,2.5-0.2c0.9,0.2,2.1,1,3,0.8c0.8-0.2,1.8-0.7,2.4-1.2c0.5-0.3,0.9-0.8,1.1-1.4C41.6,26.3,41.1,26,40.5,25.6C40.3,25,41.3,26.1,40.5,25.6z"/>
		<path style="fill:#CE7B2D;" d="M36.8,24.3c0-1.6-1.4-4.1-3.3-3.2c0-1.2-1.4-2.3-2.5-2.2c-1.4,0.1-2.4,1.5-2.4,2.9c-0.4-0.3-0.8-0.5-1.3-0.5c0-1.7-1.6-4.1-3.6-3c-0.3,0.2-0.6,0.4-0.8,0.7c-0.2,0.3-0.3,0.8-0.5,1c-0.2,0.2-0.3,0.1-0.7,0c-0.4-0.1-0.9,0-1.2,0.1c-0.3,0.1-0.6,0.4-0.9,0.7c-0.1,0.2-0.3,0.5-0.4,0.6c-0.3,0.1-0.1,0-0.4,0c-0.9-0.1-1.6-0.1-2.3,0.6c-0.8-1.2-2.3-1.7-3.4-0.6c-0.6,0.6-0.6,1.3-1,2c-0.2,0.4-0.4,0.4-0.9,0.6c-0.4,0.2-0.8,0.4-1.2,0.6c-3.1,2,0.4,4.2,3.2,4.6c3.5,0.9,7,1,10.6,1.1c3.2,0.1,6.5-0.1,9.7-0.9c1.6-0.4,3.5-0.6,4.8-1.7c0.5-0.4,0.8-1.3,0.6-2C38.5,25.1,37.4,24.6,36.8,24.3C36.8,23.8,38.1,24.9,36.8,24.3z"/>
		<path style="fill:#E2E2E2;" d="M38,17.9c-0.2-0.5-0.7-0.7-0.9-1.1c-0.2-0.3,0-1.1-0.2-1.6c-0.4-0.8-1.2-1.4-2.1-1.4c-1.6,0-2.9,1.7-2,3.2c-1.9,0.8-3.7,1.5-5.5,2.3c0-0.8-1.2-1.5-1.8-1.6c-1-0.2-2,0.3-2.4,1.2c-0.4,0.9-0.3,1.9,0.4,2.6c0.1,0.1,0.5,0.3,0.5,0.4c0,0.1-0.1,0.8-0.1,0.9c0,0.3,0.4,0.7,0.4,1c1.5,2.4,5.3,0.1,3.9-2.3c1.8-0.8,3.7-1.5,5.5-2.3c0,1.2,1.9,1.8,2.8,1.5C37.8,20.5,38.5,19.1,38,17.9C37.8,17.4,38.5,19,38,17.9z"/>
		<path style="fill:#FFFFFF;" d="M24.9,10.2C25.1,9.8,25,9.4,25.1,9c-0.2-0.2-0.1-0.4,0.1-0.4c0.2-0.1,0.3-0.2,0.4-0.3c0.5-0.5,0.7-1,0.7-1.7c-0.1-0.9-0.8-2.1-1.8-2.1c-0.6-0.1-1.3,0.1-1.7,0.4c-0.2,0.2-0.6,1-0.7,1c-0.3,0.1-5.4-2.4-5.5-2.5c-0.1-0.1,0.1-0.5,0.2-0.8C17,1.4,16.2,0.2,15,0c-1.2-0.2-2.4,0.6-2.6,1.8c0,0.2,0.1,0.8,0.1,0.9c0,0.1-0.6,0.3-0.6,0.4c-0.3,0.3-0.4,0.7-0.7,1c-0.3,1.2,0.3,2.4,1.5,2.8c0.5,0.2,1.1,0.1,1.6-0.1c0.3-0.1,0.5-0.3,0.7-0.5c0.1-0.1,0.3-0.5,0.4-0.6c0.5-0.3,5.4,2.1,5.5,2.3c0.1,0.2,0,0.2-0.1,0.5C20.1,11.1,23.9,12.8,24.9,10.2C25.1,9.7,24.5,11.4,24.9,10.2z"/>
		<path style="fill:#FCFCFC;" d="M32,28.6c0.1-0.4,0-0.7-0.1-1.1c0-0.1-0.1-0.3-0.1-0.4c0.1-0.1,0.2-0.2,0.3-0.3c0.3-0.6,0.7-0.9,0.6-1.6c0-1-0.9-2.1-2-2.1c-0.1,0-0.1,0-0.2,0c-0.1,0-0.1,0-0.2,0c-1.1,0.1-2,1-2,2.1c-1-0.2-5.9-1.1-5.9-1.1c-0.1-0.1,0.1-0.5,0.1-0.7c0-0.5-0.2-1-0.5-1.4c-0.6-0.8-1.7-1.2-2.7-0.7c-1,0.4-1.5,1.5-1.3,2.5c0.1,0.4,0.2,0.4,0,0.7c-0.1,0.2-0.3,0.4-0.5,0.6c-0.2,0.3-0.2,0.6-0.2,0.9c0,2.8,4.5,3.1,4.5,0.3c1.7,0.3,5.8,1,5.9,1.2c0.1,0.1-0.2,0.8-0.1,1.1c0.1,0.4,0.3,0.9,0.6,1.2C29.6,31,31.7,30.3,32,28.6C32.1,28,31.8,29.8,32,28.6z"/>
	</symbol>
	<symbol id="dog-food-2" viewBox="0 0 50 69">
		<path style="opacity:0.46;fill:#455549;" d="M25,55c13.8,0,25,3.1,25,6.8c0,3.8-11.2,6.8-25,6.8S0,65.6,0,61.8C0,58,11.2,55,25,55z"/>
		<path style="fill:#0A5975;" d="M23.7,64.2h1.6c15,0,22.3-4.6,22.3-7.5c0-0.1,0-0.3,0-0.4l0,0c-0.2-2.5-1.9-2.5-1.9-2.5l0,0l0.8,1.9c0,0-3.3,6.8-22.7,6.8S2.8,55.9,2.8,55.9l0.6-2.2c0,0-1.8,0-1.9,2.5l0,0c0,0.1,0,0.2,0,0.4C1.4,59.6,8.7,64.2,23.7,64.2z"/>
		<path style="fill:#14AAB2;" d="M45.6,53.8l-4.1-10c0,2.6-8,4.6-17.8,4.6c-9.8,0-17.8-2.1-17.8-4.6l-2.6,10l-0.6,2.2c0,0,1.6,6.5,20.9,6.5s22.7-6.8,22.7-6.8L45.6,53.8z"/>
		<path style="fill:#137089;" d="M2.8,55.9l0.6-2.2c0,0-1.8,0-1.9,2.5l0,0c0,0.1,0,0.2,0,0.4c0,1.1,1.1,2.5,3.2,3.7c0.2-0.5,0.5-1,0.8-1.5C3.1,57.3,2.8,55.9,2.8,55.9z"/>
		<path style="fill:#2BBFBF;" d="M11.9,47.2c-3.7-0.8-6-2.1-6-3.5l-2.6,10l-0.6,2.2c0,0,0.3,1.4,2.6,2.9c1.6-2.8,4.1-5.5,5.4-8.2C11.2,49.7,11.6,48.5,11.9,47.2z"/>
		<path style="fill:#0A5975;" d="M36.6,40.6c0,0.1,0,0.1,0,0.2c1.5,0.7,3.1,2.1,1.2,3.4c-0.8,1-2.6,1.3-3.7,1.5c-0.7,0.2-1.3,0.3-2,0.4c-0.7,0-1.5,0.2-2.1,0.3c-0.8,0.1-1.6,0.2-2.5,0.2c-1.5,0.1-3.1,0.1-4.6,0.1c-3.3,0-6.6-0.3-9.7-1.1c-1.1-0.2-2.9-0.5-3.6-1.5c-2.4-1.8,0.8-3.3,2.3-3.8c0,0,0,0,0,0c-1.4,0.3-7.8,1.8-5.5,4.4c0.7,0.9,2,1.3,3,1.7c1.8,0.6,3.7,1,5.5,1.3c4.7,0.7,9.5,0.8,14.3,0.4c3.5-0.3,7.5-0.7,10.7-2.5c0.8-0.4,1.9-1.2,1.6-2.3C41.1,41.7,38,41,36.6,40.6C36.6,40.7,39.6,41.4,36.6,40.6z"/>
		<path style="fill:#137089;" d="M9.7,44.4c-0.2-0.2-0.3-0.4-0.3-0.6c0-0.6,0.9-1.2,2.6-1.6c-0.1-0.6-0.3-1.1-0.5-1.7c-3.4,0.8-5.5,2-5.5,3.3c0,1.4,2.3,2.6,6,3.5c0.1-0.6,0.2-1.2,0.2-1.8C11,45.1,10.1,44.8,9.7,44.4z"/>
		<path style="fill:#044C60;" d="M47.5,56.7c0-0.1,0-0.3,0-0.4l0,0c-0.2-2.5-1.9-2.5-1.9-2.5l0,0l0.8,1.9c0,0-1.3,2.6-6.9,4.6c-0.1,0.7-0.1,1.4-0.1,2.2C44.9,60.8,47.5,58.4,47.5,56.7z"/>
		<path style="fill:#0C8C89;" d="M46.4,55.7l-0.8-1.9l-4.1-10c0,1.1-1.5,2.1-4,2.9c1.2,0.7,2.1,1.7,2.5,3.4c0.3,2.4,0.8,5,0,7.4c-0.3,0.9-0.4,1.8-0.5,2.8C45.1,58.3,46.4,55.7,46.4,55.7z"/>
		<path style="fill:#044C60;" d="M41.5,43.8c0-2.4-7.2-4.3-16.4-4.5c0.2,0.6,0.4,1.2,0.7,1.7c6.9,0.2,12.2,1.4,12.2,2.8c0,0.2-0.1,0.4-0.3,0.6c-0.5,0.5-1.7,0.9-3.3,1.3c1.1,0.2,2.2,0.5,3.1,1C40,45.9,41.5,44.9,41.5,43.8z"/>
		<path style="fill:#A0581D;" d="M38.5,40.5c0-1.5-1-4.2-3-3.2c-0.1-0.4-0.3-0.7-0.2-1.1c0.1-0.5,0.3-0.8,0.1-1.2c-0.3-0.7-1.2-1-1.8-1.2c-0.3-0.1-0.4-0.1-0.5-0.3c-0.1-0.2-0.2-0.6-0.3-0.8c-0.2-0.4-0.5-0.8-0.9-1.2c-0.7-0.6-1.7-0.8-2.5-0.2c-0.5-1-1.6-2-2.8-1.5c-1.2,0.5-1.4,2.1-1.3,3.2c-0.2-0.1-0.5-0.2-0.8-0.2c-0.1,0-0.4,0.1-0.5,0c-0.1-0.1-0.3-0.7-0.4-0.9c-0.3-0.6-0.7-1.2-1.3-1.5c-1.7-1-3,0.8-2.9,2.4c-1.4-0.4-2.3,0.8-2.4,2c-0.9-0.4-1.8,0.2-2.2,1.1c-1.1-1.2-2.7-1-3.3,0.5c-0.1,0.3-0.2,0.6-0.2,0.9c0,0.3,0.1,0.9,0,1.2c-0.1,0.3-0.8,0.6-1,0.8c-0.3,0.3-0.7,0.6-0.9,1c-0.7,1-0.4,1.9,0.6,2.4c0.6,0.3,1.3,0.5,2,0.6c0.7,0.1,1.6,0,2.3,0.2c0.7,0.3,1.4,0.8,2.1,1c0.8,0.3,1.6,0.5,2.4,0.7c1.8,0.4,3.7,0.7,5.6,0.8c3.4,0.3,6.9,0.2,10.3-0.4c1.6-0.3,3.4-0.7,4.8-1.6C41.2,42.7,40,41.3,38.5,40.5C38.5,40.5,39.7,41.1,38.5,40.5z"/>
		<path style="fill:#CE7B2D;" d="M36.6,40.8c0-1.7-1.4-4.1-3.4-3.2c-0.3-1.1-1.2-2.2-2.5-2.1c-1.4,0.1-2.2,1.6-2.4,2.8c-0.4-0.3-1-0.2-1.3-0.5c-0.2-0.1-0.1-0.7-0.2-1c-0.2-0.7-0.5-1.3-1-1.8c-1.5-1.3-3.4-0.1-3.8,1.7c-1.3-0.7-2.6,0.2-3.1,1.4c-0.9-0.6-2-0.3-2.7,0.5c-0.8-1.2-2.3-1.7-3.4-0.6c-0.6,0.5-0.7,1.2-1,1.9c0,0.1,0,0.3-0.1,0.4c-0.1,0.1-0.5,0.2-0.7,0.2c-0.4,0.2-0.8,0.3-1.1,0.5c-0.9,0.5-1.8,1.3-1.2,2.4c0.7,1.1,2.4,1.6,3.5,1.9c3.4,1,7.2,1.3,10.7,1.3c3.4,0,6.9-0.2,10.3-0.9c1.6-0.3,3.4-0.8,4.7-1.8C39.7,42.7,38,41.4,36.6,40.8C36.6,40.8,38,41.4,36.6,40.8z"/>
		<path style="fill:#FFFFFF;" d="M27,22.6c0.2-0.5,0.3-1.1,0.1-1.6c0.5-0.2,0.9-0.6,1.1-1.1c0.5-1.1,0-2.5-1.1-3c-0.1,0-0.1-0.1-0.2-0.1c0,0,0,0,0,0c-0.1,0-0.1,0-0.2-0.1c0,0,0,0,0,0c-0.1,0-0.1,0-0.2,0c0,0,0,0,0,0c-1-0.2-2,0.3-2.4,1.3c0,0.1-0.1,0.2-0.1,0.2L21.3,17l-0.6-0.3l0,0l-2.2-1c0-0.1,0.1-0.1,0.1-0.2c0.5-1.1,0-2.5-1.1-3c-1.1-0.5-2.5,0-3,1.1c-0.2,0.5-0.3,1.1-0.1,1.6c-0.5,0.2-0.9,0.6-1.1,1.1c0,0.1,0,0.1-0.1,0.2c0,0,0,0,0,0c0,0.1,0,0.1-0.1,0.2c0,0,0,0,0,0l0,0c-0.3,1,0.2,2.2,1.2,2.6c1.1,0.5,2.5,0,3-1.1c0-0.1,0.1-0.2,0.1-0.2l2.7,1.3l2.7,1.3c0,0.1-0.1,0.1-0.1,0.2c-0.5,1.1,0,2.5,1.1,3C25.1,24.2,26.5,23.7,27,22.6z"/>
		<path style="fill:#FFFFFF;" d="M35.1,3.2c-0.2-0.4-0.6-0.6-0.9-0.8c0.1-0.4,0-0.8-0.2-1.2c-0.5-0.8-1.6-1.1-2.4-0.6c0,0-0.1,0.1-0.1,0.1c0,0,0,0,0,0c0,0-0.1,0.1-0.1,0.1c0,0,0,0,0,0c0,0-0.1,0.1-0.1,0.1c0,0,0,0,0,0c-0.5,0.6-0.7,1.4-0.3,2.1c0,0.1,0.1,0.1,0.1,0.2l-2.1,1.2l-0.4,0.2v0l-1.6,1c0-0.1-0.1-0.1-0.1-0.2c-0.5-0.8-1.6-1.1-2.4-0.6c-0.8,0.5-1.1,1.6-0.6,2.4c0.2,0.4,0.6,0.6,0.9,0.8c-0.1,0.4,0,0.8,0.2,1.2c0,0,0,0.1,0.1,0.1c0,0,0,0,0,0c0,0,0.1,0.1,0.1,0.1c0,0,0,0,0,0v0c0.5,0.7,1.5,0.8,2.3,0.4c0.8-0.5,1.1-1.6,0.6-2.4c0-0.1-0.1-0.1-0.1-0.2L29.8,6l2.1-1.2C31.9,4.9,32,5,32,5c0.5,0.8,1.6,1.1,2.4,0.6C35.3,5.2,35.5,4.1,35.1,3.2z"/>
		<path style="fill:#FCFCFC;" d="M32,41.8c0-0.6-0.2-1.1-0.5-1.5c0.3-0.4,0.6-0.9,0.6-1.5c0-1.2-1-2.3-2.2-2.3c-0.1,0-0.1,0-0.2,0c0,0,0,0,0,0c-0.1,0-0.1,0-0.2,0c0,0,0,0,0,0c-0.1,0-0.1,0-0.2,0c0,0,0,0,0,0c-1,0.2-1.7,1.1-1.7,2.1c0,0.1,0,0.2,0,0.3l-3-0.1l-0.6,0l0,0l-2.4-0.1c0-0.1,0-0.2,0-0.3c0-1.2-1-2.3-2.2-2.3c-1.2,0-2.3,1-2.3,2.2c0,0.6,0.2,1.1,0.5,1.5c-0.3,0.4-0.6,0.9-0.6,1.5c0,0.1,0,0.1,0,0.2c0,0,0,0,0,0c0,0.1,0,0.1,0,0.2l0,0l0,0c0.2,1.1,1.1,1.9,2.2,1.9c1.2,0,2.3-1,2.3-2.2c0-0.1,0-0.2,0-0.3l3,0.1l3,0.1c0,0.1,0,0.2,0,0.3c0,1.2,1,2.3,2.2,2.3C31,44,32,43,32,41.8z"/>
	</symbol>
	<symbol id="dog-food-3" viewBox="0 0 50 58">
		<path style="opacity:0.46;fill:#455549;" d="M25,43.9c13.8,0,25,3.1,25,6.8c0,3.8-11.2,6.8-25,6.8S0,54.5,0,50.7C0,47,11.2,43.9,25,43.9z"/>
		<path style="fill:#F27CA7;" d="M47.2,40c0,0.1,0,0.3,0,0.4c0,2.9-7.3,7.5-22.3,7.5h-1.6c-15,0-22.3-4.6-22.3-7.5c0-0.1,0-0.3,0-0.4L0,45.4c0,0,2.4,7.4,24.2,7.4c21.9,0,24.7-7.6,24.7-7.6L47.2,40z"/>
		<path style="fill:#E06899;" d="M23.4,47.9h1.6c15,0,22.3-4.6,22.3-7.5c0-0.1,0-0.3,0-0.4c-0.2-2.5-1.9-2.5-1.9-2.5l0,0l0.8,1.9c0,0-2.6,5.2-16.2,6.5c-1.9,0.2-4.1,0.3-6.5,0.3c-2.3,0-4.4-0.1-6.2-0.3C3.7,44.7,2.4,39.7,2.4,39.7L3,37.5c0,0-1.8,0-1.9,2.5c0,0.1,0,0.2,0,0.4C1.1,43.3,8.4,47.9,23.4,47.9z"/>
		<path style="fill:#E06899;" d="M35.6,30.9c-7.1,1.7-15,1.7-22.1,0.5c0.1-0.4,0.2-1.2,0.4-1.5c0.2-0.3,0.6-0.1,1-0.1c0.6,0.1,1.1,0.2,1.7,0.2c2.7,0.3,5.4,0.4,8.1,0.3c2.4,0,4.9-0.2,7.3-0.5c0.6-0.1,1.3-0.2,1.9-0.3c0.5-0.1,0.5-0.2,0.8,0.1C35,29.8,35.3,30.5,35.6,30.9z"/>
		<path style="fill:#F27CA7;" d="M45.3,37.5l-4.1-10c0,1.3-2.1,2.5-5.6,3.4c-1.9,0.5-4.2,0.8-6.8,1c-1.7,0.1-3.5,0.2-5.4,0.2c-1.8,0-3.5-0.1-5.1-0.2c-0.1,0-0.3,0-0.4,0c-7.2-0.6-12.3-2.4-12.3-4.4L3,37.5l-0.6,2.2c0,0,1.2,5.1,14.7,6.3c1.8,0.2,3.9,0.3,6.2,0.3c2.4,0,4.5-0.1,6.5-0.3C43.5,44.6,46,39.4,46,39.4L45.3,37.5z"/>
		<path style="fill:#F99BC1;" d="M8,45.8c-4.7-1.6-7-3.8-7-5.4c0-0.1,0-0.3,0-0.4L0,45.4c0,0,0.9,2.8,6.7,5c0.1-1.2,0.3-2.3,0.8-3.3C7.7,46.6,7.8,46.2,8,45.8z"/>
		<path style="fill:#FFC5DF;" d="M2.4,39.7L3,37.5c0,0-1.8,0-1.9,2.5c0,0.1,0,0.2,0,0.4c0,1.6,2.3,3.8,7,5.4c0.2-0.5,0.5-1,0.7-1.5C3.1,42.4,2.4,39.7,2.4,39.7z"/>
		<path style="fill:#FFC5DF;" d="M12.6,29.4C12.6,29.4,12.6,29.4,12.6,29.4c-0.1,0-0.1,0-0.1,0C10.4,28.9,9,28.2,9,27.5c0-0.7,1.2-1.3,3.1-1.7c0-0.1,0-0.3,0.1-0.4c0.2-0.6,0.6-1.1,1.2-1.4c0-0.1,0-0.1-0.1-0.2c-4.7,0.8-7.7,2.1-7.7,3.7c0,1.7,3.3,3.1,8.3,3.9c0.1-0.6,0.2-1.2,0.3-1.8C13.6,29.6,13.1,29.5,12.6,29.4z"/>
		<path style="fill:#F99BC1;" d="M5.6,27.5L3,37.5l-0.6,2.2c0,0,0.7,2.7,6.3,4.6c2-4.1,4.3-8.6,5.2-12.9C8.9,30.6,5.6,29.2,5.6,27.5z"/>
		<path style="fill:#E06899;" d="M48.9,45.3L47.2,40c0,0.1,0,0.3,0,0.4c0,1.9-3.2,4.6-9.7,6.2c-0.8,1.9-1.7,3.7-2.6,5.5C47.1,50.2,48.9,45.3,48.9,45.3z"/>
		<path style="fill:#C14F83;" d="M47.2,40.4c0-0.1,0-0.3,0-0.4c-0.2-2.5-1.9-2.5-1.9-2.5l0,0l0.8,1.9c0,0-1.4,2.9-7.7,4.9c-0.2,0.8-0.5,1.6-0.8,2.3C44,45,47.2,42.3,47.2,40.4z"/>
		<path style="fill:#A0581D;" d="M32.8,17.6c-0.4-1.4-2.1-3.8-3.7-2.3c-0.5-1-1.6-2-2.8-1.5c-1.2,0.5-1.4,2.1-1.3,3.2c-0.2-0.1-0.5-0.2-0.8-0.2c-0.1,0-0.4,0.1-0.5,0c-0.1-0.1-0.3-0.7-0.4-0.9c-0.3-0.6-0.7-1.2-1.3-1.5c-1.7-1-3,0.8-2.9,2.4c-1.4-0.4-2.3,0.8-2.4,2c-0.9-0.4-1.8,0.2-2.2,1.1c-0.9-1-2.4-1.1-3.2,0.1c-0.3,0.6-0.4,1.3-0.4,1.9c0,0.5,0.1,0.5-0.3,0.8c-0.3,0.3-0.7,0.5-1,0.9c-0.7,0.7-1.4,1.7-0.6,2.6c0.8,0.9,2.4,1,3.5,1.1c3.2,0.3,6.5-0.3,9.6-1c3-0.7,6.1-1.7,8.9-3.1c1.4-0.7,3-1.6,3.8-2.9C35.9,18.7,34.2,17.9,32.8,17.6C32.7,17.1,34.1,17.9,32.8,17.6z"/>
		<path style="fill:#C14F83;" d="M41.2,27.5c0-1.5-2.6-2.7-6.7-3.5c0.5,0.2,0.8,0.6,1,1.1c0.1,0.3,0.2,0.6,0.2,1c1.3,0.4,2,0.9,2,1.5c0,0.3-0.2,0.5-0.6,0.8c-0.4,0.3-1,0.5-1.8,0.7c-0.3,0.1-0.5,0.2-0.8,0.2c-0.4,0.1-0.8,0.2-1.2,0.3c0.7,0.4,1.4,0.9,2,1.4c0.1,0,0.2,0,0.3-0.1C39,30,41.2,28.8,41.2,27.5z"/>
		<path style="fill:#CE7B2D;" d="M36.3,24.8c0-1.7-1.4-4.1-3.4-3.2c-0.3-1.1-1.2-2.2-2.5-2.1c-1.4,0.1-2.2,1.6-2.4,2.8c-0.4-0.3-1-0.2-1.3-0.5c-0.2-0.1-0.1-0.7-0.2-1c-0.2-0.7-0.5-1.3-1-1.8c-1.5-1.3-3.4-0.1-3.8,1.7c-1.3-0.7-2.6,0.2-3.1,1.4c-0.9-0.6-2-0.3-2.7,0.5c-0.8-1.2-2.3-1.7-3.4-0.6c-0.6,0.5-0.7,1.2-1,1.9c0,0.1,0,0.3-0.1,0.4c-0.1,0.1-0.5,0.2-0.7,0.2c-0.4,0.2-0.8,0.3-1.1,0.5c-0.9,0.5-1.8,1.3-1.2,2.4c0.7,1.1,2.4,1.6,3.5,1.9c3.4,1,7.2,1.3,10.7,1.3c3.4,0,6.9-0.2,10.3-0.9c1.6-0.3,3.4-0.8,4.7-1.8C39.3,26.7,37.7,25.4,36.3,24.8C36.3,24.8,37.7,25.4,36.3,24.8z"/>
		<path style="fill:#E06899;" d="M46,39.4l-0.8-1.9l-4.1-10c0,1.3-2.1,2.5-5.6,3.4c-0.1,0-0.2,0-0.3,0.1c3.3,2.9,4.5,8,3.2,12.7c-0.1,0.2-0.1,0.4-0.2,0.6C44.6,42.3,46,39.4,46,39.4z"/>
		<path style="fill:#E2E2E2;" d="M37.5,18.4c-0.2-0.5-0.6-0.7-0.8-1c-0.3-0.4-0.1-0.2-0.1-0.7c0-0.3,0-0.5-0.1-0.8c-0.3-0.9-1.1-1.5-2-1.6c-1.7-0.1-3,1.8-2.1,3.3c-1.9,0.8-3.7,1.5-5.6,2.3c-0.5-1.6-2.5-2.2-3.7-1.1c-0.6,0.5-0.8,1.3-0.7,2c0.1,0.4,0.2,0.8,0.5,1.1c0.1,0.1,0.3,0.2,0.4,0.4c0.3,0.4,0.2,0,0.2,0.5c0.1,0.6,0,1.1,0.3,1.6c0.4,0.6,1.1,1,1.8,1.1c1.7,0.1,2.9-1.8,2-3.3c1.9-0.8,3.7-1.5,5.6-2.3C34.1,22.8,38.7,21.2,37.5,18.4C37.3,17.9,38,19.6,37.5,18.4z"/>
		<path style="fill:#E2E2E2;" d="M24.4,10.7c0.2-0.5,0-1.3,0.2-1.6c0.3-0.4,0.8-0.5,1-1c0.4-0.8,0.2-1.8-0.4-2.5c-1.1-1.3-3.3-0.8-3.8,0.8c-1.8-0.9-3.7-1.7-5.5-2.6c0.8-1.4-0.1-3.3-1.7-3.4c-0.7-0.1-1.5,0.3-2,0.9c-0.3,0.3-0.4,0.8-0.5,1.2c0,0.2,0.1,0.5,0,0.6c-0.1,0.3-0.1,0.2-0.4,0.4c-1,0.8-1.2,2.3-0.3,3.3c1.1,1.3,3.3,0.9,3.8-0.8c1.8,0.9,3.7,1.7,5.5,2.6C18.9,11.2,23.2,13.5,24.4,10.7C24.7,10.2,23.9,11.9,24.4,10.7z"/>
		<path style="fill:#FCFCFC;" d="M31.5,29.1c0.1-0.3,0.1-0.7,0-1c0-0.1-0.2-0.5-0.2-0.6c0-0.1,0.5-0.5,0.5-0.6c0.1-0.2,0.2-0.4,0.3-0.6c0.3-0.9-0.1-2-1-2.5c-1.4-0.9-3.3,0-3.5,1.7c-2-0.4-4-0.8-5.9-1.2c0.5-1.6-0.9-3.2-2.5-2.9c-0.8,0.1-1.4,0.7-1.7,1.4c-0.2,0.4-0.2,0.9-0.1,1.4c0,0.1,0.2,0.5,0.2,0.6c0,0.1-0.4,0.3-0.4,0.5c-0.7,1-0.5,2.4,0.5,3.1c1.4,1,3.4,0.1,3.6-1.6c2,0.4,4,0.8,5.9,1.2C26.2,30.9,30.9,32.1,31.5,29.1C31.6,28.6,31.3,30.3,31.5,29.1z"/>
	</symbol>
	<symbol id="scale" viewBox="0 0 50 44">
		<path style="opacity:0.46;fill:#455549;" d="M25,30.2c13.8,0,25,3.1,25,6.8c0,3.8-11.2,6.8-25,6.8S0,40.8,0,37C0,33.2,11.2,30.2,25,30.2z"/>
		<path style="fill:#B04833;" d="M25.2,0.2c-20,0-21.4,21.1-21.4,37.6h42.8C46.6,21.3,45.2,0.2,25.2,0.2z"/>
		<circle style="fill:#F5F5F5;" cx="25.2" cy="19" r="15.9"/>
	</symbol>
	<symbol id="ground" viewBox="0 0 360 174">
		<path style="fill:#8AD797;" d="M342.9,75.5c-2-13.1-11.3-24.3-22.7-30.8c-11.5-6.5-24.9-8.8-38.1-8.9c-6.3,0-12.8,0.3-18.7-2c-5.9-2.4-10.4-7.3-16.1-10.2c-6-3.2-13.2-5.6-19.7-7.4c-17.2-4.9-34.4-5.5-51.6-4.5c-5.5-2.6-11.7-4.7-17.5-6.3c-27.1-7.7-54-4.8-81.3-1.9c-19.3,2-40,10.6-55.5,22.4C6.3,37.7-3.3,59.1,3.7,77.3c4.3,11.1,14,19.4,24.8,24.2c10.8,4.8,22.8,6.4,34.6,7.2c9.6,0.7,19.5,0.9,28.2,4.9c10.9,5,18.5,15,28.3,21.8c11.7,8.1,26.1,11.3,40.2,12.3c10,0.7,20,0.5,29.9-0.8c11.5,7.6,25.5,10.6,39.2,11.6c22.2,1.6,44.8-1.7,65.6-9.5c10.4-3.9,20.5-9.1,28.1-17.3c6-6.5,10.1-14.5,13.6-22.6C340.9,98.5,344.6,86.9,342.9,75.5z"/>
		<path style="opacity:0.66;fill:#B5A27E;" d="M159.8,147.7c-14.1-1-28.6-4.2-40.2-12.3c-9.8-6.8-17.4-16.9-28.3-21.8c-8.7-4-18.6-4.2-28.2-4.9c-11.8-0.8-23.7-2.4-34.6-7.2C17.7,96.7,7.9,88.4,3.7,77.3c-1.6-4.1-2.3-8.4-2.3-12.7c-2,7.8-1.9,16,1,23.6c4.4,11.4,14.4,19.9,25.5,24.8c11.2,4.9,23.4,6.5,35.6,7.4c9.9,0.7,20,0.9,29,5c11.2,5.1,19,15.4,29.1,22.4c12,8.3,26.9,11.6,41.4,12.6c16.6,1.2,33.4-0.2,49.6-4.2c-8.2-1.8-16.1-4.7-23-9.3C179.8,148.1,169.7,148.4,159.8,147.7z"/>
		<path style="fill:#B5A27E;" d="M253.2,27.4c1.8,1.3,3.6,2.7,5.5,3.9C256.9,30,255.1,28.6,253.2,27.4z"/>
		<path style="fill:#B5A27E;" d="M348.8,79c-2.1-13.4-11.6-24.9-23.4-31.6c-1.5-0.9-3.1-1.6-4.6-2.4c11.2,6.6,20.1,17.6,22.1,30.4c1.8,11.4-2,23-6.6,33.6c-3.5,8.1-7.6,16.1-13.6,22.6c-7.6,8.1-17.7,13.3-28.1,17.3c-20.8,7.9-43.4,11.2-65.6,9.5c-13.7-1-27.7-4-39.2-11.6c-1.7,0.2-3.4,0.4-5.1,0.5c1.8,1.5,3.5,2.9,5.4,4.2c12,8.3,26.9,11.6,41.4,12.6c22.9,1.7,46.1-1.7,67.6-9.8c10.7-4,21.1-9.4,29-17.7c6.2-6.6,10.4-14.9,14.1-23.2C346.7,102.6,350.6,90.8,348.8,79z"/>
		<path style="fill:#725C34;" d="M359.5,88c-2-12.7-10.6-23.7-21.5-30.5c5.5,6.1,9.5,13.4,10.7,21.5c1.8,11.8-2.1,23.6-6.8,34.5c-3.6,8.3-7.9,16.6-14.1,23.2c-7.8,8.3-18.3,13.7-29,17.7c-21.5,8.1-44.7,11.5-67.6,9.8c-14.6-1.1-29.4-4.3-41.4-12.6c-0.2-0.2-0.4-0.3-0.7-0.5c3.7,3.3,7.3,6.6,11.4,9.4c12,8.3,26.9,11.6,41.4,12.6c22.9,1.7,46.1-1.7,67.6-9.8c10.7-4,21.1-9.4,29-17.7c6.2-6.6,10.4-14.9,14.1-23.2C357.5,111.6,361.4,99.7,359.5,88z"/>
		<path style="fill:#B5A27E;" d="M189.7,146.9c-1.7,0.2-3.4,0.4-5.1,0.5c1.5,1.3,3.1,2.5,4.7,3.7c-1.4-1.3-2.8-2.5-4.2-3.7C186.7,147.3,188.2,147.1,189.7,146.9z"/>
	</symbol>
</svg>