<?xml version="1.0" encoding="utf-8"?>
<!-- Generator: Adobe Illustrator 19.0.0, SVG Export Plug-In . SVG Version: 6.00 Build 0)  -->
<svg version="1.1" id="分離模式" xmlns="http://www.w3.org/2000/svg" xmlns:xlink="http://www.w3.org/1999/xlink" x="0px" y="0px" viewBox="0 0 100 100" style="enable-background:new 0 0 100 100;" xml:space="preserve">
	<path d="M54.8,4.7c0-2.6-2.1-4.7-4.7-4.7c-2.6,0-4.7,2.1-4.7,4.7s2.1,4.7,4.7,4.7C52.7,9.4,54.8,7.3,54.8,4.7z M50.1,7c-1.3,0-2.4-1.1-2.4-2.4s1.1-2.4,2.4-2.4c1.3,0,2.4,1.1,2.4,2.4S51.4,7,50.1,7z"/>
	<path d="M59.1,28.5h12.4v-3.2H55.3c-0.9,0-1.6-0.7-1.6-1.6s0.7-1.6,1.6-1.6h16.1c-0.7-7.1-6.7-12.8-14-12.8h-7.3h-7.5c-7.7,0-14.1,6.3-14.1,14.1v41.3c0,7.6,6.1,13.9,13.7,14.1v3.3c0,1.8,1.5,3.3,3.3,3.3h2.3v12.3c0,1.2,1,2.3,2.3,2.3s2.3-1,2.3-2.3V85.4h2.3c1.8,0,3.3-1.5,3.3-3.3c0-0.3-0.1-0.7-0.2-1v-2.3c7.6-0.1,13.9-6.4,13.9-14.1V38.2c0,0,0,0,0,0h-15c-0.9,0-1.7-0.8-1.7-1.7c0-0.9,0.8-1.7,1.7-1.7h15c0,0,0,0,0,0v-3.7H59.1c-0.7,0-1.3-0.6-1.3-1.3S58.4,28.5,59.1,28.5z M66.5,45.5v21.8c0,3.9-3.2,7-7,7H40.5c-3.9,0-7-3.2-7-7V45.5H66.5z"/>
</svg>