<?xml version="1.0" encoding="utf-8"?>
<!-- Generator: Adobe Illustrator 21.0.0, SVG Export Plug-In . SVG Version: 6.00 Build 0)  -->
<svg version="1.1" id="圖層_1" xmlns="http://www.w3.org/2000/svg" xmlns:xlink="http://www.w3.org/1999/xlink" x="0px" y="0px"
	 viewBox="0 0 72 72" style="enable-background:new 0 0 72 72;" xml:space="preserve">
	<path d="M56.3,43.9c-0.3,0-0.5-0.1-0.7-0.3l-2.1-1.8c-0.5-0.4-0.5-1.1-0.1-1.6c0.4-0.5,1.1-0.5,1.6-0.1l1.4,1.2c0.5-0.5,1.1-0.9,1.8-1.2c0.6-0.3,1.2,0,1.5,0.5c0.3,0.6,0,1.2-0.5,1.5c-0.7,0.4-1.4,0.8-1.9,1.4C56.9,43.8,56.6,43.9,56.3,43.9z"/>
	<path d="M50.4,39c-0.3,0-0.5-0.1-0.7-0.3l-3.7-3.1c-0.5-0.4-0.5-1.1-0.1-1.6c0.4-0.5,1.1-0.5,1.6-0.1l3.7,3.1c0.5,0.4,0.5,1.1,0.1,1.6C51,38.8,50.7,39,50.4,39z M42.9,32.7c-0.3,0-0.5-0.1-0.7-0.3l-3.7-3.1c-0.5-0.4-0.5-1.1-0.1-1.6c0.4-0.5,1.1-0.5,1.6-0.1l3.7,3.1c0.5,0.4,0.5,1.1,0.1,1.6C43.6,32.5,43.2,32.7,42.9,32.7z M35.5,26.4c-0.3,0-0.5-0.1-0.7-0.3L31,23c-0.5-0.4-0.5-1.1-0.1-1.6c0.4-0.5,1.1-0.5,1.6-0.1l3.7,3.1c0.5,0.4,0.5,1.1,0.1,1.6C36.1,26.3,35.8,26.4,35.5,26.4z"/>
	<path d="M28,20.1c-0.3,0-0.5-0.1-0.7-0.3l-2.1-1.8c-0.5-0.4-0.5-1.1-0.2-1.5c0.5-0.6,0.8-1.4,1.1-2.1c0.2-0.6,0.8-0.9,1.4-0.8c0.6,0.2,0.9,0.8,0.8,1.4c-0.2,0.7-0.5,1.4-0.8,2l1.4,1.2c0.5,0.4,0.5,1.1,0.1,1.6C28.6,20,28.3,20.1,28,20.1z"/>
	<path d="M12.7,11.6c-0.1,0-0.2,0-0.3,0c-0.6-0.2-0.9-0.8-0.8-1.4C12,9,12.5,8,13.3,7.1c0.7-0.8,1.5-1.5,2.5-2C16.3,4.8,17,5,17.3,5.5c0.3,0.5,0.1,1.2-0.4,1.5c-0.7,0.4-1.3,0.9-1.8,1.5c-0.6,0.7-1,1.4-1.2,2.3C13.6,11.3,13.2,11.6,12.7,11.6z M26.4,10.1c-0.4,0-0.8-0.2-1-0.6c-0.4-0.7-0.9-1.3-1.5-1.8c-0.7-0.6-1.5-1-2.3-1.2c-0.6-0.2-0.9-0.8-0.8-1.4c0.2-0.6,0.8-0.9,1.4-0.8c1.2,0.3,2.2,0.9,3.1,1.7c0.8,0.7,1.5,1.5,2,2.4C27.7,9,27.5,9.7,27,10C26.8,10.1,26.6,10.1,26.4,10.1z"/>
	<path d="M15.1,19.5c-0.3,0-0.5-0.1-0.7-0.3c-0.6-0.5-1.3-0.9-2.1-1.2c-0.6-0.2-0.9-0.8-0.7-1.4c0.1-0.3,0.3-0.6,0.6-0.7c0.1-0.3,0.3-0.6,0.6-0.7c0.5-0.3,1.2-0.1,1.5,0.5c0.4,0.7,0.9,1.3,1.5,1.8c0.3,0.2,0.4,0.5,0.4,0.9c0,0.3-0.1,0.5-0.3,0.7C15.7,19.4,15.4,19.5,15.1,19.5z"/>
	<path d="M7.7,32.3c-0.1,0-0.2,0-0.4-0.1c-1-0.3-1.9-0.9-2.7-1.5C3.7,30,3,29,2.5,27.9c-0.3-0.6,0-1.2,0.5-1.5c0.6-0.3,1.2,0,1.5,0.5c0.4,0.8,0.9,1.5,1.6,2.1c0.6,0.5,1.3,0.9,2,1.1C8.7,30.4,9,31,8.8,31.6C8.6,32.1,8.2,32.3,7.7,32.3z M3.1,22.8c-0.1,0-0.2,0-0.4-0.1c-0.6-0.2-0.9-0.8-0.7-1.4c0.3-1,0.9-1.9,1.6-2.7c0.8-0.9,1.7-1.7,2.8-2.2c0.6-0.3,1.2,0,1.5,0.5c0.3,0.6,0,1.2-0.5,1.5c-0.8,0.4-1.5,0.9-2.1,1.6c-0.5,0.6-0.9,1.3-1.2,2C4,22.5,3.6,22.8,3.1,22.8z"/>
	<path d="M17.9,32.2c-0.3,0-0.5-0.1-0.7-0.3l-1.4-1.2c-0.5,0.5-1.2,0.9-1.8,1.2c-0.6,0.3-1.2,0-1.5-0.5c-0.3-0.6,0-1.2,0.5-1.5c0.7-0.3,1.4-0.8,1.9-1.4c0.4-0.4,1.1-0.5,1.5-0.1l2.1,1.8c0.5,0.4,0.5,1.1,0.1,1.6C18.5,32,18.2,32.2,17.9,32.2z"/>
	<path d="M40.3,51c-0.3,0-0.5-0.1-0.7-0.3l-3.7-3.1c-0.5-0.4-0.5-1.1-0.1-1.6c0.4-0.5,1.1-0.5,1.6-0.1L41,49c0.5,0.4,0.5,1.1,0.1,1.6C40.9,50.8,40.6,51,40.3,51z M32.8,44.7c-0.3,0-0.5-0.1-0.7-0.3l-3.7-3.1c-0.5-0.4-0.5-1.1-0.1-1.6c0.4-0.5,1.1-0.5,1.6-0.1l3.7,3.1c0.5,0.4,0.5,1.1,0.1,1.6C33.4,44.6,33.1,44.7,32.8,44.7z M25.3,38.4c-0.3,0-0.5-0.1-0.7-0.3L20.9,35c-0.5-0.4-0.5-1.1-0.1-1.6s1.1-0.5,1.6-0.1l3.7,3.1c0.5,0.4,0.5,1.1,0.1,1.6C26,38.3,25.7,38.4,25.3,38.4z"/>
	<path d="M44.9,58.4c-0.1,0-0.2,0-0.3,0c-0.6-0.2-0.9-0.8-0.8-1.4c0.2-0.7,0.5-1.4,0.8-2l-1.4-1.2c-0.5-0.4-0.5-1.1-0.1-1.6c0.4-0.5,1.1-0.5,1.6-0.1l2.1,1.8c0.5,0.4,0.5,1.1,0.2,1.5c-0.5,0.6-0.8,1.4-1.1,2.1C45.8,58.1,45.4,58.4,44.9,58.4z"/>
	<path d="M50,67.7c-0.1,0-0.2,0-0.3,0c-1.2-0.3-2.2-0.9-3.1-1.7c-0.8-0.7-1.5-1.5-2-2.4C44.3,63,44.5,62.3,45,62c0.5-0.3,1.2-0.1,1.5,0.4c0.4,0.7,0.9,1.3,1.5,1.8c0.7,0.6,1.5,1,2.3,1.2c0.6,0.2,0.9,0.8,0.8,1.4C51,67.4,50.5,67.7,50,67.7z M55.7,67.1c-0.4,0-0.8-0.2-1-0.6c-0.3-0.5-0.1-1.2,0.5-1.5c0.7-0.4,1.3-0.9,1.8-1.5c0.6-0.7,1-1.4,1.2-2.3c0.2-0.6,0.8-0.9,1.4-0.8c0.6,0.2,0.9,0.8,0.8,1.4c-0.3,1.1-0.9,2.2-1.7,3.1c-0.7,0.8-1.5,1.5-2.5,2C56.1,67,55.9,67.1,55.7,67.1z"/>
	<path d="M58.7,56.9c-0.4,0-0.8-0.2-1-0.6c-0.4-0.7-0.9-1.3-1.5-1.8c-0.3-0.2-0.4-0.5-0.4-0.9c0-0.3,0.1-0.5,0.3-0.7c0.4-0.5,1.1-0.5,1.6-0.1c0.6,0.5,1.3,0.9,2.1,1.2c0.6,0.2,0.9,0.8,0.7,1.4c-0.1,0.3-0.3,0.6-0.6,0.7c-0.1,0.3-0.3,0.6-0.6,0.7C59.1,56.8,58.9,56.9,58.7,56.9z"/>
	<path d="M65.1,55.7c-0.4,0-0.8-0.2-1-0.6c-0.3-0.6,0-1.2,0.5-1.5c0.8-0.4,1.5-0.9,2.1-1.6c0.5-0.6,0.9-1.3,1.2-2c0.2-0.6,0.8-0.9,1.4-0.7c0.6,0.2,0.9,0.8,0.7,1.4c-0.3,1-0.9,1.9-1.6,2.8c-0.8,0.9-1.7,1.7-2.8,2.2C65.4,55.7,65.3,55.7,65.1,55.7z M68.5,45.7c-0.4,0-0.8-0.2-1-0.6c-0.4-0.8-0.9-1.5-1.6-2.1c-0.6-0.5-1.3-0.9-2-1.1c-0.6-0.2-0.9-0.8-0.7-1.4c0.2-0.6,0.8-0.9,1.4-0.7c1,0.3,1.9,0.9,2.7,1.5c0.9,0.8,1.7,1.7,2.2,2.8c0.3,0.6,0,1.2-0.5,1.5C68.9,45.7,68.7,45.7,68.5,45.7z"/>
</svg>