<?xml version="1.0" encoding="utf-8"?>
<!-- Generator: Adobe Illustrator 21.0.0, SVG Export Plug-In . SVG Version: 6.00 Build 0)  -->
<svg version="1.1" id="圖層_1" xmlns="http://www.w3.org/2000/svg" xmlns:xlink="http://www.w3.org/1999/xlink" x="0px" y="0px"
	 viewBox="0 0 72 72" style="enable-background:new 0 0 72 72;" xml:space="preserve">
	<path d="M67.3,42.2c-3.1-2.6-7.8-2.3-10.6,0.7L25.6,16.8c2.5-3.2,2-7.9-1.2-10.5C21.2,3.6,16.4,4,13.7,7.2c-2.7,3.2-2.3,8.1,0.9,10.8c-3.2-2.7-8.1-2.3-10.8,0.9C1.1,22.2,1.5,27,4.7,29.8c3.1,2.6,7.8,2.3,10.6-0.7l31.1,26.1c-2.5,3.2-2,7.9,1.2,10.5c3.2,2.7,8.1,2.3,10.8-0.9c2.7-3.2,2.3-8.1-0.9-10.8c3.2,2.7,8.1,2.3,10.8-0.9C70.9,49.8,70.5,45,67.3,42.2z"/>
</svg>