<?xml version="1.0" encoding="utf-8"?>
<!-- Generator: Adobe Illustrator 19.0.0, SVG Export Plug-In . SVG Version: 6.00 Build 0)  -->
<svg version="1.1" id="OBJECTS" xmlns="http://www.w3.org/2000/svg" xmlns:xlink="http://www.w3.org/1999/xlink" x="0px" y="0px" viewBox="0 32 100 38" style="enable-background:new 0 32 100 38;" xml:space="preserve">
	<path style="fill:#363636;" d="M0.6,57.3c0,0,0.8,6.1,1.3,6.2c0.5,0,2.8,0,2.8,0l0.4-6.3L0.6,57.3z"/>
	<path style="fill:#325D87;" d="M41.4,32c-1.3,0-3.8,0.6-6.2,2.4c-0.4,0.3-0.8,1-1.2,1.4c-2.6,2.6-7.5,7.1-8.6,7.1s-14.6,1.2-19,4.3C2,50.3,2.2,51.5,2,52.6c-0.1,1.1-2,1.8-2,2.9s0,1.9,0,2.3s2,0.4,2.7,1.1c0.7,0.7,1.6,2.9,0.6,2.9s-1.7,0-2.2,0s-0.8,0.5-0.8,1.1c0,0.5,0.3,1.8,2.5,1.8c0.3,0,2,0,4.6,0c2.4-0.4,5.8-0.4,9.6-0.4c2.7,0,5.7,0,8.8,0.4c16.2,0,36.8,0,46.6,0c3.4-0.4,5.4-1,5.4-1s3.6-2.2,7.8-2.2c2.5,0,4.1,0.2,5.1,0.7c0.6,0,1.1,0,1.5,0c1.1,0,3-1.4,3-2.4c0-0.9,0-5,0-5.5s-2.1-1.7-2.1-2.7s0-5.6,0-6.6c0-0.3-0.6-1.1-1.4-2.3c-0.9-1.2-2.6-2.6-3.7-4c-1.5-1.9-2.5-3.8-3-4.4c0-0.2-0.1-0.3-0.1-0.3c-0.6-0.6,1-0.6,1-1s-3.5-1-5.2-1C79,32,42.9,32,41.4,32z"/>
	<path style="fill:#22446D;" d="M3.4,49.8c-1.3,1.4-1.2,2.1-1.3,2.9c-0.1,1.1-2,1.8-2,2.9s0,1.9,0,2.3s2,0.4,2.7,1.1c0.7,0.7,1.6,2.9,0.6,2.9s-1.7,0-2.2,0S0.4,62.4,0.4,63c0,0.5,0.3,1.8,2.5,1.8c0.3,0,2,0,4.6,0c2-0.9,5.8-0.6,9.6-0.6c2.7,0,6.7,0.1,8.7,0.6c16.2,0,36.8,0,46.6,0c3.6,0,5.5-0.4,5.5-0.4s3.8-2.3,8-2.3c2.5,0,3.9,0.1,4.8,0.1c0.6,0,1.1,0,1.5,0c1.1,0,3-1.4,3-2.4c0-0.9,0-5,0-5.5s-2.1-1.7-2.1-2.7c0-0.3,0-1,0-1.8H3.4z"/>
	<path style="fill:#193251;" d="M63.9,43c0.8,4.5-0.6,15.6-0.7,15.7c-0.3,2.5-2.3,3.7-2.9,3.7H32.8c-0.8,0-1.1-0.8-1.1-1.3V45.7c0-1.3,4.8-5.2,5-5.4l0.1,0.2c-1.4,1.1-4.9,4.3-4.9,5.2v15.5c0,0.4,0.2,1.1,0.9,1.1h27.5c0.5,0,2.4-1.1,2.7-3.6c0-0.1,1.4-11.2,0.7-15.6L63.9,43z M86,46.4c0,1.2-1,2.3-2.3,2.3c-1.2,0-2.3-1-2.3-2.3c0-1.2,1-2.3,2.3-2.3C85,44.2,86,45.2,86,46.4z M85.8,46.4c0-1.1-0.9-2.1-2.1-2.1c-1.1,0-2.1,0.9-2.1,2.1c0,1.1,0.9,2.1,2.1,2.1S85.8,47.6,85.8,46.4z"/>
	<path style="fill:#242424;" d="M25.9,64.7v-2.5c0-5.1-4.1-9.2-9.2-9.2s-9.2,4.1-9.2,9.2v2.5C11.7,64.7,18.3,64.7,25.9,64.7z"/>
	<path style="fill:#363636;" d="M16.6,69.4c0,0.3,0.3,0.6,0.6,0.6h17.7c0.3,0,0.6-0.3,0.6-0.6v0c0-0.3-0.3-0.6-0.6-0.6H17.2C16.8,68.8,16.6,69,16.6,69.4L16.6,69.4z"/>
	<path style="fill:#242424;" d="M81.6,53c-5.1,0-9.2,4.1-9.2,9.2v2.5c3.6,0,5.7,0,5.7,0s3.6-2.5,7.8-2.5c2.5,0,3.9,0,4.8,0C90.8,57.1,86.7,53,81.6,53z"/>
	<path style="fill:#363636;" d="M81.6,69.4c0,0.3,0.3,0.6,0.6,0.6h17.7c0.3,0,0.6-0.3,0.6-0.6v0c0-0.3-0.3-0.6-0.6-0.6H82.2C81.8,68.8,81.6,69,81.6,69.4L81.6,69.4z"/>
	<path style="fill:#474747;" d="M81.6,35.6c-0.3-0.4-1-1.4-2.9-1.4s-34.7,0-34.7,0c-0.9,0-1.7,0-2.5,0.9c-0.9,0.9-6.3,6.4-6.7,6.7s-0.3,1.8,1.5,1.8s45.6,0,46.8,0c1.1,0,1.6-0.5,1.4-1.3C84.4,41.6,81.9,36,81.6,35.6z"/>
	<path style="fill:#474747;" d="M85.1,34.2c-0.4,0-0.9,0.3-0.6,0.9c0.4,0.7,4.3,6.7,4.5,7c0.2,0.3,0.9,0.5,2.8,0.5C89.7,39.9,86,35.4,85.1,34.2z"/>
	<path style="fill:#474747;" d="M28.8,43.2c0.3,0,0.7-0.2,1.3-0.8c0.6-0.6,6.6-6.4,7.1-6.9s0.8-1.1,0.1-1.1c-0.3,0-1.2,0-2.1,0c-0.4,0.3-0.9,0.7-1.3,1.1c-2.6,2.6-7.4,7.4-8.5,7.4l0,0c0.2,0.2,0.4,0.3,0.5,0.3C26.6,43.2,28.5,43.2,28.8,43.2z"/>
	<path style="fill:#292929;" d="M63.8,43.6c1.2,0,2.3,0,3.5,0l-1-9.4c-0.8,0-1.6,0-2.4,0v9.4H63.8z"/>
	<path style="fill:#FFFFFF;" d="M11.4,46.7c-1.1,0.1-4.2,0.8-5.5,1.6s-3.4,4.6-1.8,4.6s2.6,0,3,0s2.5-0.7,3.7-2.2C11.9,49.1,12.6,46.5,11.4,46.7z"/>
	<path style="fill:#FFEA50;" d="M7.1,52.8c0.4,0,2.5-0.7,3.7-2.2c1.1-1.5,1.8-4.1,0.6-3.9c-0.4,0.1-1.2,0.2-2,0.4c-1.4,1.2-3.3,3.3-3.3,5.7C6.6,52.8,7,52.8,7.1,52.8z"/>
	<path style="fill:#FF7B4D;" d="M93.2,51.6c0-0.8,0-4.2,0-5.9h-1.8c-0.4,0-0.7,0.3-0.7,0.7v4.5c0,0.4,0.3,0.7,0.7,0.7L93.2,51.6L93.2,51.6z"/>
	<path style="fill:#DB5425;" d="M93.2,51.6c0-0.3,0-1,0-1.8h-2.5V51c0,0.4,0.3,0.7,0.7,0.7L93.2,51.6L93.2,51.6z"/>
	<polygon style="fill:#8A8A8A;" points="50.3,43.6 47.3,43.6 52.8,34.2 55.8,34.2 "/>
	<polygon style="fill:#8A8A8A;" points="56.1,43.6 54.2,43.6 59.7,34.2 61.6,34.2 "/>
</svg>