<?xml version="1.0" encoding="utf-8"?>
<!-- Generator: Adobe Illustrator 19.0.0, SVG Export Plug-In . SVG Version: 6.00 Build 0)  -->
<svg version="1.1" id="OBJECTS" xmlns="http://www.w3.org/2000/svg" xmlns:xlink="http://www.w3.org/1999/xlink" x="0px" y="0px" viewBox="0 29 100 43" style="enable-background:new 0 29 100 43;" xml:space="preserve">
	<polygon style="fill:#363636;" points="98.8,58.1 98.8,65 93.2,64.6 93.4,60.2 "/>
	<path style="fill:#FFD352;" d="M41.1,29c1.9,0,10.1-0.4,16,2.6s17.8,10.3,18.4,10.3c0.6,0,2.5,0.1,3.8,0.3c6.1,0.9,15.3,4.2,16.9,6.2c1.6,1.9,1.4,4.3,1.9,5.2c0.6,0.9,1.4,0.8,1.4,2.4c0,1.5,0,1.5,0,1.9s0.1,1.2-0.9,1.2s-3.4,2-3.4,3.4s0.8,1.3,1.3,1.3s2.8,0,3,0s0.5,0.4,0.3,1.1c-0.2,0.7-0.9,1.8-2.7,1.8c-1.8,0-78.2,0-78.2,0s-7.3-1.9-9.9-1.9s-5.2,0-5.8,0s-1.7-1.3-2.2-3c-0.6-1.7-1.1-5.5-0.9-6.1c0.2-0.5,1.8-1.4,1.8-2.5c0-1.1,0-9.3,0-9.7c0-0.4,7.8-10,7.8-10c0.1-0.2-0.7-0.7-0.4-1s14.2-3.5,19-3.5S41.1,29,41.1,29z"/>
	<path style="fill:#F7BF45;" d="M97.8,52.2c0.1,0.6,0.2,1.1,0.4,1.4c0.6,0.9,1.4,0.8,1.4,2.4c0,1.5,0,1.5,0,1.9c0,0.4,0.1,1.2-0.9,1.2s-3.4,2-3.4,3.4s0.8,1.3,1.3,1.3s2.8,0,3,0s0.5,0.4,0.3,1.1c-0.2,0.7-0.9,1.8-2.7,1.8c-1.8,0-78.2,0-78.2,0s-7.3-1.9-9.9-1.9s-5.2,0-5.8,0s-1.7-1.3-2.2-3c-0.6-1.7-1.1-5.5-0.9-6.1C0.4,55.2,2,54.3,2,53.2c0-0.2,0-0.5,0-1C2,52.2,97.8,52.2,97.8,52.2z"/>
	<path style="fill:#BD9C3D;" d="M40.7,65h22.8c1.4,0,1.8-0.4,1.8-1.8V47.3c0-5.3-3.3-7.6-3.4-7.6l-0.1,0.2c0,0,3.3,2.3,3.3,7.4v15.8c0,1.3-0.3,1.6-1.6,1.6H40.7c-1,0-1.8-0.1-1.8-1.8V47.6c0-1.6-0.3-3.3-0.9-5.3l-0.2,0.1c0.6,2,0.9,3.6,0.9,5.2v15.3C38.7,64.8,39.7,65,40.7,65z"/>
	<path style="fill:#636363;" d="M12.2,54.7c5.1,0,9.3,4.2,9.3,9.3v2.6c-1.6,0-2.5,0-2.5,0s-7.3-1.9-9.9-1.9s-5.2,0-5.8,0c-0.1,0-0.2,0-0.3-0.1V64C2.9,58.9,7,54.7,12.2,54.7z"/>
	<path style="fill:#636363;" d="M71,64c0-5.1,4.2-9.3,9.3-9.3c5.1,0,9.3,4.2,9.3,9.3v2.6c-4.8,0-11.4,0-18.6,0C71,66.6,71,64,71,64z"/>
	<path style="fill:#545454;" d="M9.5,33.6L9.5,33.6c0.9,0,1.2,0.3,0.5,1.6s-3.5,6.4-4,6.9C5.6,42.7,5.3,43,3.4,43c-0.5,0-1,0-1.3,0C3.3,41.3,8.3,35,9.5,33.6z M18.8,41.7c1,1.7,2.4,2,3.6,2s37.1,0,39.2,0c2,0,2-1.2,1.8-2.1c-0.2-0.9-5.5-5.4-11.5-7.8c-6-2.3-10.6-1.8-13.3-1.8c-10.5,0-19.2,1-20.8,1.3c-2.6,0.6-2.6,1.8-2.3,2.3C15.8,36.2,17.8,39.9,18.8,41.7z M75.6,41.8c-0.6,0-12.5-7.3-18.4-10.3c-0.2-0.1-0.4-0.2-0.6-0.3c-0.5,0-1,0-1.3,0.1c-0.9,0.2-1,0.8-0.5,1.1c0.6,0.3,2.8,1.6,5,2.9s7.7,5.3,9.2,6.5c1.5,1.1,2.8,1.2,4.1,0.9C73.5,42.5,74.6,42.2,75.6,41.8z"/>
	<path style="fill:#292929;" d="M41.5,43.6c-1.8,0-3.6,0-5.3,0L34.8,32c1,0,2,0,3.1,0L41.5,43.6z"/>
	<path style="fill:#FFFFFF;" d="M83.1,45.8c0,0,7.3,0.8,9.4,1.8c2,1,3.7,3.6,3.8,4.6c0.1,1-0.4,1.3-1.5,0.8c-1-0.5-6.9-3.1-7.7-3.5C86.3,49.1,81.8,45.6,83.1,45.8z"/>
	<path style="fill:#FF7B4D;" d="M91.7,51.6c-2-0.9-4.2-1.9-4.6-2.1c-0.8-0.4-5.3-3.9-4-3.7c0,0,2.7,0.3,5.3,0.8C89.5,47.8,90.8,49.7,91.7,51.6z"/>
	<path style="fill:#FF7B4D;" d="M4,43.6c0.6,0,1,0.4,1,1v5.3c0,0.6-0.4,1-1,1H1.9c0-2.5,0-6.3,0-7.3C1.9,43.6,4,43.6,4,43.6z"/>
	<path style="fill:#BD9C3D;" d="M9.5,46.6c0-1.4,1.2-2.6,2.6-2.6s2.6,1.2,2.6,2.6c0,1.4-1.2,2.6-2.6,2.6S9.5,48.1,9.5,46.6z M9.8,46.6c0,1.3,1.1,2.3,2.3,2.3c1.3,0,2.3-1.1,2.3-2.3c0-1.3-1.1-2.3-2.3-2.3C10.8,44.3,9.8,45.4,9.8,46.6z"/>
	<path style="fill:#8A8A8A;" d="M50.8,43.6l-5.6-11.5c2,0.2,4.2,0.7,6.7,1.7c0.6,0.2,1.1,0.5,1.7,0.7l4.4,9.1C56.1,43.6,53.6,43.6,50.8,43.6z"/>
	<path style="fill:#8A8A8A;" d="M38.6,32c1,0,2.2-0.1,3.7,0L48,43.6c-1.2,0-2.4,0-3.7,0L38.6,32z"/>
	<path style="fill:#8A8A8A;" d="M18.6,33.1c1.3-0.2,3.7-0.5,6.9-0.7L31,43.6c-3.1,0-5.7,0-7.2,0L18.6,33.1z"/>
</svg>