<?xml version="1.0" encoding="utf-8"?>
<!-- Generator: Adobe Illustrator 19.0.0, SVG Export Plug-In . SVG Version: 6.00 Build 0)  -->
<svg version="1.1" id="圖層_1" xmlns="http://www.w3.org/2000/svg" xmlns:xlink="http://www.w3.org/1999/xlink" x="0px" y="0px"
	 viewBox="0 0 100 72" style="enable-background:new 0 0 100 72;" xml:space="preserve">
<g>
	<g>
		<path style="fill:#96A8AA;" d="M18.8,38.4c-3.1,0.3-4.3,1.5-6.9,3.3c-0.6,0.4-1.2,0.9-1.4,1.6c-0.3,0.9,0.2,1.9,1,2.5
			c0.8,0.6,2.6,2.6,3.6,2.7c4.3,0.6,6.2-2.3,10.3-1c1.5,0.5,9.6,6.6,12.6,7.2c9.2,1.9,24-7.4,19,3c0.2,2.1,4.7-0.6,3.6,1.3
			c-1.1,1.9-7.4,4.2-6.8,8.4c0.3,2.2,3.8,4.1,6,4.3c4.4,0.4,10.2,0.3,14.4-1.1c2.7-0.9,5.3-2,7.9-3.4c4.9-2.6,6.4-3.3,9.2-5.8
			c2.1-1.8,4.2-4.3,6.2-6.7c1.2-1.4,2.1-4.1,2.4-5.7c0.4-2.7-0.4-4.9-1-5.8c-0.4-0.7-1.9-1.8-3.4-2.1c-3.5-0.7-7-0.9-10.5-1
			c-11.6-0.1-22.9-4-34.6-4.4c-9.9-0.3-19.8,1.9-29.8,1.9L18.8,38.4z"/>
	</g>
	<g>
		<path style="fill:#5C3A1F;" d="M23.6,50.4c-1.9-0.2-3.9,0-5.7,0.7c-0.7,0.3-1.4,0.6-1.9,1.2c-0.5,0.6-0.6,1.5-0.1,2.1
			c0.4,0.5,1.2,0.6,1.8,0.9c0.6,0.3,1.2,0.9,1,1.5c-0.2,0.5-0.8,0.6-1.2,0.8c-3.9,0.9-8.4,1.7-10.4,5.2c-0.2,0.3-0.4,0.7-0.3,1.1
			c0.1,0.5,0.4,0.8,0.8,1.1c2.4,1.5,5.5,0.1,8.4,0c0.5,0,1.1,0.2,1,0.7c-1.2,0.9-2.5,2.4-1.7,3.5c0.4,0.6,1.1,0.8,1.8,0.9
			c2.2,0.5,4.5,0.7,6.7,0.3c2.2-0.5,4.4-1.7,5.5-3.6c0.4-0.7,0.8-1.5,1.5-2c0.8-0.5,1.8-0.5,2.8-0.6s2-0.5,2.3-1.5
			c0.2-0.9-0.5-1.7-1.2-2.4c-1.5-1.4-2.9-2.8-4.4-4.2c0.9-0.2,1.2-1.5,0.8-2.4s-1.3-1.4-2.1-1.9c-1.3-0.8-2.8-1.5-4.2-1.1"/>
	</g>
	<g>
		<path style="fill:#7D191E;" d="M23.6,49.6c-1.9-0.2-3.9,0-5.7,0.7c-0.7,0.3-1.4,0.6-1.9,1.2c-0.5,0.6-0.6,1.5-0.1,2.1
			c0.4,0.5,1.2,0.6,1.8,0.9c0.6,0.3,1.2,0.9,1,1.5c-0.2,0.5-0.8,0.6-1.2,0.8C13.6,57.7,9.1,58.6,7,62c-0.2,0.3-0.4,0.7-0.3,1.1
			c0.1,0.5,0.4,0.8,0.8,1.1c2.4,1.5,5.5,0.1,8.4,0c0.5,0,1.1,0.2,1,0.7c-1.2,0.9-2.5,2.4-1.7,3.5c0.4,0.6,1.1,0.8,1.8,0.9
			c2.2,0.5,4.5,0.7,6.7,0.3c2.2-0.5,4.4-1.7,5.5-3.6c0.4-0.7,0.8-1.5,1.5-2c0.8-0.5,1.8-0.5,2.8-0.6s2-0.5,2.3-1.5
			c0.2-0.9-0.5-1.7-1.2-2.4c-1.5-1.4-2.9-2.8-4.4-4.2c0.9-0.2,1.2-1.5,0.8-2.4S29.8,51.5,29,51c-1.3-0.8-2.8-1.5-4.2-1.1"/>
	</g>
	<g>
		<path style="fill:#7D191E;" d="M11.4,50.6c-0.8,0-1.7,0.1-2.4,0.6s-1,1.5-0.5,2.1c0.6,0.4,1.5,0.4,2.1,0c0.6-0.4,1-1.2,0.8-2"/>
	</g>
	<g>
		<path style="fill:#7D191E;" d="M13,66.9c-0.8,0-1.7,0.1-2.4,0.6c-0.7,0.5-1,1.5-0.5,2.1c0.6,0.4,1.5,0.4,2.1,0
			c0.6-0.4,1-1.2,0.8-2"/>
	</g>
	<g>
		<g>
			<path style="fill:#5A9934;" d="M25.4,48.8c-0.7-0.1-1.4,0-2.1,0.3c-0.3,0.1-0.5,0.2-0.7,0.5c-0.2,0.2-0.2,0.6,0,0.8
				c0.2,0.2,0.4,0.2,0.7,0.3c0.2,0.1,0.5,0.3,0.4,0.6c-0.1,0.2-0.3,0.2-0.5,0.3c-1.5,0.3-3.1,0.6-3.9,1.9c-0.1,0.1-0.1,0.3-0.1,0.4
				c0,0.2,0.2,0.3,0.3,0.4c0.9,0.6,2.1,0,3.1,0c0.2,0,0.4,0.1,0.4,0.3c-0.4,0.3-0.9,0.9-0.6,1.3c0.1,0.2,0.4,0.3,0.7,0.3
				c0.8,0.2,1.7,0.3,2.5,0.1c0.8-0.2,1.6-0.6,2.1-1.3c0.2-0.3,0.3-0.6,0.5-0.8c0.3-0.2,0.7-0.2,1-0.2c0.4,0,0.8-0.2,0.8-0.5
				c0.1-0.3-0.2-0.7-0.4-0.9c-0.5-0.5-1.1-1.1-1.6-1.6c0.3-0.1,0.5-0.6,0.3-0.9c-0.2-0.3-0.5-0.5-0.8-0.7c-0.5-0.3-1-0.6-1.6-0.4"/>
		</g>
		<path style="fill:#22572E;" d="M24,53c-0.1-0.1-0.2-0.1-0.4-0.1c-0.4-0.1-0.8-0.1-1.2-0.2c-0.2,0-0.3-0.1-0.5,0
			c-0.2,0.1-0.3,0.2-0.3,0.4c0,0.1,0.1,0.2,0.2,0.2c0.2,0.1,0.5,0.2,0.8,0.2c0.2,0,0.5-0.1,0.7,0c0.2,0.1,0.3,0.4,0.5,0.5
			c0.2,0.2,0.5,0.2,0.8,0.1s0.5-0.2,0.8-0.2c0.3,0,0.5,0.1,0.8,0.1c0.3,0.1,0.5,0.1,0.8,0s0.5-0.3,0.4-0.6c0-0.3-0.3-0.4-0.6-0.5
			S26.3,53,26,53.1c-0.5,0.1-0.9,0.2-1.4,0.2c-0.1,0-0.2,0-0.3-0.1C24.2,53.2,24.1,53,24,53z"/>
		<path style="fill:#22572E;" d="M27.4,50c0.3,0.2,0.3,0.7,0.1,1c-0.1,0.1-0.2,0.1-0.3,0.2c-0.4,0.2-0.8,0.3-1.2,0.2
			c-0.3-0.1-0.6-0.2-0.9-0.2c0.2-0.2,0.5-0.2,0.7-0.2c0.1,0,0.2,0,0.3,0c0.2,0,0.4-0.1,0.5-0.2c0.2-0.1,0.3-0.2,0.4-0.4
			c0.1-0.2-0.1-0.5-0.3-0.4C27,49.9,27.2,49.9,27.4,50z"/>
	</g>
</g>
<path style="fill:#B98459;" d="M37.5,18.4c0.6,0.1,16.6-9.1,30.5-8.9c13.9,0.2,25.3,4.6,26.1,18.5s-1.2,19.7-16.4,22.8
	c-11.5,1.6-20.2,1.6-27.3,0c-7.1-1.6-16.5-7.4-16.5-7.4L23.7,35L37.5,18.4z"/>
<path style="fill:#FFFFFF;" d="M30.7,41.9c1.9-0.9,3.9-2.4,5.6-3.5c1.6-1.1,3.6-0.9,5.1-2.3c2.5-2.3,4-1.1,8.5-2.9
	c4.7-2,8.4-4.7,13.4-4.3c1.4,0.1,2.8,0.3,4.1,0.8c1.3,0.5,2.5,1.2,3.1,2.3c0.4,0.7,0.6,1.6,0.7,2.4c0.3,1.4,0.5,2.8,0.7,4.2
	c0.2,1,0.3,2.1,0.3,3.1c-0.2,2.7,2.2,7.3,0,9.1c-0.5,0.5-2.7,0.9-3.4,0.9c-4,0-6.3,0.1-9.1,0c-3.4-0.2-6.7-0.3-10.1-0.5
	c-0.9,0-3.2-0.8-4.1-0.9c-3.9-0.6-7.2-2.6-10.4-4.7c-1.2-0.8-2.5-1.6-3.4-2.7"/>
<path style="fill:#B98459;" d="M75.1,24.5c0,0-14.2,5-8.5,24.5c1.1,2,1.2,2.9,1.2,2.9s-4.5-3.8-8.8-0.1c-1.9,2.4-1.9,5.9-1.9,5.9
	s25.5,0,25.9,0c0.4,0,13.9-7.9,11.2-24.6C91.9,15,75.1,24.5,75.1,24.5z"/>
<path style="fill:#A0663C;" d="M28.6,42.7c0.5-0.9,14-5.7,14.5,1.9c-2.7,4.5-6.1,10.4-17.6-0.1C25.9,41.3,28.6,42.7,28.6,42.7z"/>
<g>
	<path style="fill:#A0663C;" d="M93.4,24.5c3,10,2.3,21.4-3.6,30.1S74.2,69.2,63.8,70.2c-2.4,0.2-5,0.1-6.7-1.6
		c-1.7-1.7-1.7-4.5-0.6-6.6c1.1-2.1,3.3-3.4,5.5-4.2c2.2-0.8,4.6-1.1,6.9-1.5c4.6-0.8,9.2-2.2,13.3-4.5c4.1-2.3,7.7-5.7,9.8-9.8
		C94.7,36.8,93.2,30.3,93.4,24.5"/>
</g>
<path style="fill:#B98459;" d="M62.6,25.4C61.9,44.3,49.3,50.2,42.3,53s-8.6-2.6-6.4-4.2C51,39.6,48.3,26.9,48.3,26.9L62.6,25.4z"/>
<g>
	<path style="fill:#E6C2C2;" d="M26.4,11.6C26.2,11.5,29.1,2,29.1,2s0.2-1.7,1.3-1.5c0,0,1.9,1.2,2.4,1.8l7.3,9
		C40,11.3,27.6,12.5,26.4,11.6z"/>
	<path style="fill:#CE9461;" d="M53.2,19.8c-0.2-0.1-3,0.7-4.6,1.3c-0.1-0.1-0.1-0.3-0.2-0.4c0.9-0.8,2.3-2.2,2.9-3.9
		c-0.2-0.6-5.5-1.2-6.2-1.3c-1.5-2-2.7-3.4-2.7-3.4c-0.6-0.4-1.2-0.8-1.8-1.1c-1.7-2.3-8.5-10.1-8.5-10.1c-2.2-2-3.5,0.5-3.5,0.5
		c-0.9,2.1-2,7.1-2.5,9.5l-12.6,9.6c-0.3,0.1-0.5,0.2-0.7,0.4c-3-0.5-8.2-0.9-11.3,1.3c-0.4,0.2-0.7,0.4-1,0.5
		c-0.7,0.5-0.7,1.5-0.2,2.1c1.2,1.3,5.5,5.6,10.5,7.7c0,0.2,0,0.3,0,0.3l3.1,5c-0.6,2.1-1.4,5.2-1.2,7.4c0.2,0,2.3-2,3.7-3.4
		l0.5,0.7c-0.4,1.3-0.8,3.1-0.6,4.8c0.6,0.5,7.2-2.1,7.2-2.1c4.3-0.4,7.7-4,7.7-4l11.1-5.3c8.2,1.8,8.2-8.3,8.2-8.3
		c-0.1-1.1-0.3-2.3-0.7-3.4C51.2,22.9,52.6,21.2,53.2,19.8z M27.5,10.2c0.7-2.6,2.1-8.2,2.2-8.5c0.4-1.1,1.4-0.6,1.4-0.6
		c0.7,0.3,5,6,7.1,8.9C33.9,8.8,29.5,9.7,27.5,10.2z"/>
	<path style="fill:#F8FCFF;" d="M28.1,24.5c-1.1,0.5-1.4,1.8-1.3,3c0,1,0.2,2-0.1,3c-1.1,2.5-3.5,8.3-3.5,8.3
		c-1.4,2.8,5.1,4.4,5.5,4.5l6.4-3.3l6.1-3.1c0.2-0.4,3-5.9,0-6.5c0,0-5-1.5-7.8-2.3c-0.9-0.7-1.4-1.7-2.1-2.5
		C30.3,24.7,29.1,24,28.1,24.5z"/>
	<path style="fill:#CCD3D6;" d="M31.3,32.7c0,0,1.5,7.3-2.8,9.9l-0.1-0.5c0,0,3.3-1.5,2.4-9.4L31.3,32.7z"/>
	<path style="fill:#CCD3D6;" d="M31.1,32.9c0,0,6.3,4.1,10.3,1l-0.4-0.3c0,0-2.6,2.5-9.7-1.2L31.1,32.9z"/>
	<path style="fill:#EFA988;" d="M32.3,29.5c-0.4-0.8-1.8-1-3.1-0.4c-1.3,0.6-2,1.8-1.6,2.7c0.2,0.5,0.8,0.7,1.4,0.8
		c0.5,0.7,1.4,0.9,2.3,0.5c0.9-0.4,1.3-1.4,0.9-2.2C32.4,30.3,32.5,29.9,32.3,29.5z"/>
	<path style="fill:#5C3A1F;" d="M33.4,19.4c0,0-2.2,4.5-1.3,6.5c0.3-0.1,3.9-3.8,5.9-4.8c-0.5-0.3-3.5-0.3-4.7,2.2
		C32.9,23.3,32.6,20,33.4,19.4z"/>
	<path style="fill:#5C3A1F;" d="M18.3,27.6c0,0,5-0.1,6.4,1.5c-0.2,0.2-5.1,2-6.8,3.5c0-0.5,1.2-3.3,4-3.4
		C22,28.8,19.1,27.2,18.3,27.6z"/>
	<path style="fill:#E6C2C2;" d="M2.3,24.3c0,0,5.8,4.8,8.5,5.7c-0.2-0.6,2.2-8,2.2-8L3,22.8C3,22.8,0.5,22.7,2.3,24.3z"/>
	<path style="fill:#D85857;" d="M31.5,36.3c0,0,1,0.9,1.9,0.7c0.2-0.2,2.2-1.2,1.6-1.9c0-0.5-3.7-2.4-3.7-2.4L31.5,36.3z"/>
</g>
</svg>
