<?xml version="1.0" encoding="utf-8"?>
<!-- Generator: Adobe Illustrator 19.0.0, SVG Export Plug-In . SVG Version: 6.00 Build 0)  -->
<svg version="1.1" id="圖層_1" xmlns="http://www.w3.org/2000/svg" xmlns:xlink="http://www.w3.org/1999/xlink" x="0px" y="0px" viewBox="0 15 100 72" style="enable-background:new 0 15 100 72;" xml:space="preserve">
	<path style="fill:#B98459;" d="M37.5,33.4c0.6,0.1,16.6-9.1,30.5-8.9S93.3,29.1,94.1,43s-1.2,19.7-16.4,22.8c-11.5,1.6-20.2,1.6-27.3,0c-7.1-1.6-16.5-7.4-16.5-7.4L23.7,50L37.5,33.4z"/>
	<path style="fill:#FFFFFF;" d="M30.7,56.9c1.9-0.9,3.9-2.4,5.6-3.5c1.6-1.1,3.6-0.9,5.1-2.3c2.5-2.3,4-1.1,8.5-2.9c4.7-2,8.4-4.7,13.4-4.3c1.4,0.1,2.8,0.3,4.1,0.8c1.3,0.5,2.5,1.2,3.1,2.3c0.4,0.7,0.6,1.6,0.7,2.4c0.3,1.4,0.5,2.8,0.7,4.2c0.2,1,0.3,2.1,0.3,3.1c-0.2,2.7,2.2,7.3,0,9.1c-0.5,0.5-2.7,0.9-3.4,0.9c-4,0-6.3,0.1-9.1,0c-3.4-0.2-6.7-0.3-10.1-0.5c-0.9,0-3.2-0.8-4.1-0.9c-3.9-0.6-7.2-2.6-10.4-4.7c-1.2-0.8-2.5-1.6-3.4-2.7"/>
	<path style="fill:#B98459;" d="M75.1,39.5c0,0-14.2,5-8.5,24.5c1.1,2,1.2,2.9,1.2,2.9s-4.5-3.8-8.8-0.1c-1.9,2.4-1.9,5.9-1.9,5.9s25.5,0,25.9,0s13.9-7.9,11.2-24.6C91.9,30,75.1,39.5,75.1,39.5z"/>
	<path style="fill:#A0663C;" d="M28.6,57.7c0.5-0.9,14-5.7,14.5,1.9C40.4,64.1,37,70,25.5,59.5C25.9,56.3,28.6,57.7,28.6,57.7z"/>
	<path style="fill:#A0663C;" d="M93.4,39.5c3,10,2.3,21.4-3.6,30.1s-15.6,14.6-26,15.6c-2.4,0.2-5,0.1-6.7-1.6s-1.7-4.5-0.6-6.6c1.1-2.1,3.3-3.4,5.5-4.2c2.2-0.8,4.6-1.1,6.9-1.5c4.6-0.8,9.2-2.2,13.3-4.5c4.1-2.3,7.7-5.7,9.8-9.8C94.7,51.8,93.2,45.3,93.4,39.5"/>
	<path style="fill:#B98459;" d="M62.6,40.4C61.9,59.3,49.3,65.2,42.3,68s-8.6-2.6-6.4-4.2C51,54.6,48.3,41.9,48.3,41.9L62.6,40.4z"/>
</svg>