<?xml version="1.0" encoding="utf-8"?>
<!-- Generator: Adobe Illustrator 19.0.0, SVG Export Plug-In . SVG Version: 6.00 Build 0)  -->
<svg version="1.1" id="圖層_1" xmlns="http://www.w3.org/2000/svg" xmlns:xlink="http://www.w3.org/1999/xlink" x="0px" y="0px" viewBox="0 15 100 72" style="enable-background:new 0 15 100 72;" xml:space="preserve">
	<path style="fill:#E6C2C2;" d="M26.4,26.6c-0.2-0.1,2.7-9.6,2.7-9.6s0.2-1.7,1.3-1.5c0,0,1.9,1.2,2.4,1.8l7.3,9C40,26.3,27.6,27.5,26.4,26.6z"/>
	<path style="fill:#CE9461;" d="M53.2,34.8c-0.2-0.1-3,0.7-4.6,1.3c-0.1-0.1-0.1-0.3-0.2-0.4c0.9-0.8,2.3-2.2,2.9-3.9c-0.2-0.6-5.5-1.2-6.2-1.3c-1.5-2-2.7-3.4-2.7-3.4c-0.6-0.4-1.2-0.8-1.8-1.1c-1.7-2.3-8.5-10.1-8.5-10.1c-2.2-2-3.5,0.5-3.5,0.5c-0.9,2.1-2,7.1-2.5,9.5l-12.6,9.6c-0.3,0.1-0.5,0.2-0.7,0.4c-3-0.5-8.2-0.9-11.3,1.3c-0.4,0.2-0.7,0.4-1,0.5c-0.7,0.5-0.7,1.5-0.2,2.1c1.2,1.3,5.5,5.6,10.5,7.7c0,0.2,0,0.3,0,0.3l3.1,5c-0.6,2.1-1.4,5.2-1.2,7.4c0.2,0,2.3-2,3.7-3.4l0.5,0.7c-0.4,1.3-0.8,3.1-0.6,4.8c0.6,0.5,7.2-2.1,7.2-2.1c4.3-0.4,7.7-4,7.7-4l11.1-5.3c8.2,1.8,8.2-8.3,8.2-8.3c-0.1-1.1-0.3-2.3-0.7-3.4C51.2,37.9,52.6,36.2,53.2,34.8z M27.5,25.2c0.7-2.6,2.1-8.2,2.2-8.5c0.4-1.1,1.4-0.6,1.4-0.6c0.7,0.3,5,6,7.1,8.9C33.9,23.8,29.5,24.7,27.5,25.2z"/>
	<path style="fill:#F8FCFF;" d="M28.1,39.5c-1.1,0.5-1.4,1.8-1.3,3c0,1,0.2,2-0.1,3c-1.1,2.5-3.5,8.3-3.5,8.3c-1.4,2.8,5.1,4.4,5.5,4.5l6.4-3.3l6.1-3.1c0.2-0.4,3-5.9,0-6.5c0,0-5-1.5-7.8-2.3c-0.9-0.7-1.4-1.7-2.1-2.5C30.3,39.7,29.1,39,28.1,39.5z"/>
	<path style="fill:#CCD3D6;" d="M31.3,47.7c0,0,1.5,7.3-2.8,9.9l-0.1-0.5c0,0,3.3-1.5,2.4-9.4L31.3,47.7z"/>
	<path style="fill:#CCD3D6;" d="M31.1,47.9c0,0,6.3,4.1,10.3,1L41,48.6c0,0-2.6,2.5-9.7-1.2L31.1,47.9z"/>
	<path style="fill:#EFA988;" d="M32.3,44.5c-0.4-0.8-1.8-1-3.1-0.4c-1.3,0.6-2,1.8-1.6,2.7c0.2,0.5,0.8,0.7,1.4,0.8c0.5,0.7,1.4,0.9,2.3,0.5s1.3-1.4,0.9-2.2C32.4,45.3,32.5,44.9,32.3,44.5z"/>
	<path style="fill:#5C3A1F;" d="M33.4,34.4c0,0-2.2,4.5-1.3,6.5c0.3-0.1,3.9-3.8,5.9-4.8c-0.5-0.3-3.5-0.3-4.7,2.2C32.9,38.3,32.6,35,33.4,34.4z"/>
	<path style="fill:#5C3A1F;" d="M18.3,42.6c0,0,5-0.1,6.4,1.5c-0.2,0.2-5.1,2-6.8,3.5c0-0.5,1.2-3.3,4-3.4C22,43.8,19.1,42.2,18.3,42.6z"/>
	<path style="fill:#E6C2C2;" d="M2.3,39.3c0,0,5.8,4.8,8.5,5.7c-0.2-0.6,2.2-8,2.2-8L3,37.8C3,37.8,0.5,37.7,2.3,39.3z"/>
	<path style="fill:#D85857;" d="M31.5,51.3c0,0,1,0.9,1.9,0.7c0.2-0.2,2.2-1.2,1.6-1.9c0-0.5-3.7-2.4-3.7-2.4L31.5,51.3z"/>
</svg>