<?xml version="1.0" encoding="utf-8"?>
<!-- Generator: Adobe Illustrator 19.0.0, SVG Export Plug-In . SVG Version: 6.00 Build 0)  -->
<svg version="1.1" id="圖層_1" xmlns="http://www.w3.org/2000/svg" xmlns:xlink="http://www.w3.org/1999/xlink" x="0px" y="0px" viewBox="0 15 100 72" style="enable-background:new 0 15 100 72;" xml:space="preserve">
	<path style="fill:#96A8AA;" d="M18.8,53.4c-3.1,0.3-4.3,1.5-6.9,3.3c-0.6,0.4-1.2,0.9-1.4,1.6c-0.3,0.9,0.2,1.9,1,2.5s2.6,2.6,3.6,2.7c4.3,0.6,6.2-2.3,10.3-1C26.9,63,35,69.1,38,69.7c9.2,1.9,24-7.4,19,3c0.2,2.1,4.7-0.6,3.6,1.3c-1.1,1.9-7.4,4.2-6.8,8.4c0.3,2.2,3.8,4.1,6,4.3c4.4,0.4,10.2,0.3,14.4-1.1c2.7-0.9,5.3-2,7.9-3.4c4.9-2.6,6.4-3.3,9.2-5.8c2.1-1.8,4.2-4.3,6.2-6.7c1.2-1.4,2.1-4.1,2.4-5.7c0.4-2.7-0.4-4.9-1-5.8c-0.4-0.7-1.9-1.8-3.4-2.1c-3.5-0.7-7-0.9-10.5-1c-11.6-0.1-22.9-4-34.6-4.4c-9.9-0.3-19.8,1.9-29.8,1.9L18.8,53.4z"/>
	<path style="fill:#5C3A1F;" d="M23.6,65.4c-1.9-0.2-3.9,0-5.7,0.7c-0.7,0.3-1.4,0.6-1.9,1.2c-0.5,0.6-0.6,1.5-0.1,2.1c0.4,0.5,1.2,0.6,1.8,0.9c0.6,0.3,1.2,0.9,1,1.5c-0.2,0.5-0.8,0.6-1.2,0.8c-3.9,0.9-8.4,1.7-10.4,5.2c-0.2,0.3-0.4,0.7-0.3,1.1c0.1,0.5,0.4,0.8,0.8,1.1c2.4,1.5,5.5,0.1,8.4,0c0.5,0,1.1,0.2,1,0.7c-1.2,0.9-2.5,2.4-1.7,3.5c0.4,0.6,1.1,0.8,1.8,0.9c2.2,0.5,4.5,0.7,6.7,0.3c2.2-0.5,4.4-1.7,5.5-3.6c0.4-0.7,0.8-1.5,1.5-2c0.8-0.5,1.8-0.5,2.8-0.6s2-0.5,2.3-1.5c0.2-0.9-0.5-1.7-1.2-2.4c-1.5-1.4-2.9-2.8-4.4-4.2c0.9-0.2,1.2-1.5,0.8-2.4c-0.4-0.9-1.3-1.4-2.1-1.9c-1.3-0.8-2.8-1.5-4.2-1.1"/>
	<path style="fill:#7D191E;" d="M23.6,64.6c-1.9-0.2-3.9,0-5.7,0.7c-0.7,0.3-1.4,0.6-1.9,1.2c-0.5,0.6-0.6,1.5-0.1,2.1c0.4,0.5,1.2,0.6,1.8,0.9c0.6,0.3,1.2,0.9,1,1.5c-0.2,0.5-0.8,0.6-1.2,0.8C13.6,72.7,9.1,73.6,7,77c-0.2,0.3-0.4,0.7-0.3,1.1c0.1,0.5,0.4,0.8,0.8,1.1c2.4,1.5,5.5,0.1,8.4,0c0.5,0,1.1,0.2,1,0.7c-1.2,0.9-2.5,2.4-1.7,3.5c0.4,0.6,1.1,0.8,1.8,0.9c2.2,0.5,4.5,0.7,6.7,0.3c2.2-0.5,4.4-1.7,5.5-3.6c0.4-0.7,0.8-1.5,1.5-2c0.8-0.5,1.8-0.5,2.8-0.6s2-0.5,2.3-1.5c0.2-0.9-0.5-1.7-1.2-2.4c-1.5-1.4-2.9-2.8-4.4-4.2c0.9-0.2,1.2-1.5,0.8-2.4c-0.4-0.9-1.2-1.4-2-1.9c-1.3-0.8-2.8-1.5-4.2-1.1"/>
	<path style="fill:#7D191E;" d="M11.4,65.6c-0.8,0-1.7,0.1-2.4,0.6s-1,1.5-0.5,2.1c0.6,0.4,1.5,0.4,2.1,0s1-1.2,0.8-2"/>
	<path style="fill:#7D191E;" d="M13,81.9c-0.8,0-1.7,0.1-2.4,0.6s-1,1.5-0.5,2.1c0.6,0.4,1.5,0.4,2.1,0s1-1.2,0.8-2"/>
	<path style="fill:#5A9934;" d="M25.4,63.8c-0.7-0.1-1.4,0-2.1,0.3c-0.3,0.1-0.5,0.2-0.7,0.5c-0.2,0.2-0.2,0.6,0,0.8c0.2,0.2,0.4,0.2,0.7,0.3c0.2,0.1,0.5,0.3,0.4,0.6c-0.1,0.2-0.3,0.2-0.5,0.3c-1.5,0.3-3.1,0.6-3.9,1.9c-0.1,0.1-0.1,0.3-0.1,0.4c0,0.2,0.2,0.3,0.3,0.4c0.9,0.6,2.1,0,3.1,0c0.2,0,0.4,0.1,0.4,0.3c-0.4,0.3-0.9,0.9-0.6,1.3c0.1,0.2,0.4,0.3,0.7,0.3c0.8,0.2,1.7,0.3,2.5,0.1s1.6-0.6,2.1-1.3c0.2-0.3,0.3-0.6,0.5-0.8c0.3-0.2,0.7-0.2,1-0.2c0.4,0,0.8-0.2,0.8-0.5c0.1-0.3-0.2-0.7-0.4-0.9c-0.5-0.5-1.1-1.1-1.6-1.6c0.3-0.1,0.5-0.6,0.3-0.9c-0.2-0.3-0.5-0.5-0.8-0.7c-0.5-0.3-1-0.6-1.6-0.4"/>
	<path style="fill:#22572E;" d="M24,68c-0.1-0.1-0.2-0.1-0.4-0.1c-0.4-0.1-0.8-0.1-1.2-0.2c-0.2,0-0.3-0.1-0.5,0c-0.2,0.1-0.3,0.2-0.3,0.4c0,0.1,0.1,0.2,0.2,0.2c0.2,0.1,0.5,0.2,0.8,0.2c0.2,0,0.5-0.1,0.7,0c0.2,0.1,0.3,0.4,0.5,0.5c0.2,0.2,0.5,0.2,0.8,0.1c0.3-0.1,0.5-0.2,0.8-0.2s0.5,0.1,0.8,0.1c0.3,0.1,0.5,0.1,0.8,0s0.5-0.3,0.4-0.6c0-0.3-0.3-0.4-0.6-0.5S26.3,68,26,68.1c-0.5,0.1-0.9,0.2-1.4,0.2c-0.1,0-0.2,0-0.3-0.1C24.2,68.2,24.1,68,24,68z"/>
	<path style="fill:#22572E;" d="M27.4,65c0.3,0.2,0.3,0.7,0.1,1c-0.1,0.1-0.2,0.1-0.3,0.2c-0.4,0.2-0.8,0.3-1.2,0.2c-0.3-0.1-0.6-0.2-0.9-0.2c0.2-0.2,0.5-0.2,0.7-0.2c0.1,0,0.2,0,0.3,0c0.2,0,0.4-0.1,0.5-0.2c0.2-0.1,0.3-0.2,0.4-0.4c0.1-0.2-0.1-0.5-0.3-0.4C27,64.9,27.2,64.9,27.4,65z"/>
</svg>