<?xml version="1.0" encoding="utf-8"?>
<!-- Generator: Adobe Illustrator 19.0.0, SVG Export Plug-In . SVG Version: 6.00 Build 0)  -->
<svg version="1.1" id="OBJECTS" xmlns="http://www.w3.org/2000/svg" xmlns:xlink="http://www.w3.org/1999/xlink" x="0px" y="0px"
	 viewBox="0 0 100 100" style="enable-background:new 0 0 100 100;" xml:space="preserve">
	<path style="fill-rule:evenodd;clip-rule:evenodd;fill:#2F7F5A;" d="M36.6,91c19.8,0,35.9,2,35.9,4.5c0,2.5-16.1,4.5-35.9,4.5S0.7,98,0.7,95.5C0.7,93,16.8,91,36.6,91z"/>
	<polygon id="XMLID_103_" style="fill:#D6B499;" points="66.3,8.8 69.4,0.9 78.2,12.7 	"/>
	<path style="fill:#D6B499;" d="M86.9,37.3c-3.4-3.3-5.5-1.7-5.5-1.7l-8.7,6.3L33.6,69.1l-8.1,16.3l0.1,0.1c0,0-0.1,0-0.1,0l2.9,6.9c2-0.6,2.3-3.5,1.7-5.5c-0.2-0.6-0.5-1.1-0.8-1.5l17.5-14.2l5.5-14.9l16.3-4.7l13.6-10.6l6.1,2.7C88.4,43.8,90.3,40.5,86.9,37.3z"/>
	<path id="XMLID_93_" style="fill:#E2C3AA;" d="M63.7,52.5c-0.4,0.3-0.8,0.6-1.2,0.9c-2.8,2-5.9,4-8.8,5.7C47.9,62.5,43,65,43,65l2-9c0,0,9.4,4.2,13.3-10.6L63.7,52.5z"/>
	<path style="fill:#EDD0B4;" d="M94.4,18.7L71.1,9.3L59.2,0l1.3,17.4l-2.2,5.5c-0.1,0.1-0.1,0.2-0.2,0.3c-0.1,0.3-0.3,0.6-0.4,0.9c-0.6,1-1.4,2.1-2.3,3.2c-3.7,4.2-9.6,8.3-12.2,10c-0.9,0.6-1.4,0.9-1.4,0.9c-7.9,3.7-13.4,11-14.9,19.4c-0.3,1.6-0.4,3.2-0.4,4.9L26,74.2L12.4,88.7l0.1,0.1c0,0-0.1,0-0.1,0l1,7.4c2-0.3,3.5-2.1,3.2-4.2c-0.1-0.6-0.3-1.1-0.6-1.5l21.6-17L43,65c0,0,4.9-2.4,10.7-5.8c2-1.2,4.1-2.5,6.1-3.8l1.9,3.6l15-4.3l3.8,5.4c0,0,3-2.4,2.1-6.5c-0.9-4.1-3-4.1-3-4.1l-11.3,1c1.3-2,2.2-4.1,3-5.5c0,0,0,0,0,0c0.8-0.9,1.5-1.9,2.1-3c0.6-1,1.1-2,1.5-3c0.7-1.6,1.2-3.3,1.7-4.9c0.3-0.9,0.5-1.8,0.6-2.6c0,0,0-0.1,0-0.1c0.3,0.1,0.7,0.2,1,0.3c19.4,5.5,19.9-11.3,19.9-11.3L94.4,18.7z"/>
	<path id="XMLID_94_" style="fill:#E2C3AA;" d="M74.9,38.9c-0.4,1-0.9,2.1-1.5,3c-0.3,0-0.5,0-0.8,0c-6.3,0.2-10.8-4-13.6-8c-2-2.8-3.2-5.6-3.6-6.7c1-1.1,1.8-2.2,2.3-3.2c0.7,1.4,1.7,3.2,2.5,4.9c1.2,2.4,2.3,4.5,2.6,4.8c0.7,0.9,6.9,4.7,6.9,4.7l3.8,0.3L74.9,38.9z"/>
	<path id="XMLID_89_" style="fill:#E2C3AA;" d="M77.2,31.4c-0.2,0.8-0.4,1.7-0.6,2.6c-0.9-0.3-1.8-0.7-2.7-1.2c-4.1-2.2-7.5-5.5-7.6-5.7l6.8,2.6L77.2,31.4z"/>
	<path style="fill:#B25A3B;" d="M41.8,38.2c-4.4,2.1-8,5.2-10.7,9.1c-1.5,0.2-8.9,1-15.4-4.4c0,0,3.8,9.9,12.2,10.9c-0.4,1.3-0.8,2.6-1,3.9c15.8,1.8,9.3-13.3,12.9-15.2c1.7-0.9,2.8-3.1,3.5-5.1C42.3,37.9,41.8,38.2,41.8,38.2z"/>
	<polygon id="XMLID_56_" style="fill:#E87777;" points="60.5,17.4 65.2,11.5 59.2,0 	"/>
	<g><path style="fill:#E9E9F4;" d="M72.4,16.9c0.1-0.2,1.8-3.8,5.2-1.2c0,0,1.7,1.6,1.7,2.9c0,0-2.7,4-6.8-0.5L72,17.6L72.4,16.9z"/><path style="fill:#543229;" d="M75.8,14.9c0,0-2.8,2.5,0.3,5.4c0,0,1.8,0.4,3.4-1.8C79.5,18.5,78.4,14.6,75.8,14.9z"/>
	</g>
	<path style="fill:#B25A3B;" d="M55.4,42.3c0-2.2-1.6-3.9-3.5-3.9c-1.4,0-2.5,0.9-3.1,2.1c-0.7-0.2-1.5-0.4-2.3-0.4c-3.7,0-6.7,4.6-6.7,7.9s5,5,8.6,4.2c3.9-0.9,4.4-3.9,4.8-6.1c0-0.1,0-0.2,0-0.3C54.5,45.4,55.4,44,55.4,42.3z"/>
	<path d="M96.8,18.5c-1.3,0-2.4,0.6-2.4,1.4c0,0.8,1,1.4,2.3,1.4L93.1,29l0.1,0.3c-0.7,0.2-1.4,0.1-2.2-0.2c-1.1-0.4-2.1-1.3-2.8-2.5c-0.1-0.1-0.3-0.2-0.4-0.1c-0.1,0.1-0.2,0.3-0.1,0.4c0.8,1.2,1.8,2.2,3,2.7c0.6,0.2,1.1,0.3,1.6,0.3c0.5,0,1-0.1,1.4-0.3h0.3c0.2,0,0.3-0.2,0.3-0.3c0-0.2-0.1-0.3-0.3-0.3c-0.1-0.1-0.2-0.1-0.3,0c0,0,0,0,0,0h-0.1l3.6-7.7c1-0.2,1.8-0.7,1.8-1.4C99.3,19.1,98.2,18.5,96.8,18.5z"/>
	<path id="XMLID_54_" style="fill:#994328;" d="M27.8,53.3l2.5-5.5c-0.2,0-0.4-0.1-0.5-0.1c-0.5-0.1-1-0.1-1.5-0.1C27.6,49.7,27.8,53.3,27.8,53.3z"/>
	<path id="XMLID_92_" style="fill:#F26522;" d="M76.5,37.9c0,0.8-0.5,1.7-2.2,2.4c0,0-6.9-0.1-13.1-5.9c0,0,0,0,0,0c-2-1.8-3.8-4.2-5.4-7.4c0,0-0.3-3.8,2.5-3.9c0,0,1.9,12.5,17.7,13.1C75.9,36.2,76.5,36.9,76.5,37.9z"/>
	<path id="XMLID_86_" style="fill:#D8501A;" d="M76.5,37.9c0,0.8-0.5,1.7-2.2,2.4c0,0-6.9-0.1-13.1-5.9C61.4,34.6,70,39.8,76.5,37.9z"/>
</svg>