<?xml version="1.0" encoding="utf-8"?>
<!-- Generator: Adobe Illustrator 19.0.0, SVG Export Plug-In . SVG Version: 6.00 Build 0)  -->
<svg version="1.1" id="objects" xmlns="http://www.w3.org/2000/svg" xmlns:xlink="http://www.w3.org/1999/xlink" x="0px" y="0px" viewBox="0 0 78 100" style="enable-background:new 0 0 78 100;" xml:space="preserve">
	<path style="fill-rule:evenodd;clip-rule:evenodd;fill:#2E835C;" d="M36.2,89.4c20,0,36.1,2.4,36.1,5.3c0,2.9-16.2,5.3-36.1,5.3C16.2,100,0,97.6,0,94.7C0,91.8,16.2,89.4,36.2,89.4z"/>
	<path style="fill:#FFFFFF;" d="M47.5,84.1c0,0-7.5,1.3-7.2,7.3c0,0,1.2,1.6,7.2,0.6c0,0,7.5-2.3,10.4-1.1c0,0,8.3-0.1,8.7-2.8l-0.5-3.9c0,0-18.1-1.6-18.4-0.5"/>
	<path style="fill:#D8842A;" d="M63.1,14.4c0.6-2.2,1.6-3.4,1.6-3.4c-0.1-3.1-4.9-6.7-5.3-6.4c-3.3,3.3-4.5,7-4.8,10C56.9,14.1,60,13.8,63.1,14.4z"/>
	<path style="fill:#D8842A;" d="M75.2,42.8c-1.1-2.6-2.5-5.1-3.8-7.4c-1.5,1.1-4.1,2.9-7.4,3.1c1.1,1.9,2,3.7,2.8,5C69.6,42.4,72.9,42.5,75.2,42.8z"/>
	<path style="fill:#E9F1F4;" d="M63.1,14.4c-3.1-0.6-6.2-0.2-8.5,0.3c-0.4,4.1,0.8,7.1,0.8,7.1c0.1,0.3,0.3,0.7,0.5,1.3c2.1-0.8,5.2-1.3,7.5-1.5C62.5,18.6,62.7,16.1,63.1,14.4z"/>
	<path style="fill:#E9F1F4;" d="M72.6,34.6C72.6,34.6,72.6,34.6,72.6,34.6C72.6,34.6,72.6,34.6,72.6,34.6z"/>
	<path style="fill:#E9F1F4;" d="M67.8,29.9c-2,1.4-5.1,1.8-7.4,2c1.2,2.2,2.5,4.6,3.6,6.7c3.2-0.2,5.9-2,7.4-3.1C70.1,33.2,68.8,31.3,67.8,29.9z"/>
	<path style="fill:#E9F1F4;" d="M66.8,43.6c0.9,1.6,1.4,2.6,1.4,2.6c0.6,1.3,1,2.5,1.3,3.6c1.9-0.2,5.5-0.4,8.1,0.5c-0.5-2.4-1.4-5-2.4-7.4C72.9,42.5,69.6,42.4,66.8,43.6z"/>
	<path style="fill:#D8842A;" d="M14.5,55.2c0,0,0,0.2,0,0.5c0.2,3,1.4,19.4-0.4,24.8c0,0,4.8,2.6,7.7,1.4c0,0,1.5-13.7,3.2-15.4"/>
	<path style="fill:#FFFFFF;" d="M14.3,79.8L12,89.3c0,0-2.4,1.4-0.8,3.2c0,0,5.2,4,7.8-1c0,0,3.4-6.6,2.9-9.4c0-0.2-0.4-0.2-0.4-0.2S15.3,78.8,14.3,79.8"/>
	<path style="fill:#A87144;" d="M39.6,75.5"/>
	<path style="fill:#FFFFFF;" d="M38.4,84.1c-0.2,0.1-8.4-1.3-8.8-1.9c0,0-2.6,7.6-4.1,9.7c0,0-0.9,2.3,2,3.4c0.1,0,5.5,1.6,8.4-5.4L38.4,84.1z"/>
	<path style="fill:#FFFFFF;" d="M58.9,5.2C60,3.7,62,2.6,64,2.1c1.8-0.5,3.9-0.1,5,1.6c0.9,1.4,0.3,3.4-0.8,4.7c-1.1,1.3-2.6,2.2-3.9,3.4C64.2,8.8,61.8,5.9,58.9,5.2"/>
	<path style="fill:#D8842A;" d="M67.8,29.9c-1-1.5-1.7-2.4-1.7-2.4c-1.3-2.2-2.2-4.1-2.7-5.9c-2.3,0.3-5.4,0.8-7.5,1.5c0.9,1.9,2.6,5.2,4.5,8.7C62.7,31.7,65.9,31.3,67.8,29.9z"/>
	<path style="fill:#D8842A;" d="M78,54.2c0-1.3-0.2-2.6-0.4-3.9c-2.6-0.8-6.2-0.7-8.1-0.5c1.4,5.1-0.1,7.8-1.9,9.3c0,0,5.3,5.4,2.7,19.7C77.7,73.2,78,54.2,78,54.2z"/>
	<path style="fill:#EFCDC2;" d="M10.7,15.7c0,0-3.3-13.3-0.1-15.6l7,10.3L10.7,15.7z"/>
	<path style="fill:#EFCDC2;" d="M40,20.9l1.8-18.7c0,0-8.1,3.7-8.3,3.9c-0.2,0.3-3.9,4.7-3.9,4.7L40,20.9z"/>
	<path style="fill:#F39D2F;" d="M67.6,59.1c-0.4-0.8-0.8-1.6-1.3-2.1c0,0-0.6-0.6-1.6-1.6c-0.6-0.1-3.5-2.6-4.8-4.7c-0.8-0.8-1.6-1.6-2.5-2.4c-0.9-0.2-4.7-3.3-5.4-5c-0.9-0.8-1.7-1.5-2.6-2.3l-3.6-2.5c-5.1-5.4-6-11.6-6.2-14.8c0-0.5,0-0.9,0-1.3l0,0l2.4-19.4c0-0.1,0-0.2,0-0.4l0-0.2c0,0,0,0,0,0c0-0.8-0.2-1.5-1-1.3c0,0-9.9,4.1-12.7,7l-0.3,0.3c-1.6-0.3-5.6-1-9.2-1.2l-7.9-7.2c0,0-0.5-0.4-0.5,0.4c0,0,1.2,3.6,3.1,7.2c-0.8,0.2-1.4,0.6-1.6,1c0,0-6.7,9.4-7.4,12.1S3.5,27.2,6,29.6l8.6,9.4c2.6,5.5,11.4,23,17.1,23l-2.2,21.2c0,0,0.9,0.4,2.9,0.8c0,0,2.5,0.7,5.8,0.2c0,0,0.4-0.6,0.9-1.8c1.6,0.4,7.4,2.3,9.3,2.3c0.8,0,1.2,0,1.2,0c1.3,0.2,5.4,0.9,9.2,0.8l5.6,0.8c0,0,4,0.1,5.8-7.4C72.9,64.5,67.6,59.1,67.6,59.1z M31.1,10.5C34,8.1,39.7,3.4,41.1,3c0,0,0.2-0.1,0.4,0l-2.5,15.6C37.3,16.3,33.5,12.7,31.1,10.5z"/>
	<path style="fill:#E9E9F4;" d="M30.8,18.9c0.2,0.1-4.6-3-7.3,0.9c0,0-0.6,1.1-0.6,1.5c0,0,0.9,2.2,3.5,2.4C26.5,23.7,30.7,23.4,30.8,18.9z"/>
	<path style="fill:#663A1A;" d="M26.5,17.8c0,0-1,4.4,1.4,5.7c0,0,2.9-0.3,3-4.6C30.8,18.9,29.4,17.5,26.5,17.8z"/>
	<path style="fill:#E9E9F4;" d="M10.2,12.6c0.2,0,3.6,1.5,2.7,5.5c0,0-0.1,0.6-0.6,0.7c0,0-4.3,1.2-4.1-4C8.1,14.8,9.5,12.6,10.2,12.6z"/>
	<path style="fill:#663A1A;" d="M9.7,18.7c0,0-1.2-5.2,2.4-4.7c0,0,2,2.3,0.5,4.7C12.6,18.6,11,19.6,9.7,18.7z"/>
	<path style="fill:#F9FDFF;" d="M25.5,47.1c-1.2-2.8-2-5.2-2.1-8c0-1.1-0.1-2.3,0.2-3.4c0.3-1.1,0.8-2.1,1.1-3.2c0.3-1.1,0.2-2.3-0.6-3.1c0-0.1-0.1-0.2-0.2-0.3c0,0-2.8-2.9-4-6.2c-0.2-1,0-2,0-2.9c0-1-0.5-2.1-1.4-2.4c-1-0.3-2,0.4-2.7,1.2c-0.6,0.7-1.1,1.5-1.8,2c-2.2,1-7.3,3.6-7.3,3.6c-1.3,0.5-1.1,2.1-0.5,3.6c0,0,0,0,0,0c0.8,2.2,2.4,4.3,3.8,5.9c0,0,0,0,0,0c1.1,1.7,2.7,3.2,3.2,5.2c0.1,0.5,0.1,0.9,0.1,1.4c-1.2,5.9-1.7,18,10.8,26.8l6.7,4.4l1.1-9.1C31.8,62.5,29.3,54.2,25.5,47.1z"/>
	<path style="fill:#F7AD7C;" d="M16.4,21.8c-1.3-0.4-3.2,0.1-2.8,0.9c0.5,0.9,0.4,2.6,1.5,3l-0.5,2.1c-0.2-0.1-0.4-0.3-0.6-0.4c-0.3-0.3-0.6-0.5-0.9-0.8L12.7,27c0.3,0.3,0.6,0.6,1,0.9c0.2,0.2,0.5,0.4,0.8,0.5l0,0.1l0.1,0c0.2,0.1,0.4,0.1,0.6,0.1c0,0,0,0,0,0c0.4,0,0.7-0.1,1-0.3c0.3-0.1,0.5-0.2,0.7-0.2L17,27.6c-0.3,0-0.6,0.1-0.9,0.2c-0.3,0.1-0.6,0.2-0.9,0.2c-0.1,0-0.1,0-0.2,0l0.6-2.1c1,0,1.6-1.3,2.6-1.8C19.1,23.6,17.7,22.2,16.4,21.8z"/>
	<path style="fill:#D8842A;" d="M44.1,51.6c-1.2,2.6,1.3,3.4,2.4,2.9c1.7-0.6,6.9-3.7,11-6.2c-1.7-1.6-3.6-3.3-5.4-5C47.5,46.5,44.2,51.4,44.1,51.6z"/>
	<path style="fill:#D8842A;" d="M55.2,56.4c-1.2,2.6,1.3,3.4,2.4,2.9c1.2-0.4,4.1-2.1,7.2-3.9c-1.1-1.1-2.8-2.8-4.8-4.7C57.2,53.4,55.3,56.2,55.2,56.4z"/>
	<path style="fill:#D8842A;" d="M32.6,46.5c-1.2,2.6,1.3,3.4,2.4,2.9c2.3-0.8,10.4-5.8,14.5-8.4c-2-1.7-4-3.3-5.7-4.7C37.7,38.9,32.8,46.2,32.6,46.5z"/>
</svg>