<?xml version="1.0" encoding="utf-8"?>
<!-- Generator: Adobe Illustrator 19.0.0, SVG Export Plug-In . SVG Version: 6.00 Build 0)  -->
<svg version="1.1" id="Objects" xmlns="http://www.w3.org/2000/svg" xmlns:xlink="http://www.w3.org/1999/xlink" x="0px" y="0px" viewBox="0 0 68 100" style="enable-background:new 0 0 68 100;" xml:space="preserve">
	<path style="fill-rule:evenodd;clip-rule:evenodd;fill:#3A8C66;" d="M33.8,93.7c18.6,0,33.8,1.4,33.8,3c0,1.7-15.1,3-33.8,3c-18.6,0-33.8-1.4-33.8-3C0,95.1,15.1,93.7,33.8,93.7z"/>
	<path style="fill:#939393;" d="M40.4,68.7c0,0,2.7-1.8,8.4-1.1l-2.2,4.6L40.4,68.7z"/>
	<path style="fill:#472F0F;" d="M25,60.1c-0.1,1.9-0.2,3.8-0.5,5.6c-0.3,1.9-0.7,3.8-1.4,5.6l-0.5,1.8l-6.9,10.6l1.9,9.8l1.6,0.4c0.6,0.2,1.1,0.8,0.9,1.4c-0.1,0.7-0.8,1.1-1.5,1L16.1,96c-0.4-0.1-0.7-0.3-0.9-0.6l-0.1-0.2l-5.7-11c-0.3-0.6-0.3-1.4,0-2l0.3-0.5l5.4-10.9c0,0-1-10.8-1.1-10.8C19.5,56.9,25,60.1,25,60.1z"/>
	<path style="fill:#6C4826;" d="M67.7,22.3l-3.9-3.8c0.2-0.8,0.4-1.9,0.4-3.3c0-0.9-0.2-1.7-0.7-2.4l0.3-0.3c0.3-0.2,0.5-0.7,0.5-1V0.5c0-0.3-0.2-0.4-0.4-0.1c0,0-3.5,4.3-3.7,9.7c-1-0.4-2-0.6-3.2-0.6c-1.8,0-3.5,0.6-4.8,1.5c0.2-5.9-3.7-10.6-3.7-10.6c-0.2-0.3-0.4-0.2-0.4,0.1v11.1c0,0.3,0.2,0.8,0.5,1l1.6,1.2c-0.2,0.5-0.2,1-0.2,1.5c0,0-5.5,16.3-8.3,18.3c-2.9,2.1-32,12.9-32,12.9s-0.6,0.1-1.2,0.7L0.9,35.6c0,0-0.2,16.7,5.3,17.7c0,0.3,0,0.6,0,0.9l0,0c0,0.1,0,0.1,0,0.2c-0.2,1.9-0.4,4.7-0.4,6.6c0,1.9,0,3.8,0.2,5.7c0.2,1.9,0.9,5.2,0.9,5.2L1.4,82.8l-0.3,0.5c-0.3,0.7-0.3,1.4,0,2l5.7,11L7,96.6c0.2,0.4,0.5,0.6,0.9,0.6l2.5,0.4c0.7,0.1,1.3-0.3,1.5-1c0.1-0.7-0.3-1.3-0.9-1.4l-1.6-0.4L7.4,85l6.9-10.6l0.5-1.8c0.7-1.9,1.1-3.7,1.4-5.6c0.3-1.9,0.4-3.8,0.5-5.6c0-0.7,0-1.4,0-2.1c1.2-0.3,2.8-0.3,4.9,0.3c3.7,1.1,12.1,4.4,19.9,5.4c-0.1,1.3-0.1,2.5-0.1,3.8c1.6,0.2,5,0.3,6.9-0.9c0.1-1,0.2-1.9,0.3-2.9c0.5-0.1,0.9-0.2,1.4-0.3c-0.1,2.7-0.1,5.4,0,8.1c0.1,3.5,0.5,7,0.9,10.5c0.3,1.7,0.5,3.5,0.9,5.2l0.5,2.6c0.2,0.9,0.4,1.7,0.6,2.6c0.1,0.6,0.5,1,1,1.1l0,0l2.8,0.5c0.7,0.1,1.3-0.3,1.5-1c0.1-0.7-0.3-1.3-1-1.5l-1.8-0.3c0-0.6,0-1.1,0.1-1.7l0.1-2.6l0.2-5.1c0.1-3.4,0.3-6.8,0.5-10.2c0.2-3.4,0.5-6.7,0.9-10c0.2-1.7,0.4-3.3,0.7-4.9c0-0.2,0.1-0.4,0.1-0.5l1.8-21.3v-6.4l4,0.8c0.3,0.1,0.7-0.1,0.9-0.4l3.2-6.8C68,23,67.9,22.6,67.7,22.3z"/>
	<path d="M60.1,29.2h3.6l2.5-5.3c-0.9,0-1.6-0.5-1.6-1c0-0.5,0.8-1,1.7-1c0.9,0,1.7,0.4,1.7,1c0,0.4-0.5,0.8-1.2,0.9l-2.5,5.4h0.2c0.1,0,0.2,0.1,0.2,0.2c0,0.1-0.1,0.2-0.2,0.2h-0.6h-3.7c-0.1,0-0.2-0.1-0.2-0.2C59.9,29.3,60,29.2,60.1,29.2z"/>
	<path style="fill:#E7E7F2;" d="M53.4,15.7c-0.1,0.1,2.6-1.6,4,0.5c0,0,0.3,0.6,0.3,0.8c0,0-0.5,1.2-1.9,1.3C55.8,18.3,53.4,18.2,53.4,15.7z"/>
	<path style="fill:#160900;" d="M55.7,15.1c0,0,0.6,2.4-0.7,3.1c0,0-1.6-0.2-1.6-2.5C53.4,15.7,54.1,15,55.7,15.1z"/>
	<path style="fill:#E7E7F2;" d="M63.5,14.1c-0.1,0-1.9,0.1-2.2,2.3c0,0-0.1,0.3,0.1,0.5c0,0,1.6,1.7,2.4-1C64,15.9,63.9,14.2,63.5,14.1z"/>
	<path style="fill:#160900;" d="M62.7,17.3c0,0,1.5-2.5-0.2-3c0,0-1.3,0.8-1.1,2.4C61.4,16.7,62,17.6,62.7,17.3z"/>
	<path style="fill:#FFC1A6;" d="M48.4,0.9c0,0,2.9,5,2.6,10.4c0,0-1.6,1.3-2.6,0.2C48.3,10.6,48.4,0.9,48.4,0.9z"/>
	<path style="fill:#FFC1A6;" d="M64.1,0.9v10.7c0,0-0.5-0.1-0.8-0.5C63.3,10.9,63.1,8.4,64.1,0.9z"/>
	<path style="fill:#BCBCBC;" d="M48.8,67.6c-0.2,0.1-0.3,0.2-0.5,0.3c-2,1.2-5.3,1-6.9,0.9c-0.6-0.1-0.9-0.1-1-0.1c0,0,0.7,8.4,1.2,12.9c3,0,5.3-1.5,6.4-2.4C48.3,74.4,48.7,67.6,48.8,67.6z"/>
	<path style="fill:#E2E2E2;" d="M40.8,73.2l0.2,2.3c0,0,4,2.3,7.2,0.8c0.1-1.7,0.5-7,0.5-7S45.7,73.2,40.8,73.2z"/>
	<path style="fill:#E2E2E2;" d="M42.3,84.1c1.9,1.9,4.1,0.6,5-0.2c0.3-0.2,0.4-0.4,0.4-0.4s0.1-1.9,0.3-4.5c-1.1,0.9-3.4,2.4-6.4,2.4c0.1,0.8,0.2,1.5,0.2,2C42,83.8,42.2,84,42.3,84.1z"/>
	<path style="fill:#606060;" d="M41.3,73.4c-0.2,0-0.4,0-0.5,0l0-0.4c2.9,0.3,5.9-1.8,7.5-3.7l0.3,0.2C47.1,71.4,44.2,73.4,41.3,73.4z"/>
	<path style="fill:#606060;" d="M45.3,77c-1.6,0-3.2-0.4-4.3-1.3l0.2-0.3c1.9,1.5,4.9,1.5,7,0.8l0.1,0.3C47.4,76.8,46.3,77,45.3,77z"/>
	<path style="fill:#606060;" d="M42.5,81.7c-0.3,0-0.6,0-0.9-0.1l0.1-0.3c2.2,0.5,4.8-1,6.2-2.6L48,79C46.8,80.4,44.6,81.7,42.5,81.7z"/>
	<path style="fill:#845A36;" d="M51.1,50c-1.6,6.6-3.7,14.5-1.6,14.5c1.7,0,5.4-3.1,8.5-7.1c0,0,0,0,0,0c2.6-6.4,1.8-14.5,1.8-14.5v-6.7c-0.2,0-0.4,0-0.5,0C56,36.1,52.9,42.3,51.1,50z"/>
	<path style="fill:#845A36;" d="M41.6,62.7c0,1,0.4,1.9-0.5,2c-1.6,0.2-5.1-1-7.3-1.6c-2.4-0.6-6.4-1.8-7.1-2.5c-0.7-0.7,3.2,0.1,6.8,0.1S41.6,59.9,41.6,62.7z"/>
</svg>