<?xml version="1.0" encoding="utf-8"?>
<!-- Generator: Adobe Illustrator 19.0.0, SVG Export Plug-In . SVG Version: 6.00 Build 0)  -->
<svg version="1.1" id="Objects" xmlns="http://www.w3.org/2000/svg" xmlns:xlink="http://www.w3.org/1999/xlink" x="0px" y="0px" viewBox="350 -350 100 82" style="enable-background:new 350 -350 100 82;" xml:space="preserve">
	<path style="fill:#3A8C66;" d="M400.6-276.6c20.5,0,37.1,1.9,37.1,4.2s-16.6,4.2-37.1,4.2s-37.1-1.9-37.1-4.2C363.6-274.8,380.1-276.6,400.6-276.6z"/>
	<path style="fill:#ACA092;" d="M382.9-295.1c-2-2.6-7-7.2-7-7.2s2.5,16.5,1.2,23.4c-5.6,0-5.1,4.4-5.1,4.4h12.4C384.4-274.6,384.9-292.5,382.9-295.1z"/>
	<path style="fill:#ACA092;" d="M413.3-280.3c0,0-1.7-4.1-8.6-3.1c0,2.4,0,4.6-0.4,6.2c-1.1-0.2-2.1-0.5-2.1-0.4c-6.2-0.3-5.8,4.4-5.8,4.4h12.4L413.3-280.3z"/>
	<path style="fill:#C69463;" d="M366.6-348.7c0,0,3.5,1.6,0.1,10.5c-3.4,8.9-3.4,12.3-8.5,10.4c-5.1-1.8-4.3-9.8,0.8-15.6C359-343.4,362.7-350.5,366.6-348.7z"/>
	<path style="fill:#D3C5B4;" d="M446.2-288.5c0.4,3.1,1.4,4.3-2,7c-1.9,1.6-6.6,0-10-0.7c1.2-5.5,0.6-12.1-4.1-16.3c-5-4.5-15.2-5.4-20.2-9.9c-8.7-7.9-20.7-18-24.9-28.3c0,0,0-0.1,0-0.1c0-0.6,0.1-1.2,0.1-1.8c0.6-11.4-9.3-11.1-14.4-11c0,0-9.3,0.6-10,10.7c0,0-12,1.6-10.7,7.4c0.6,2.6,2.8,7.5,3.7,10c3.4,0.4,8.4,0.4,14.3-0.3c0.7-0.1,1.4-0.2,2-0.3c0.1,5.7,1.6,19.5,12,28.9c0.7,7.2,3.1,14,1.4,17.7c-5.5,0.1-5,4.4-5,4.4h7.5c2,0,4,0,4.9,0c2.1,0,0.4-15.1,0.4-15.1s13.7,5.8,18.7,4c-1.6,2.1-0.9,4.6-0.2,6.2c-0.3,0-0.5-0.1-0.6-0.1c-6.2-0.3-5.8,4.4-5.8,4.4h9.7c5,0.1,12.7-0.2,15.5-0.8c1.6-0.4,3.6-2.9,4.8-6.3C452.8-270.7,452.4-287.4,446.2-288.5z"/>
	<path style="fill:#A33A19;" d="M386.2-320.9c1.1-0.6,3.7-2.6,5.2-3.9s-2.1-2.2-2.1-2.2c-8.6,6.9-19,5-20.1,4.6c-1.1-0.4-1.8,2.6-0.2,3.1C370.7-318.7,377.2-315.7,386.2-320.9z"/>
	<path style="fill:#C69463;" d="M383.6-345.7c0,0,2.7,0,5.7,9.1c3,8.9,7.2,17.3,0.4,16.3c-5.4-0.8-9.9-7.7-9.6-15.5C380.1-335.8,379.4-344.6,383.6-345.7z"/>
	<path style="fill:#2A2A2A;" d="M374.2-334.9c-0.2,0-0.3,0-0.5,0c-0.7-0.1-1.3-0.5-1.7-1.1c-0.4-0.6-0.6-1.3-0.4-2c0-0.2,0.3-0.4,0.6-0.4c0.2,0,0.4,0.3,0.4,0.6c-0.1,0.4,0,0.9,0.3,1.2c0.3,0.4,0.7,0.6,1.1,0.7c0.5,0.1,0.9,0,1.3-0.2s0.6-0.6,0.7-1c0-0.2,0.3-0.4,0.6-0.4c0.2,0,0.4,0.3,0.4,0.6c-0.1,0.7-0.5,1.3-1.1,1.6C375.2-335,374.7-334.9,374.2-334.9z"/>
	<path style="fill:#2A2A2A;" d="M360.1-326.9c-0.2-0.1-0.5,0-0.7,0.2c0,0.1-1.1,1.9-3.3,1.9c-1.8,0-2.8-0.6-3.2-0.8v-3.8c0.5,0,1-0.4,1.5-1c1.5-1.9-0.4-2.9-1.6-2.9c0,0-3.9-0.4-2.7,1.7c0.6,1,1.2,1.7,1.9,2v4.4l0.1,0.1c0,0,1.3,1.1,4,1.1c2.8,0,4-2.2,4.1-2.3C360.4-326.5,360.4-326.8,360.1-326.9z"/>
	<path style="fill:#514030;" d="M365.6-342.6c-0.4-0.2-0.8-0.3-1.4-0.4c-3.2-0.7-4.8,0.9-4.2,2.7c0.8,2.7,1.5,3.4,2.8,4.2c0.8,0.5,3.2-1,4.2-2.7c0.6-1.1,0.6-2.2-0.3-3c1.4-1.9,7.2-7.6,7.4-7.8c-0.2,0-0.6,0-1.4,0C370.5-349.3,367-344.6,365.6-342.6z"/>
	<path style="fill:#514030;" d="M374.2-349.7C374.2-349.7,374.1-349.7,374.2-349.7C374.5-349.7,374.2-349.7,374.2-349.7z"/>
</svg>