<?xml version="1.0" encoding="utf-8"?>
<!-- Generator: Adobe Illustrator 19.0.0, SVG Export Plug-In . SVG Version: 6.00 Build 0)  -->
<svg version="1.1" id="分離模式" xmlns="http://www.w3.org/2000/svg" xmlns:xlink="http://www.w3.org/1999/xlink" x="0px" y="0px" viewBox="0 0 100 61" style="enable-background:new 0 0 100 61;" xml:space="preserve">
	<polygon style="fill:#D9C37A;" points="50.8,0 90.1,12.5 70.4,37.6 46.4,20.6 "/>
	<path style="fill:#B7974A;" d="M12.9,10.9C13.6,10.7,50.8,0,50.8,0l3.6,21.9l-23.6,5.2L12.9,10.9z"/>
	<path style="fill:#96A8AA;" d="M94,46.9c0.9-1.3,1.3-3,1.4-4.6c0.2-1.9,0.2-3.8-0.7-5.5c-1.7-3.2-5.7-4.1-9.3-4.6C77.7,31,70,29.9,62.2,30.1c-3.9,0.1-7.9,0.5-11.8,0.4c-3.9-0.1-7.7-0.7-11.6-0.9c-8.2-0.6-16.5,0.3-24.4,2.5c-0.5,0.1-1,0.3-1.4,0.7c-0.4,0.4-0.5,0.9-0.9,1.3c-0.6,0.7-1.5,0.9-2.3,1.3s-1.5,1.2-1.2,2.1C8.7,37.8,9,38,9.3,38.3c2.7,2.4,5.5,4.8,8.6,6.5c3.7,2.1,7.9,3.2,11.9,4.7c6.6,2.5,12.7,6.1,19.2,8.7c6.6,2.5,13.9,4,20.6,1.8c2.2-0.7,4.3-1.8,6.4-2.9c4.5-2.3,8.9-4.6,13.4-6.9C91.2,49.3,92.9,48.4,94,46.9z"/>
	<path style="fill:#6D401E;" d="M59.4,9.2C59,8.3,59.8,7.5,60.6,7c1.4-0.8,3-1.4,4.6-1.2c1.6,0.2,3.1,1.5,3.3,3.1c1-1.6,2.9-2.6,4.8-2.8c1.9-0.1,3.8,0.7,5,2.2c0.3,0.4,0.6,0.9,1.1,1.1c0.7,0.3,1.5-0.2,2.3-0.3c1.9-0.3,3.7,1.9,3.1,3.7c0.2-0.3,0.5-0.4,0.8-0.3c1,0.9,0.6,2.7-0.4,3.6c-1,0.9-2.5,1.1-3.8,1.4c-11.2,2.2-21.6,7.5-32.3,11.4c-0.3,0.1-0.6,0.2-0.9,0.2c-0.4,0-0.7-0.3-1-0.5c-1.2-0.9-2.5-1.7-3.9-2.3c-1.7-0.8-3.5-1.5-5.3-2.2c-5.1-2-10-4.5-14.7-7.3c-0.3-0.2-0.6-0.4-0.8-0.7c-0.2-0.3-0.2-0.7-0.1-1.1c0.3-1.5,1.8-2.6,3.3-3c1.5-0.3,3.1,0.1,4.5,0.8c1.3-3.2,4.1-5.9,7.5-6.6c3.4-0.7,7.3,0.9,8.8,4.1c-0.1-2.3,0.7-4.7,2.3-6.5c0.4-0.5,1-1,1.6-1.2c0.7-0.3,1.5-0.3,2.3-0.3c1.4,0.1,2.7,0.5,3.8,1.3s1.8,2.1,1.8,3.5c0,0.5-0.2,1,0,1.5S58.9,9.4,59.4,9.2z"/>
	<polygon style="fill:#CCB46D;" points="90.1,12.5 89.1,39.1 48.8,51 47.1,27.6 "/>
	<polygon style="fill:#D9C37A;" points="47.1,27.6 12.9,10.9 12.9,33.3 48.8,51 "/>
	<path style="fill:#CCB46D;" d="M12.9,10.9L0,19.2c0,0,35.4,18.9,35.7,18.5c0.3-0.4,11.4-10,11.4-10L12.9,10.9z"/>
	<polygon style="fill:#B7974A;" points="47.1,27.6 55.4,35.5 100,22 90.1,12.5 "/>
	<path style="fill:#80A62A;" d="M50.8,18.6c1.7,0.5,3.6-0.4,5.4-0.1c1,0.1,2,0.6,3,0.7c2.7,0.2,4.9-2.4,7.6-2.9c1-0.2,2-0.1,2.9-0.6c1.2-0.8,1.4-2.7,0.5-3.9c-0.9-1.2-2.4-1.7-3.9-1.5c-0.5,0-1.1,0.1-1.5-0.1c-0.5-0.3-0.6-0.9-1-1.4c-0.6-0.9-1.6-1.2-2.6-1.5c-3.1-0.8-6.2-1.1-9.4-1.1c-1.3,0-2.7,0.1-3.8,0.9c-1.1,0.8-1.7,2.4-0.9,3.5c-1.8-0.2-3.6,0-5.4,0.5c-0.9,0.3-1.9,0.7-2.5,1.4s-1.1,1.7-0.8,2.7c0.4,1.7,2.6,2.2,4.3,2c1.7-0.2,3.5-0.7,5.1-0.1C48.9,17.3,49.7,18.2,50.8,18.6z"/>
	<path style="fill:#627C32;" d="M47.5,11.9c-1-0.5-2.2-0.1-3.2,0.3c-0.3,0.1-0.7,0.3-0.9,0.6c-0.3,0.7,0.6,1.3,1.3,1.2c0.7-0.1,1.4-0.5,2.1-0.4c1.3,0.1,2,1.7,3.1,2.3c1.9,1.1,4.3-0.3,6.4,0.3c0.1-0.5,0.6-0.7,1.1-0.8c0.5,0,0.9,0.1,1.4,0.2c1.7,0.3,3.6-0.1,5-1.1c0.3-0.2,0.6-0.5,0.5-0.9c-0.1-0.5-0.7-0.6-1.2-0.5c-1.2,0.2-2.3,1.2-3.5,0.7c-0.3-0.1-0.5-0.3-0.8-0.3c-0.6-0.1-1.1,0.3-1.6,0.6c-1,0.5-2.3,0.5-3.3,0c-0.8-0.4-1.5-1.2-2.3-1.1c-0.6,0-1.1,0.5-1.7,0.5C49,13.6,48.4,12.4,47.5,11.9z"/>
</svg>