<?xml version="1.0" encoding="utf-8"?>
<!-- Generator: Adobe Illustrator 19.0.0, SVG Export Plug-In . SVG Version: 6.00 Build 0)  -->
<svg version="1.1" id="分離模式" xmlns="http://www.w3.org/2000/svg" xmlns:xlink="http://www.w3.org/1999/xlink" x="0px" y="0px" viewBox="0 0 100 100" style="enable-background:new 0 0 100 100;" xml:space="preserve">
	<path d="M67.5,92.7l24.2-23.5c1.1-0.7,1.4-1.4,1.4-2.4c0-1-0.3-2-1.1-2.7l-0.7-0.7c-1.4-1.4-3.7-1.8-5.5,0l-7.3,6.8l-8.2-8.2l9.7-9.5c1.4-1.4,1.4-3.7,0-5.5l-1.1-0.7c-1.4-1.6-3.7-1.6-5.2,0l-1.3,1.1L42.7,16.6c-0.7-0.7-2-1.1-3.1-1.1l-13.4,3.1L15.5,7.5c-1.8-2-4.8-2-6.9,0c-2,1.8-2,5.3-0.3,7.3l11,11.2l-3.5,12.8c-0.3,1.1,0,2.4,0.7,3.4l30,30.5L44.9,74c-1.4,1.4-1.4,3.7,0,5.5l0.7,0.7c0.7,0.7,1.8,1.1,2.7,1.1c1.1,0,2-0.3,2.7-1.1l9.3-9l8.2,8.4l-7.3,7.3c-0.7,0.7-1.1,1.6-1.1,2.7s0.3,1.6,1.1,2.7l0.7,0.3C63.8,94.4,66.2,94.4,67.5,92.7z M43.6,60.1l5.9-5.5c0.7-0.7,0.7-1.6,0-2.4c-0.7-0.7-1.8-0.7-2.4,0l-5.9,5.5l-2.3-2.4l5.9-5.5c0.7-0.7,0.7-1.6,0-2.4c-0.7-0.7-1.6-0.7-2.4,0l-5.9,5.5l-2-2.4l5.5-5.5c0.7-0.7,0.7-1.6,0.3-2.4c-0.7-0.7-1.8-0.7-2.4,0L32,48l-2.4-2.4l5.9-5.5c0.7-0.7,0.7-1.6,0-2.4c-0.7-0.8-1.8-0.7-2.4,0l-5.9,5.5l-4.5-4.5L26,25.9c0.3-0.3,0.3-0.3,0.3-0.3l12.8-2.7l27.9,29L50.9,67.8L43.6,60.1z"/>
</svg>