<?xml version="1.0" encoding="utf-8"?>
<!-- Generator: Adobe Illustrator 19.0.0, SVG Export Plug-In . SVG Version: 6.00 Build 0)  -->
<svg version="1.1" id="圖層_1" xmlns="http://www.w3.org/2000/svg" xmlns:xlink="http://www.w3.org/1999/xlink" x="0px" y="0px" viewBox="0 0 100 33" style="enable-background:new 0 0 100 33;" xml:space="preserve">
	<path style="fill:#1E4269;" d="M95.6,24H24.4C22,24,20,26,20,28.4v0c0,2.4,2,4.4,4.4,4.4h71.3c2.4,0,4.4-2,4.4-4.4v0C100,26,98,24,95.6,24z M16.3,9h71.2c2.4,0,4.4-2,4.4-4.4v0c0-2.4-2-4.4-4.4-4.4H16.3c-2.4,0-4.4,2-4.4,4.4v0C11.9,7,13.8,9,16.3,9z M80,16.5L80,16.5c0-2.4-2-4.4-4.4-4.4H4.4c-2.4,0-4.4,2-4.4,4.4v0c0,2.4,2,4.4,4.4,4.4h71.3C78.1,20.9,80,18.9,80,16.5z"/>
</svg>