<?xml version="1.0" encoding="utf-8"?>
<!-- Generator: Adobe Illustrator 21.1.0, SVG Export Plug-In . SVG Version: 6.00 Build 0)  -->
<svg version="1.1" id="圖層_1" xmlns="http://www.w3.org/2000/svg" xmlns:xlink="http://www.w3.org/1999/xlink" x="0px" y="0px" viewBox="0 0 72 72" style="enable-background:new 0 0 72 72;" xml:space="preserve">
	<path d="M25.5,24.1H22c-0.5,0-1,0.4-1,1v21.8c0,0.5,0.4,1,1,1h3.5c0.5,0,1-0.4,1-1V25.1C26.4,24.6,26,24.1,25.5,24.1"/>
	<path d="M49.6,24.1h-3.5c-0.5,0-1,0.4-1,1v13l-10-13.5c0,0,0-0.1-0.1-0.1c0,0,0,0,0,0c0,0,0,0-0.1-0.1c0,0,0,0,0,0c0,0,0,0-0.1,0c0,0,0,0,0,0c0,0,0,0-0.1,0c0,0,0,0,0,0c0,0,0,0-0.1,0c0,0,0,0,0,0c0,0,0,0-0.1,0c0,0,0,0,0,0c0,0,0,0-0.1,0c0,0,0,0,0,0c0,0,0,0-0.1,0c0,0,0,0,0,0c0,0,0,0-0.1,0c0,0,0,0-0.1,0c0,0,0,0,0,0h-3.5c-0.5,0-1,0.4-1,1v21.8c0,0.5,0.4,1,1,1h3.5c0.5,0,1-0.4,1-1V34l10,13.5c0.1,0.1,0.2,0.2,0.2,0.2c0,0,0,0,0,0c0,0,0,0,0.1,0c0,0,0,0,0,0c0,0,0,0,0,0c0,0,0,0,0,0c0,0,0,0,0,0c0,0,0,0,0.1,0c0,0,0,0,0,0c0.1,0,0.2,0,0.2,0h3.5c0.5,0,1-0.4,1-1V25.1C50.6,24.6,50.2,24.1,49.6,24.1"/>
	<path d="M17,42.4H7.5V25.1c0-0.5-0.4-1-1-1H3c-0.5,0-1,0.4-1,1v21.8v0c0,0.3,0.1,0.5,0.3,0.7c0,0,0,0,0,0c0,0,0,0,0,0c0.2,0.2,0.4,0.3,0.7,0.3h0h14c0.5,0,1-0.4,1-1v-3.5C18,42.9,17.5,42.4,17,42.4"/>
	<path d="M69,29.6c0.5,0,1-0.4,1-1v-3.5c0-0.5-0.4-1-1-1H55h0c-0.3,0-0.5,0.1-0.7,0.3c0,0,0,0,0,0c0,0,0,0,0,0c-0.2,0.2-0.3,0.4-0.3,0.7v0v21.8v0c0,0.3,0.1,0.5,0.3,0.7c0,0,0,0,0,0c0,0,0,0,0,0c0.2,0.2,0.4,0.3,0.7,0.3h0h14c0.5,0,1-0.4,1-1v-3.5c0-0.5-0.4-1-1-1h-9.5v-3.7H69c0.5,0,1-0.4,1-1v-3.5c0-0.5-0.4-1-1-1h-9.5v-3.7H69z"/>
</svg>