<?xml version="1.0" encoding="utf-8"?>
<!-- Generator: Adobe Illustrator 19.0.0, SVG Export Plug-In . SVG Version: 6.00 Build 0)  -->
<svg version="1.1" id="圖層_1" xmlns="http://www.w3.org/2000/svg" xmlns:xlink="http://www.w3.org/1999/xlink" x="0px" y="0px"
	 viewBox="0 0 100 100" style="enable-background:new 0 0 100 100;" xml:space="preserve">
<path style="fill:#FFFFFF;" d="M9.2,60.4c-1.8,0-3.5,0.6-4.7,1.8v-1.6H1.7v18.7h2.8v-6.1C5.8,74.3,7.4,75,9.2,75
	c4,0,7.1-3.2,7.1-7.3C16.3,63.6,13.2,60.4,9.2,60.4z M13.5,67.7c0,2.6-1.9,4.6-4.5,4.6s-4.5-2-4.5-4.6s1.9-4.6,4.5-4.6
	S13.5,65.1,13.5,67.7z"/>
<path style="fill:#FFFFFF;" d="M32.5,71.9l0.4-0.6L31,69.4l-0.6,0.8c-0.5,0.6-1.8,2.1-4.4,2.1c-2.2,0-4-1.3-4.4-3.3H33v-1.3
	c0-4.1-3-7.3-6.9-7.3c-4.1,0-7.3,3.2-7.3,7.3S21.9,75,26,75C28.7,75,31.1,73.8,32.5,71.9z M25.9,63.1c2,0,3.5,1.2,4,3.2h-8.3
	C22.1,64.4,23.8,63.1,25.9,63.1z"/>
<path style="fill:#FFFFFF;" d="M42.5,73.5L41,71.3l-0.7,0.8c0,0-0.2,0.1-0.4,0.1c-0.4,0-0.5-0.2-0.5-0.5v-8.4h2.7v-2.7h-2.7v-3.2
	h-2.8v3.2h-1.7v2.7h1.7v8.5c0,1.8,1.3,3.1,3.2,3.1c0.9,0,1.7-0.4,2.3-0.9L42.5,73.5z"/>
<path style="fill:#FFFFFF;" d="M46.8,60.2c0.9,0,1.7-0.7,1.7-1.6c0-0.9-0.7-1.7-1.7-1.7c-0.9,0-1.6,0.7-1.6,1.7
	C45.1,59.5,45.8,60.2,46.8,60.2z"/>
<rect x="45.3" y="60.7" style="fill:#FFFFFF;" width="2.8" height="14.1"/>
<path style="fill:#FFFFFF;" d="M58.5,75c1.8,0,3.5-0.6,4.7-1.8v6.1H66V60.7h-2.8v1.6c-1.3-1.1-2.9-1.8-4.7-1.8c-4,0-7.1,3.2-7.1,7.3
	C51.5,71.8,54.5,75,58.5,75z M58.8,72.3c-2.6,0-4.5-1.9-4.5-4.6c0-2.6,1.9-4.6,4.5-4.6s4.5,2,4.5,4.6S61.3,72.3,58.8,72.3z"/>
<path style="fill:#FFFFFF;" d="M78.2,69.6c0,1.6-1.4,2.7-3.3,2.7c-1.1,0-2.4-0.6-2.4-2.2v-9.4h-2.8v9.2c0,3,2.1,5.1,5,5.1
	c1.3,0,2.6-0.4,3.5-1v0.8H81V60.7h-2.8V69.6z"/>
<path style="fill:#FFFFFF;" d="M96.3,69.4l-0.6,0.8c-0.5,0.6-1.8,2.1-4.4,2.1c-2.2,0-4-1.3-4.4-3.3h11.3v-1.3c0-4.1-3-7.3-6.9-7.3
	c-4.1,0-7.3,3.2-7.3,7.3s3.2,7.3,7.3,7.3c2.7,0,5.1-1.1,6.5-3.1l0.4-0.6L96.3,69.4z M91.3,63.1c2,0,3.5,1.2,4,3.2H87
	C87.5,64.4,89.2,63.1,91.3,63.1z"/>
<path style="fill:#FFFFFF;" d="M21.3,84h7.9c-0.4,0.9-0.9,1.9-1.5,2.8H23v13h1.7v-1.3h10.8v1.3h1.7v-13h-7.5c0.5-0.9,1-1.8,1.4-2.8
	h8v-1.7H21.3V84z M24.8,91.6v-3.1h10.8v3.1H24.8z M35.5,93.3v3.4H24.8v-3.4H35.5z"/>
<path style="fill:#FFFFFF;" d="M56.5,91.4v-2.2c0.4,0.3,0.9,0.6,1.4,0.9l0.2,0.1l1.1-1.4l-0.4-0.2c-1.2-0.6-2.2-1.3-2.9-2.1h2.9V85
	h-5.6c0.1-0.3,0.2-0.5,0.3-0.9c1.7-0.2,3-0.4,4.1-0.8l0.4-0.1l-0.8-1.4L57,81.9c-2.7,0.6-5.7,1-8.9,1h-0.5l0.7,1.6h0.2
	c1.1,0,2.1-0.1,3.1-0.2c-0.1,0.3-0.2,0.5-0.3,0.7h-3.8v1.5l-0.1-1L47,85.6c0-0.4,0-0.8,0-1.2V84h-1.7v0.3c0,0.5,0,1,0,1.4
	c-0.4,0.1-0.7,0.1-1.1,0.1c0.2-1.2,0.4-2.4,0.5-3.5V82l-1.6-0.3v0.4c-0.2,1.6-0.4,2.9-0.6,3.9c-0.3,0-0.8,0.1-1.4,0.1h-0.4l0.3,1.7
	l1.3-0.1c-0.2,1.4-0.5,2.9-0.9,4.6v0.2l0.1,0.1c0.8,0.8,1.6,1.6,2.2,2.4c-0.7,1.4-1.6,2.6-2.8,3.6l-0.3,0.2L42,100l0.2-0.2
	c1.1-1,2-2.2,2.8-3.5c0.5,0.6,0.9,1.1,1.3,1.6l0.2,0.3l1.1-1.2v2.8h1.7v-6.4h7.3v4.4c0,0.2-0.1,0.2-0.1,0.2c-0.2,0-0.7,0.1-2,0H54
	l0.7,1.7H55c0.4,0,0.7,0,1.1,0c1.1,0,1.7-0.2,2-0.6s0.4-0.8,0.4-1.3v-6H47.6v4.9l-0.1-0.1c-0.3-0.5-0.9-1.2-1.7-2.1
	c0.5-1.6,0.9-3.5,1.1-5.6l1.1,1.2l0.2-0.1c0.3-0.2,0.7-0.4,1.2-0.8v2.2H56.5z M54,86.6c0.2,0.3,0.4,0.6,0.6,0.9h-2.9
	c0.3-0.3,0.5-0.6,0.7-0.9H54z M54.8,89v0.8h-3.6V89H54.8z M45.3,87.4c-0.1,2.2-0.4,4.1-0.8,5.7l-1.2-1.2c0.2-0.9,0.4-2.3,0.8-4.4
	L45.3,87.4z M47,88.7c0-0.5,0.1-1,0.1-1.5c0.1,0,0.2,0,0.3-0.1l0.3-0.1v-0.5h2.6c-0.7,0.7-1.7,1.4-3,2L47,88.7z"/>
<path style="fill:#FFFFFF;" d="M55.6,94.1h-5.4V98h5.4V94.1z M52,96.4v-0.7H54v0.7H52z"/>
<path style="fill:#FFFFFF;" d="M71.8,91c1.6-0.9,2.8-1.9,3.7-2.8l0.1-0.1v-1.4h-7.3c0.2-0.2,0.3-0.5,0.5-0.8l0.2-0.3l-1-0.4h8.3v3.2
	h1.7v-4.8h-7.1c-0.3-0.5-0.6-1.1-0.9-1.6l-0.1-0.2L68,82.2l0.3,0.4c0.3,0.3,0.5,0.6,0.6,0.9h-7.4v4.7h1.7v-3.1H67
	c-1,1.7-2.7,3.2-5,4.4l-0.4,0.2l1.2,1.3l0.2-0.1c0.8-0.5,1.7-1.1,2.6-1.8c0.7,0.6,1.4,1.2,2.2,1.7c-1.9,0.6-4.1,1.2-6.8,1.5
	l-0.5,0.1l1,1.6h0.2c0.6-0.1,1.1-0.2,1.7-0.3v6.1h1.7v-0.9h9v0.9h1.7v-6c0.7,0.1,1.3,0.2,2,0.3h0.3l0.7-1.7h-0.5
	C75.8,92.1,73.6,91.6,71.8,91z M74.3,95.3v1.9h-9v-1.9H74.3z M72.8,88.2c-0.8,0.7-1.8,1.3-3,1.8c-1-0.5-1.8-1.1-2.6-1.8H72.8z
	 M64,93.6c2.2-0.4,4.1-1,5.8-1.7c1.5,0.7,3.3,1.3,5.5,1.7H64z"/>
<path style="fill:#FFFFFF;" d="M50,52.2c-14.4,0-26.1-11.7-26.1-26.1S35.6,0,50,0s26.1,11.7,26.1,26.1S64.4,52.2,50,52.2z M50,1.3
	c-13.7,0-24.9,11.1-24.9,24.8S36.3,51,50,51s24.9-11.2,24.9-24.9S63.8,1.3,50,1.3z"/>
<path style="fill:#FFFFFF;" d="M50,3.4c-12.5,0-22.7,10.2-22.7,22.7S37.4,48.8,50,48.8s22.7-10.2,22.7-22.7S62.5,3.4,50,3.4z
	 M56.3,46.1c-0.1-1.1-0.3-5.8,0.6-8.6c0.8-2.3,2.5-3.4,6-3.6c3-0.2,4.1-5.6,4.7-9.7c0-0.3,0.1-0.5,0.1-0.6c0.1-0.2,0-0.4-0.2-0.6
	c-0.2-0.3-0.6-0.8-10.8-0.8l1.2-3.1c0.1-0.3,0-0.5-0.2-0.7c-2.4-1.8-5.8-1.2-7.2-0.8c-0.3-2.5-1.5-6.4-1.6-6.6
	c-0.1-0.2-0.2-0.3-0.3-0.4c-0.2-0.1-0.3-0.1-0.5,0.1c-3,1.9-3.6,6.9-3.7,8.4c-9.6,4.4-9.6,17.5-9.3,21.8c-3.7-3.8-6.1-9.1-6.1-14.8
	C29,14.5,38.5,5,50.1,5s21.1,9.4,21.1,21C71.1,35.5,64.9,43.4,56.3,46.1z M49.8,47.2c0-0.1,0-0.1,0-0.2c0-0.1-0.1-2.2-0.1-2.9
	c0-0.4-0.1-0.8-0.1-1.2c2.6-0.2,4.3-1.8,4.7-3.3c0.5-1.7-0.8-3.2-1.4-3.7c-0.1-0.2-0.4-0.9-0.8-2.2c-0.4-1.5-2.7-2-6.1-2.2
	c-0.1-0.8-0.1-2-0.2-3.5c0-0.3-0.2-0.6-0.5-0.8c-0.2-0.1-0.3-0.1-0.4-0.1s-0.3,0.1-0.5,0.2C41,29.6,37,39.1,36.3,41.2
	c-0.3-3.6-0.4-17.1,8.9-21.1c0.3-0.1,0.3-0.3,0.3-0.6c0-0.1,0.2-5.1,2.5-7.2c0.4,1.5,1.4,4.7,1.4,6.2c0,0.2,0.1,0.4,0.3,0.5
	s0.3,0.2,0.6,0.1c0,0,3.9-1.4,6.4,0.2l-1.3,3.5c-0.1,0.2-0.1,0.4,0.1,0.6c0.1,0.2,0.3,0.3,0.5,0.3c4.3,0,9.1,0.2,10.5,0.4
	c0,0.1,0,0.1,0,0.2c-1,7-2.5,8.6-3.6,8.6c-2.5,0.1-5.9,0.7-7.1,4.4c-1.1,3.4-0.7,9-0.7,9.2C53.5,46.9,51.6,47.1,49.8,47.2
	C50,47.2,50,47.2,49.8,47.2z M47.8,42.8c0.1,1.3,0.2,3.4,0.3,4.2c-3.9-0.3-7.5-1.8-10.4-4c0,0,0,0,0-0.1s3.8-9.7,6.5-13
	c0.1,2.5,0.3,2.8,0.7,3c0.2,0.1,0.3,0.1,0.8,0.2c4.2,0.3,4.7,0.9,4.7,0.9c0.3,1.3,0.8,2.8,1.4,3.1c0.2,0.2,1,1,0.8,1.8
	c-0.3,1-1.5,2-3.6,2c-0.1,0-0.3,0-0.3,0h-0.1c-0.3,0-0.5,0.1-0.7,0.3s-0.3,0.4-0.3,0.7C47.8,42.2,47.8,42.5,47.8,42.8z"/>
</svg>
