<?xml version="1.0" encoding="utf-8"?>
<!-- Generator: Adobe Illustrator 19.0.0, SVG Export Plug-In . SVG Version: 6.00 Build 0)  -->
<svg version="1.1" id="圖層_1" xmlns="http://www.w3.org/2000/svg" xmlns:xlink="http://www.w3.org/1999/xlink" x="0px" y="0px" viewBox="-10 0 78 100" style="enable-background:new -10 0 78 100;" xml:space="preserve">
	<path style="fill:#FFFFFF;" d="M46.1,43c0.5,3.7,0.3,7.4-1.1,10.9c-0.2,0.4-0.4,0.8-0.6,1.2c-0.4,0.8-0.5,1.6-0.1,2.3c0.7,1.1,0.1,2.4-1.2,2.8c-1.3,0.3-2.6,0.6-3.9,0.6c-8.1,0.1-16.3,0-24.4,0.1c-1.8,0-3.2-2.1-2.8-3.3c0.2-0.6,0.5-1,1-1.3c1.1-0.6,2.2-1.1,3.3-1.6c0.6-0.3,0.8-0.6,0.9-1.3c0-2.2,0-4.5,0.2-6.7c0.2-1.9,0.7-3.7,1.1-5.5c0.4-1.9,0.9-3.8,1.3-5.7c0.1-0.3,0-0.7-0.2-0.8c-2.3-2.4-3.4-5.3-4.4-8.3c-1.2-3.8-1.8-7.6-1.6-11.6c0.1-2,0.4-3.9,0.6-5.9c0.1-0.6-0.1-1.2-0.4-1.7c-0.4-0.5-0.7-1-1-1.5c-0.7-1.6-0.4-3,1.1-3.9c1.3-0.8,2.7-1.4,4.2-1.6c1-0.1,1.9,0.6,1.9,1.6c0,0.7,0,1.4,0,2.2c1-0.1,2.1-0.1,3.2-0.2c2.5-0.2,4.9,0,7.4,0.5c0.7,0.1,1.2,0,1.7-0.3c0.9-0.6,1.9-1.2,2.8-1.8c1-0.6,2-0.9,3.1-0.4c1.6,0.7,3.2,3.8,2.9,5.5c-0.1,0.8-0.5,1.5-1.1,2.1c-0.8,0.7-1.2,1.5-1.5,2.5c-1.1,3.9-2.4,7.7-4.1,11.3c-0.9,1.9-1.9,3.8-2.9,5.6c-0.2,0.4-0.3,0.8,0,1.2c1.7,2.3,2.7,4.9,3.4,7.6c1.1,4.6,2.2,9.2,3.4,13.7c0.3,1.1,0.7,1.3,1.8,1.1c0.9-0.2,1.6-0.7,2.2-1.5c1.6-1.9,2.4-4.2,3.1-6.6c0.1-0.4,0.3-0.8,0.4-1.3C46,43,46.1,43,46.1,43z"/>
	<path style="fill:#3F200C;" d="M46.1,43c0.5,3.7,0.3,7.4-1.1,10.9c-0.2,0.4-0.4,0.8-0.6,1.2c-0.4,0.8-0.5,1.6-0.1,2.3c0.7,1.1,0.1,2.4-1.2,2.8c-1.3,0.3-2.6,0.6-3.9,0.6c-8.1,0.1-16.3,0-24.4,0.1c-1.8,0-3.2-2.1-2.8-3.3c0.2-0.6,0.5-1,1-1.3c1.1-0.6,2.2-1.1,3.3-1.6c0.6-0.3,0.8-0.6,0.9-1.3c0-2.2,0-4.5,0.2-6.7c0.2-1.9,0.7-3.7,1.1-5.5c0.4-1.9,0.9-3.8,1.3-5.7c0.1-0.3,0-0.7-0.2-0.8c-2.3-2.4-3.4-5.3-4.4-8.3c-1.2-3.8-1.8-7.6-1.6-11.6c0.1-2,0.4-3.9,0.6-5.9c0.1-0.6-0.1-1.2-0.4-1.7c-0.4-0.5-0.7-1-1-1.5c-0.7-1.6-0.4-3,1.1-3.9c1.3-0.8,2.7-1.4,4.2-1.6c1-0.1,1.9,0.6,1.9,1.6c0,0.7,0,1.4,0,2.2c1-0.1,2.1-0.1,3.2-0.2c2.5-0.2,4.9,0,7.4,0.5c0.7,0.1,1.2,0,1.7-0.3c0.9-0.6,1.9-1.2,2.8-1.8c1-0.6,2-0.9,3.1-0.4c1.6,0.7,3.2,3.8,2.9,5.5c-0.1,0.8-0.5,1.5-1.1,2.1c-0.8,0.7-1.2,1.5-1.5,2.5c-1.1,3.9-2.4,7.7-4.1,11.3c-0.9,1.9-1.9,3.8-2.9,5.6c-0.2,0.4-0.3,0.8,0,1.2c1.7,2.3,2.7,4.9,3.4,7.6c1.1,4.6,2.2,9.2,3.4,13.7c0.3,1.1,0.7,1.3,1.8,1.1c0.9-0.2,1.6-0.7,2.2-1.5c1.6-1.9,2.4-4.2,3.1-6.6c0.1-0.4,0.3-0.8,0.4-1.3C46,43,46.1,43,46.1,43z M18.5,43.4c0.2,0,0.4,0,0.6,0c0.1,1.1,0.1,2.1,0.2,3.2c0.1,3.2,0.4,6.5,1.1,9.7c0.2,1,0.1,1.1-0.8,1.5c-0.9,0.4-1.9,0.8-2.8,1.3c-0.3,0.2-0.7,0.9-0.5,1.1c0.1,0.2,0.5,0.2,0.7,0.2c2.5,0,4.9,0,7.4,0c1.1,0,1.4-0.4,1.1-1.5c-0.2-0.7-0.3-1.5-0.3-2.2c0-1.6,0.1-3.2,0.2-4.8c0.1-2,0.2-4,0.2-6c0,0,0-0.1,0.1-0.1c0.2,0,0.3,0,0.5,0c0,0.2,0,0.3,0,0.5c-0.1,2.2-0.1,4.3-0.2,6.5c0,1.2,0,2.4-0.1,3.7c-0.1,0.9,0,1.7,0.2,2.6c0.1,0.4,0.1,0.9,0.2,1.4c0,0,0.1,0,0.2,0c4.3,0,8.6,0,12.9,0c1.2,0,2.4-0.3,3.5-0.6c0.4-0.1,0.8-0.4,1-0.8c0.4-0.9-0.2-2.4-1.1-2.8c-0.7-0.3-1.4-0.6-2.2-0.8c-1.4-0.3-2-1.3-2.3-2.6c-0.3-0.9-0.4-1.8-0.7-2.7c-1.4-5.5-2.7-10.9-4.5-16.3c-0.5-1.3-1.1-2.5-2-3.7c-0.3,0.3-0.5,0.5-0.7,0.7c-1.3,1.3-2.6,2.6-4,3.8c-1.2,1.1-2.7,1.6-4.3,1.3c-0.6-0.1-1.2-0.3-1.8-0.5c-0.3,1.5-0.6,2.9-0.9,4.3C19.1,41,18.8,42.2,18.5,43.4c-0.1,0.7-0.3,1.3-0.3,2c-0.2,2.9-0.3,5.7-0.4,8.6c0,0.6-0.3,0.9-0.8,1.1c-0.5,0.1-0.9,0.3-1.3,0.5c-0.8,0.4-1.5,0.7-2.2,1.2c-1.1,0.7-1.2,1.8-0.3,2.8c0.7,0.7,1.5,0.9,2.5,0.8c0.1-1.6,1.2-2.1,2.5-2.5c0.5-0.2,0.9-0.4,1.4-0.7c0.1-0.1,0.2-0.4,0.2-0.5c-0.6-2.6-0.8-5.2-0.9-7.8C18.6,47,18.6,45.2,18.5,43.4z M14.7,8.8c-0.2,1.3-0.4,2.5-0.4,3.7c-0.1,2,0,4,0.1,6c0.1,2.8,0.6,5.4,1.5,8.1c0.9,2.5,2,4.9,3.6,7c0.8,1,1.8,1.7,3.2,1.8c1.2,0,2.3-0.5,3.2-1.2c2-1.4,3.6-3.2,4.9-5.3c2.7-4.3,4.7-8.9,6.3-13.7c0.4-1.1,0.7-2.3,1-3.5c0,0-0.1,0-0.1-0.1c-0.2,0.1-0.4,0.3-0.7,0.4c-0.8,0.5-1.7,1-2.5,1.4c-1.9,0.7-3.6-0.8-3.2-2.8c0.1-0.3,0.1-0.7,0.3-1c0.6-1.3,1.2-2.6,1.8-4c-0.1-0.1-0.3-0.2-0.5-0.3c-3.9-1.3-7.9-1.6-11.9-1.1c-1,0.1-1.3,0.6-1.4,1.6c-0.1,1-0.3,1.9-0.7,2.9c-0.5,1.3-1.8,1.7-3,1C15.6,9.5,15.2,9.2,14.7,8.8z M36.3,3.7c-1.5,2-2.7,4.1-3.8,6.3c-0.5,1-0.3,2,0.6,2.7c0.7,0.6,1.6,0.5,2.5-0.2c1.5-1.3,2.9-2.6,4.3-3.9c0.8-0.7,1-1.6,0.7-2.6c-0.3-1.3-1-2.5-2-3.5C38,1.9,37.3,1.6,36.5,2c-1.3,0.6-2.6,1.4-4,2.2c0.7,0.4,1.2,0.7,1.7,1c0.3-0.3,0.5-0.5,0.7-0.7c0.2-0.2,0.5-0.5,0.8-0.7C35.9,3.7,36.1,3.7,36.3,3.7z M19.6,2.5c-0.1-0.4-0.1-0.7-0.2-1c-0.2-0.7-0.7-1.1-1.4-0.9c-1.4,0.3-2.8,0.8-4,1.7c-1,0.7-1.3,1.7-0.9,2.7c0.6,1.5,1.6,2.8,2.9,3.8c1.2,0.9,2.2,0.3,2.5-0.9C19.1,6.1,19.3,4.2,19.6,2.5z M38.9,52.8c0.6,1.4,0.9,1.6,2.2,2.1c0.3,0.1,0.7,0.2,1,0.3c1.5,0.4,1.4,0.4,2.1-1c1-2.2,1.4-4.5,1.4-6.9c0-0.4,0-0.9,0-1.3c-0.1,0-0.1,0-0.2,0c-0.1,0.1-0.1,0.3-0.2,0.4c-0.6,1.3-1.2,2.7-1.9,4c-0.7,1.3-1.8,2.1-3.2,2.4C39.8,52.8,39.4,52.8,38.9,52.8z"/>
	<path style="fill:#3F200C;" d="M26.1,31.3c0,1.7-1.8,3.3-3.5,3.1c-1.7-0.1-2.7-0.9-3.1-2.3c-0.2-0.9,0-1.5,0.9-1.8c1.3-0.5,2.6-0.9,4-0.7c0.2,0,0.4,0.1,0.5,0.1C25.8,30,26.1,30.4,26.1,31.3z M23.3,31.5c0.5-0.1,1-0.2,1.5-0.4c0.1,0,0.3-0.2,0.3-0.4c0-0.1-0.2-0.3-0.3-0.4c-1-0.4-2-0.4-3,0c-0.1,0.1-0.3,0.3-0.3,0.4c0,0.1,0.2,0.3,0.3,0.4C22.3,31.3,22.8,31.4,23.3,31.5z"/>
	<path style="fill:#3F200C;" d="M23.5,15.7c0,1.4-1.1,2.5-2.5,2.5c-1.4,0-2.5-1.1-2.5-2.5c0-1.4,1.1-2.5,2.5-2.5C22.4,13.2,23.5,14.4,23.5,15.7z M21.7,15.1c0,0.4,0.3,0.8,0.7,0.8c0.4,0,0.8-0.3,0.8-0.7c0-0.4-0.3-0.8-0.7-0.8C22.1,14.4,21.7,14.7,21.7,15.1z"/>
	<path style="fill:#3F200C;" d="M27.1,18.6c-1.3,0-2.5-1.2-2.5-2.5c0-1.4,1.1-2.5,2.5-2.5c1.4,0,2.5,1.1,2.5,2.4C29.5,17.5,28.5,18.6,27.1,18.6z M26.9,15.4c0-0.4-0.3-0.8-0.7-0.8c-0.4,0-0.8,0.3-0.8,0.7c0,0.4,0.3,0.8,0.7,0.8C26.5,16.1,26.9,15.8,26.9,15.4z"/>
	<path style="fill:#3F200C;" d="M25.8,42.2c0.2-0.1,0.3-0.1,0.5-0.2c0.4,1.9,0.9,3.8,1.3,5.8c1.5-0.1,2.9-0.2,4.3-0.4c1.1-0.1,1.1-0.1,1.1-1.3c0.1-1.8,0.1-3.5,0.2-5.4c0.3,0,0.5,0,0.8,0c-0.2,3.3-0.4,6.5-0.7,9.8c-0.1,0.8-0.2,1.6-0.4,2.3c-0.2,0.8-0.7,1.3-1.3,1.7c-1,0.6-2.2,0.3-2.8-0.8c-0.4-0.7-0.7-1.6-0.9-2.4c-0.7-3-1.4-6-2.1-9C25.8,42.4,25.8,42.4,25.8,42.2z M33,47.6c-1.8,0.2-3.5,0.4-5.3,0.6c0.2,0.6,0.4,1.2,0.5,1.6c1.6-0.3,3.2-0.5,4.7-0.8C32.9,48.7,32.9,48.2,33,47.6z M32.9,49.4c-1.6,0-3.1,0.2-4.6,0.8c1.6,0.5,3,1,4.5,1.5C32.8,50.9,32.9,50.2,32.9,49.4z M29,52.7c0.6,1.3,1.2,1.7,2,1.5c0.8-0.2,1.7-1.3,1.6-2C31.4,52.4,30.3,52.5,29,52.7z M29,52.5c1.2-0.2,2.4-0.3,3.5-0.5c0,0,0-0.1,0-0.1c-1.4-0.4-2.7-0.9-4.2-1.3C28.6,51.3,28.8,51.9,29,52.5z"/>
	<path style="fill:#FFFFFF;" d="M-9.9,93.1c0-9.9,0-19.7,0-29.6c25.9,0,51.9,0,77.9,0c0,9.8,0,19.7,0,29.6C42,93.1,16,93.1-9.9,93.1z"/>
	<path style="fill:#DC7C1A;" d="M-3,95.6h-1.4c0,0-0.1,0-0.1,0.1v4.3c0,0,0,0.1,0.1,0.1H-4c0,0,0.1,0,0.1-0.1v-1.7h1c0.1,0,0.2,0,0.3-0.1c0.1-0.1,0.1-0.2,0.1-0.3v-2c0-0.1,0-0.2-0.1-0.3C-2.8,95.6-2.9,95.6-3,95.6z M-3.1,96v1.8H-4V96H-3.1z"/>
	<path style="fill:#DC7C1A;" d="M-0.6,99.5h-1V98h0.9c0,0,0.1,0,0.1-0.1v-0.3c0,0,0-0.1-0.1-0.1h-0.9V96h1c0,0,0.1,0,0.1-0.1v-0.3c0,0,0-0.1-0.1-0.1h-1.4c0,0-0.1,0-0.1,0.1v4.3c0,0,0,0.1,0.1,0.1h1.4c0,0,0.1,0,0.1-0.1L-0.6,99.5C-0.6,99.6-0.6,99.5-0.6,99.5z"/>
	<path style="fill:#DC7C1A;" d="M1.5,95.6H0.3c-0.1,0-0.2,0-0.3,0.1c-0.1,0.1-0.1,0.2-0.1,0.3v3.7c0,0.1,0,0.2,0.1,0.3c0.1,0.1,0.2,0.1,0.3,0.1h1.2c0.1,0,0.2,0,0.3-0.1c0.1-0.1,0.1-0.2,0.1-0.3v-3.7c0-0.1,0-0.2-0.1-0.3C1.7,95.6,1.6,95.6,1.5,95.6z M1.3,96v3.5H0.4V96H1.3z"/>
	<path style="fill:#DC7C1A;" d="M3.9,95.6H2.5c0,0-0.1,0-0.1,0.1v4.3c0,0,0,0.1,0.1,0.1h0.4c0,0,0.1,0,0.1-0.1v-1.7h1c0.1,0,0.2,0,0.3-0.1c0.1-0.1,0.1-0.2,0.1-0.3v-2c0-0.1,0-0.2-0.1-0.3C4.1,95.6,4,95.6,3.9,95.6z M3.7,96v1.8H2.9V96H3.7z"/>
	<path style="fill:#DC7C1A;" d="M6.2,99.5H5.2v-3.9c0,0,0-0.1-0.1-0.1H4.8c0,0-0.1,0-0.1,0.1v4.3c0,0,0,0.1,0.1,0.1h1.4c0,0,0.1,0,0.1-0.1L6.2,99.5C6.2,99.6,6.2,99.5,6.2,99.5z"/>
	<path style="fill:#DC7C1A;" d="M8.1,99.5h-1V98H8c0,0,0.1,0,0.1-0.1v-0.3c0,0,0-0.1-0.1-0.1H7.1V96h1c0,0,0.1,0,0.1-0.1v-0.3c0,0,0-0.1-0.1-0.1H6.7c0,0-0.1,0-0.1,0.1v4.3c0,0,0,0.1,0.1,0.1h1.4c0,0,0.1,0,0.1-0.1L8.1,99.5C8.2,99.6,8.2,99.5,8.1,99.5z"/>
	<path style="fill:#DC7C1A;" d="M11.2,95.6H9.8c0,0-0.1,0-0.1,0.1v4.3c0,0,0,0.1,0.1,0.1h0.4c0,0,0.1,0,0.1-0.1V98h0.9c0,0,0.1,0,0.1-0.1v-0.3c0,0,0-0.1-0.1-0.1h-0.9V96h1c0,0,0.1,0,0.1-0.1L11.2,95.6C11.3,95.6,11.3,95.6,11.2,95.6z"/>
	<path style="fill:#DC7C1A;" d="M13.3,95.6h-1.2c-0.1,0-0.2,0-0.3,0.1c-0.1,0.1-0.1,0.2-0.1,0.3v3.7c0,0.1,0,0.2,0.1,0.3c0.1,0.1,0.2,0.1,0.3,0.1h1.2c0.1,0,0.2,0,0.3-0.1c0.1-0.1,0.1-0.2,0.1-0.3v-3.7c0-0.1,0-0.2-0.1-0.3C13.5,95.6,13.4,95.6,13.3,95.6z M13.2,96v3.5h-0.9V96H13.2z"/>
	<path style="fill:#DC7C1A;" d="M15.5,97.9C15.5,97.9,15.5,97.9,15.5,97.9c0.1,0,0.1,0,0.2,0c0.4,0,0.5-0.2,0.5-0.4v-1.6c0-0.1,0-0.2-0.1-0.3c-0.1-0.1-0.2-0.1-0.3-0.1h-1.4c0,0-0.1,0-0.1,0.1v4.3c0,0,0,0.1,0.1,0.1h0.4c0,0,0.1,0,0.1-0.1V96h0.9v1.5H15c0,0,0,0,0,0l-0.1,0.1c0,0,0,0,0,0.1l0.8,2.3c0,0,0,0,0.1,0h0.4c0,0,0,0,0,0c0,0,0,0,0-0.1C15.9,99.3,15.7,98.6,15.5,97.9z"/>
	<path style="fill:#DC7C1A;" d="M18.8,95.5h-0.4c0,0-0.1,0-0.1,0l-0.8,4.3c0,0,0,0,0,0c0,0,0,0.1,0.1,0.1H18c0,0,0.1,0,0.1,0l0.1-0.9H19l0.1,0.9c0,0,0,0,0.1,0h0.4c0,0,0,0,0,0c0,0,0,0,0,0L18.8,95.5C18.8,95.6,18.8,95.5,18.8,95.5z M18.9,98.6h-0.6l0.3-1.9L18.9,98.6z"/>
	<path style="fill:#DC7C1A;" d="M21.9,95.6h-0.4c0,0-0.1,0-0.1,0.1v2.8l-1-2.8c0,0,0,0-0.1,0h-0.3c0,0-0.1,0-0.1,0.1v4.3c0,0,0,0.1,0.1,0.1h0.4c0,0,0.1,0,0.1-0.1v-2.9l1,2.9c0,0,0,0,0.1,0h0.3c0,0,0.1,0,0.1-0.1L21.9,95.6C21.9,95.6,21.9,95.6,21.9,95.6z"/>
	<path style="fill:#DC7C1A;" d="M23,95.6h-0.4c0,0-0.1,0-0.1,0.1v4.3c0,0,0,0.1,0.1,0.1H23c0,0,0.1,0,0.1-0.1L23,95.6C23,95.6,23,95.6,23,95.6z"/>
	<path style="fill:#DC7C1A;" d="M25.8,95.6h-0.4c0,0,0,0-0.1,0l-0.7,2.6l-0.7-2.6c0,0,0,0-0.1,0h-0.4c0,0-0.1,0-0.1,0.1v4.3c0,0,0,0.1,0.1,0.1H24c0,0,0.1,0,0.1-0.1v-2.5l0.6,2.1c0,0,0,0,0.1,0h0.1c0,0,0,0,0.1,0l0.6-2.1v2.5c0,0,0,0.1,0.1,0.1h0.4c0,0,0.1,0,0.1-0.1L25.8,95.6C25.9,95.6,25.9,95.6,25.8,95.6z"/>
	<path style="fill:#DC7C1A;" d="M27.5,95.5h-0.4c0,0-0.1,0-0.1,0l-0.8,4.3c0,0,0,0,0,0c0,0,0,0.1,0.1,0.1h0.4c0,0,0.1,0,0.1,0l0.1-0.9h0.8l0.1,0.9c0,0,0,0,0.1,0h0.4c0,0,0,0,0,0c0,0,0,0,0,0L27.5,95.5C27.6,95.6,27.5,95.5,27.5,95.5z M27.6,98.6H27l0.3-1.9L27.6,98.6z"/>
	<path style="fill:#DC7C1A;" d="M30.2,99.5h-0.9v-3.9c0,0,0-0.1-0.1-0.1h-0.4c0,0-0.1,0-0.1,0.1v4.3c0,0,0,0.1,0.1,0.1h1.4c0,0,0.1,0,0.1-0.1L30.2,99.5C30.2,99.6,30.2,99.5,30.2,99.5z"/>
	<path style="fill:#DC7C1A;" d="M33.2,95.6h-1.1c-0.1,0-0.2,0-0.3,0.1c-0.1,0.1-0.1,0.2-0.1,0.3v3.7c0,0.1,0,0.2,0.1,0.3c0.1,0.1,0.2,0.1,0.3,0.1h1.1c0.1,0,0.2,0,0.3-0.1c0.1-0.1,0.1-0.2,0.1-0.3v-1.1c0,0,0-0.1-0.1-0.1h-0.4c0,0-0.1,0-0.1,0.1v1h-0.8V96h0.8v0.9c0,0,0,0.1,0.1,0.1h0.4c0,0,0.1,0,0.1-0.1v-1c0-0.1,0-0.2-0.1-0.3C33.4,95.6,33.3,95.6,33.2,95.6z"/>
	<path style="fill:#DC7C1A;" d="M35.2,95.5h-0.4c0,0-0.1,0-0.1,0L34,99.9c0,0,0,0,0,0c0,0,0,0.1,0.1,0.1h0.4c0,0,0.1,0,0.1,0l0.1-0.9h0.8l0.1,0.9c0,0,0,0,0.1,0H36c0,0,0,0,0,0c0,0,0,0,0,0L35.2,95.5C35.2,95.6,35.2,95.5,35.2,95.5z M35.3,98.6h-0.6l0.3-1.9L35.3,98.6z"/>
	<path style="fill:#DC7C1A;" d="M37.7,97.9C37.7,97.9,37.7,97.9,37.7,97.9c0.1,0,0.1,0,0.2,0c0.4,0,0.5-0.2,0.5-0.4v-1.6c0-0.1,0-0.2-0.1-0.3c-0.1-0.1-0.2-0.1-0.3-0.1h-1.4c0,0-0.1,0-0.1,0.1v4.3c0,0,0,0.1,0.1,0.1h0.4c0,0,0.1,0,0.1-0.1V96h0.9v1.5h-0.6c0,0,0,0,0,0l-0.1,0.1c0,0,0,0,0,0.1l0.8,2.3c0,0,0,0,0.1,0h0.4c0,0,0,0,0,0c0,0,0,0,0-0.1C38.1,99.3,37.9,98.6,37.7,97.9z"/>
	<path style="fill:#DC7C1A;" d="M40.3,99.5h-1V98h0.9c0,0,0.1,0,0.1-0.1v-0.3c0,0,0-0.1-0.1-0.1h-0.9V96h1c0,0,0.1,0,0.1-0.1v-0.3c0,0,0-0.1-0.1-0.1h-1.4c0,0-0.1,0-0.1,0.1v4.3c0,0,0,0.1,0.1,0.1h1.4c0,0,0.1,0,0.1-0.1L40.3,99.5C40.4,99.6,40.4,99.5,40.3,99.5z"/>
	<path style="fill:#DC7C1A;" d="M44,97.5h-1.2l-0.3-0.2V96h0.8v0.8c0,0,0,0.1,0.1,0.1h0.4c0,0,0.1,0,0.1-0.1v-0.9c0-0.1,0-0.2-0.1-0.3c-0.1-0.1-0.2-0.1-0.3-0.1h-1.1c-0.1,0-0.2,0-0.3,0.1C42,95.7,42,95.8,42,95.9v1.3c0,0.1,0.1,0.2,0.2,0.3c0.1,0,0.1,0.1,0.2,0.1l-0.2,0.2C42,97.9,42,98,42,98.2v1.5c0,0.1,0,0.2,0.1,0.3c0.1,0.1,0.2,0.1,0.3,0.1h1.4c0,0,0.1,0,0.1-0.1v-2H44c0,0,0.1,0,0.1-0.1L44,97.5C44.1,97.5,44.1,97.5,44,97.5z M42.4,99.5v-1.4l0.4-0.2h0.5v1.6H42.4z"/>
	<path style="fill:#DC7C1A;" d="M46.4,97.7l1-2c0,0,0,0,0,0v0c0,0,0-0.1-0.1-0.1h-0.4c0,0,0,0-0.1,0L46,97.3v-1.7c0,0,0-0.1-0.1-0.1h-0.4c0,0-0.1,0-0.1,0.1v4.3c0,0,0,0.1,0.1,0.1H46c0,0,0.1,0,0.1-0.1v-1.8l0.9,1.9c0,0,0,0,0.1,0h0.4c0,0,0,0,0,0c0,0,0,0,0-0.1L46.4,97.7z"/>
	<path style="fill:#DC7C1A;" d="M48.2,95.6h-0.4c0,0-0.1,0-0.1,0.1v4.3c0,0,0,0.1,0.1,0.1h0.4c0,0,0.1,0,0.1-0.1L48.2,95.6C48.2,95.6,48.2,95.6,48.2,95.6z"/>
	<path style="fill:#DC7C1A;" d="M50.7,95.6h-0.4c0,0-0.1,0-0.1,0.1v2.8l-1-2.8c0,0,0,0-0.1,0h-0.3c0,0-0.1,0-0.1,0.1v4.3c0,0,0,0.1,0.1,0.1h0.4c0,0,0.1,0,0.1-0.1v-2.9l1,2.9c0,0,0,0,0.1,0h0.3c0,0,0.1,0,0.1-0.1L50.7,95.6C50.8,95.6,50.7,95.6,50.7,95.6z"/>
	<path style="fill:#DC7C1A;" d="M52.4,95.6h-1c0,0-0.1,0-0.1,0.1v4.3c0,0,0,0.1,0.1,0.1h1c0.2,0,0.4-0.1,0.6-0.2c0.2-0.2,0.2-0.4,0.2-0.6v-2.8c0-0.2-0.1-0.4-0.2-0.6C52.8,95.6,52.6,95.6,52.4,95.6z M52.7,96.4v2.7c0,0.1,0,0.2-0.1,0.3c-0.1,0.1-0.2,0.1-0.3,0.1h-0.5V96h0.5c0.1,0,0.2,0,0.3,0.1C52.7,96.2,52.7,96.3,52.7,96.4z"/>
	<path style="fill:#DC7C1A;" d="M55.6,95.6h-0.4c0,0-0.1,0-0.1,0.1v2.8l-1-2.8c0,0,0,0-0.1,0h-0.3c0,0-0.1,0-0.1,0.1v4.3c0,0,0,0.1,0.1,0.1h0.4c0,0,0.1,0,0.1-0.1v-2.9l1,2.9c0,0,0,0,0.1,0h0.3c0,0,0.1,0,0.1-0.1L55.6,95.6C55.7,95.6,55.7,95.6,55.6,95.6z"/>
	<path style="fill:#DC7C1A;" d="M57.7,99.5h-1V98h0.9c0,0,0.1,0,0.1-0.1v-0.3c0,0,0-0.1-0.1-0.1h-0.9V96h1c0,0,0.1,0,0.1-0.1v-0.3c0,0,0-0.1-0.1-0.1h-1.4c0,0-0.1,0-0.1,0.1v4.3c0,0,0,0.1,0.1,0.1h1.4c0,0,0.1,0,0.1-0.1L57.7,99.5C57.8,99.6,57.8,99.5,57.7,99.5z"/>
	<path style="fill:#DC7C1A;" d="M59.7,95.6h-1.1c-0.1,0-0.2,0-0.3,0.1c-0.1,0.1-0.1,0.2-0.1,0.3v0.9c0,0.1,0,0.3,0.1,0.4l1.2,1.4v1h-0.8v-1c0,0,0-0.1-0.1-0.1h-0.4c0,0-0.1,0-0.1,0.1v1.1c0,0.1,0,0.2,0.1,0.3c0.1,0.1,0.2,0.1,0.3,0.1h1.1c0.1,0,0.2,0,0.3-0.1c0.1-0.1,0.1-0.2,0.1-0.3v-1c0-0.1,0-0.3-0.1-0.4l-1.2-1.4V96h0.8v0.9c0,0,0,0.1,0.1,0.1H60c0,0,0.1,0,0.1-0.1v-1c0-0.1,0-0.2-0.1-0.3C59.9,95.6,59.8,95.6,59.7,95.6z"/>
	<path style="fill:#DC7C1A;" d="M62,97h0.4c0,0,0.1,0,0.1-0.1v-1c0-0.1,0-0.2-0.1-0.3c-0.1-0.1-0.2-0.1-0.3-0.1H61c-0.1,0-0.2,0-0.3,0.1c-0.1,0.1-0.1,0.2-0.1,0.3v0.9c0,0.1,0,0.3,0.1,0.4l1.2,1.4v1h-0.8v-1c0,0,0-0.1-0.1-0.1h-0.4c0,0-0.1,0-0.1,0.1v1.1c0,0.1,0,0.2,0.1,0.3c0.1,0.1,0.2,0.1,0.3,0.1h1.1c0.1,0,0.2,0,0.3-0.1c0.1-0.1,0.1-0.2,0.1-0.3v-1c0-0.1,0-0.3-0.1-0.4l-1.2-1.4V96H62L62,97C62,97,62,97,62,97z"/>
	<path style="fill:#EF821E;" d="M-9.9,93.1c0-9.9,0-19.7,0-29.6c25.9,0,51.9,0,77.9,0c0,9.8,0,19.7,0,29.6C42,93.1,16,93.1-9.9,93.1z M5,67.8c-0.3-0.9-0.6-1.1-1.5-1c-0.5,0-1,0-1.5,0.1c-1.4,0.1-1.8,0.5-1.8,1.9C0.3,71.9,0.4,75,0.6,78c0.2,3.7,0.5,7.4,0.8,11.2c0.1,0.9,0.5,1.4,1.3,1.5c0.3,0.1,0.6,0.1,0.9,0.1c0.8,0,1.1-0.3,1.2-1c0-0.3,0.1-0.6,0.1-1c0.1-2.3,0.1-4.7,0.2-7c0-0.8,0.1-0.9,0.9-1.2c1.7-0.5,3.3-1.1,4.9-1.7c0.9-0.3,1.2-0.8,1.2-1.7c0-1-0.1-2-0.2-3c-0.2-1.6-0.3-3.2-0.5-4.8c-0.1-0.9-0.7-1.5-1.7-1.6c-0.3,0-0.6-0.1-0.9-0.1C7.5,67.8,6.2,67.8,5,67.8z M49.7,75.3c0.2-0.9,0.3-1.6,0.4-2.3c0.2-1.3,0.5-2.6,0.6-3.9c0.1-0.9-0.4-1.4-1.3-1.5c-0.6-0.1-1.1,0-1.7,0c-0.8,0-1.1,0.3-1.2,1.1c-1.2,6.3-2.1,12.7-2.8,19c-0.1,1.1,0.3,1.7,1.5,1.9c1,0.2,1.4,0,1.7-1.2c0-0.1,0-0.2,0.1-0.3c0.4-1.6,0.8-3.3,1.2-5c0.2,0.2,0.3,0.4,0.4,0.5c1.2,1.6,2.4,3.3,3.6,4.9c0.4,0.5,0.8,0.8,1.5,0.8c1.5-0.2,2.1-1.3,1.4-2.6c-1.1-2-2.2-4-3.3-6c-0.5-0.9-0.5-1,0.3-1.7c1.4-1.3,2.8-2.6,4.2-4c0.3-0.3,0.6-0.7,0.6-1.2c-0.1-1-1.5-1.9-2.4-1.6c-0.5,0.2-1,0.5-1.4,0.8C51.9,73.7,50.8,74.5,49.7,75.3z M24,85.8c0.1,0.3,0.2,0.5,0.3,0.8c0.2,0.5,0.7,0.8,1.2,0.7c1.3-0.2,2.6-2.1,2.4-3.4c-0.4-2.5-0.8-5-1.1-7.5c-0.4-3.1-2.1-5-4.9-6.1c-1-0.4-2-0.3-3,0.3c-0.6,0.4-1.3,0.8-1.9,1.2c-0.9,0.6-1.8,1.2-2.6,1.8c-0.4,0.3-0.9,0.8-0.7,1.3c0.2,0.8,0.5,1.5,0.8,2.3c0.2,0.5,0.7,0.6,1.2,0.3c0.4-0.2,0.7-0.4,1.1-0.7c1-0.8,2-1.6,3-2.3c0.8-0.6,1.5-0.4,2.1,0.4c0.3,0.5,0.5,1,0.8,1.5c-0.2,0.1-0.2,0.1-0.3,0.1c-2.1,0.4-3.9,1.6-5.5,2.9c-0.4,0.3-0.7,0.7-0.6,1.3c0.2,1.6,0.4,3.1,0.6,4.7c0.1,0.9,0.7,1.4,1.7,1.4c0.7,0,1.3,0,2-0.2C21.6,86.4,22.8,86.1,24,85.8z M29.5,81.1c0.2,1.3,0.4,2.7,0.7,4.1c0.2,1,0.8,1.5,1.9,1.6c0.7,0.1,1.4,0.2,2.1,0.2c1.2,0,2.5,0.1,3.7,0.1c0.5,0,0.8-0.2,1-0.6c0.4-0.9,0.8-1.8,1.3-2.7c0.5-0.9-0.1-1.4-0.9-1.5c-1.1-0.1-2,0.2-2.9,0.8c-0.6,0.4-1.3,0.5-1.9,0.2c-0.7-0.3-0.7-1-0.6-1.6c0.3-2.1,0.5-4.2,0.7-6.4c0.1-0.5,0.3-1,0.8-1.1c0.5-0.1,1.1-0.2,1.6-0.2c0.4,0,0.7,0.3,0.7,0.8c0,0.4,0,0.8,0,1.2c0,1.7,0.7,2.5,2.4,2.6c0.7,0,1.2-0.2,1.3-1c0.4-1.9,0.2-3.8-0.4-5.7c-0.4-0.9-0.9-1.3-1.9-1.2c-2.1,0.2-4.2,0.4-6.3,0.6c-1,0.1-1.4,0.5-1.7,1.5c-0.4,1.6-0.9,3.2-1.3,4.8C29.8,78.7,29.7,79.8,29.5,81.1z M-2.8,78.1c0-1.1-0.2-1.3-1.4-1.4c-0.2,0-0.4,0-0.5,0c-1.4,0-1.9,0.6-1.7,2c0,0.1,0.1,0.3,0.1,0.4c0.3,0.9,0.9,1.3,1.9,1.3c0.8,0,1.2-0.5,1.4-1.4C-2.9,78.8-2.9,78.5-2.8,78.1z M59.8,78.5c0.1,0.4,0.1,0.8,0.2,1.2c0.3,0.7,0.9,1.1,1.9,1c0.7,0,1.1-0.3,1.2-1.2c0.1-0.5,0.1-1.1,0.2-1.6c0-0.5-0.2-0.8-0.7-0.9c-0.5-0.1-0.9-0.1-1.4,0C60.2,77,59.8,77.4,59.8,78.5z"/>
	<path style="fill:#E88020;" d="M5.1,77.3c0-1.9,0-3.6,0-5.4c0-0.2,0.2-0.5,0.4-0.6C6.1,71,7,71.2,7.4,71.8c0.8,1.1,1,2.3,0.9,3.6c0,0.3-0.3,0.6-0.5,0.7C6.9,76.5,6,76.9,5.1,77.3z"/>
	<path style="fill:#E88020;" d="M23.1,79.8c0.1,0.9,0.3,1.8,0.4,2.6c0,0.2-0.2,0.4-0.3,0.6c-0.7,0.7-2.1,0.6-2.8-0.1c-0.5-0.5-0.5-1.1,0.1-1.5C21.3,80.8,22.1,80.3,23.1,79.8z"/>
	<path style="fill:#EF821E;" d="M33,47.6c-1.8,0.2-3.5,0.4-5.3,0.6c0.2,0.6,0.4,1.2,0.5,1.6c1.6-0.3,3.2-0.5,4.7-0.8C32.9,48.7,32.9,48.2,33,47.6z"/>
	<path style="fill:#EF821E;" d="M32.9,49.4c-1.6,0-3.1,0.2-4.6,0.8c1.6,0.5,3,1,4.5,1.5C32.8,50.9,32.9,50.2,32.9,49.4z"/>
	<path style="fill:#EF821E;" d="M29,52.5c1.2-0.2,2.4-0.3,3.5-0.5c0,0,0-0.1,0-0.1c-1.4-0.4-2.7-0.9-4.2-1.3C28.6,51.3,28.8,51.9,29,52.5z"/>
</svg>