<?xml version="1.0" encoding="utf-8"?>
<!-- Generator: Adobe Illustrator 19.0.0, SVG Export Plug-In . SVG Version: 6.00 Build 0)  -->
<svg version="1.1" id="圖層_1" xmlns="http://www.w3.org/2000/svg" xmlns:xlink="http://www.w3.org/1999/xlink" x="0px" y="0px" viewBox="0 35 100 32" style="enable-background:new 0 35 100 32;" xml:space="preserve">
	<circle style="fill:#FFFFFF;" cx="15.8" cy="51" r="15.1"/>
	<path style="fill:#F7931E;" d="M30.9,51h-0.7c0,4-1.6,7.6-4.2,10.2s-6.2,4.2-10.2,4.2s-7.6-1.6-10.2-4.2S1.4,55,1.4,51S3,43.4,5.6,40.8c2.6-2.6,6.2-4.2,10.2-4.2s7.6,1.6,10.2,4.2c2.6,2.6,4.2,6.2,4.2,10.2H30.9h0.7c0-4.4-1.8-8.3-4.6-11.2c-2.9-2.8-6.8-4.6-11.2-4.6S7.5,37,4.6,39.8C1.8,42.7,0,46.6,0,51s1.8,8.3,4.6,11.2c2.9,2.9,6.8,4.6,11.2,4.6S24.1,65,27,62.2c2.9-2.9,4.6-6.8,4.6-11.2H30.9z"/>
	<path style="fill:#F7931E;" d="M29.5,51c0,7.6-6.1,13.7-13.7,13.7S2.1,58.6,2.1,51s6.1-13.7,13.7-13.7S29.5,43.4,29.5,51z"/>
	<path style="fill:#FFFFFF;" d="M29.5,51h-1.8c0,1.7-0.3,3.2-0.9,4.7c-0.9,2.1-2.4,4-4.3,5.3c-1.9,1.3-4.2,2-6.7,2c-1.7,0-3.2-0.3-4.7-0.9c-2.1-0.9-4-2.4-5.3-4.3c-1.3-1.9-2-4.2-2-6.7c0-1.7,0.3-3.2,0.9-4.7c0.9-2.1,2.4-4,4.3-5.3s4.2-2,6.7-2c1.8-0.1,3.3,0.3,4.8,0.9c2.1,0.9,4,2.4,5.3,4.3c1.3,1.9,2,4.2,2,6.7H29.5h1.8c0-4.3-1.7-8.1-4.5-10.9c-1.4-1.4-3.1-2.5-4.9-3.3c-1.9-0.8-3.9-1.2-6-1.2s-4.2,0.4-6,1.2C7,37.9,4.6,39.9,3,42.3c-1.7,2.5-2.7,5.5-2.7,8.7c0,2.1,0.4,4.2,1.2,6c1.2,2.8,3.1,5.1,5.6,6.8s5.5,2.6,8.7,2.6c4.3,0,8.1-1.7,10.9-4.5c2.8-2.8,4.5-6.7,4.5-10.9H29.5z"/>
	<path style="fill:#F7931E;" d="M27.7,51h-0.1c0,3.3-1.3,6.2-3.5,8.4c-2.1,2.1-5.1,3.5-8.4,3.5s-6.2-1.3-8.4-3.5C5.3,57.2,4,54.3,4,51s1.3-6.2,3.5-8.3c2.1-2.1,5.1-3.5,8.4-3.5s6.2,1.3,8.4,3.5C26.4,44.8,27.8,47.8,27.7,51L27.7,51h0.1c0-6.6-5.4-12-12-12s-12,5.4-12,12c0,6.7,5.4,12,12,12s12-5.4,12-12H27.7z"/>
	<polygon style="fill:#FFFFFF;" points="15.8,61 7.2,56 7.2,46 15.8,41 24.4,46 24.4,56 "/>
	<polygon style="fill:#F7931E;" points="21.4,46.2 17.5,48.5 17.5,43.9 "/>
	<polygon style="fill:#F7931E;" points="22.7,53.3 18.8,51 22.7,48.7 "/>
	<polygon style="fill:#F7931E;" points="8.8,53.4 8.8,48.7 12.9,51 "/>
	<polygon style="fill:#F7931E;" points="10.3,46 14.3,43.7 14.3,48.4 "/>
	<polygon style="fill:#F7931E;" points="17.5,53.5 21.4,55.8 17.5,58.1 "/>
	<polygon style="fill:#F7931E;" points="14.6,58.1 10.7,55.8 14.6,53.5 "/>
	<rect x="15.7" y="41" style="fill:#F7931E;" width="0.2" height="20"/>
	<rect x="5.8" y="50.9" transform="matrix(-0.866 -0.5 0.5 -0.866 3.9829 103.0666)" style="fill:#F7931E;" width="20" height="0.2"/>
	<rect x="15.7" y="41.1" transform="matrix(-0.4995 -0.8663 0.8663 -0.4995 -20.6029 90.2003)" style="fill:#F7931E;" width="0.2" height="19.9"/>
	<path style="fill:#FFFFFF;" d="M43.3,48.4c0,0.3-0.2,0.8-0.6,1.5c-0.4,0.8-1,1.5-1.7,2.1c-0.7,0.7-1.6,1.3-2.5,1.8l-1.1-1.2c2.3-1.2,3.7-2.6,4.4-4.3h-3.7V47h5.2C43.3,47,43.3,48.4,43.3,48.4z M51.7,52.9L50.8,54c-2.2-1.5-3.9-3.4-5.1-5.6v5c0,0.8-0.2,1.3-0.5,1.5c-0.3,0.2-1,0.4-2.1,0.4c-0.4,0-0.8,0-1.4,0l-0.5-1.5c0.6,0,1.2,0,1.6,0c0.7,0,1.1,0,1.2-0.1c0.1,0,0.2-0.1,0.2-0.3v-7.8H40v-1.3h5.7v1c0.2,0.8,0.6,1.7,1.1,2.5c1.6-1.2,2.8-2.3,3.6-3.4l1.1,1c-1,1.2-2.3,2.4-4,3.5C48.7,50.5,50.1,51.8,51.7,52.9z M47.9,42.9l-0.7,1.3c-1.6-0.7-3.5-1.3-5.6-1.7l0.7-1.3C44.3,41.6,46.1,42.2,47.9,42.9z"/>
	<path style="fill:#FFFFFF;" d="M75.6,53.7L75.1,55c-1.8,0-3.7,0-5.7,0c-2.4,0-4.2-0.5-5.3-1.6c-0.5,0.7-1,1.3-1.6,2l-1.1-0.9c1.4-1.4,2.3-2.9,2.7-4.6h-2.3v-1.3c0.7-0.7,1.4-1.6,2.1-2.8h-2.3v-1.2h4v1.3c-0.6,1-1.3,2-2,2.8h2.1V50c-0.3,0.8-0.6,1.6-0.9,2.4c0.4,0.4,0.8,0.7,1.4,1c0.6,0.2,1.1,0.4,1.7,0.4c0.6,0.1,1.7,0.1,3.3,0.1C72.6,53.8,74.1,53.8,75.6,53.7z M65.4,43.2l-1,1c-0.8-0.9-1.7-1.5-2.5-2.1l1-1C63.8,41.7,64.6,42.4,65.4,43.2z M75.5,52.2h-4v1.3h-1.4v-1.3H66V51h4.1v-0.8h-3.5v-1.1h3.5v-0.8h-3.8V47h2.1c-0.1-0.4-0.3-0.8-0.6-1.2H66v-1.2h4v-1h-3.6v-1.2H70v-1.1h1.4v1.1H75v1.2h-3.5v1h4.1v1.2h-1.7c-0.2,0.5-0.4,0.9-0.6,1.2h2v1.2h-3.7V49H75v1.1h-3.4V51h4v1.2H75.5z M72.3,45.8h-3c0.2,0.4,0.4,0.8,0.5,1.2h2C72,46.6,72.2,46.2,72.3,45.8z"/>
	<path style="fill:#FFFFFF;" d="M99.5,55.1h-14v-1h3.8c-0.2-0.4-0.3-0.8-0.5-1.2h-1.7v-2.8h10.7v2.8h-1.7c-0.2,0.5-0.4,0.9-0.6,1.2h3.9L99.5,55.1L99.5,55.1z M98.8,47.7H86.4v-6h1.3v5.1h1.5v-0.7h-1.1v-0.9h1.1v-0.7h-0.9v-0.7h0.9v-0.7h-1.1v-0.9h1.1v-0.7h1.2v0.7h1v0.9h-1v0.6h0.9v0.8h-0.9v0.7h1v0.9h-1v0.7h1.5v-5.4h1.3v5.4h1.6v-0.7h-1.1v-0.9h1.1v-0.7h-0.9v-0.7h0.9v-0.7h-1.1v-0.9h1.1v-0.7h1.1v0.7H97v0.9h-1.1v0.6h0.9v0.8h-0.9v0.7H97v0.9h-1.1v0.7h1.6v-5h1.3V47.7z M98.4,49.4H86.7v-1h11.7C98.4,48.4,98.4,49.4,98.4,49.4z M96.5,51.9v-0.8h-7.9v0.8H96.5z M94.7,52.9h-4.3c0.2,0.3,0.3,0.7,0.5,1.2H94C94.3,53.7,94.5,53.3,94.7,52.9z"/>
	<path style="fill:#F7931E;" d="M38.3,62.3c-0.1,0.6-0.2,1.1-0.3,1.5l-0.5-0.2c0.2-0.5,0.3-1,0.3-1.4L38.3,62.3z M40,62l-0.5,0.1l-0.1-0.4c-0.5,0.1-1.1,0.2-1.8,0.4l-0.1-0.5c0.4-0.4,0.8-0.9,1.2-1.4c-0.4,0.1-0.8,0.1-1,0.1l-0.1-0.4c0.4-0.5,0.7-1,1-1.8l0.5,0.2c-0.3,0.5-0.5,1-0.8,1.4c0.2,0,0.5-0.1,0.7-0.1l0.4-0.6l0.5,0.2c-0.5,0.9-1,1.6-1.5,2.2c0.2,0,0.5-0.1,0.8-0.2c0-0.1-0.1-0.2-0.1-0.3l0.4-0.1C39.8,61.2,39.9,61.6,40,62z M39.1,63.5l-0.5,0.1c0-0.4,0-0.9-0.1-1.3l0.5-0.1C39.1,62.7,39.1,63.1,39.1,63.5z M39.9,63.4l-0.5,0.1c0-0.4-0.1-0.7-0.2-1.2l0.5-0.1C39.8,62.6,39.9,62.9,39.9,63.4z M43.2,62.5c0,0.4-0.1,0.7-0.2,0.9c-0.1,0.3-0.2,0.4-0.4,0.4c-0.3,0-0.5-0.2-0.7-0.7c-0.1-0.5-0.2-1.2-0.3-2.2h-0.8v2.2c0.3-0.1,0.6-0.2,0.8-0.3l0.1,0.6c-0.4,0.2-0.9,0.4-1.4,0.5L40,63.4c0.1-0.1,0.1-0.2,0.1-0.3v-4.5c1-0.1,1.9-0.2,2.6-0.4l0.3,0.5c-0.3,0.1-0.6,0.2-1,0.2c0,0.6,0,1.1,0,1.5h1V61h-0.9c0,0.3,0,0.5,0.1,0.8c0.1,0.3,0.1,0.5,0.1,0.7c0,0.2,0.1,0.4,0.1,0.5c0,0.1,0.1,0.2,0.1,0.2l0,0c0,0,0.1-0.1,0.1-0.4s0.1-0.5,0.1-0.6L43.2,62.5z M41.6,60.4c0-0.4,0-0.8,0-1.4c-0.2,0-0.5,0-0.8,0.1v1.3H41.6z"/>
	<path style="fill:#F7931E;" d="M51.7,59.6l-0.2,0.5c-0.6-0.2-1.1-0.3-1.5-0.6v0.3h-2.2v-0.3c-0.6,0.3-1.1,0.4-1.5,0.6L46,59.6c1.1-0.3,2-0.7,2.8-1.4l0.6,0.2c0,0.1-0.1,0.1-0.1,0.1C49.9,59,50.7,59.3,51.7,59.6z M51.6,63.7H46v-0.5h0.7v-1.3H51v1.3h0.6V63.7z M50.7,61.5h-3.8v-1.4h3.8V61.5z M47.9,63.2v-0.8h-0.7v0.8H47.9z M50.1,61.1v-0.5h-2.6v0.5H50.1z M49.6,59.3c-0.3-0.2-0.5-0.3-0.8-0.5c-0.2,0.2-0.5,0.4-0.8,0.5H49.6z M49.2,63.2v-0.8h-0.7v0.8H49.2z M50.4,63.2v-0.8h-0.7v0.8H50.4z"/>
	<path style="fill:#F7931E;" d="M64.5,58.7c-0.6,0.2-1.2,0.4-1.8,0.5v1.3h1.7v0.6h-1.7v1.6c0.7-0.2,1.3-0.4,1.8-0.6v0.6c-0.8,0.3-1.7,0.6-2.5,0.8l-0.2-0.6c0.1,0,0.3,0,0.3-0.1v-4.1c0.8-0.1,1.5-0.3,2.1-0.5L64.5,58.7z M67.2,62.5c0,0.2,0,0.3-0.1,0.4C67,63,66.9,63,66.8,63.1c-0.1,0-0.3,0-0.5,0s-0.3,0-0.4,0l-0.2-0.6c0.1,0,0.4,0,0.9,0c0.1,0,0.1-0.1,0.1-0.2V59h-1.3v4.8h-0.6v-5.4h2.5L67.2,62.5L67.2,62.5z"/>
	<path style="fill:#F7931E;" d="M73.6,60.1h-2.5V61c0,1.2-0.1,2.2-0.4,2.9l-0.5-0.3c0.2-0.6,0.3-1.4,0.3-2.2v-3h3L73.6,60.1L73.6,60.1z M73,59.6v-0.7h-1.9v0.7H73z M73.5,62.9c0,0.2,0,0.3-0.1,0.4s-0.3,0.1-0.5,0.1l-0.1-0.5h0.1c0.1,0,0.2,0,0.2-0.1v-1.3h-0.4v2.4h-0.5v-2.4h-0.4v1.9h-0.5v-2.5h0.8v-0.6h0.5v0.6h0.8L73.5,62.9L73.5,62.9z M74.5,62.7H74v-4h0.5V62.7z M75.6,63.3c0,0.2-0.1,0.4-0.2,0.4c-0.1,0.1-0.3,0.1-0.6,0.1c-0.1,0-0.3,0-0.4,0l-0.1-0.6c0.2,0,0.3,0,0.5,0s0.3,0,0.3,0l0.1-0.1v-4.9h0.5v5.1H75.6z"/>
	<path style="fill:#F7931E;" d="M91.3,58.8c0,0.7,0,1.4,0,2.1c0,0.7-0.1,1.1-0.1,1.2c0,0.1-0.1,0.2-0.2,0.3s-0.3,0.1-0.5,0.1c-0.1,0-0.2,0-0.4,0l-0.2-0.6h0.6c0,0,0.1,0,0.1-0.1c0,0,0.1-0.3,0.1-0.7s0-1,0-1.7h-3.3c-0.3,0.4-0.7,0.7-1,1L85.9,60c0.6-0.5,1.1-1.1,1.5-1.8l0.6,0.2l-0.3,0.5h3.6V58.8z M91.5,62.7c0,0.3-0.1,0.6-0.2,0.8c-0.1,0.2-0.3,0.3-0.6,0.3c-0.3,0-0.8,0-1.4,0c-1,0-1.6,0-1.9,0s-0.4-0.1-0.5-0.2s-0.1-0.3-0.1-0.5v-3h2.9V62h-2.3v1.1c0,0.1,0.1,0.1,0.2,0.1s0.6,0,1.4,0c1.1,0,1.7,0,1.8,0c0.1,0,0.2-0.3,0.2-0.7L91.5,62.7z M89.1,61.4v-0.8h-1.7v0.8H89.1z"/>
	<path style="fill:#F7931E;" d="M100,61.8h-3c-0.2,0.2-0.4,0.4-0.7,0.6v0.8c0.4,0,0.8-0.1,1.2-0.2v0.5c-0.6,0.2-1.3,0.3-1.8,0.3l-0.1-0.5c0.1-0.1,0.2-0.1,0.2-0.3v-0.4c-0.4,0.2-0.8,0.4-1.2,0.5l-0.2-0.5c0.8-0.2,1.5-0.5,2-0.9h-1.9v-0.5h2.6c0-0.1-0.1-0.2-0.2-0.3l0.6-0.1c0.1,0.1,0.1,0.2,0.2,0.4h2.4L100,61.8L100,61.8z M96.7,61.1h-0.6v-0.9h-0.6c-0.1,0.5-0.3,0.9-0.7,1.1l-0.4-0.4c0.3-0.1,0.5-0.4,0.5-0.7h-0.6v-0.4H96v-0.4h-1.3v-1h0.5v0.5H96v-0.6h0.6L96.7,61.1L96.7,61.1z M100,59.4h-1.3v0.8h1.1v0.5H97v-0.5h1.1v-0.8h-1.3v-0.5h1.3v-0.7h0.6v0.7h1.3V59.4z M100,63.4l-0.3,0.5c-0.7-0.2-1.3-0.4-1.6-0.7c-0.3-0.3-0.6-0.7-0.8-1.2l0.5-0.1c0.1,0.3,0.3,0.5,0.5,0.7c0.4-0.2,0.7-0.5,1-0.7l0.4,0.3c-0.3,0.3-0.6,0.5-1,0.7C99.2,63.2,99.6,63.3,100,63.4z"/>
</svg>