<?xml version="1.0" encoding="utf-8"?>
<!-- Generator: Adobe Illustrator 19.0.0, SVG Export Plug-In . SVG Version: 6.00 Build 0)  -->
<svg version="1.1" id="圖層_1" xmlns="http://www.w3.org/2000/svg" xmlns:xlink="http://www.w3.org/1999/xlink" x="0px" y="0px" viewBox="202 -30 504 160" style="enable-background:new 202 -30 504 160;" xml:space="preserve">
	<path d="M332.1,123h-2.2V99.5h2.2v9.4c0.7-1.1,1.7-1.8,2.8-2.4c1.3-0.6,2.4-0.7,3.7-0.7c1.5,0,2.6,0.2,3.7,0.7c1.1,0.6,1.8,1.1,2.6,2c0.7,0.7,1.1,1.8,1.5,2.9c0.4,1.1,0.6,2.2,0.6,3.5c0,1.3-0.2,2.4-0.6,3.5c-0.4,1.1-0.7,2-1.5,2.8c-0.7,0.7-1.5,1.5-2.6,1.8c-1.1,0.6-2.4,0.7-3.9,0.7c-0.6,0-1.1,0-1.8-0.2c-0.6-0.2-1.3-0.4-1.8-0.7c-0.6-0.4-1.1-0.7-1.7-1.1c-0.6-0.4-0.9-0.9-1.3-1.5l0,0v2.8C331.7,123,332.1,123,332.1,123z M332.1,114.4c0,1.1,0.2,2,0.4,2.9c0.2,0.9,0.7,1.7,1.1,2.4c0.6,0.6,1.1,1.1,2,1.5c0.7,0.4,1.7,0.6,2.8,0.6c0.9,0,1.7-0.2,2.6-0.4c0.7-0.4,1.5-0.7,2-1.3c0.6-0.6,1.1-1.3,1.3-2c0.4-0.7,0.6-1.8,0.6-2.8c0-1.1,0-2-0.4-2.9c-0.2-0.9-0.6-1.7-1.1-2.4c-0.6-0.7-1.1-1.3-2-1.7c-0.7-0.4-1.8-0.6-2.9-0.6c-0.9,0-1.8,0.2-2.6,0.6c-0.7,0.4-1.5,0.9-2,1.5c-0.6,0.7-0.9,1.5-1.3,2.2C332.2,112.5,332.1,113.5,332.1,114.4z"/>
	<path d="M351.4,127.6c0.4,0,0.6,0,0.9,0.2c0.4,0,0.6,0,0.9,0c0.6,0,1.1-0.2,1.5-0.6c0.4-0.4,0.7-0.7,0.9-1.3c0.2-0.6,0.4-0.9,0.6-1.5c0.2-0.6,0.4-0.9,0.6-1.3l-7.2-17.1h2.4l5.9,14.5l5.9-14.5h2.4l-6.8,16.7c-0.4,1.1-0.9,2-1.3,2.9c-0.4,0.9-0.7,1.7-1.3,2.2c-0.4,0.6-0.9,1.1-1.5,1.5c-0.6,0.4-1.1,0.6-1.8,0.6c-0.4,0-0.7,0-1.1,0c-0.4,0-0.7-0.2-0.9-0.2L351.4,127.6L351.4,127.6z"/>
	<path d="M377.3,99.5h18.6v1.8h-8.1V123h-2.4v-21.7h-8.1C377.3,101.3,377.3,99.5,377.3,99.5z"/>
	<path d="M403.6,113.1c0.4,0,0.9-0.2,1.5-0.2c0.6,0,1.1-0.2,1.3-0.4c0.4-0.2,0.6-0.4,0.7-0.7c0-0.4,0.2-0.7,0.2-0.9c0-0.9-0.4-1.8-1.1-2.4c-0.7-0.7-1.8-0.9-3.5-0.9c-0.7,0-1.5,0-2,0.2c-0.6,0.2-1.1,0.4-1.7,0.6c-0.4,0.4-0.9,0.7-1.1,1.1c-0.4,0.6-0.6,1.1-0.6,1.8h-2.2c0-0.9,0.4-1.8,0.7-2.6c0.4-0.7,0.9-1.3,1.7-1.7c0.7-0.4,1.5-0.7,2.4-0.9c0.9-0.2,1.8-0.4,2.8-0.4c0.9,0,1.8,0.2,2.6,0.4c0.7,0.2,1.5,0.6,2.2,0.9c0.6,0.4,1.1,0.9,1.5,1.7c0.4,0.7,0.6,1.5,0.6,2.6v9.2c0,0.7,0.2,1.3,0.4,1.5c0.4,0.2,0.9,0.2,1.8-0.2v1.5c-0.2,0-0.4,0.2-0.7,0.2c-0.4,0-0.6,0.2-0.9,0.2c-0.4,0-0.6,0-0.9-0.2c-0.4,0-0.6-0.2-0.9-0.4c-0.2-0.2-0.4-0.4-0.6-0.6c-0.2-0.2-0.2-0.6-0.2-0.7c0-0.4,0-0.6,0-0.9c-0.9,0.9-2,1.7-3.1,2c-1.1,0.6-2.4,0.7-3.7,0.7c-0.7,0-1.7-0.2-2.4-0.4c-0.7-0.2-1.5-0.6-2-0.9c-0.6-0.4-1.1-0.9-1.3-1.5c-0.4-0.6-0.6-1.3-0.6-2.2c0-2.9,2.2-4.6,6.4-5.1L403.6,113.1z M407.1,114.2c-0.9,0.4-1.8,0.6-2.8,0.7s-1.8,0.2-2.8,0.2c-1.7,0.2-2.9,0.4-3.9,1.1c-0.9,0.6-1.3,1.5-1.3,2.6c0,0.6,0.2,0.9,0.4,1.3c0.2,0.4,0.6,0.7,0.9,0.9c0.4,0.2,0.7,0.4,1.3,0.6c0.6,0.2,0.9,0.2,1.5,0.2c0.9,0,1.7-0.2,2.6-0.4c0.7-0.2,1.5-0.6,2.2-0.9c0.6-0.4,1.1-0.9,1.5-1.5c0.4-0.6,0.6-1.3,0.6-2.2v-2.6H407.1z"/>
	<path d="M415,102.4v-2.9h2.4v2.9H415z M415.1,123v-16.9h2.2V123H415.1z"/>
	<path d="M425.8,120.8c0.9,0.6,2,0.9,3.7,0.9c0.7,0,1.5,0,2-0.2c0.6-0.2,1.1-0.4,1.5-0.7c0.4-0.4,0.6-0.6,0.9-0.9c0.2-0.4,0.4-0.7,0.4-1.1c0-0.9-0.4-1.5-0.9-1.8c-0.6-0.4-1.3-0.7-2.2-0.9c-0.9-0.2-1.8-0.4-2.9-0.6c-1.1-0.2-2-0.4-2.9-0.7c-0.9-0.4-1.7-0.7-2.2-1.5c-0.6-0.6-0.9-1.5-0.9-2.6c0-1.5,0.6-2.6,1.7-3.5c1.1-0.9,2.8-1.3,4.8-1.3s3.7,0.4,4.8,1.3c1.3,0.7,2,2.2,2.2,4h-2.2c-0.2-1.3-0.7-2.2-1.7-2.8s-2-0.7-3.3-0.7c-1.3,0-2.4,0.2-3.1,0.7c-0.7,0.6-1.1,1.3-1.1,2.2c0,0.7,0.4,1.3,0.9,1.7c0.6,0.4,1.3,0.7,2.2,0.9s1.8,0.6,2.9,0.7c1.1,0.2,2,0.6,2.8,0.9c0.9,0.4,1.7,0.9,2.2,1.5c0.6,0.6,0.9,1.5,0.9,2.6c0,0.7-0.2,1.5-0.6,2.2c-0.4,0.6-0.9,1.1-1.7,1.7c-0.7,0.4-1.5,0.7-2.4,0.9c-0.9,0.2-1.8,0.4-2.9,0.4s-2-0.2-2.9-0.4c-0.9-0.4-1.5-0.7-2.2-1.3c-0.6-0.6-1.1-1.1-1.5-1.8c-0.4-0.7-0.6-1.5-0.6-2.2h2.6C424,118.4,424.9,120.3,425.8,120.8z"/>
	<path d="M440.5,123V99.5h2.2v9c0.9-0.9,1.7-1.5,2.6-2c0.9-0.6,2-0.7,3.3-0.7c1.1,0,2.2,0.2,3.1,0.6c0.9,0.4,1.8,0.9,2.4,1.8c0.4,0.6,0.7,1.3,0.7,1.8c0,0.7,0.2,1.3,0.2,2v11h-2.2v-11c0-1.5-0.4-2.8-1.1-3.5c-0.7-0.7-2-1.1-3.7-1.1c-0.7,0-1.3,0-1.8,0.4c-0.6,0.2-1.1,0.4-1.5,0.7c-0.4,0.4-0.7,0.7-1.1,1.1c-0.4,0.4-0.6,0.7-0.7,1.3c-0.2,0.6-0.4,1.1-0.4,1.5c0,0.6,0,1.1,0,1.7v9.2L440.5,123L440.5,123z"/>
	<path d="M460.5,102.4v-2.9h2.4v2.9H460.5z M460.7,123v-16.9h2.2V123H460.7z"/>
	<path d="M470.5,123h-2.2v-16.9h2.2v2.4c0.9-0.9,1.8-1.5,2.6-2c0.9-0.6,2-0.7,3.3-0.7c1.1,0,2.2,0.2,3.1,0.6c0.9,0.4,1.8,0.9,2.4,1.8c0.4,0.6,0.7,1.3,0.7,1.8c0,0.7,0.2,1.3,0.2,2v11h-2.2v-11c0-1.5-0.4-2.8-1.1-3.5c-0.7-0.7-2-1.1-3.7-1.1c-0.7,0-1.3,0-1.8,0.4c-0.6,0.2-1.1,0.4-1.5,0.7c-0.4,0.4-0.7,0.7-1.1,1.1c-0.4,0.4-0.6,0.7-0.7,1.3c-0.2,0.6-0.4,1.1-0.4,1.5c0,0.6,0,1.1,0,1.7v9C470.3,123,470.5,123,470.5,123z"/>
	<path d="M498.2,123V99.5h9.2c1.5,0,2.8,0.2,3.9,0.4c1.1,0.4,1.8,0.7,2.6,1.3c0.7,0.6,1.1,1.1,1.5,1.8c0.4,0.7,0.6,1.5,0.6,2.4c0,0.9-0.2,1.5-0.4,2.2c-0.2,0.6-0.6,1.1-0.9,1.5c-0.4,0.4-0.7,0.7-1.3,0.9c-0.6,0.2-0.9,0.4-1.5,0.6l0,0c1.8,0.2,3.1,0.9,4,1.8c0.9,1.1,1.3,2.4,1.3,3.9c0,1.3-0.2,2.2-0.6,3.1c-0.4,0.9-0.9,1.5-1.7,2c-0.7,0.6-1.7,0.9-2.6,1.1c-1.1,0.2-2.2,0.4-3.3,0.4h-10.8L498.2,123L498.2,123z M500.6,109.8h6.1c1.3,0,2.4-0.2,3.1-0.4c0.9-0.2,1.5-0.6,2-0.9c0.6-0.4,0.9-0.9,1.1-1.5s0.4-1.3,0.4-1.8c0-0.7-0.2-1.3-0.4-1.8c-0.2-0.6-0.7-0.9-1.3-1.3c-0.6-0.4-1.3-0.6-2.2-0.7s-2-0.2-3.3-0.2h-5.5L500.6,109.8L500.6,109.8z M500.6,121.2h6.3c1.3,0,2.6,0,3.5-0.2c0.9-0.2,1.8-0.4,2.4-0.7c0.6-0.4,1.1-0.7,1.5-1.5c0.4-0.6,0.6-1.5,0.6-2.4c0-0.9-0.2-1.8-0.6-2.4s-0.9-1.1-1.5-1.5c-0.7-0.4-1.5-0.6-2.4-0.7c-0.9-0.2-2-0.2-3.1-0.2h-6.4v9.6L500.6,121.2L500.6,121.2z"/>
	<path d="M530.2,113.1c0.4,0,0.9-0.2,1.5-0.2c0.6,0,1.1-0.2,1.3-0.4c0.4-0.2,0.6-0.4,0.7-0.7c0-0.4,0.2-0.7,0.2-0.9c0-0.9-0.4-1.8-1.1-2.4c-0.7-0.7-1.8-0.9-3.5-0.9c-0.7,0-1.5,0-2,0.2s-1.1,0.4-1.7,0.6c-0.6,0.4-0.9,0.7-1.1,1.1c-0.4,0.6-0.6,1.1-0.6,1.8h-2.2c0-0.9,0.4-1.8,0.7-2.6s0.9-1.3,1.7-1.7c0.7-0.4,1.5-0.7,2.4-0.9c0.9-0.2,1.8-0.4,2.8-0.4s1.8,0.2,2.6,0.4c0.7,0.2,1.5,0.6,2.2,0.9c0.6,0.4,1.1,0.9,1.5,1.7s0.6,1.5,0.6,2.6v9.2c0,0.7,0.2,1.3,0.4,1.5c0.4,0.2,0.9,0.2,1.8-0.2v1.5c-0.2,0-0.4,0.2-0.7,0.2s-0.6,0.2-0.9,0.2c-0.4,0-0.7,0-0.9-0.2c-0.4,0-0.6-0.2-0.9-0.4c-0.2-0.2-0.4-0.4-0.6-0.6c-0.2-0.2-0.2-0.6-0.2-0.7c0-0.4,0-0.6,0-0.9c-0.9,0.9-2,1.7-3.1,2c-1.1,0.6-2.4,0.7-3.7,0.7c-0.7,0-1.7-0.2-2.4-0.4c-0.7-0.2-1.5-0.6-2-0.9c-0.6-0.4-1.1-0.9-1.3-1.5c-0.4-0.6-0.6-1.3-0.6-2.2c0-2.9,2.2-4.6,6.4-5.1L530.2,113.1z M533.7,114.2c-0.9,0.4-1.8,0.6-2.8,0.7c-0.9,0.2-1.8,0.2-2.8,0.2c-1.7,0.2-2.9,0.4-3.9,1.1c-0.9,0.6-1.3,1.5-1.3,2.6c0,0.6,0.2,0.9,0.4,1.3c0.2,0.4,0.6,0.7,0.9,0.9c0.4,0.2,0.7,0.4,1.3,0.6c0.6,0.2,0.9,0.2,1.5,0.2c0.9,0,1.7-0.2,2.4-0.4c0.7-0.2,1.5-0.6,2.2-0.9c0.6-0.4,1.1-0.9,1.5-1.5s0.6-1.3,0.6-2.2V114.2z"/>
	<path d="M543.6,123h-2.2v-16.9h2.2v2.4c0.9-0.9,1.7-1.5,2.6-2c0.9-0.6,2-0.7,3.3-0.7c1.1,0,2.2,0.2,3.1,0.6c0.9,0.4,1.8,0.9,2.4,1.8c0.4,0.6,0.7,1.3,0.7,1.8c0,0.7,0.2,1.3,0.2,2v11h-2.2v-11c0-1.5-0.4-2.8-1.1-3.5c-0.7-0.7-2-1.1-3.7-1.1c-0.7,0-1.3,0-1.8,0.4c-0.6,0.2-1.1,0.4-1.5,0.7c-0.4,0.4-0.7,0.7-1.1,1.1c-0.4,0.4-0.6,0.7-0.7,1.3c-0.2,0.6-0.4,1.1-0.4,1.5c0,0.6,0,1.1,0,1.7v9C543.5,123,543.6,123,543.6,123z"/>
	<path d="M561.1,123V99.5h2.2v14.7l9-8.1h2.9l-7,6.1L576,123h-2.2l-7-9.6l-3.5,3.1v6.4H561.1z"/>
	<path d="M703.6,46.1c-0.2-1.1,0-2.4-0.4-3.4c-0.5-1.1-1.1-3.7-2.6-3.7c-0.7,0-1.2,0.5-1.6,1c-0.2,0.3-0.4,0.6-0.5,0.9c-0.1,0.3,0.1,0.6-0.1,0.9c-0.1,0.2-0.3,0.1-0.4,0.3c-0.3,0.5-0.2,1.3-0.2,1.9c0,0.4-0.1,0.8-0.1,1.2c0,0.1,0,0.3,0,0.5c-0.1,0.2-0.2,0.2-0.3,0.4c-0.1,0.1-0.1,0.2-0.2,0.4c0,0.2,0,0.4,0,0.6c0,0.2-0.1,0.3-0.2,0.5c-0.2,0.5-0.3,1-0.4,1.5c-0.1,0.5-0.1,1.1-0.2,1.6c-0.1,0.5-0.3,0.8-0.5,1.2c-0.1,0.3,0.1,0.6-0.1,0.9c-0.1,0.1-0.2,0.1-0.2,0.2c-0.2,0.2-0.1,0.5-0.1,0.7c0,0.3,0,0.6,0,0.8s-0.2,0.3-0.3,0.5s0,0.3,0,0.5s-0.3,0.3-0.3,0.4c-0.1,0.2-0.1,0.4-0.2,0.6c-0.1,0.1-0.1,0.1-0.2,0.2c-0.1,0.2-0.1,0.5-0.2,0.7c-0.1,0.2-0.3,0.3-0.4,0.4c-0.1,0.1-0.1,0.4-0.2,0.5c-0.3,0.6-0.6,1.1-0.9,1.7c-0.3,0.5-0.3,1-0.5,1.5c-0.1,0.2-0.1,0.1-0.3,0.2c-0.8,0.4-1.3,1.6-1.5,2.4c-0.1,0.6-0.7,1.1-1,1.6s-0.6,0.8-0.9,1.3c-0.2,0.3-0.3,0.7-0.6,1c-0.2,0.2-0.5,0.2-0.8,0.4c-0.2,0.2-0.3,0.5-0.5,0.7s-0.4,0.3-0.6,0.5c-0.3,0.4-0.2,0.8-0.4,1.2c-0.1,0.1-0.2,0.2-0.3,0.3c-0.1,0.1-0.2,0.2-0.4,0.3c-0.3,0.1-0.5,0.5-0.7,0.7c-0.3,0.4-0.6,0.8-1,1.2c-0.4,0.4-0.5,1-0.9,1.3c-0.6,0.4-1.3,0.6-1.6,1.3c-0.1,0.4-0.2,0.8-0.6,1c-0.9,0.5-1.9,2.6-2.3,0.3c-0.3-1.8,0.9-3.4,1.1-5.1c0.2-1.5,0-3.2,0.2-4.8c0.2-1.9,0.3-3.7,0.6-5.6c0.1-0.8-0.2-1.6-0.2-2.4c0-0.7,0.1-1.4,0.1-2.2c0-1.2,0.1-2.4,0.1-3.6c0-0.5,0.2-0.7,0.3-1.1c0.2-0.6-0.3-1-0.3-1.6c-0.1-0.9,0.4-1.9,0.4-2.8c0-0.5-0.2-0.9-0.2-1.5c0-0.5,0.2-0.8,0.1-1.4c-0.3-1.1-0.1-1.8,0.1-3c0.1-0.6,0.1-1.2,0.2-1.7c0.1-0.7,0.4-1.6,0-2.2c-0.3-0.5-0.1-1.4,0-2c0-0.8,0.1-1.6,0.1-2.3c0.1-1.1-0.2-1.7-0.4-2.8c-0.2-0.9-0.2-2.3,0-3.2c0.4-1.7,0.5-3.5,0.2-5.3c-0.3-1.7,0.3-3.2,0.3-4.9c0-0.5,0-1,0-1.4c0-0.6,0.1-1.4-0.1-1.9c-0.3-0.7,0.1-1.5,0-2.2c-0.2-1-0.1-1.9-0.3-2.9c-0.1-0.6-0.2-1.1-0.3-1.7c-0.1-0.5-0.3-1-0.4-1.5c-0.1-0.3,0.1-0.5,0.1-0.7s-0.2-0.3-0.3-0.5c-0.2-0.5-0.1-1-0.1-1.4c0-0.6-0.4-1.1-0.5-1.7c-0.1-0.4-0.1-0.7-0.3-1.1c-0.1-0.3-0.3-0.6-0.1-0.9c0.2-0.4,0.7,0,0.9,0.2c0.6,0.4,1.1,1,1.5,1.6c0.3,0.3,0.1,0.6,0.7,0.8c0.1,0,0.3,0,0.4,0.1c0.1,0.1,0,0.3,0.1,0.4c0.2,0.3,0.6,0.2,0.8,0.4c0.2,0.2,0.1,0.5,0.3,0.7c0.2,0.1,0.5,0.1,0.7,0.3c0.3,0.2,0.3,0.5,0.5,0.7s0.6,0.1,0.8,0.3c0.2,0.2,0.2,0.4,0.3,0.6c0.2,0.2,0.4,0.2,0.6,0.3c0.6,0.2,1.3,0.4,1.8,0.8c0.3,0.3,0.8,0.4,1.2,0.6c0.4,0.2,0.6,0.3,1,0.6c0.3,0.3,0.4,0.1,0.7,0.2c0.5,0.1,0.6,0.7,1.1,0.8s0.5,0,0.9,0.4c0.5,0.5,1.7,0.6,2.4,0.7c0.5,0.1,1,0.1,1.5,0s0.9-0.5,1.3-0.5c0.2,0,0.3,0.1,0.6,0c0.4-0.2,0.5-0.6,0.9-0.7c0.3-0.1,0.3,0.1,0.6,0.1s0.3-0.1,0.5-0.3c0.4-0.4,1.2-0.6,1.6-1.1c0.2-0.3,0.6-1,0.6-1.4c0-0.3-0.1-0.5,0-0.8c0-0.2,0.2-0.4,0.1-0.6c-0.1-0.4-0.6-0.5-0.7-0.9c0-0.2,0.1-0.3,0.1-0.6c-0.1-0.3-0.2-0.2-0.4-0.3s-0.3-0.2-0.4-0.4c-0.1-0.4,0-0.7-0.3-1.1c-0.2-0.3-0.5-0.6-0.7-0.9c-0.4-0.5-0.9-1-1.4-1.5c-0.7-0.7-1.2-1.5-1.9-2.2c-0.7-0.8-1.5-1.5-2.3-2.1c-0.3-0.2-0.6-0.6-0.9-0.8c-0.4-0.2-0.6,0-0.9-0.4s-0.3-0.5-0.9-0.5c-0.3-0.5-0.4-0.9-0.9-1.2s-1-0.5-1.5-0.8c-0.3-0.2-0.3-0.4-0.6-0.6c-0.4-0.4-1.1-0.4-1.6-0.6s-1.1-0.2-1.5-0.6c-0.2-0.1-0.1-0.4-0.3-0.6c-0.3-0.3-1-0.2-1.4-0.2c0.1-1-2-1-2.6-1.4c-0.5-0.3-1-0.5-1.5-0.6c-0.7-0.2-1.3-0.3-1.9-0.6c-0.3-0.1-0.5-0.4-0.8-0.5s-0.7-0.1-1.1-0.2c-0.7-0.1-1.3-0.2-2-0.2c0.1-0.5-0.1-0.4-0.5-0.6c-0.3-0.1-0.6-0.3-0.9-0.3c-0.1,0-0.9,0-0.9,0c0-0.9-3.1-1.7-3.7-1.9c-1.7-0.6-3.5-1.3-5.2-1.7c-0.3-0.1-0.8,0-1.1-0.1c-0.4-0.2-0.7-0.6-1.1-0.8c-0.4-0.2-0.9-0.2-1.3-0.3c-1.1-0.4-2.3-0.8-3.5-1c-1.5-0.2-2.8-0.8-4.3-1c-1.3-0.2-2.6-0.2-3.9-0.5c-0.8-0.2-1.5-0.9-2.4-1c-0.6-0.1-1.1-0.1-1.7-0.1c-0.5,0-0.6-0.3-1-0.4c-0.3-0.1-0.6-0.1-0.8-0.2s-0.3-0.3-0.6-0.3c-0.5-0.1-1,0-1.5-0.1c-0.9-0.1-1.7-0.2-2.6-0.3c-1.1-0.2-2-0.9-3.1-1c-1-0.1-2-0.2-3-0.3c-0.8-0.1-1.6-0.6-2.3-0.8c-1-0.3-2.1-0.3-3.1-0.7c-1-0.3-1.5-0.8-2.6-0.9c-0.3,0-0.7,0-1-0.2c-0.2-0.1-0.6-0.6-0.8-0.6c-1.9-0.2-3.6,0.1-5.3,1c-0.7,0.4-1.4,0.8-2.2,1.1c-0.3,0.1-0.7,0.2-0.9,0.4c-0.4,0.3-0.2,0.7-0.3,1.2c0,0.3,0,0.5-0.1,0.8c0,0.2-0.2,0.2-0.1,0.5c0.1,0.2,0.4,0.4,0.5,0.6c0.2,0.3,0.4,0.7,0.6,1.1c0.2,0.3,0.4,0.9,0.7,1.2c0.2,0.2,0.5,0.1,0.7,0.3c0.2,0.1,0.3,0.4,0.4,0.7c0.2,0.6,0.7,0.5,1.2,0.7c0.4,0.2,0.3,0.5,0.5,0.8c0.1,0.2,0.1,0.1,0.3,0.1c0.2,0.1,0.4,0.2,0.5,0.4c0.1,0.2,0.1,0.5,0.4,0.5c0.1,0,0.2,0,0.3,0c0.1,0.1,0.2,0.2,0.3,0.3c0.2,0.2,0.6,0.2,0.8,0.3c0.2,0.1,0.4,0.3,0.6,0.4c0.1,0.1,0.3,0.1,0.4,0.2c0.4,0.1,0.8,0.2,1.3,0.3c0.3,0.1,0.6,0.1,0.8,0.2c0.2,0.1,0.3,0.3,0.5,0.4c0.3,0.1,0.6,0,0.8,0.2c0.2,0.1,0.2,0.4,0.4,0.4c0.3,0.1,0.8,0.2,1.2,0.2c0.8,0.1,1.6,0.1,2.4,0.1c1,0.1,1.9,0.7,2.9,0.9c0.8,0.2,1.6,0.2,2.5,0.3c0.6,0.1,1.1,0.2,1.7,0.3c0.4,0.1,0.7,0.2,1,0.3c0.5,0.2,0.3,0.3,0.4,0.8c0.1,0.2,0.2,0.1,0.3,0.3c0.3,0.4-0.1,1.2-0.2,1.6c-0.1,0.5-0.3,1-0.5,1.4c-0.1,0.4-0.1,0.9-0.3,1.2c-0.2,0.4-0.7,0.7-0.9,1.2c-0.3,0.5-0.7,1.1-1,1.6c-0.2,0.3-0.5,0.7-0.6,1c-0.2,0.3-0.1,0.8-0.4,1.1c-0.1,0.2-0.3,0.3-0.4,0.5c-0.1,0.3,0,0.7-0.1,1s-0.4,0.7-0.7,0.9c-0.3,0.3-0.8,0.4-1.1,0.7s-0.3,0.6-0.4,0.9c-0.2,0.3-0.6,0.4-0.8,0.8c-0.1,0.2,0,0.3-0.1,0.5s-0.5,0.1-0.6,0.3s0,0.3-0.1,0.5c-0.1,0.1-0.3,0.1-0.5,0.3C628,3.1,628,3.3,628,3.6c0-0.1-0.5,0-0.6,0.1s-0.1,0.6-0.2,0.8c-0.3,0.1-0.6,0.2-0.8,0.5s-0.2,0.7-0.4,1c-0.2,0.2-0.3,0.3-0.6,0.3c-0.3,0.1-0.5,0.2-0.7,0.5c-0.1,0.1-0.6,1.2-0.6,1.1c-0.3,0-0.4,0-0.7,0.1c-0.1,0-0.4,0.4-0.4,0.4c-0.3,0-0.8-0.1-1.1,0.1c-0.2,0.1-0.3,0.4-0.5,0.5c-0.5,0.2-1.3,0-1.9,0.2c-0.1,0.1-0.1,0.2-0.3,0.2c-0.4,0.1-1-0.3-1.3-0.4c-0.8-0.3-1.6-0.8-2.3-1.3c-0.9-0.6-1.7-0.7-2.5,0.1c-0.6,0.6-1,1.3-1.3,2.1c-0.3,0.8-0.3,1.5-0.5,2.3c-0.1,0.3-0.3,0.3-0.4,0.5c-0.2,0.3,0,1-0.1,1.3c-0.1,0.5-0.1,1.1-0.1,1.6c0,1,0.1,2.1,0.4,3.1c0.3,0.8,0.6,1.9,1,2.6c0.5,0.7,1.3,1.1,1.8,1.7c0.2,0.2,0.1,0.6,0.4,0.8c0.2,0.1,0.4,0,0.7,0.1s0.4,0.3,0.7,0.5s0.8,0.1,1.1,0.2c0.2,0.1,0.2,0.5,0.5,0.5c0.1,0,0.3-0.1,0.5,0s0.1,0.3,0.2,0.4c0.2,0.1,0.4,0.1,0.6,0.1c0.3,0.1,0.7,0.2,1,0.3c0.6,0.1,0.9,0.7,1.4,0.9c0.7,0.2,1.5,0.3,2.2,0.6c0.4,0.1,0.3,0.1,0.5,0.3c0.5,0.5,1.9,0.4,2.7,0.5c1.3,0.2,2.6,0.4,3.9,0.6c0.5,0.1,1,0.3,1.6,0.2c0.6,0,1.2-0.2,1.7-0.4c0.3-0.1,0.6-0.3,1-0.4c0.3-0.1,0.7,0.1,1,0c0.1-0.1,0.2-0.1,0.3-0.2c0.1,0,0.1-0.1,0.2-0.1c0.3-0.1,0.6-0.1,0.9-0.2c0.3-0.1,0.5-0.3,0.8-0.3c0.3-0.1,0.6,0,1-0.1c0.4-0.2,0.6-0.5,1-0.6s0.9-0.1,1.4-0.2c0.2,0,0.4-0.1,0.6-0.2s0.3-0.2,0.4-0.2c0.1,0,0.1,0,0.2,0c0.1,0,0.3,0,0.4,0s0.2-0.1,0.3-0.1s0.2,0,0.3,0.1c0.2,0.1,0.4,0,0.6,0c0.3,0,0.6-0.1,0.8-0.1c0.6-0.1,1.1-0.2,1.7-0.4c0.5-0.1,0.8-0.3,1.1-0.6c0.1-0.2,0.2-0.4,0.3-0.5c0.3-0.2,0.4-0.1,0.7-0.1c0.2-0.1,0.2-0.2,0.4-0.3s0.3-0.1,0.5-0.1c0.3-0.1,0.2-0.1,0.5-0.3c0.4-0.3,1-0.1,1.3-0.3c0.4-0.2,0.6-0.6,0.9-1c0.4-0.4,0.8-0.3,1.4-0.5c0.5-0.1,0.9-0.5,1.3-0.9c0.2-0.2,0.3-0.5,0.5-0.6c0.3-0.2,0.4-0.1,0.6-0.1c0.3-0.1,0.3-0.2,0.5-0.4c0.2-0.1,0.3-0.1,0.6-0.2c0.5-0.2,0.9-0.7,1.3-1c0.4-0.3,1-0.4,1.1-0.9s0.1-0.3,0.5-0.5c0.3-0.2,0.2-0.4,0.4-0.7c0.2-0.3,0.6-0.6,0.9-0.8c0.3-0.2,1.3-0.7,1.5-1c0.1-0.4,0.2-0.9,0.5-1.2s0.7-0.3,0.9-0.6c0.1-0.2,0.1-0.4,0.2-0.6c0.1-0.2,0.4-0.6,0.5-0.7c0.3-0.3,0.9-0.2,1.1-0.5c0.1-0.2,0-0.5,0.2-0.8c0.1-0.2,0.3-0.4,0.4-0.6c0.1-0.2,0.1-0.5,0.2-0.7c0.2-0.4,0.6-0.7,0.9-0.9c0.2-0.1,0.2-0.2,0.4-0.3c0.1-0.2,0.4-0.4,0.5-0.5c0.1-0.2,0.1-0.3,0.2-0.5c0.2-0.2,0.4-0.2,0.6-0.4c0.1-0.1,0.1-0.3,0.3-0.5c0.3-0.3,0.6-0.4,0.8-0.7c0.2-0.3,0.2-0.8,0.3-1.1C670.9,4,671,4,671,3.9c0.1-0.1,0.2-0.1,0.2-0.2s0-0.2,0-0.3c0.1-0.3,0.5-0.3,0.8-0.4c0.2-0.4,0.2-1,0.5-1.4c0.2-0.2,0.4-0.3,0.6-0.6s0.1-0.5,0.2-0.8s0.3-0.3,0.5-0.5c0.5-0.3,0.7-1.1,1.3-1.2c0.3,0,0.4,0.1,0.5,0.3c0,0.1,0,0.2,0.1,0.3c0.1,0.1,0.2,0.2,0.2,0.3s0,0.2,0,0.3c0,0.3-0.1,0.5-0.1,0.8s-0.1,0.5-0.1,0.8c0,0.1,0,0.4,0,0.5c0.1,0.2,0.3,0.3,0.4,0.6c0,0.2-0.1,0.4,0,0.6c0.1,0.3,0.3,0.4,0.4,0.8c0,0.3,0,0.5,0.1,0.8s0.3,0.4,0.4,0.8c0.1,0.6-0.1,1.2-0.1,1.8c0,0.5,0.2,0.9,0.4,1.3c0.2,0.5,0.2,0.8,0.1,1.3c-0.1,0.7,0.2,1.3,0.3,2c0,0.2-0.1,0.3-0.1,0.5c0,0.3,0.1,0.4,0.2,0.7c0.1,0.5-0.1,1.3-0.2,1.8c-0.2,0.6-0.1,1.1,0,1.8c0.1,0.4,0,0.9,0.1,1.3s0.2,0.5,0.1,0.8c-0.2,0.7,0,1.2,0,1.9c0,0.9,0.4,1.7,0.3,2.6c-0.1,0.4-0.3,0.5-0.4,0.8c-0.2,0.4,0.2,1.4,0.1,2c-0.2,1.3,0.5,2.3,0.5,3.6c0,1.1-0.3,2.2-0.4,3.3c-0.1,0.9,0.1,1.1,0.1,1.9c0,0.5-0.3,0.9-0.2,1.4c0.4,2.4,0.1,4.5-0.4,6.9c-0.2,0.9-0.2,1.9-0.2,2.8c0,0.5,0,1,0.2,1.4c0.1,0.3,0.2,0.6,0.2,0.9c0.1,0.4,0,0.6-0.1,0.9c-0.1,0.5-0.1,1-0.2,1.4c-0.1,0.7-0.4,1.4-0.3,2.1c0,0.6,0.5,1.1,0.2,1.8c-0.2,0.6,0.1,1.2,0,1.8c-0.1,0.3-0.2,0.6-0.1,0.9c0.1,0.4,0.3,0.6,0.1,1c-0.4,1.2,0,2.3-0.1,3.5c0,0.9-0.1,1.7-0.1,2.6c0,0.5,0,0.9-0.2,1.4c-0.3,0.7-0.2,1.3-0.1,2.1c0,0.4-0.1,0.6-0.1,1c0,0.6,0.2,1.1,0.2,1.7c-0.1,0.5-0.2,1-0.3,1.5c-0.2,1.1-0.4,2.2-0.2,3.3c-0.4,2.1-0.9,4.3-0.9,6.4c0,0.6-0.2,1-0.4,1.5c-0.3,0.6,0.1,1.4,0.1,2c0,0.3,0.1,0.7,0,1s-0.4,0.3-0.5,0.5c-0.1,0.3,0,0.5-0.1,0.8c-0.1,0.4-0.3,0.6-0.3,1c0,0.3,0.2,0.7,0.1,1c-0.2,0.6-0.7,1-0.9,1.7s-0.2,1.5-0.3,2.2c-0.1,0.9-0.2,1.7-0.3,2.6c-0.2,1.3-0.6,2.8-0.3,4.1c0.2,0.7-0.2,1.6-0.4,2.3c-0.2,0.8-0.1,1.6-0.2,2.4c-0.2,1-0.3,2.2-0.3,3.2c0,0.5,0,1.1-0.1,1.6c-0.2,0.7-0.3,1.4-0.4,2.1c0,0.3,0,0.5-0.3,0.8c-0.3,0.4-0.6,0.9-0.8,1.3c-0.2,0.7,0.2,1.3,0,2c-0.2,0.8-0.2,1.6-0.7,2.2c-0.4,0.6-0.7,1.1-0.8,1.8c0,0.6,0,1.3-0.4,1.8c-0.2,0.3-0.3,0.5-0.4,0.8c-0.1,0.2-0.3,0.3-0.5,0.5c-0.5,0.5-0.8,1.5-1.5,1.8c-0.2,0.1-0.6,0.1-0.8,0.1s-0.5-0.1-0.7-0.3c-0.3-0.4,0-1.1,0-1.6c0.1-0.8,0.6-1.6,0.6-2.4s0.1-1.6,0.1-2.4c0.1-0.6,0.1-1.1,0.2-1.7c0.1-0.5,0.2-1,0.4-1.5c0.2-0.4,0.4-0.8,0.4-1.2c0-0.4,0.2-0.5,0.3-0.9c0.4-0.9,0.4-2.1,0.5-3c0.1-0.6,0.2-1.3,0.3-2c0-0.5-0.1-1.1,0-1.6s0.4-0.8,0.5-1.3c0.1-0.6,0.2-1.1,0.2-1.7c0.1-0.8,0.2-1.7,0.1-2.6c-0.2-1,0.1-2.1,0.3-3.1c0.2-0.9,0.5-1.9,0.3-2.8c-0.1-0.3-0.1-0.2-0.3-0.4c-0.2-0.4,0-1.1-0.4-1.4l-0.5-0.1c-0.2-0.7-0.9-0.6-1.4-0.2c-0.2,0.2-0.3,0.5-0.6,0.5c-0.1,0-0.2-0.1-0.4-0.1c-0.1,0-0.4,0.1-0.5,0.1c-0.3,0.1-0.6,0.3-0.9,0.3c-0.2,0-0.3-0.2-0.5-0.2c-0.3,0-0.4,0.2-0.6,0.3c-0.2,0.1-0.5,0.1-0.7,0.1c-0.6,0-1.2-0.1-1.7-0.3c-0.6-0.2-1.3-0.5-1.9-0.8c-0.3-0.2-0.6-0.4-0.8-0.6c-0.1-0.2-0.2-0.4-0.4-0.5c0,0-0.5-0.3-0.5-0.2c-0.1-0.3-0.2-0.7-0.5-0.8c-0.1,0-0.3,0.1-0.4,0c-0.2-0.1-0.4-0.4-0.5-0.6c-0.3-0.4-0.6-0.8-0.8-1.2c-0.2-0.3-0.5-1-0.8-1.2c-0.2-0.1-0.4-0.3-0.6-0.4c-0.1-0.4-0.2-2.1-0.8-2.1c0.1,0,0-0.5,0-0.6c-0.1-0.3-0.4-0.1-0.3-0.6c0-0.2,0.2-0.4,0.3-0.7c0.2-0.5,0.3-1,0.1-1.5c-0.2-0.4,0-0.9,0-1.3s0.1-0.9,0-1.3s-0.3-0.4-0.4-0.7c-0.1-0.4,0.4-0.8,0.2-1.4c-0.1-0.2-0.3-0.3-0.3-0.6c-0.1-0.5,0.2-1.3,0-1.8s-0.9-0.9-1.5-0.7c-0.9,0.4-0.4,2.7-0.3,3.4c0,0.6-0.1,1,0.1,1.6c0.1,0.4,0.2,0.9,0.2,1.3c0,0.5-0.1,0.8,0.1,1.3c0.3,0.8,0.2,1.7,0.1,2.5c0,0.3-0.6,1.7,0,1.8c0,0.3-0.1,0.7,0,1.1c0.1,0.2,0.3,0.2,0.4,0.4c0.1,0.3,0,0.5,0.1,0.8s0.4,0.3,0.5,0.7c0.1,0.3,0,0.4,0.3,0.6s0.6,0.5,0.8,0.9c0.1,0.2,0.2,0.4,0.3,0.5c0.3,0.2,0.4,0.1,0.7,0.3c0.2,0.2,0.3,0.4,0.6,0.5c0.6,0.2,0.7,0.9,1.1,1.4c0.3,0.5,0.9,0.6,1.4,0.8c0.5,0.2,0.6,0.5,0.9,0.9c0.2,0.3,0.7,0.2,1,0.4c0.2,0.2,0.1,0.4,0.4,0.5c0.2,0.1,0.5,0.1,0.8,0.2c0.6,0.3,1,0.3,1.7,0.4c0.9,0.1,1.8,0.3,2.6,0.1c0.1,0,0.2-0.1,0.3-0.1s0.3,0,0.4,0c0.2-0.1,0.5-0.5,0.8-0.3s0.3,1,0.3,1.3c0,0.6-0.1,1.1-0.2,1.7c-0.1,0.5-0.2,1-0.2,1.5c0,0.4,0.3,0.8,0.2,1.2c0,0.3-0.1,0.4,0,0.6c0.1,0.4,0.3,0.6,0.3,1c0,0.3,0,0.7-0.1,1c-0.1,0.8-0.2,1.5-0.4,2.2c-0.2,0.9-0.2,2-0.8,2.7c-0.3,0.4-0.5,0.5-0.5,1.1c-0.1,1.2-0.5,2.7-0.3,3.8c0.1,0.6,0.1,0.9-0.1,1.5c-0.3,0.9-0.3,1.8-0.4,2.7c-0.2,1.8-0.6,3.4-1,5.1c-0.3,1.5-0.5,3.4,1,4.3c0.7,0.4,2.1,0.3,2.7-0.3c0.2-0.2,0.7-0.2,0.9-0.4c0.4-0.3,0.7-0.6,1-0.9c0.7-0.8,1.3-1.7,1.9-2.7c0.5-0.9,0.9-2,1.5-2.9c0.3-0.5,0.5-0.8,0.5-1.4s0-1.3,0.3-1.8c0.2-0.4,0.4-0.5,0.4-0.9s-0.1-0.8,0-1.2c0.2-0.5,0.5-0.9,0.6-1.5c0.1-0.7,0.2-1.5,0.3-2.3c0.1-1.1,0.3-2.3,0.4-3.4c0-0.9,0.6-1.5,0.7-2.3c0-0.2-0.1-0.5,0-0.7c0-0.2,0.1-0.5,0.1-0.7c0-0.3-0.1-0.3-0.2-0.5c-0.3-0.7,0.1-1.7,0.2-2.5c0.1-0.6,0.1-1.1,0.2-1.7c0-0.2,0-0.6,0.1-0.9c0.1-0.2,0.3-0.2,0.4-0.4c0.1-0.2,0-0.4,0.1-0.6c0.1-0.3,0.4-0.4,0.5-0.8s0.1-1,0.2-1.5c0.1-0.8,0.2-1.5,0.3-2.3s0.6-1.4,0.9-2.2c0.4-1,0.7-2.1,1.1-3.1c2.4-0.3,3.6-1.9,5.2-3.2c0.4-0.3,0.9-0.5,1.1-0.9c0.2-0.3,0.2-0.7,0.4-0.9c0.5-0.6,1.3-0.9,2-1.1c0.5-0.2,0.8-0.3,1.1-0.8c0.2-0.4,0.4-0.7,0.7-1c0.2-0.3,0.3-0.5,0.6-0.7c0.4-0.3,0.5-0.7,0.8-1s0.4-0.4,0.6-0.7c0.2-0.4,0.6-0.3,0.8-0.7c0.2-0.4,0.1-0.4,0.5-0.6c0.2-0.1,0.3-0.1,0.4-0.3c0.1-0.2,0-0.3,0.1-0.4c0.1-0.3,0.5-0.4,0.6-0.6s0.3-1.2,0.5-1.2c0.5-0.2,0.7-0.3,0.8-0.9c0-0.1,0-0.3,0-0.4c0.1-0.1,0.3-0.1,0.3-0.2c0.2-0.2,0.1-0.4,0.3-0.6c0-0.1,0.3-0.1,0.3-0.2s0.1-0.3,0.1-0.4s0.4-0.1,0.5-0.3c0.1-0.2,0.1-0.5,0.2-0.6c0.2-0.2,0.4-0.3,0.6-0.5c0.2-0.2,0.2-0.4,0.3-0.7c0.3-0.6,0.7-1.1,0.9-1.7c0.1-0.4,0.1-0.9,0.3-1.3c0.1-0.2,0.3-0.3,0.4-0.5c0.1-0.2,0.1-0.4,0.2-0.6c0.2-0.3,0.4-0.1,0.6-0.6c0-0.1-0.1-0.3,0-0.4s0.3-0.1,0.3-0.2c0.6-0.6,0.6-1.2,0.6-2c0,0.2,0.5-0.4,0.5-0.5c0.2-0.3,0.2-0.6,0.3-0.9c0.1-0.4,0.1-0.3,0.3-0.5c0.3-0.4-0.1-0.7,0.2-1s0.5-0.2,0.6-0.8c0.1-0.5,0.1-0.5,0.4-1c0.4-0.5,0.3-0.8,0.3-1.4c0-0.3-0.1-0.9,0.1-1.2c0.1-0.2,0.4-0.1,0.5-0.2c0.2-0.2,0-0.4,0.1-0.6c0.1-0.2,0.3-0.2,0.3-0.4c0.1-0.4-0.1-0.8-0.1-1.2C704.1,50.3,703.7,46.7,703.6,46.1z M677.7-4.9c-0.3-0.4-0.7-0.8-1-1.2S676.3-7,676-7.4c-0.1-0.1-0.6-0.4-0.8-0.4c-0.3,0-0.6,0.4-0.9,0.4c-0.6,0.1-0.8,0.2-1,0.8c-0.2,0.8-0.4,1.6-0.6,2.3c-0.2,0.5-0.4,1.1-0.6,1.6c-0.3,0.6-0.4,0.8-1,1.2c-0.3,0.2-0.2,0.5-0.4,0.8c-0.2,0.4-0.5,0.4-0.7,0.7c-0.1,0.1-0.1,0.3-0.2,0.4c-0.2,0.2-0.5,0.2-0.6,0.5c-0.2,0.3-0.2,0.6-0.4,0.9s-0.3,0.2-0.6,0.5c-0.4,0.3-0.4,0.9-0.7,1.3c-0.2,0.2-0.5,0.2-0.6,0.4c-0.1,0.1,0.1,0.3,0,0.4s-0.2,0.1-0.3,0.1c-0.3,0.2-0.2,0.1-0.3,0.5c-0.2,0.6-0.4,0.3-0.8,0.7c-0.2,0.2-0.3,0.6-0.5,0.9c-0.3,0.4-0.7,0.7-1,1.2c-0.3,0.4-0.5,0.8-0.9,1.1c-0.2,0.2-0.3,0.2-0.4,0.4c-0.1,0.1,0,0.3-0.1,0.4c-0.1,0.1-0.3,0-0.4,0.1c-0.3,0.2-0.3,0.6-0.5,0.9c-0.2,0.2-0.5,0.2-0.6,0.5c-0.2,0.6-0.1,0.7-0.6,0.9s-0.6,0.5-1,0.9c-0.2,0.2-0.5,0.2-0.7,0.4s-0.1,0.5-0.2,0.7c-0.2,0.4-0.6,0.5-0.9,0.7c-0.5,0.3-0.9,0.7-1.3,1.1c-0.3,0.4-0.6,0.3-1,0.5c-0.7,0.4-1.3,1.1-1.8,1.7c-0.2,0.2-0.2,0.4-0.6,0.5c-0.3,0.1-0.6,0-0.8,0.1c-0.5,0.2-0.9,0.5-1.3,0.9c-0.3,0.4-1.4,0.1-1.8,0.4c-0.2,0.2-0.2,0.3-0.5,0.4s-0.6,0.1-0.8,0.2c-0.1,0.1-0.6,0.6-0.6,0.6c-0.5-0.1-0.6-0.1-1,0.2c-0.3,0.2-0.5,0.4-0.8,0.5c-0.4,0.1-1,0-1.4,0.2c-0.5,0.2-0.5,0.7-1.1,0.7c-0.4,0-0.4,0-0.8,0.2c-0.2,0.1-0.6,0.2-0.8,0.3c-0.2,0.1-0.5,0-0.8,0c-0.5,0-1.1,0.1-1.6,0.1s-1.3,0-1.8,0.2c-0.4,0.2-0.3,0.2-0.7,0.2c-0.3,0-0.5,0.1-0.7,0.3c-0.3,0.3-0.1,0.3-0.5,0.3s-1.3-0.2-1.7,0c-0.1,0.1-0.1,0.2-0.2,0.2c-0.4,0.2-0.9-0.2-1.3,0c-0.5,0.2-0.7,0.1-1.3,0.1c-0.4,0-1-0.2-1.4-0.2c-0.6,0.1-1.2,0.3-1.8,0.4c-0.5,0.1-1.3,0.1-1.7-0.2c-0.2-0.2-0.2-0.2-0.5-0.2c-0.8-0.1-1.5-0.5-2.1-0.9c-0.3-0.2-0.6,0-0.9-0.3c-0.1-0.1-0.1-0.2-0.2-0.3c-0.2-0.1-0.4-0.1-0.5-0.2c-0.2-0.2-0.3-0.5-0.7-0.6c-0.2-0.1-0.6,0-0.8,0c-0.5,0-1,0.1-1.3-0.4c-0.1-0.1,0.1-0.2,0-0.4c-0.1-0.1-0.4,0-0.5-0.1c-0.3-0.1-0.6-0.5-0.9-0.5c-0.4,0-0.9,0.3-1.2-0.1c-0.1-0.1,0.1-0.2,0-0.3c-0.8-1.5-0.2-1.4,0.5-1.9s1.3-1.1,1.9-1.7s0.8-0.9,0.6-1.7c0.9-0.3,0.4-1.9,0.1-2.5c-0.1-0.2-0.3-0.4-0.3-0.7c0-0.4,0.3-0.7,0.6-0.7c0,0,0.2-0.2,0.3-0.2c0.1-0.1,0.2-0.1,0.3-0.1s0.3,0,0.4,0c0.2,0,0.5,0.1,0.7,0.1c0.1,0,0.3,0,0.4-0.1c0.1-0.2,0.1-0.3,0.4-0.3c0.1,0,0.2,0.1,0.3,0s0.1-0.1,0.1-0.2c0-0.7,1-0.5,1.5-0.6c0.6-0.2,0.8-0.4,1.1-0.8c0.7-0.8,1.5-1.5,2.3-2.3c0.1-0.1,0.4,0,0.5-0.1c0.4-0.4,0.4-0.9,0.6-1.4c0.3-0.6,0.9-1.1,1.3-1.5c0.2-0.2,0.4-0.1,0.5-0.2c0.2-0.2,0.1-0.5,0.3-0.7c0.2-0.2,0.5-0.3,0.7-0.5c0.3-0.3,0.5-0.7,0.6-1c0.1-0.5,0.1-0.4,0.4-0.7c0.3-0.2,0.2-0.3,0.3-0.6s0.4-0.3,0.7-0.4c0.4-0.1,0.4-0.2,0.6-0.5c0.5-0.7,0.8-1.3,1.2-2c0.1-0.2,0.2-0.6,0.4-0.8c0.9-1.1,1.4-1.9,2.1-3.2c0.4-0.8,0.4-1.9,0.9-2.7c0.4-0.7,0.8-1.3,1-2c0.3-0.8-0.1-1-0.2-1.8c-0.1-0.3,0.1-0.7,0.2-0.9c0.1-0.2,0.3-0.5,0.3-0.7s-0.2-0.5-0.2-0.7c0.1-0.5,0.1-0.9-0.5-1c-0.4-0.1-0.7,0-1.1-0.2c-2.2-1-4.7-0.2-6.9-1.3c-1.8-0.9-3.1-1.4-5.2-1.2c-0.3,0-0.6,0-0.9-0.1c-0.1,0-0.3,0-0.4-0.1c-0.1-0.1-0.1-0.2-0.2-0.2c-0.1-0.1-0.2-0.1-0.2-0.2c-0.1-0.1-0.2-0.2-0.4-0.2c-0.3-0.1-0.8,0-1.1,0s-0.6,0.1-0.9,0c-0.2-0.1-0.2-0.2-0.3-0.3c-0.8-0.8-2-1.6-3-1.9c-0.5-1.7-4.8-2.8-2.6-4.9c0.2-0.1,0.3-0.3,0.5-0.4c0.6-0.4,1.3-0.7,2.1-0.8c0.9-0.1,2.1,0.4,3,0.6c0.5,0.1,1,0.1,1.5,0.3c0.4,0.2,0.7,0.4,1.1,0.6c0.6,0.2,1.4,0.3,2,0.6c0.7,0.4,1.5,1,2.4,1c0.4,0,0.9-0.3,1.3-0.2c0.2,0,0.3,0.1,0.4,0.2c0.5,0.2,1.1,0.2,1.6,0.5c0.2,0.1,0.3,0.2,0.6,0.2s0.6,0,0.9,0.1c0.2,0.1,0.4,0.3,0.6,0.4c0.2,0.1,0.5,0.2,0.8,0.3c0.7,0.2,1.5,0.3,2.3,0.5c0.7,0.1,1.3,0.4,2,0.4c1.2,0.1,1.7,1.2,2.8,1.3c0.6,0.1,1.1,0,1.6,0.3c0.5,0.2,0.8,0.6,1.3,0.6c1.3,0.1,2.4-0.6,3.7-0.1c0.2,0.1,0.4,0,0.6,0.1c0.4,0.2,0.5,0.4,0.9,0.5s0.8,0.1,1.2,0.2c0.6,0.1,1.3,0.2,1.9,0.4c0.7,0.2,1.6,0.8,2.4,0.9c1.6,0.3,3,0.4,4.6,1c1.8,0.7,3.5,1.7,5.4,2.1c0.7,0.2,1.4,0.3,2.1,0.5c0.6,0.2,1.2,0.6,1.8,0.8c0.2,0.1,0.4,0.1,0.6,0.2s0.3,0.4,0.6,0.5c0.1,0.1,0.3-0.1,0.5,0s0.2,0.2,0.3,0.3c0.3,0.2,0.6,0.2,1,0.3c0.3,0,0.4,0,0.6,0.1c0.2,0.1,0.2,0.3,0.4,0.4c0.1,0.1,0.5,0,0.7,0c0.6,0.1,1.3,0.3,1.8,0.7c0.3,0.2,0.4,0.5,0.8,0.6c0.9,0.4,1.9,0.5,2.8,0.8c0.2,0,0.4,0.1,0.5,0.1c0.2,0.1,0.4,0.4,0.5,0.5c0.5,0.3,1,0.3,1.5,0.5c0.5,0.1,0.5,0.5,0.8,0.7c0.1,0.1,0.4,0,0.5,0c0.3,0,0.3,0.2,0.5,0.3c0.3,0.2,0.6,0.1,0.8,0.4c0.2,0.2,0.3,0.4,0.5,0.5s0.6,0.2,0.9,0.2c0.7,0.2,1.5,0.4,2,0.9c0.9,0.8,1.7,1.7,2.8,2.2c0.6,0.3,0.8,0.4,1.2,1c0.2,0.4,0.4,1.1,0.8,1.3c0.4,0.2,0.9,0.3,1.3,0.5c0.4,0.2,0.1,0.9,0.9,0.8c0,0.1,0,0.2,0,0.3c1.2,0.2,1.4,0.7,1.9,1.7s1.4,1.5,2,2.4c0.4,0.8,0.8,2,0.2,2.9c-0.4,0.6-1,0.1-1.5,0.3c-0.3,0.1-0.5,0.5-0.8,0.5s-0.5-0.3-0.7-0.4c-0.3-0.1-0.5-0.2-0.8-0.2c-0.7-0.2-1.5-0.3-2.2-0.2c-0.5,0-0.6,0.2-0.9-0.3S691.5,6,690.9,6c-0.2,0-0.4,0-0.6,0c-0.3-0.1-0.2-0.3-0.4-0.4c-0.3-0.2-0.7,0.1-1.1-0.2c-0.1-0.1-0.1-0.3-0.2-0.4c-0.2-0.1-0.3,0-0.5-0.1c-0.5-0.2-0.4-0.6-0.7-0.9s-0.7-0.2-1-0.4c-0.6-0.2-0.4-0.6-0.7-1c-0.2-0.3-0.9-0.2-1.2-0.5c-0.2-0.2-0.1-0.5-0.3-0.7c-0.3-0.4-0.9-0.2-1.3-0.5c-0.4-0.3-0.4-0.9-0.7-1.2c-0.2-0.3-0.4-0.2-0.7-0.3S681.2-0.7,681-1c-0.4-0.6-0.7-1.3-1.2-1.9c-0.3-0.4-0.8-0.4-1.2-0.6C678.4-4.1,678-4.6,677.7-4.9z M701.2,47c0,0.1-0.1,0.3-0.1,0.4c-0.1,0.4,0,0.5,0.1,0.8c0.1,0.8-0.3,1.5-0.5,2.3c0,0.2,0,0.4,0,0.6c-0.1,0.3-0.5,0.6-0.6,1c-0.1,0.5-0.1,1-0.2,1.6c-0.1,0.3-0.4,0.4-0.5,0.7s0,0.6-0.1,0.8s-0.3,0.2-0.4,0.4c-0.1,0.2,0,0.4-0.1,0.6c-0.1,0.2-0.2,0.3-0.3,0.4c-0.1,0.2,0,0.4,0,0.6c-0.1,0.2-0.3,0.3-0.4,0.5c-0.5,0.9-0.6,2.1-1,3.1c-0.1,0.2-0.2,0.3-0.3,0.4c-0.1,0.2-0.1,0.4-0.2,0.6c-0.1,0.2-0.3,0.3-0.3,0.4c-0.1,0.2-0.1,0.4-0.2,0.6c-0.1,0.2-0.4,0.2-0.6,0.4c-0.2,0.2-0.3,0.6-0.4,0.8c-0.2,0.3-0.4,0.7-0.5,1s-0.1,0.6-0.3,0.8c-0.3,0.5-0.7,0.8-0.7,1.4c0,0.5-0.3,1.1-0.5,1.5c-0.3,0.5-0.8,0.7-1.2,1c-0.3,0.3-0.4,0.6-0.7,0.9s-0.4,0.4-0.5,0.8c-0.1,0.6-0.6,1-0.9,1.4c-0.5,0.8-1.1,1.8-1.7,2.5c-0.5,0.6-1.4,0.7-1.9,1.3c-0.2,0.3-0.2,0.7-0.5,0.9c-0.1,0.1-0.3,0-0.4,0.2c-0.1,0.2,0,0.4-0.1,0.5c-0.2,0.3-0.8,0.4-1.1,0.6c-0.6,0.3-1.1,0.9-1.6,1.4c-0.6,0.5-1.1,0.9-1.7,1.4c-0.4,0.4-0.7,0.7-1.3,0.8c-0.2,0-0.7,0.1-0.9-0.1c-0.1,0-0.2-0.1-0.2-0.2c-0.1-0.2,0.8-1.3,1-1.5c0.4-0.4,1-0.5,1.4-0.8c0.2-0.2,0.3-0.3,0.4-0.6c0.2-0.4,0.4-0.3,0.6-0.6c0.1-0.1,0-0.3,0.1-0.5c0.2-0.4,0.7-0.6,1-0.8c0.3-0.2,0.4-0.5,0.6-0.9c0.2-0.3,0.4-0.1,0.6-0.3c0.4-0.3,0.5-0.8,0.7-1.2c0.1-0.3,0.3-0.7,0.5-0.9c0.3-0.3,0.8-0.3,1-0.7c0.2-0.3,0.2-0.7,0.4-1s0.6-0.5,0.9-0.8c0.3-0.2,0.6-0.4,0.9-0.7c0.2-0.2,0.1-0.5,0.3-0.7c0.1-0.2,0.4-0.3,0.6-0.4c0.2-0.2,0.2-0.5,0.3-0.8c0.1-0.2,0.2-0.5,0.3-0.6c0.2-0.3,0.5-0.3,0.7-0.6c0.2-0.2,0.4-0.5,0.6-0.7c0.3-0.3,0.3-0.5,0.5-0.8c0.1-0.2,0.4-0.2,0.5-0.4c0.1-0.2,0-0.4,0-0.6c0-0.3,0.2-0.6,0.4-0.8c0.2-0.2,0.4-0.4,0.5-0.6s0.2-0.5,0.3-0.8c0.1-0.1,0.2-0.2,0.3-0.3s0.2-0.3,0.3-0.5c0.2-0.6,0.4-1.2,0.6-1.7c0.1-0.2,0.1-0.5,0.3-0.7s0.4-0.2,0.5-0.5c0.1-0.1,0-0.3,0.1-0.4c0.1-0.1,0.2-0.2,0.2-0.3s0-0.3,0.1-0.4c0.1-0.2,0.2-0.3,0.2-0.4c0-0.1,0-0.3,0-0.4c0.1-0.5,0.7-0.4,0.8-0.9c0.1-0.3,0.1-0.5,0.2-0.8c0-0.1,0-0.3,0.1-0.4c0.1-0.1,0.3-0.2,0.3-0.4c0-0.1-0.1-0.3-0.1-0.5c0.1-0.6,0.3-1.1,0.4-1.6c0.1-0.6,0.2-1,0.5-1.5c0.3-0.4,0.4-0.9,0.4-1.4c0-0.6-0.1-1.1,0.2-1.7c0.1-0.3,0.2-0.9,0.4-1.1c0.1-0.1,0.3-0.1,0.4-0.2c0.1-0.1,0.1-0.2,0.1-0.3c0-0.3,0.1-0.6,0.1-0.8c0-0.5,0-0.9,0-1.4c0-0.4,0.1-0.8,0.2-1.2c0.1-0.2,0.3-0.7,0.6-0.7c0.4,0,0.2,0.9,0.3,0.9h0.1c0.2,0.3,0,0.6,0,0.9c0.1,0.5,0.4,0.7,0.3,1.3C701.5,46.1,701.4,46.5,701.2,47z"/>
	<path d="M633.3,59.1c0.2-0.4,0.3-0.8,0.6-1.3s0.6-1.2,0.8-1.8c0-0.1,0.1-0.5,0.1-0.6c0.2-0.3,0.4-0.2,0.6-0.4c0.3-0.4,0.3-1.3,0.4-1.8c0-0.2,0.2-0.4,0.3-0.6c0.1-0.3,0-0.6,0.1-0.9c0,0,0.2-0.3,0.2-0.4c0-0.1,0-0.3,0-0.4c1.6-0.3,2.5-2.5,1.7-3.9c-0.2-0.4-0.6-0.7-0.9-1.1c-0.3-0.4-0.5-0.7-1-0.4s-0.6,0.9-0.8,1.3c-0.2,0.4-0.1,0.8-0.2,1.2c-0.1,0.3-0.2,0.5-0.4,0.7c-0.2,0.3-0.3,0.5-0.3,0.8c0,0.2-0.1,0.5-0.1,0.7c0,0.1,0,0.3,0,0.4c-0.1,0.1-0.2,0.2-0.3,0.3s0,0.3-0.1,0.4c-0.1,0.2-0.3,0.4-0.4,0.6c-0.1,0.2-0.2,0.4-0.3,0.6c-0.1,0.3-0.2,0.6-0.2,0.9c-0.1,0.2-0.1,0.4-0.2,0.6c-0.1,0.3-0.2,0.2-0.4,0.4c-0.1,0.1-0.1,0.3-0.1,0.4c-0.1,0.2-0.1,0.1-0.3,0.2c-0.2,0.1-0.1,0.1-0.2,0.3c-0.1,0.4-0.4,0.3-0.5,0.6c-0.2,0.5-0.4,1-0.6,1.4c-0.1,0.2-0.2,0.2-0.3,0.5c0,0.2,0.1,0.5,0,0.7c-0.1,0.4-0.5,0.8-0.6,1.3c0,0.3-0.1,0.5-0.2,0.7c-0.3,0.6-0.8,1-1.3,1.5c-0.2,0.2-0.2,0.5-0.4,0.8c-0.2,0.2-0.6,0.2-0.7,0.5c-0.1,0.3-0.1,0.5-0.3,0.6c-0.6,0.4-0.9,1.4-1.1,2c-0.3,0.1-0.5,0.1-0.7,0.4s-0.2,0.7-0.6,0.9c-0.2,0.1-1,0.1-1,0.5c0,0.2,0,0.5-0.1,0.7s-0.3,0.3-0.4,0.4c-0.1,0.1-0.1,0.3-0.2,0.4c-0.1,0.1-0.2,0.1-0.3,0.2s-0.1,0.3-0.2,0.5c-0.1,0.2-0.4,0.1-0.6,0.3c-0.2,0.2-0.2,0.3-0.2,0.6c0,0.2-0.1,0.6-0.2,0.7c-0.2,0.2-0.4,0.3-0.5,0.6c-0.1,0.1,0,0.3,0,0.4s-0.1,0.3-0.2,0.3c-0.2,0.1-0.3,0.3-0.4,0.5c-0.1,0.2-0.1,0.4-0.2,0.6c-0.1,0.2-0.1,0.2-0.3,0.4c-0.1,0.1-0.1,0.2-0.2,0.3c-0.1,0.2-0.2,0.3-0.3,0.5s-0.1,0.4-0.2,0.6c-0.1,0.2-0.3,0.2-0.4,0.5c-0.1,0.4-0.3,0.6-0.4,0.9c-0.2,0.1-0.4,0.1-0.6,0.3c-0.2,0.2-0.1,0.6-0.2,0.8c-0.2,0.2-0.4,0.3-0.6,0.4s-0.4,0.2-0.5,0.4c-0.1,0.1-0.2,0.3-0.4,0.3c-0.1,0-0.4,0-0.5-0.1s0-0.3-0.1-0.3c-0.1-0.1-0.2,0-0.2-0.1c-0.1-0.1-0.1-0.3-0.1-0.3c-0.1-0.2-0.1-0.3-0.1-0.5s-0.1-0.4-0.1-0.6c0-0.5,0.3-1,0.6-1.4c0.1-0.2,0.2-0.3,0.5-0.4c0.1,0,0.2-0.1,0.3-0.2s0-0.3,0.1-0.3c0.1-0.1,0.2-0.1,0.3-0.1c0.2-0.2,0.2-0.6,0.2-0.8c0.1-0.3,0-0.6,0-0.9s0.2-0.5,0.2-0.8c0-0.1-0.1-0.2-0.1-0.4c0-0.1,0.1-0.3,0.1-0.4c0.1-0.3,0.1-0.5,0.1-0.8s0.3-0.4,0.5-0.6c0.1-0.1,0.1-0.3,0.1-0.4c0.1-0.2,0.2-0.2,0.3-0.3c0.2-0.3-0.1-0.9,0.2-1.2c0.1-0.1,0.3-0.1,0.4-0.2c0.1-0.1,0-0.3,0-0.4c0-0.2,0.1-0.2,0.2-0.4c0.2-0.2,0.2-0.3,0.2-0.5c0-0.6,0-1.3,0.1-1.9c0.1-0.3,0.2-0.6,0.2-1c0.1-0.2,0.1-1.1,0.5-1.1c0.1-0.3,0.2-0.5,0.3-0.7c0.1-0.4,0.1-0.7,0.5-1c0.1-0.1,0.3-0.1,0.4-0.2c0.1-0.1,0.1-0.3,0.2-0.5c0-0.2,0-0.3,0.2-0.4c0.2-0.2,0.3-0.2,0.3-0.5s0-0.6,0.2-0.8c0.1-0.1,0.1,0,0.2,0c0.1-0.1,0.1-0.2,0.1-0.3c0.1-0.3,0-0.7,0.1-1c0.1-0.1,0.2-0.1,0.3-0.2c0.1-0.1,0.1-0.4,0.1-0.5c0.1-0.7,0.2-1.8,0.8-2.3c0.3-0.3,0.4-0.6,0.5-0.9c0-0.1,0-0.2,0.1-0.3s0.1-0.1,0.2-0.2c0.1-0.1,0.1-0.3,0.2-0.5c0.1-0.2,0.1-0.3,0.1-0.5s0-0.3,0.1-0.5c0-0.2,0-0.5,0.1-0.7s0.2-0.2,0.3-0.4c0.1-0.1,0.1-0.2,0.1-0.3s0-0.3,0.1-0.4c0.1-0.1,0.2-0.1,0.3-0.2c0.1-0.1,0-0.3,0.1-0.4c0-0.1,0-0.6,0.1-0.7c0.2-0.1,0.3,0,0.3-0.2c0-0.1,0-0.4,0.1-0.5s0.2,0,0.3-0.2c0.1-0.1,0-0.4,0-0.6c0-0.3,0.1-0.6,0.1-0.8c0-0.4,0.1-0.9,0.2-1.3c0.1-0.2,0.3-0.3,0.4-0.5s0.1-0.4,0.1-0.5c0.1-0.3,0.2-0.7,0.2-1c0-0.2,0.1-0.5,0.1-0.7c0.1-0.2,0.3-0.2,0.4-0.4c0.1-0.1,0.1-0.3,0.1-0.5c0-0.1,0-0.3,0.1-0.4c0.1-0.1,0.2-0.1,0.3-0.2c0.1-0.1,0.1-0.3,0.1-0.4c0.1-0.2,0.1-0.3,0.2-0.5c0.1-0.2,0.2-0.2,0.2-0.5c0-0.5,0.4-0.6,0.5-1c0.1-0.3,0-0.5,0.2-0.8c0.1-0.2,0.3-0.3,0.3-0.6c0.1-0.3,0-0.6,0.1-0.9c0.1-0.3,0.2-0.6,0.3-0.8c0.2-0.3,0.5-0.5,0.6-0.9c0.1-0.3,0.1-0.6,0.2-0.9c0.1-0.4,0.2-0.8,0.5-1.2c0.1-0.1,0.1-0.1,0.1-0.3c0-0.1-0.1-0.2,0-0.3c0.1-0.2,0.3-0.1,0.5-0.3c0.1-0.1,0.1-0.3,0.1-0.4c0-0.2,0.1-0.5,0.1-0.7s-0.1-0.4-0.1-0.7c0-0.2,0.2-0.4,0.2-0.6c0.1-0.3,0.2-0.7-0.2-0.8c-0.1,0-0.3,0.1-0.4,0.1c-0.2,0.1-0.5,0.2-0.6,0.4c-0.4,0.4-0.5,0.9-0.8,1.4c-0.3,0.4-0.5,0.7-0.5,1.3c-0.6,0.2-0.4,0.6-0.6,1c-0.2,0.4-1,1.2-1,1.6c0,0.2,0,0.4,0,0.6c-0.1,0.2-0.2,0.4-0.2,0.6s0,0.2-0.1,0.4c-0.1,0.1-0.2,0.2-0.2,0.4s0,0.4-0.2,0.5s-0.3,0-0.4,0.2c-0.2,0.2-0.1,0.7-0.2,0.9c-0.1,0.4-0.1,0.7-0.3,1.1c-0.1,0.3-0.2,0.2-0.4,0.3c-0.2,0.2-0.2,0.8-0.2,1c0,0.5-0.1,0.9-0.4,1.3c-0.1,0.1-0.2,0.2-0.2,0.4s0.1,0.5-0.1,0.7c-0.1,0.1-0.2,0.2-0.2,0.4c-0.1,0.3,0,0.6-0.2,0.8c-0.1,0.1-0.2,0.1-0.3,0.2c-0.1,0.1-0.1,0.2-0.1,0.4c0,0.3-0.3,0.6-0.3,0.9c-0.2,0.9-0.1,1.6-0.6,2.3c-0.2,0.3-0.2,0.6-0.3,0.9c-0.1,0.3-0.4,0.5-0.5,0.8s0,0.7-0.1,1s-0.3,0.4-0.4,0.7s-0.1,0.6-0.2,1c-0.1,0.2,0,0.8-0.3,0.9c0,0.6-0.1,0.7-0.4,1.2c-0.2,0.3-0.4,0.6-0.6,1c-0.5,0.8-0.7,1.8-0.9,2.7c-0.1,0.4-0.1,0.5-0.4,0.7c-0.2,0.1-0.3,0.3-0.3,0.6c0,0.1,0.1,0.3,0,0.4c-0.1,0.1-0.2,0-0.3,0.1c-0.2,0.1-0.1,0.4-0.1,0.6c-0.1,0.2-0.4,0.3-0.4,0.5c0,0.3,0,0.6-0.2,0.9c-0.2,0.3-0.4,0.5-0.5,0.7c-0.2,0.6-0.3,1.2-0.6,1.7c-0.2,0.4-0.2,0.9-0.2,1.4c0,0.4-0.1,1-0.3,1.3s-0.5,0.5-0.7,0.8c-0.1,0.3-0.2,0.6-0.3,1c-0.1,0.3-0.2,0.6-0.2,1c0,0.3,0.2,0.5,0.2,0.8c0.1,0.4-0.3,0.5-0.4,0.8c-0.1,0.1,0,0.3-0.1,0.4c0,0.3-0.1,0.8-0.3,1c-0.1,0.1-0.2,0.1-0.2,0.3c-0.1,0.2,0,0.5-0.1,0.7c0,0.3-0.1,0.6-0.1,0.9c0,0.2,0,0.5-0.1,0.7c-0.1,0.1-0.4,0.1-0.5,0.2c-0.5,0.4-0.8,0.9-0.9,1.5c0,0.4-0.3,0.8-0.4,1.1c-0.2,0.4,0,0.8,0,1.2c0,0.4-0.1,0.9,0.1,1.2c0.2,0.3,0.6,0.4,0.8,0.7c0.3,0.3,0.7,0.6,0.9,1c0.3,0.5,0.7,0.3,1.2,0.4c0.3,0.1,0.5,0.3,0.8,0.3c0.2,0,0.2,0,0.3-0.1c0.2-0.2,0.2-0.4,0.4-0.4c0.1,0,0.2,0,0.2,0c0.1,0,0.3-0.1,0.4-0.2c0.3-0.1,0.6-0.3,0.8-0.5c0.3-0.3,0.6-0.6,0.8-0.9c0.1-0.1,0.2-0.3,0.3-0.4c0-0.2,0-0.4,0.1-0.5s0.3-0.1,0.4-0.2c0.3-0.2,0.5-0.8,0.7-1.2c0.1-0.2,0.2,0,0.4-0.2c0.1-0.1,0.2-0.6,0.1-0.6c0.6,0,0.2-0.7,0.5-1c0.2-0.1,0.2,0,0.3-0.2s0.2-0.4,0.2-0.5c0-0.2,0.1-0.5,0.2-0.7c0.1-0.3,0.2-0.1,0.4-0.2c0.1-0.1,0.2-0.2,0.2-0.4c0.1-0.2,0.3-0.5,0.5-0.6c0.3-0.1,0.6-0.1,0.7-0.4c0.1-0.2,0.1-0.4,0.2-0.6c0.1-0.2,0.3-0.5,0.4-0.8c0.1-0.3,0.4-0.5,0.5-0.7c0.2-0.3,0.4-0.6,0.6-0.9c0.2-0.3,0.3-0.6,0.5-0.9c0.1-0.2,0.3-0.5,0.4-0.7c0.2-0.4,0.8-0.5,1.1-0.8c0.1-0.1,0.1-0.2,0.2-0.3c0-0.1,0-0.3,0.1-0.4c0.5-0.5,1.1-1,1.5-1.6c0.1-0.2,0.1-0.5,0.3-0.7c0.1-0.2,0.4-0.4,0.5-0.6c0.5-0.7,0.4-1.7,0.9-2.4c0.2-0.4,0.6-0.6,0.8-1c0.3-0.5,0.7-0.9,1-1.4C633.1,59.4,633.2,59.3,633.3,59.1z"/>
	<path d="M657.9,97.6c-0.1-0.3-0.2-1.6-0.5-1.8c-0.2-0.1-0.4-0.3-0.6-0.4c-0.2-0.1-0.4,0.1-0.6,0.1c-0.3,0.1-0.5,0.1-0.8,0.3c-0.3,0.3-0.2,0.4-0.2,0.8c0,0.2-0.2,0.3-0.1,0.5c0,0.2,0.2,0.2,0.2,0.3c0.1,0.3-0.1,0.5-0.1,0.9c0,0.2,0,0.4-0.2,0.5c-0.2,0.2-0.3,0.2-0.4,0.5c-0.1,0.3-0.1,0.7-0.2,1c-0.1,0.6-0.5,0.9-0.7,1.3c-0.1,0.2,0,0.4,0,0.6s0,0.4,0,0.5s-0.1,0.1-0.1,0.1c-0.1,0.1-0.1,0.3-0.1,0.5c-0.1,0.1-0.1,0.2-0.1,0.4c-0.1,0.5-0.2,0.7-0.5,1c-0.2,0.2-0.4,0.5-0.7,0.7c-0.1,0.1-0.2,0.4-0.2,0.5s0,0.2-0.1,0.3c-0.1,0.1-0.1,0.1-0.3,0.2c-0.2,0.2-0.3,0.8-0.3,1.1c-0.1,0.6-0.8,0.1-1,0.8c-0.1,0.3-0.4,0.6-0.5,0.8c-0.2,0.3-0.1,0.7-0.1,1.1c0,0.2,0,0.4-0.1,0.5c-0.1,0.2-0.1,0.1-0.3,0.2c-0.1,0.1-0.1,0.1-0.1,0.2c-0.1,0.3,0,0.5-0.2,0.7c-0.1,0.2-0.2,0.5-0.3,0.7s0,0.5-0.2,0.7c-0.1,0.1-0.2,0.1-0.2,0.3c0,0.1,0,0.3-0.1,0.4c-0.1,0.2-0.1,0.1-0.2,0.2c-0.3,0.2-0.1,0.5-0.2,0.7c0,0.2-0.1,0.1-0.2,0.2c-0.3,0.1-0.6,0.1-0.7,0.5c0,0.1,0,0.2,0,0.3c0,0.1-0.1,0.3-0.2,0.4c-0.1,0.3-0.2,0.6-0.3,0.9c-0.1,0.4-0.2,1-0.5,1.2s-0.5,0.1-0.7,0.4c-0.2,0.2,0,0.5-0.4,0.7c-0.3,0.1-0.7,0-1-0.1s-0.2-0.2-0.3-0.5c0-0.2-0.1-0.4-0.1-0.6c0-0.3,0.1-0.7,0.2-1c0.2-0.7,0-1.5,0.3-2.1c0.2-0.4,0.3-0.6,0.4-1.1c0.1-0.3,0.1-0.7,0.2-1c0.1-0.2,0.3-0.2,0.4-0.3c0.1-0.2,0.1-0.4,0.2-0.6c0.1-0.2,0.2-0.3,0.2-0.5s0-0.3,0.1-0.5c0.1-0.4,0.2-0.9,0.3-1.3c0.1-0.3,0.2-0.5,0.3-0.8c0-0.1,0-0.3,0.1-0.4s0.1,0,0.2-0.1c0.1-0.1,0.1-0.4,0.2-0.5c0-0.2,0.1-0.4,0.3-0.5s0.4-0.1,0.5-0.4c0.1-0.2,0.1-0.4,0.1-0.7c0-0.1-0.1-0.2-0.1-0.3c0-0.1,0.1-0.1,0.2-0.1c0.1-0.1,0.1-0.4,0.2-0.5c0-0.2,0.1-0.4,0.1-0.6c0-0.1,0-0.2,0-0.3c0.1-0.1,0.2,0,0.3-0.1c0.2-0.1,0.1-0.5,0.2-0.7c0.1-0.2,0.3-0.2,0.4-0.4c0.1-0.2,0-0.5,0.1-0.7s0.3-0.1,0.4-0.4c0.1-0.3,0.1-0.7,0.1-1c0-0.4,0.1-0.7,0.1-1.1c0-0.3,0-0.8,0.1-1s0.3-0.2,0.3-0.5c0-0.1,0-0.3,0-0.4s-0.1-0.1-0.2-0.1c-0.1-0.1-0.1-0.4-0.1-0.6c-0.1-0.3,0-0.5-0.3-0.6c-0.2-0.1-0.5-0.1-0.7-0.2s-0.4-0.1-0.5-0.2c0-0.1,0-0.2-0.1-0.3c-0.2-0.3-0.7-0.3-1-0.4c-0.8-0.1-1.7-0.1-2.5-0.2c-0.6,0-1.3-0.1-1.9-0.2c-0.4-0.1-1.3-0.3-1.5-0.7c-0.5-0.7-1-1.5-1.5-2.2c-0.2-0.4-0.5-0.7-0.8-1c-0.2-0.2-0.7-0.3-0.8-0.6c-0.2-0.4-0.4-0.8-0.8-1.2c-0.2-0.2-0.5-0.4-0.5-0.7c0-0.2,0.1-0.3,0-0.5s-0.2-0.2-0.3-0.4c0-0.3-0.2-0.3-0.2-0.5c-0.1-0.2,0-0.4,0-0.6s-0.2-0.3-0.3-0.4c-0.1-0.3,0-0.5-0.1-0.8c-0.2-0.3,0-0.6,0-0.9c0-0.2-0.2-0.3-0.3-0.5c0-0.2,0.1-0.4,0.1-0.6c0-0.3-0.3-0.4-0.3-0.6s0.1-0.6-0.1-0.7c-0.1-0.5-0.1-1,0-1.4c0-0.4,0-0.7,0-1.1c0.1-0.3,0.2-0.7,0.2-1c0-0.2,0-0.4,0.1-0.6c0-0.1,0.1-0.3,0.1-0.4c0-0.2-0.4-0.2-0.4-0.3c0-0.3,0-0.7-0.1-1c-0.1-0.2-0.2-0.2-0.3-0.4c-0.1-0.2,0-0.7,0-0.9c0-0.4,0-0.8,0-1.1c0-0.4,0-0.7-0.1-1c-0.2-0.4-0.2-0.6-0.1-1c0.1-0.4,0.2-0.9,0.2-1.3c0-0.3-0.2-0.6-0.2-0.9c0-0.4,0.1-0.8,0-1.2c0-0.4-0.3-0.8-0.3-1.2c0-0.2,0.2-0.4,0.2-0.6c0.1-0.5,0.2-1.6,0-2.1c-0.1-0.2-0.2-0.2-0.1-0.5c0.1-0.3,0.1-0.6,0.2-0.9c0.1-0.2,0.1-0.4,0.2-0.6c0.1-0.3,0.1-0.2,0.3-0.4c0.3-0.3,0.1-1.3-0.1-1.5c-0.4-0.2-0.6,0-0.8,0.2c-0.1,0.2-0.2,0.5-0.4,0.7c-0.3,0.5-0.4,1.2-0.5,1.8c-0.1,0.6-0.3,1.2-0.4,1.8c-0.1,0.9,0.1,1.8-0.1,2.6c-0.2,0.8-0.6,1.9-0.2,2.7c0.1,0.2,0,0.3,0,0.5c0,0.3,0.2,0.6,0.2,0.9s-0.1,0.6,0,0.9c0,0.2,0.1,0.4,0.1,0.7c-0.1,0.3-0.1,0.5-0.1,0.8c0,0.4,0,0.9-0.1,1.4c-0.1,0.9,0.1,1.8,0.2,2.7c0,0.9-0.2,1.9,0,2.8c0.1,0.4,0.2,0.8,0.2,1.1c0.1,0.3,0.2,0.2,0.3,0.4c0.2,0.2-0.1,0.7-0.1,0.9c0,0.1,0.1,0.2,0.1,0.3c0,0.1,0,0.2,0,0.3c0.1,0.2,0.2,0.4,0.3,0.6c0.1,0.3,0.1,0.6,0,0.9s0,0.3,0.1,0.5c0.1,0.1,0,0.2,0.1,0.3c0,0.1,0.2,0.2,0.2,0.3c0.1,0.3,0,0.7,0,1s0.2,0.5,0.3,0.8s0.1,0.6,0.1,0.9c0,0.4,0.4,0.6,0.6,0.9c0.1,0.1,0.3,0.3,0.3,0.4c0.1,0.2-0.1,0.5,0,0.7s0.4,0.3,0.5,0.5c0.1,0.3,0.2,0.6,0.5,0.8c0.2,0.1,0.5,0.2,0.6,0.3c0.1,0.1,0.1,0.4,0.2,0.5c0.1,0.3,0.3,0.7,0.6,0.9c0.2,0.1,0.3,0.1,0.5,0.2s0.3,0.2,0.4,0.4c0.1,0.1,0.5,0,0.6,0.1c0.2,0.1,0.1,0.4,0.3,0.5c0.2,0.2,0.4,0.1,0.6,0.2c0.3,0.2,0.3,0.6,0.6,0.8c0.4,0.2,0.8,0.2,1.1,0.5c0.1,0.1,0.1,0.2,0.2,0.3c0.1,0.1,0.3,0,0.4,0.1c0.1,0.1,0.1,0.2,0.2,0.3c0.1,0.1,0.5,0.1,0.6,0.1c0.5,0.1,0.9,0.1,1.4,0.2c0.4,0,0.8,0.1,1.1,0.1c0.4,0.1,0.7,0.3,0.9,0.7c0.1,0.2,0,0.4,0,0.6c0,0.1-0.1,0.3-0.1,0.4s0.1,0.2,0.1,0.3c0,0.2-0.1,0.2-0.1,0.4c0,0.1,0.2,0.2,0.1,0.4c0,0.2-0.3,0.3-0.3,0.4c-0.1,0.2-0.1,0.4-0.1,0.6c0,0.3-0.1,0.6-0.2,1c-0.1,0.3-0.1,0.6-0.3,0.8c-0.1,0.1-0.1,0-0.2,0.2c-0.1,0.2-0.1,0.4-0.1,0.6s-0.2,0.1-0.3,0.2c-0.3,0.2-0.3,0.8-0.4,1.1c-0.1,0.4-0.3,0.5-0.5,0.9c-0.2,0.2-0.1,0.6-0.1,0.8c-0.1,0.2-0.2,0.3-0.3,0.4c-0.1,0.2-0.1,0.4-0.2,0.5c-0.1,0.2-0.3,0.3-0.4,0.4c-0.1,0.2-0.2,0.5-0.2,0.7s0.1,0.3,0.1,0.5c0,0.4-0.1,0.9-0.2,1.3c-0.1,0.3-0.2,0.4-0.3,0.7c-0.1,0.3-0.1,0.6-0.2,0.8c-0.2,0.4-0.3,0.4-0.3,1s-0.2,1.1-0.3,1.7c-0.1,0.7-0.2,1.5-0.3,2.2s-0.1,1.3,0,2c0,0.3,0,0.7,0.1,1c0,0.2,0,0.4,0.1,0.5c0.1,0.2,0.5,0.3,0.7,0.4s0.4,0.2,0.7,0.2c0.8,0,1.7,0,2.5-0.3c0.4-0.1,0.9-0.3,1.2-0.5c0.4-0.3,0.6-0.9,0.7-1.3c0.2-0.4,0.4-0.9,0.6-1.3c0.2-0.3,0.4-0.7,0.5-1s0.1-0.7,0.2-1c0.2-0.4,0.6-0.6,0.9-1s0.6-0.8,0.8-1.2c0.3-0.4,0.1-0.7,0.3-1.2c0.1-0.3,0.4-0.6,0.6-0.9c0.1-0.2,0.3-0.5,0.3-0.8c0-0.2-0.1-0.4,0-0.6c0.1-0.1,0.1-0.2,0.1-0.4c0-0.2,0-0.4,0.1-0.6c0.2-0.3,0.3,0,0.5-0.4c0.1-0.2,0.1-0.5,0.2-0.8c0.1-0.3,0.3-0.5,0.5-0.6c0.2,0,0.3,0.1,0.5,0.1c0.2-0.1,0.4-0.4,0.4-0.6c0.1-0.4,0-0.9,0.2-1.2h0.2c0.1,0,0.1-0.1,0.1-0.2c0.3-0.5,0.3-1,0.7-1.5c0.2-0.2,0.3-0.3,0.5-0.5c0.1-0.1,0.2-0.1,0.2-0.3c0-0.1,0-0.3,0-0.4c0.1-0.2,0.3-0.2,0.4-0.4c0.3-0.5,0.2-1,0.4-1.5s0.2-1,0.4-1.5c0.1-0.3,0.3-0.4,0.5-0.6s0.1-0.6,0.2-0.8c0.1-0.2,0.2-0.1,0.4-0.2s0.2-0.2,0.2-0.4C658.2,98.3,658.1,98,657.9,97.6z"/>
	<path d="M644.5-6.2c-0.3-0.2-0.7,0-1,0c-0.2,0-0.6,0-0.7,0.2c0,0.1,0,0.5-0.1,0.5c-0.2,0.1-0.5,0.2-0.7,0.3c-0.3,0.1-0.4,1.3-0.4,1.5c0,0.3,0,0.6,0,0.9c0,0.2,0,0.4,0.1,0.5c0.1,0.2,0.4,0.1,0.6,0.1c0.4,0,0.9,0,1.3-0.2c0.2-0.2,0.4-0.4,0.5-0.6c0.1-0.1,0.2-0.3,0.3-0.4c0.2-0.2,0.4-0.3,0.5-0.5c0.1-0.3,0.1-0.6,0.1-0.9c0-0.3-0.1-0.6-0.2-0.8C644.8-5.8,644.7-6.1,644.5-6.2z"/>
	<path d="M658-3.8c0-0.1,0-0.1,0-0.2c0,0-0.1-0.1-0.2-0.1c-0.2,0-0.4,0-0.6,0.1c-0.2,0-0.4,0-0.6,0c-0.1,0-0.2,0-0.3,0c-0.1,0.1-0.1,0.2-0.2,0.3c-0.1,0.2-0.2,0.5-0.4,0.7s-0.3,0.4-0.5,0.6c-0.1,0.1-0.2,0.2-0.3,0.2c-0.1,0.1-0.2,0.1-0.2,0.2c0,0.1,0,0.3,0,0.5s0,0.4,0,0.6s0.1,0.4,0.2,0.5c0.1,0.2,0.1,0.4,0.3,0.5c0.2,0,0.4,0,0.6,0c0.1,0,0.3,0.1,0.4,0.1s0.1,0,0.2-0.1c0.1-0.1,0-0.2,0.1-0.3s0.3-0.1,0.5-0.1c0.2-0.1,0.3-0.1,0.5-0.3c0.1-0.1,0.2-0.2,0.3-0.3s0.2-0.2,0.3-0.3c0.1-0.1,0.3-0.1,0.3-0.3c0.1-0.2,0.1-0.3,0.1-0.5s0.1-0.5,0.1-0.8s-0.1-0.6-0.3-0.8C658.2-3.6,658-3.6,658-3.8z"/>
	<path d="M304.7,45.3c-1.1-1-1.5-1.3-1.6-1.4c-2.6-4.4-3.7-5.4-4.4-5.8c-0.4-0.2-1-0.2-1.4,0c-0.5,0.2-0.8,0.7-0.8,1.2c0,0.6-0.3,1.8-1.2,4c-0.9,2.2-1.3,3.9-1.3,5.3c0,1.5,0.6,4.9,6,4.9c5.6,0,6.4-3.1,6.4-4.9C306.4,47.4,305.9,46.3,304.7,45.3z"/>
	<path d="M295.5,59.9c-0.5-0.5-1.3-0.5-1.9-0.1c-2.7,2-4.7,4.6-6,7.6c-0.8,2-1.4,4.2-2.4,6.1s-2,3.9-3,5.8c-1.1,1.9-2.2,3.5-2.2,5.7c0,0.5,0.1,1.3,0.3,2.2c0.2,0.9,0.2,1.3,0.2,1.6c0,0.9,0.7,1.5,1.5,1.5c3.3,0,4.5-0.2,5.1-0.5c1.7-0.6,3.1-1.9,4.1-4c1-2.2,1.6-3.8,2.1-5c5.8-13.7,5.8-14.9,5.8-15.5C299.1,63.9,298,62.2,295.5,59.9z"/>
	<path d="M251.9,79.1c-4.9-6.1-10.1-11.3-15.3-15.6c11.5-5.3,19.5-9.1,24.1-11.2c31.4-14.9,46.1-28.1,44.8-40.4c-0.4-3.2-2.1-7.1-8.8-7.1c-0.7,0-1.4,0-2.1,0.1c-5.4,0.6-11.2,2.2-17.3,5L259.2,18c-5.8,2.6-10.9,4.2-15,4.6c-0.8,0.1-1.6,0.1-2.2,0.1c-1.3,0-1.8-0.2-2.1-0.3c-1.6-0.7-9.4,1.9-10.5,3.3c-2,2.4,0.8,4.4,0.2,6.9c-1.5,6.4-4.8,17.3-8.2,21.6c-3.2,4.1-9.1,7.4-10,13c-0.1,0.5,0.1,1.1,0.6,1.5l1.8,1.4c-0.5,1.3-1.6,3.6-4,8c-3.2,5.9-4.7,7.6-5.2,8.1c-0.3,0.3-0.6,0.7-0.5,1.1c0,0.9,0.4,2.6,3.1,3.2c0.2,0.1,0.4,0.1,3.8,0.4c0.2,0,0.5,0,0.7-0.1c2.7-1.2,5.2-4.9,7.5-11.3c1.7-4.7,3.8-7.2,6.3-7.5c5.7-0.6,11.6,4.1,17.8,13.9c5.4,8.5,8.5,16.2,9.2,22.8c0.1,0.4,0.3,0.8,0.6,1.1c0.3,0.2,0.6,0.3,0.9,0.3c0.1,0,0.2,0,0.3,0c8-1.5,9.2-6.2,8.8-10C262.3,94.4,258.7,87.5,251.9,79.1z M236.2,53.8l-4.1,0.2l0,0c3.3-14.2,20.3-27,50.4-37.9c2-0.7,3.7-1.2,5-1.3c0.4,0,0.9-0.1,1.3-0.1c2.8,0,3.3,1.1,3.4,2.2c0.2,2.1-1.6,6.1-11.2,13.6c-5.2,4-12.6,8.7-21.9,13.8C248.1,50.4,240.4,53.6,236.2,53.8z"/>
	<path d="M494.9,84.6c-5.3-0.2-8.3-2-8.5-2.2c-0.5-0.6-1.1-1.9-1.1-5.1c0-0.3,0.4-1.8,4.2-9c2.3-4.4,3.8-7.4,5.3-12c0.2-0.7,1.5-2.9,1.7-4.6c0.2-1.6-2.8-2.7-4.1-4.1c-1.9-2.1-5.2-3.4-7.5-3.4c-2.9,0-7.5,1.4-14.1,4.3c-5.4,2.4-9.7,4.7-12.9,6.8c-9.9,6.6-15.8,15.2-15.8,23.7c0,5.8,3.4,9,9.6,9c3.3,0,7.4-0.9,12.7-2.8c1.9-0.7,7.9-3.2,12.3-5.6c0.4,1.9,1.2,4.6,3.1,6.6c3.2,3.4,6.6,5.7,9.4,5.7c1.9,0,6.3-1.9,7.1-3.8c0.4-0.7,0.2-2.1-0.4-2.9C495.8,85,495.4,84.6,494.9,84.6z M480.5,65.7c-2.7,4-6.2,8.1-10.2,10.4c-4.2,2.3-8,4.1-12.9,4.1c-1.8,0-3.3-0.3-4.4-1c-1.2-0.7-1.7-1.5-1.7-2.7c0-1.7,1.3-5,7.3-10.9c5.9-5.8,12.6-11.4,20.7-13.6c2-0.6,4.7-1.2,6.8-0.3c1.5,0.6,1.6,1.6,2.2,3c0-0.1-2.7,2.9-2.9,3.2c-1.1,1.5-1.8,3.1-2.8,4.7C482,63.6,481.3,64.6,480.5,65.7z"/>
	<path d="M591.4,45.7c0,0-0.1-0.1-0.2-0.1c-1.3-0.6-2.6-1.2-3.9-1.8c3.6-5.3,4.3-6.7,4.6-7.3c1.1-2.3,1.5-4.4,1.4-6.2c-0.1-1.2-0.8-2.5-2.1-3.8c-1.4-1.4-2.7-2-4.1-1.9c-0.6,0-1.1,0.4-1.3,0.9c-2.6,6.6-4.3,10.6-5.1,12c-2.1,4-4.6,6.9-7.5,8.6c-3,1.8-7,3-11.9,3.4c-0.6,0.1-1.4,0.1-2.6,0.1c-1.2,0.1-2.1,0.1-2.7,0.2c-1.6,0.1-3.3,0.5-4.9,0.7c-1.6,0.2-3.6,0.2-4.9,1.2c-2.4,2,0.1,6.6,2.2,7.8c1.3,0.7,2.7,1,4.1,0.9c0.8-0.1,2.4-0.5,9-3.4c2.2-0.9,4-1.5,5.3-1.5h0.2l-5.8,7.2c-7.2,9-10.6,15.5-10.1,20c0.6,6.6,6.7,9.9,18.1,9.9c2.2,0,4.7-0.1,7.3-0.4c2.5-0.2,15.3-1.8,14.4-6.2c-0.7-3.4-6.9-1.2-8.9-1c-4.6,0.4-8.8,0.4-12.5-0.1c-3.6-0.5-8-1.6-8.2-4.4c-0.2-2.1,1.1-6.7,8.7-16c7.5-9.3,11.8-11.5,14-11.7c1-0.1,2.4,0.1,4.2,0.4c4.8,0.9,4.9,0.9,5,0.9s0.1,0,0.2,0c0.8-0.1,1.3-0.7,1.4-1.5v-1C595.2,49.2,593.9,47.3,591.4,45.7z"/>
	<path d="M531,53.9c-1,0-2.1,0.1-3.2,0.2c-0.4,0-0.9,0.1-1.5,0.2l-3.4,0.3c-0.4,0-0.7,0.1-1,0.1c-1.9,0-1.9-0.7-2.1-1.1l-0.1-6.1c-0.2-0.7-1.3-2.4-2.1-2.3l-1.9,0.1c-0.1,0-0.1,0-0.2,0c-2.2,0.4-3.4,1.7-4,5.3c-0.7,3.8-1.6,11.2-2.9,16.4c-1.4,5.4-3.6,13.1-6.4,18.1c-0.6,1.1-2,2.7-1.7,3.8c0.7,2.5,6.2,2.6,8.4,1.1c1-0.7,2.7-3.3,3.3-4.9c0.8-1.9,1.5-4.3,2.4-6.6c1.6-3.8,1.8-5.8,3.2-9.6c1-2.7,1.6-6.2,4.4-7.4c3.1-1.3,8.1-0.4,10.5,1c1.2,0.7,2.8,1.4,4,1.8c1.4,0.5,4.5,0,5.9-1.5c0.4-0.4,0.9-1.3,0.8-1.8C542.9,56.5,539.4,53.9,531,53.9z"/>
	<path d="M433.7,46.8c-0.6,0-2.3-1-14.8,3.8c-3.3,1.2-7.8,3.2-10.9,4.8c3.4-6.5,7.1-12.4,10.5-18.9c1.9-3.7,3.3-6.5,5.1-10.2c0.5-1,1.8-2.9,1.1-4.1c-0.7-1.2-6.5-2-7.4-1.3c-2.5,2.1-4.6,6.1-7.8,12c-4.5,8.4-6.8,12.4-7,12.7c-1.3,2.1-3.9,6.2-8.6,12.7c-5.6,7.7-10.7,14.4-12.2,16.5c-1.9,2.7-5,6.4-6.9,9.1c-0.8,1.2-4.2,5.2-1.4,6c1.8,0.5,6.6,0.6,8.2-0.4c2-1.3,4.7-6.7,6.1-8.6c6.5-9,12.1-14,18.5-17.3c5.8-3,14-6.3,23.2-7.5c0,0.1,0,0.2,0.1,0.3c0.2,1,0.2,1.4,0.2,1.5c0,1.8-1,5.8-5.8,14.8c-4.2,7.9-6.2,12-6.2,14.8c0,3.3,1.9,5.1,5.3,5.1c1.6,0,4.9-2,7.6-3.3c0.4-0.2,0.7-0.5,0.8-0.9c0.1-0.4,0-0.9-0.2-1.3c-0.9-1.4-1.4-2.9-1.4-4.4c0-1.1-0.4-2.1,4.7-11.1c4.2-7.4,6.3-12.6,6.3-15.8c0-3.3-1.1-6-3.3-8C436.5,47.2,435.3,46.8,433.7,46.8z"/>
	<path d="M371.6,77.6c-0.3-0.3-0.7-0.4-1.1-0.4l-1.9,0.1c-0.3,0-0.6,0.1-0.9,0.3l-0.5,0.4c-1.1-0.1-2.4,0.2-3.9,0.9c-1.8,0.7-2.9,1.1-2.9,1.1c-7.6,1.7-17,2.6-27.9,2.6c-4.5,0-8.4-0.7-11.4-2c-3.7-1.6-5.5-4-5.5-7.3c0-4.7,4.3-9.6,12.8-14.5c7.8-4.5,14.7-6.8,20.4-6.8c0.2,0,0.4,0.1,0.6,0.1c-3.8,4.9-4.2,6-4.2,6.9c0,1,0.4,2.4,2.2,3.5c1.2,0.7,2.5,1.1,3.8,1.1c2.8,0,5.2-2.2,7.5-6.9c1.8-3.7,2.7-6.7,2.7-9.2c0-2.3-1.5-4.4-4.5-6c-0.3-0.2-0.7-0.2-1-0.2c-6.1,1.3-12.6,3.2-19.2,5.9c-20.2,8-30,16.9-30,27.1c0,9.8,8.4,14.7,25,14.7c7.1,0,14.1-0.6,20.7-1.9c8.5-1.5,15-3.9,19.4-7c0.4-0.3,0.6-0.7,0.6-1.1c0-0.5-0.1-0.9-0.5-1.2L371.6,77.6z"/>
	<path d="M672.8,40.6c-0.1-0.1-0.2-0.2-0.4-0.2c-0.1,0-0.2-0.1-0.3-0.1v-0.1c-0.1-0.7-0.7-0.3-1.1-0.2c-0.5,0.2-0.6,0.9-0.8,1.3v0.1c-0.1,0.2-0.2,0.4-0.4,0.6c-0.1,0.1-0.1,0.1-0.2,0.2c-0.3,0.2-0.5,0.4-0.3,0.8c-0.6,0.3-0.8,0.7-1,1.2c0,0.1-0.1,0.2-0.1,0.3c-0.1,0.2-0.1,0.4-0.2,0.5c-0.1,0.4-0.3,0.8-0.5,1.1c-0.2,0.2-0.5,0.3-0.7,0.4c-0.2,0.1-0.5,0.2-0.7,0.4c-0.3,0.2-0.5,0.6-0.6,0.9c-0.1,0.3-0.3,0.5-0.5,0.7c-0.7,0.7-1.6,1.2-2.5,1.7c-0.2,0.1-0.4,0.2-0.6,0.3c-0.1,0.1-0.2,0.1-0.4,0.1c-0.1,0-0.2,0-0.4,0c-0.1,0-0.3,0.1-0.4,0.2c-0.1,0.1-0.2,0.1-0.3,0.2c-0.7,0.2-1.1,0.6-1.5,0.9c-0.2,0.2-0.5,0.3-0.7,0.5c-0.3,0.2-0.5,0.2-0.8,0.2c-0.2,0-0.3,0-0.6,0.1c-0.1,0-0.2,0.1-0.4,0.2c-0.2,0.1-0.5,0.3-0.8,0.3c-0.2,0-0.4-0.1-0.6-0.3c-0.2-0.1-0.3-0.2-0.5-0.3c-0.2,0-0.4-0.1-0.6-0.1c-0.1,0-0.3,0-0.4,0c-0.1,0-0.3,0-0.4,0h-0.4c-0.6,0-1.2,0-1.7-0.1c-0.4-0.1-0.5-0.1-0.7-0.3c-0.1-0.1-0.2-0.2-0.4-0.3c-0.1-0.1-0.3-0.2-0.4-0.2c-0.2-0.1-0.3-0.1-0.5-0.3c-0.1-0.1-0.1-0.3-0.1-0.6c0-0.2-0.1-0.5-0.1-0.6c-0.1-0.2-0.2-0.3-0.2-0.4c-0.4-0.7-0.6-1.1-0.5-2.2c0-0.2,0-0.3,0-0.5c0-0.5,0-1.1,0.1-1.6s0.3-0.8,0.5-1.1c0.1-0.1,0.3-0.3,0.4-0.5c0.3-0.4,0.4-0.9,0.5-1.3c0.2-0.6,0.4-1.2,1-1.7c0.2-0.2,0.3-0.5,0.3-0.8c0.1-0.3,0.1-0.7,0.4-0.9c0.2-0.2,0.5-0.3,0.8-0.3c0.5,0,0.8,0.3,0.8,0.8c0,0.2,0,0.3-0.1,0.5s-0.1,0.4-0.1,0.6s0,0.4,0.1,0.7c0,0.2,0.1,0.4,0.1,0.6s-0.1,0.5-0.2,0.7c-0.1,0.3-0.2,0.5-0.2,0.8s0.4,1.4,0.6,1.7c0.1,0.2,0.2,0.2,0.4,0.3c0.1,0.1,0.2,0.1,0.3,0.2c0.1,0.1,0.1,0.2,0.2,0.3c0.1,0.1,0.1,0.3,0.2,0.4c0.3,0.3,0.7,0.5,1.1,0.5c0.3,0,0.6-0.1,0.9-0.1c0.3-0.1,0.6-0.1,0.9-0.1h0.1c0.6,0,1.1,0,1.4-0.7c0-0.1,0.1-0.3,0.1-0.4c0-0.1,0-0.3,0.1-0.3c0.1-0.2,0.1-0.2,0.1-0.2s0,0,0.1,0s0.1,0,0.2,0c0.4,0,0.7-0.4,1-0.7c0.1-0.1,0.2-0.3,0.3-0.3c0.5-0.5,1-0.7,1.2-1.3c0.1-0.2,0.2-0.5,0.3-0.8s1-1.6,1.2-1.9c0.1-0.2,0.3-0.4,0.4-0.6c0.3-0.4,0.6-0.9,0.8-1.5c0-0.2,0-0.3,0-0.5s0-0.4,0.1-0.6c0-0.1,0.1-0.1,0.1-0.3c0.2-0.3,0.4-0.7,0.1-0.9s-0.9-0.2-1.2,0s-0.6,0.6-0.8,1l-0.1,0.2c-0.3,0.4-0.5,0.9-0.7,1.4c-0.1,0.2-0.1,0.4-0.2,0.5c-0.1,0.2-0.3,0.3-0.4,0.5c-0.1,0.2-0.2,0.5-0.3,0.7c-0.2,0.3-0.5,0.6-0.7,0.9s-0.3,0.7-0.6,1c-0.1,0.1-0.3,0.2-0.4,0.4c-0.1,0.1-0.1,0.3-0.2,0.5c-0.1,0.2-0.4,0.2-0.5,0.5c-0.2,0.5-0.5,0.9-0.8,1.3c-0.2,0.3-0.7,0.4-1.2,0.4s-0.8-0.1-1-0.4c-0.2-0.3-0.3-0.8-0.3-1.2c0-0.2,0-0.3-0.1-0.5c0,0,0-0.2-0.1-0.4c-0.3-1.6-0.3-2.1-0.4-2.3c0-0.2-0.1-0.5-0.1-0.8c-0.1-0.5-0.2-1.1-0.3-1.6s-0.4-0.6-0.7-0.7c-0.1,0-0.2-0.1-0.4-0.1c-0.1,0-0.2-0.1-0.2-0.2c-0.1-0.1-0.2-0.2-0.4-0.3s-0.5-0.1-0.7,0c-0.1,0-0.2,0-0.3,0s-0.1,0-0.2,0c0-0.1,0-0.2,0-0.2c0.2-0.5,0.3-1.2,0.6-1.6c0.3-0.4,0.5-0.8,0.7-1.3c0.3-1.1,0.2-2.2,0.4-3.3c0.1-0.6,0.2-1.3,0.2-1.9c0.4-0.3,0.3-0.3,0.1-0.5c-0.3-0.3-0.4-0.6-0.6-0.9c-0.4-0.5-0.9-0.6-1.5-0.4c-0.3,0.2-0.6,0.4-0.7,0.7c-0.1,0.3-0.2,0.6-0.3,0.9c-0.1,0.5,0.1,0.6,0.3,1s0.1,2-0.5,2.1c-0.1,0-0.6,0-0.7-0.1c-0.3-0.2-0.2-0.5-0.2-0.8c0-0.2-0.6-1.9-0.9-1.7c-0.3,0.3-0.9,0.5-1.4,0.5s-0.5,0-0.8,0.3c-0.4,0.3-0.8,0.6-1.1,1c-0.3,0.3-0.5,0.8-0.9,1.1c-0.4,0.4-0.7,0.7-0.8,1.3c-0.5-0.2-0.7,0.3-1-0.3c-0.1-0.3-0.1-0.3-0.4-0.4c-0.6-0.5-1-0.9-1.4-1.6c-0.3-0.4-0.6-1.1-1.1-1.4c-0.4-0.2-0.9-0.1-1.3-0.4c-0.4-0.3-0.4-0.3-0.9-0.4c-0.4,0-0.9,0-1.4,0c-1.1,0.2-0.9,2.1-1.2,2.8c-0.1,0.3-0.3,0.4-0.3,0.7c-0.1,0.6-0.2,1.3-0.2,1.8c0,0.4,0.2,0.8,0.2,1.2c0,0.3-0.3,0.5-0.3,0.8c0.1,0.4,0.6,0.5,0.7,0.8s0,0.6,0,0.9c0,0.2,0,0.4,0,0.6c0,0.3-0.1,0.3-0.2,0.6c-0.1,0.3-0.2,0.8-0.2,1.1c0,0.5,0.2,1.2,0.4,1.7c0.1,0.2,0.3,0.8,0.5,0.8c0.3,0.1,0.5-0.3,0.8-0.3c0,0.1,0.1,0.1,0.1,0.2c0.3,0.1,0.3-0.1,0.5-0.2c0.2-0.1,0.3-0.1,0.5-0.1c0.2-0.1,0.3-0.3,0.5-0.4c0.3-0.2,0.7-0.2,1-0.5c0.4-0.3,0.8-0.7,1.2-1.1c0.3-0.3,0.7-0.8,1-1s0.8-0.1,1-0.4c0.1-0.1,0-0.3,0-0.5c0.3-0.6,1.6-0.3,2-0.2c0.3,0.1,0.5,0.2,0.8,0.3c0.2,0.1,0.5,0.4,0.7,0.5c0.4,0.1,0.6,0.2,1,0.4c0.3,0.2,0.6,0,1,0c0.5,0,0.6,0.3,0.9,0.5c-0.1,0.3-0.2,0.6-0.3,1c0,0.1,0,0.3,0,0.4c0,0.2,0,0.5,0,0.6c0.4,0.4,0.2,0.4-0.1,0.5c-0.3,0-0.6,0.1-0.8,0.4s-0.2,0.8-0.2,1.2c0,0.3,0,0.7-0.1,0.9c0,0.1-0.1,0.2-0.2,0.2c-0.1,0.1-0.2,0.2-0.2,0.3c-0.1,0.3,0,0.6,0.1,0.8c0.1,0.1,0.1,0.3,0.1,0.4c0,0.4,0,0.9,0,1.3c0,0.5-0.1,0.9,0,1.4c0,0.1,0,0.2,0,0.3s0,0.2,0,0.3s0.1,0.2,0.1,0.3s0.1,0.2,0.1,0.2c0.1,0.2,0.1,0.5,0,0.7c0,0.3,0,0.6,0.1,1c0.2,0.4,0.7,0.8,1.1,1.2c0.1,0.1,0.3,0.2,0.4,0.3c0.2,0.2,0.4,0.3,0.6,0.5c0.3,0.2,0.6,0.5,0.8,0.7c0.5,0.5,0.7,0.5,1.1,0.5c0.1,0,0.3,0,0.5,0s0.3,0.1,0.5,0.1c0.2,0.1,0.5,0.1,0.8,0.1s0.5-0.1,0.7-0.1c0.2-0.1,0.4-0.1,0.7-0.1c0.1,0,0.3,0,0.4,0c0.2,0,0.3,0.1,0.5,0c0.1,0,0.3,0,0.4-0.1c0.2-0.1,0.4-0.1,0.7-0.1c0.1,0,0.3,0,0.4,0c0.2,0,0.3,0,0.4,0c0.1,0,0.1,0,0.2,0.1c0.1,0,0.1,0.1,0.2,0.1c0.2,0,0.2,0,0.3-0.1c0.2-0.2,0.5-0.4,0.8-0.5c0.2-0.1,0.4-0.1,0.5-0.2c0.4-0.1,0.7-0.2,1-0.5c0.5-0.4,1-0.6,1.7-0.8c0.2,0,0.4,0,0.6,0s0.4,0,0.6,0c0.4-0.1,3.5-1.7,3.5-1.9c0-0.4,0.2-0.5,0.6-0.6c0.2-0.1,0.4-0.1,0.6-0.3c0.1-0.1,0.2-0.3,0.2-0.4s0-0.2,0.1-0.3c0.1-0.2,0.3-0.4,0.6-0.7c0.2-0.2,0.4-0.4,0.5-0.6c0.1-0.2,0.3-0.4,0.4-0.6c0.4-0.7,0.9-1.4,1.6-1.9c0.1-0.1,0.3-0.2,0.5-0.3c0.4-0.2,0.7-0.4,0.9-0.7s0.2-0.6,0.2-1c0-0.2,0-0.3,0-0.4c0-0.2,0.1-0.3,0.2-0.5c0.1-0.1,0.1-0.2,0.2-0.3C672.9,41.7,673,40.9,672.8,40.6z M641.9,35.6c-0.2,0.3-0.3,0.3-0.4,0.4c-0.1,0.3,0,0.4-0.1,0.6c-0.2,0.2-0.7,0.1-1,0.1c-0.1-0.2,0-0.3-0.1-0.5c-0.1-0.1-0.3-0.2-0.4-0.3c-0.7-0.6-0.3-1.3-0.4-2.1c0-0.2-0.1-0.4-0.2-0.6c-0.2-0.2-0.4-0.1-0.5-0.2c-0.1-0.1,0-0.1-0.1-0.3s-0.5-1,0.1-0.9c0-0.2,0-0.5,0.3-0.5c0.1,0.2,0.2,0.5,0.3,0.7c0.1,0.1,0.2,0.1,0.3,0.2c0.1,0.1,0,0.3,0,0.5c0.1,0.4,0.3,0.3,0.4,0.5c0.1,0.2-0.2,0.4-0.1,0.6c0.1,0.1,0.5,0.4,0.6,0.5c0.3,0.2,0.6,0.2,0.9,0.4C641.7,34.9,642,35.4,641.9,35.6z M648.5,33.1c0.2-0.2,0.5-0.4,0.7-0.7c0.1-0.1,0.2-0.4,0.4-0.2c0.2,0.2,0.1,0.4,0.1,0.6c-0.1,0.4-0.2,0.9-0.2,1.2c0.1,0.4,0.2,0.6-0.1,0.7c-0.1,0-0.3-0.1-0.4,0c-0.1,0.1,0,0.3-0.1,0.4c-0.1,0.1-0.1,0.2-0.2,0.2c-0.2,0-0.4-0.3-0.4-0.4c-0.1-0.3-0.2-0.6-0.3-0.9C647.9,33.4,648.1,33.5,648.5,33.1z"/>
</svg>