<?xml version="1.0" encoding="utf-8"?>
<!-- Generator: Adobe Illustrator 19.0.0, SVG Export Plug-In . SVG Version: 6.00 Build 0)  -->
<svg version="1.1" id="圖層_1" xmlns="http://www.w3.org/2000/svg" xmlns:xlink="http://www.w3.org/1999/xlink" x="0px" y="0px" viewBox="0 0 100 25" style="enable-background:new 0 0 100 25;" xml:space="preserve">
	<path style="fill:#FFFFFF;" d="M45.4,16v5.2c0,0.6-0.5,1.1-1.1,1.1c-0.6,0-1.1-0.5-1.1-1.1V16c0-1.5-1.2-2.7-2.8-2.7c-1.5,0-2.7,1.2-2.7,2.7v5.2c0,0.6-0.5,1.1-1.1,1.1c-0.6,0-1.1-0.5-1.1-1.1V6.5c0-0.6,0.5-1.1,1.1-1.1c0.6,0,1.1,0.5,1.1,1.1v5.3c0.8-0.5,1.7-0.8,2.7-0.8C43.1,11,45.4,13.3,45.4,16z"/>
	<path style="fill:#FFFFFF;" d="M58.4,16.8v4.4c0,0.7-0.5,1.1-1.1,1.1c-0.5,0-1.1-0.5-1.1-1.1c-1,0.8-2.1,1.1-3.3,1.1c-3.2,0-5.7-2.4-5.7-5.6c0-3.2,2.5-5.7,5.7-5.7C56,11.1,58.4,13.6,58.4,16.8z M56.2,16.8c0-1.9-1.4-3.5-3.3-3.5s-3.5,1.6-3.5,3.5s1.6,3.3,3.5,3.3S56.2,18.7,56.2,16.8z"/>
	<path style="fill:#FFFFFF;" d="M70.4,16v5.2c0,0.6-0.5,1.1-1.1,1.1c-0.6,0-1.1-0.5-1.1-1.1V16c0-1.5-1.2-2.7-2.8-2.7c-1.5,0-2.7,1.2-2.7,2.7v5.2c0,0.6-0.5,1.1-1.1,1.1c-0.6,0-1.1-0.5-1.1-1.1V6.5c0-0.6,0.5-1.1,1.1-1.1c0.6,0,1.1,0.5,1.1,1.1v5.3c0.8-0.5,1.7-0.8,2.7-0.8C68.1,11,70.4,13.3,70.4,16z"/>
	<path style="fill:#FFFFFF;" d="M72.1,16.7c0-3.1,2.6-5.7,5.7-5.7c3.1,0,5.7,2.5,5.7,5.7c0,3.1-2.5,5.7-5.7,5.7C74.7,22.4,72.1,19.8,72.1,16.7z M74.3,16.7c0,1.9,1.5,3.4,3.4,3.4c1.9,0,3.4-1.6,3.4-3.4c0-1.9-1.5-3.4-3.4-3.4C75.9,13.3,74.3,14.8,74.3,16.7z"/>
	<path style="fill:#FFFFFF;" d="M99.9,12.6l-3.4,9c-0.2,0.4-0.6,0.7-1.1,0.7c-0.5,0-0.9-0.3-1.1-0.7l-2.3-6.3l-2.3,6.3c-0.2,0.4-0.6,0.7-1.1,0.7c-0.5,0-0.9-0.3-1.1-0.7l-3.4-9c-0.2-0.6,0.1-1.2,0.7-1.4c0.6-0.2,1.2,0.1,1.4,0.7l2.4,6.3l2.3-6.3c0.1-0.3,0.3-0.6,0.7-0.7c0.1,0,0.2-0.1,0.3-0.1h0h0h0h0h0h0h0h0c0,0,0,0,0,0h0h0c0,0,0,0,0,0h0c0,0,0,0,0,0c0.3,0.1,0.6,0.4,0.7,0.7l2.3,6.3l2.4-6.3c0.2-0.6,0.9-0.9,1.4-0.7C99.8,11.3,100.1,12,99.9,12.6z"/>
	<path style="fill:#FFFFFF;" d="M71.2,3C71.2,3,71.2,3,71.2,3L71.2,3C71.3,2.9,71.3,2.9,71.2,3l0-0.1c0,0,0,0,0,0l0-0.1c0,0,0,0,0,0c0,0,0-0.1,0-0.1c0,0,0,0,0-0.1c0,0,0,0,0,0c0,0,0,0,0,0c0,0,0,0,0,0c0,0,0,0-0.1,0c0,0-0.1,0-0.1,0h-1.4l0.3-1.8h-0.8l-0.3,1.8h-0.8v0.8h0.7l-0.5,2.6l1.3,1l-1.4,1.6h1l1-1.1l1.2,0.9V7.2l-0.7-0.5l0.6-3.4L71.2,3z M69,5.4l0.4-2.2h1l-0.5,2.9L69,5.4z"/>
	<path style="fill:#FFFFFF;" d="M75.9,4.2h-1.7V3.4l1-1.2l0.5-0.6c0,0,0,0,0,0c0-0.1,0.1-0.1,0.1-0.2c0-0.2-0.2-0.3-0.3-0.3c0,0,0,0,0,0H72v0.8h2.6l-1.2,1.4v0.9h-1.8V5h1.8v3h-0.9v0.8h1.3c0.2,0,0.3-0.2,0.3-0.4V5h1.7V4.2z M75.6,1.7C75.6,1.7,75.6,1.7,75.6,1.7C75.6,1.7,75.6,1.7,75.6,1.7C75.6,1.7,75.6,1.7,75.6,1.7L75.6,1.7z"/>
	<polygon style="fill:#FFFFFF;" points="98,2.6 98.9,4.2 99.8,4.2 98.9,2.6 "/>
	<polygon style="fill:#FFFFFF;" points="96.4,2.6 95.5,2.6 94.6,4.2 95.5,4.2 "/>
	<polygon style="fill:#FFFFFF;" points="99.4,1.3 97.5,1.3 97.5,0.5 96.7,0.5 96.7,1.3 94.8,1.3 94.8,2.1 99.4,2.1 "/>
	<polygon style="fill:#FFFFFF;" points="98.8,4.7 97.9,4.7 97.1,6 96.2,4.7 95.3,4.7 96.6,6.7 94.8,8.7 95.9,8.7 97.1,7.3 98.4,8.7 99.6,8.7 97.6,6.7 "/>
	<polygon style="fill:#FFFFFF;" points="95.1,5.8 94.1,4.1 93.7,4.1 93.7,3.1 94.5,3.1 94.5,2.3 93.7,2.3 93.7,0.7 92.9,0.7 92.9,2.3 91.8,2.3 91.8,3.1 92.9,3.1 92.9,3.2 92.9,3.2 91.7,6.5 92.5,6.5 92.9,5.3 92.9,5.3 92.9,8.8 93.7,8.8 93.7,5 94.2,5.8 "/>
	<path style="fill:#FFFFFF;" d="M85.1,1.1l-1,1c0,0,0,0,0,0c-0.1,0-0.1,0.1-0.2,0.1c-0.1,0-0.1,0-0.2-0.1c0,0,0,0,0,0l-1-1c0.1-0.3,0.4-0.5,0.8-0.2l0.4,0.4l0.5-0.5C84.6,0.6,85.1,0.8,85.1,1.1z"/>
	<path style="fill:#FFFFFF;" d="M85.1,2.5l-1,1c0,0,0,0,0,0c-0.1,0-0.1,0.1-0.2,0.1c-0.1,0-0.1,0-0.2-0.1c0,0,0,0,0,0l-1-1c0.1-0.3,0.4-0.5,0.8-0.2l0.4,0.4l0.5-0.5C84.6,2,85.1,2.2,85.1,2.5z"/>
	<path style="fill:#FFFFFF;" d="M87.7,3.8c0,0-0.1,0-0.1,0c-0.1,0-0.1,0-0.1,0h-0.2l0-0.1l0.2-2.5c0,0,0,0,0,0c0,0,0,0,0,0c0-0.2-0.2-0.4-0.4-0.4h-1.8v0.7h1.4l0,0.3h-1.1v0.5h1l0,0.5h-1v0.5h1l0,0.4h-5.3l0-0.4h0.9V2.8h-1l0-0.5h1V1.7h-1.1l0-0.3l1.2-0.4V0.3l-2,0.6l0.2,2.8l-0.8,0v1.5h0.7V4.5h6.7v0.8h0.7V4.2C87.9,4,87.9,3.9,87.7,3.8z"/>
	<path style="fill:#FFFFFF;" d="M87.4,6.3h-3.1V6.2l1.3-0.9c0,0,0.1-0.1,0.1-0.1c0,0,0.1-0.1,0.1-0.2c0-0.1-0.1-0.3-0.3-0.3H82v0.6h2.4L83.5,6v0.3h-3.2V7h3.2v1.1h-0.9v0.7h1.7V7h3.1V6.3z"/>
	<path style="fill:#FFFFFF;" d="M22.3,8.2c3.4-1.8,6.1-1.6,7.7-0.8c0,0-0.1-0.1-0.1-0.1L18.9,1.5c-2.2-1.1-4.7-1.1-6.9,0L1.2,7.3c-1.5,0.8-1.5,3,0,3.9L9,15.3C9,15.3,18.8,10,22.3,8.2z"/>
	<path style="fill:#FFFFFF;" d="M22.6,8.9c-2.3,1.2-4.8,2.5-6.3,3.3c0.2,0.1,0.4,0.2,0.6,0.3c0.9,0.5,5.2,2.8,5.2,2.8s6.2-3.3,7.8-4.1c0.9-0.5,1.3-1.6,1.1-2.5c-0.2-0.2-0.4-0.4-0.6-0.5C28.8,7.3,26,7.1,22.6,8.9z"/>
	<path style="fill:#FFFFFF;" d="M26,17.4l-3.9-2.1l-5.6,3l0,0c0,0-2.6,1.4-4.5,2.5c-1.9,1-5.6,0.2-6.9-0.6l6.8,3.6c2.3,1.2,5,1.2,7.3,0l6.8-3.6C27.1,19.6,27.1,18,26,17.4z"/>
	<path style="fill:#FFFFFF;" d="M5.1,20.1c-0.1,0-0.1-0.1-0.2-0.1C5,20.1,5.1,20.1,5.1,20.1z"/>
	<path style="fill:#FFFFFF;" d="M11.9,19.7c0.9-0.5,1.9-1,2.7-1.5C13.2,17.4,9,15.3,9,15.3s-2.8,1.5-3.9,2.1c-0.6,0.3-1.3,1.2-0.7,1.5C7.3,20.9,10,20.7,11.9,19.7z"/>
</svg>