<?xml version="1.0" encoding="utf-8"?>
<!-- Generator: Adobe Illustrator 21.0.0, SVG Export Plug-In . SVG Version: 6.00 Build 0)  -->
<svg version="1.1" id="圖層_1" xmlns="http://www.w3.org/2000/svg" xmlns:xlink="http://www.w3.org/1999/xlink" x="0px" y="0px"
	 viewBox="0 0 338 72" style="enable-background:new 0 0 338 72;" xml:space="preserve">
	<path d="M53.7,68.7v-36L39,68.7H28.8l-14.7-36v36H2.2V2h11.3l20.4,49.3L54.3,2h11.2v66.7H53.7z"/>
	<path d="M102.9,68.7V2h51.3v11.9h-38.6v14.5h37.4v11.9h-37.4v16.4h40v11.9H102.9z"/>
	<path d="M232.7,68.7l-29-44.6v44.6h-12.9V2h12.7l28.8,44.3V2h12.8v66.7H232.7z"/>
	<path d="M328.7,63c-4.8,4.6-11.4,7-19.5,7c-8.3,0-14.8-2.2-19.6-6.9c-4.8-4.5-7.2-10.9-7.2-19V2.1h12.7v42.7c0,4.2,1.2,7.5,3.8,9.8c2.5,2.4,6,3.5,10.2,3.5c4.2,0,7.6-1.1,10.2-3.5c2.4-2.4,3.7-5.7,3.7-9.8V2.1h12.7v42.1C335.8,52.2,333.4,58.5,328.7,63z"/>
</svg>