<?xml version="1.0" encoding="utf-8"?>
<!-- Generator: Adobe Illustrator 19.0.0, SVG Export Plug-In . SVG Version: 6.00 Build 0)  -->
<svg version="1.1" id="Object" xmlns="http://www.w3.org/2000/svg" xmlns:xlink="http://www.w3.org/1999/xlink" x="0px" y="0px" viewBox="0 22 100 52" style="enable-background:new 0 22 100 52;" xml:space="preserve">
	<path style="fill:#389E68;" d="M51,74V32.7c0-6.3-6.9-7.1-10.9-3.4L0,74L51,74z"/>
	<polygon style="fill:#258759;" points="100,74 54.9,24 50,32.7 50,74 "/>
	<path style="fill:#FFFFFF;" d="M43.5,29.2c0.2,0.3,0.3,0.7,0.4,1.1c0.1,2-1.1,4.4,0.2,5.8c0.9,1,2.6,0.8,3.7-0.1c0.7-0.7,1-1.7,1.6-2.5c0.2-0.3,0.3-0.4,0.6-0.7l0.3-5.6L50,22c-1.2,0-2.2,0.2-3.3,0.7c-0.4,0.2-0.8,0.4-1.1,0.7c-0.2,0.1-0.3,0.3-0.5,0.4l-4.9,5.4C41.4,29.2,42.7,28.4,43.5,29.2z"/>
	<path style="fill:#E7EEF1;" d="M50,22v10.8c0.5-0.4,1.2-0.7,1.8-0.4c0.9,0.4,1.2,1.5,1.9,2.2c1.1,1.1,3.4,0.3,3.6-1.3c0.1-0.4,0-0.9,0-1.3c0.2-1.3,1.9-2,3.1-1.3c0.1-0.1,0.2-0.2,0.2-0.3L54.9,24c-0.1-0.2-0.3-0.3-0.5-0.4c-0.3-0.3-0.7-0.5-1.1-0.7C52.3,22.2,51.2,22,50,22z"/>
</svg>