<?xml version="1.0" encoding="utf-8"?>
<!-- Generator: Adobe Illustrator 19.0.0, SVG Export Plug-In . SVG Version: 6.00 Build 0)  -->
<svg version="1.1" id="圖層_1" xmlns="http://www.w3.org/2000/svg" xmlns:xlink="http://www.w3.org/1999/xlink" x="0px" y="0px"
	 viewBox="0 0 68 100" style="enable-background:new 0 0 68 100;" xml:space="preserve">
	<path d="M11.3,73.5c2.9,0,5.6-1.1,7.6-2.9c2,1.8,4.7,2.9,7.6,2.9c2.9,0,5.6-1.1,7.6-2.9c2,1.8,4.7,2.9,7.6,2.9c1.4,0,2.7-0.2,3.9-0.7v15.9c0,6.2,5.1,11.3,11.3,11.3c6.2,0,11.3-5.1,11.3-11.3V34.1c0-18.7-15.3-34-34-34c-18.7,0-34,15.2-34,34l0,28.1C0,68.4,5.1,73.5,11.3,73.5L11.3,73.5z M7.4,34.1C7.4,19.4,19.3,7.4,34,7.4c14.7,0,26.6,11.9,26.6,26.6v54.6c0,2.1-1.7,3.9-3.9,3.9c-2.1,0-3.9-1.7-3.9-3.9V54.1c0-2-1.7-3.7-3.7-3.7c-2,0-3.7,1.7-3.7,3.7v8.1c0,2.1-1.7,3.9-3.9,3.9c-2.1,0-3.9-1.7-3.9-3.9v-8.1c0-2-1.7-3.7-3.7-3.7c-2,0-3.7,1.7-3.7,3.7v8.1c0,2.1-1.7,3.9-3.9,3.9c-2.1,0-3.9-1.7-3.9-3.9v-8.1c0-2-1.7-3.7-3.7-3.7c-2,0-3.7,1.7-3.7,3.7v8.1c0,2.1-1.7,3.9-3.9,3.9c-2.1,0-3.9-1.7-3.9-3.9V34.1z M7.4,34.1"/>
</svg>