<?xml version="1.0" encoding="utf-8"?>
<!-- Generator: Adobe Illustrator 19.0.0, SVG Export Plug-In . SVG Version: 6.00 Build 0)  -->
<svg version="1.1" id="圖層_1" xmlns="http://www.w3.org/2000/svg" xmlns:xlink="http://www.w3.org/1999/xlink" x="0px" y="0px"
	 viewBox="14 -14 128 128" style="enable-background:new 14 -14 128 128;" xml:space="preserve">
<style type="text/css">
	.st0{fill:#FFFFFF;}
	.st1{fill:#D80C18;}
	.st2{fill:#404952;}
</style>
<path d="M100.9-2v29.1H130V-2H100.9z M125.8,23H105V2.2h20.8V23z"/>
<rect x="59.3" y="2.2" width="4.2" height="4.2"/>
<rect x="109.2" y="6.3" width="12.5" height="12.5"/>
<rect x="34.3" y="6.3" width="12.5" height="12.5"/>
<rect x="59.3" y="14.6" width="4.2" height="4.2"/>
<rect x="63.4" y="18.8" width="4.2" height="4.2"/>
<path d="M55.1,27.1V-2H26v29.1H55.1z M30.2,2.2H51V23H30.2V2.2z"/>
<rect x="59.3" y="23" width="4.2" height="4.2"/>
<rect x="67.6" y="23" width="4.2" height="4.2"/>
<polygon points="88.4,23 92.6,23 92.6,27.1 88.4,27.1 88.4,31.3 96.7,31.3 96.7,18.8 92.6,18.8 92.6,14.6 96.7,14.6 96.7,10.5 
	92.6,10.5 92.6,6.3 96.7,6.3 96.7,2.2 80.1,2.2 80.1,6.3 84.2,6.3 84.2,10.5 88.4,10.5 88.4,18.8 84.2,18.8 84.2,27.1 88.4,27.1 "/>
<rect x="26" y="31.3" width="4.2" height="4.2"/>
<rect x="34.3" y="31.3" width="4.2" height="4.2"/>
<rect x="42.6" y="31.3" width="4.2" height="4.2"/>
<rect x="51" y="31.3" width="4.2" height="4.2"/>
<polygon points="75.9,35.4 80.1,35.4 80.1,39.6 84.2,39.6 84.2,43.8 88.4,43.8 88.4,35.4 84.2,35.4 84.2,27.1 80.1,27.1 80.1,10.5 
	75.9,10.5 75.9,-2 67.6,-2 67.6,6.3 63.4,6.3 63.4,14.6 67.6,14.6 67.6,18.8 75.9,18.8 75.9,27.1 71.8,27.1 71.8,31.3 75.9,31.3 "/>
<rect x="109.2" y="31.3" width="4.2" height="4.2"/>
<rect x="121.7" y="31.3" width="4.2" height="4.2"/>
<rect x="30.2" y="35.4" width="4.2" height="4.2"/>
<polygon points="125.8,39.6 117.5,39.6 117.5,43.8 121.7,43.8 121.7,52.1 125.8,52.1 125.8,56.2 117.5,56.2 117.5,60.4 121.7,60.4 
	121.7,64.6 125.8,64.6 125.8,60.4 130,60.4 130,47.9 125.8,47.9 125.8,43.8 130,43.8 130,35.4 125.8,35.4 "/>
<polygon points="100.9,39.6 105,39.6 105,35.4 96.7,35.4 96.7,43.8 100.9,43.8 "/>
<rect x="105" y="39.6" width="4.2" height="4.2"/>
<polygon points="34.3,47.9 34.3,43.8 30.2,43.8 30.2,39.6 26,39.6 26,52.1 30.2,52.1 30.2,47.9 "/>
<rect x="67.6" y="47.9" width="4.2" height="4.2"/>
<rect x="113.4" y="47.9" width="4.2" height="8.3"/>
<rect x="30.2" y="52.1" width="4.2" height="8.3"/>
<path d="M63.4,56.2H51v-4.2h12.5v-4.2h4.2v-4.2h-4.2v-4.2h4.2v4.2h8.3v-4.2h-4.2v-8.3h-8.3v4.2h-8.3v4.2H51v-4.2h-4.2v4.2h-4.2v-4.2
	h-4.2v12.5h-4.2v4.2h12.5v4.2h-8.3v4.2h4.2v8.3h4.2v-4.2H51v-4.2h8.3v4.2h4.2V56.2z M46.8,43.8h12.5v4.2H46.8V43.8z"/>
<rect x="105" y="56.2" width="4.2" height="4.2"/>
<rect x="26" y="60.4" width="4.2" height="4.2"/>
<polygon points="34.3,64.6 30.2,64.6 30.2,68.7 38.5,68.7 38.5,60.4 34.3,60.4 "/>
<rect x="67.6" y="60.4" width="4.2" height="4.2"/>
<rect x="51" y="64.6" width="4.2" height="4.2"/>
<rect x="121.7" y="68.7" width="8.3" height="8.3"/>
<path d="M26,72.9V102h29.1V72.9H26z M51,97.8H30.2V77H51V97.8z"/>
<rect x="80.1" y="72.9" width="4.2" height="4.2"/>
<rect x="100.9" y="72.9" width="4.2" height="4.2"/>
<rect x="71.8" y="77" width="4.2" height="4.2"/>
<rect x="34.3" y="81.2" width="12.5" height="12.5"/>
<path d="M117.5,64.6h-4.2v-4.2h-4.2v4.2H105v-4.2h-4.2v4.2h-4.2v-4.2h4.2v-4.2h4.2V43.8h-4.2v4.2h-4.2v-4.2h-4.2v4.2h-4.2v4.2h8.3
	v4.2h-4.2v4.2H80.1v-4.2h8.3v-4.2h-4.2v-8.3h-4.2v4.2h-4.2v4.2h-4.2v8.3h4.2v4.2h8.3v4.2h4.2V77h4.2v12.5h-8.3v4.2h-4.2v-4.2h4.2
	v-4.2h-4.2v-4.2h-4.2v4.2h-4.2v-4.2h-4.2V77h4.2v-4.2h4.2v-8.3h-4.2v4.2h-4.2v-4.2h-4.2v4.2h-4.2v4.2h4.2v8.3h-4.2v4.2h4.2v4.2h4.2
	v4.2h8.3v4.2h8.3v4.2h12.5V89.5h4.2v-4.2h4.2v4.2h4.2v8.3h8.3v-4.2h-4.2v-4.2h8.3v-4.2h-4.2V64.6z M96.7,81.2V68.7h12.5v12.5H96.7z"
	/>
<rect x="121.7" y="81.2" width="8.3" height="4.2"/>
<rect x="59.3" y="89.5" width="4.2" height="4.2"/>
<rect x="125.8" y="89.5" width="4.2" height="4.2"/>
<rect x="100.9" y="93.7" width="4.2" height="4.2"/>
<polygon points="121.7,102 130,102 130,97.8 125.8,97.8 125.8,93.7 121.7,93.7 "/>
<rect x="59.3" y="97.8" width="8.3" height="4.2"/>
<rect x="71.8" y="97.8" width="4.2" height="4.2"/>
<rect x="105" y="97.8" width="4.2" height="4.2"/>
<path class="st0" d="M103.7,51.4c0-0.2-0.1-0.3-0.2-0.5c0-0.1,0-0.1-0.1-0.2c-0.1-0.2-0.2-0.4-0.3-0.5c0-0.2-0.1-0.3-0.2-0.5
	c-0.1-0.1-0.1-0.2-0.2-0.3c0,0-0.1-0.1-0.1-0.1l-0.1-0.1c-0.2-0.3-0.4-0.5-0.6-0.7c-0.2-0.2-0.4-0.4-0.6-0.7l-0.2-0.2
	c-0.3-0.3-0.6-0.6-1-0.9l-0.1,0c-0.1-0.1-0.3-0.3-0.6-0.4c0,0,0,0,0,0c-0.1-0.1-0.2-0.2-0.3-0.3c-0.1-0.2-0.3-0.4-0.6-0.5
	c-0.1-0.1-0.2-0.1-0.3-0.2c-0.1,0-0.1-0.1-0.2-0.1c0,0-0.1-0.1-0.1-0.1L97.9,45c-0.3-0.2-0.5-0.3-0.7-0.3c0,0-0.1,0-0.1,0
	c-0.1,0-0.2-0.1-0.2-0.1c0-0.1-0.1-0.1-0.1-0.2c-0.2-0.2-0.5-0.3-0.7-0.4c-0.2-0.2-0.6-0.4-1.1-0.5c0,0-0.1,0-0.1,0l0,0
	c0,0-0.1,0-0.1-0.1c-0.2-0.1-0.4-0.2-0.6-0.2c-0.1,0-0.2-0.1-0.3-0.1c-0.1,0-0.2,0-0.2-0.1c-0.1-0.1-0.3-0.2-0.5-0.3
	c-0.3-0.1-0.5-0.1-0.7-0.1c-0.1,0-0.2,0-0.3,0c-0.1-0.1-0.2-0.1-0.3-0.2l-0.1-0.1c-0.1-0.1-0.3-0.2-0.6-0.2
	c-0.5-0.4-1.1-0.5-1.6-0.7c-0.1,0-0.1,0-0.1,0c-0.2-0.1-0.5-0.2-0.7-0.2c-0.5-0.2-0.9-0.3-1.4-0.4c-0.1,0-0.2,0-0.3-0.1
	c-0.1-0.1-0.2-0.2-0.4-0.2c-0.3-0.1-0.5-0.2-0.7-0.2c0,0,0,0,0,0c-0.5-0.2-1-0.4-1.6-0.4c-0.2,0-0.4-0.1-0.6-0.2
	c-0.3-0.1-0.7-0.2-1-0.2c-0.2,0-0.5-0.1-0.7-0.1c-0.3,0-0.6-0.1-0.8-0.1c0,0-0.1-0.1-0.2-0.1c-0.2-0.1-0.4-0.2-0.7-0.3l-0.1,0
	c-0.2,0-0.5-0.1-0.7-0.1c0,0-0.1,0-0.1,0l-0.1-0.1c-0.1,0-0.2,0-0.3-0.1c-0.1,0-0.2-0.1-0.3-0.1l-0.1,0c-0.2,0-0.4,0-0.5,0
	c0,0-0.1,0-0.1,0l-1.1-0.1c-0.1,0-0.2-0.1-0.3-0.1c-0.3-0.1-0.6-0.3-1-0.3l-1.2-0.1c0,0-0.2-0.1-0.2-0.1c-0.1-0.1-0.3-0.1-0.5-0.2
	c-0.2-0.1-0.5-0.1-0.6-0.1c-0.2,0-0.3-0.1-0.4-0.1l-0.1,0c-0.1,0-0.2-0.1-0.2-0.1c-0.2-0.1-0.6-0.3-1.1-0.3l0,0c0,0,0,0,0,0
	l-0.3-0.3l-0.4,0c-1-0.1-1.9,0.1-2.7,0.5c-0.2,0.1-0.3,0.1-0.5,0.2c-0.1,0.1-0.2,0.1-0.3,0.2l-0.5,0.2l-0.1,0.1
	c-0.4,0.3-0.5,0.7-0.6,1.2l0,0.2c-0.1,0.3-0.1,0.7,0,1c0.1,0.2,0.2,0.3,0.3,0.4c0,0,0,0.1,0,0.1l0,0.1l0.1,0.1c0,0,0,0.1,0,0.1
	c0.1,0.2,0.2,0.4,0.4,0.6c0.1,0.1,0.2,0.2,0.3,0.2c0.2,0.3,0.5,0.5,0.7,0.6c0,0,0,0,0,0l0.1,0.1l0.1,0.1c0.1,0.1,0.2,0.2,0.3,0.2
	c0.2,0.2,0.4,0.4,0.6,0.5c0.2,0.1,0.3,0.2,0.4,0.2c0.2,0.2,0.3,0.2,0.4,0.2l0.1,0.1l0.6,0.1c0.1,0,0.1,0,0.2,0
	c0.1,0,0.1,0.1,0.2,0.1c0.1,0,0.2,0.1,0.3,0.1c0.1,0.1,0.1,0.1,0.2,0.2l0.1,0.1c0.2,0.1,0.5,0.1,0.7,0.1c0.4,0,0.7,0,1,0
	c0.1,0,0.2,0.1,0.3,0.1c0.2,0.1,0.4,0.2,0.6,0.2c0.3,0.1,0.6,0.1,0.8,0.1c0.1,0,0.2,0,0.3,0c0.1,0,0.2,0,0.3,0.1c0,0,0,0.1,0,0.1
	c0,0.1-0.1,0.3-0.1,0.4c0,0.1,0,0.2-0.1,0.3c-0.1,0.1-0.1,0.2-0.2,0.2l-0.1,0.1c-0.1,0.2-0.2,0.3-0.3,0.5l-0.3,0.5
	c-0.1,0.2-0.2,0.4-0.2,0.5c-0.1,0.1-0.2,0.3-0.2,0.5c0,0.1,0,0.1,0,0.2c-0.1,0.1-0.2,0.1-0.4,0.3c-0.2,0.2-0.3,0.4-0.4,0.5
	c-0.1,0.1-0.2,0.2-0.3,0.3c-0.1,0-0.1,0.1-0.2,0.1l-0.1,0.1l-0.1,0.2c0,0,0,0.1,0,0.1c0,0-0.1,0.1-0.1,0.1c-0.1,0-0.1,0.1-0.2,0.1
	c-0.1,0.1-0.2,0.3-0.3,0.4c-0.1,0.1-0.2,0.2-0.3,0.3c0,0.1-0.1,0.1-0.1,0.2c-0.1,0.1-0.3,0.2-0.4,0.3c-0.1,0.1-0.1,0.1-0.2,0.3
	c-0.1,0-0.1,0-0.1,0.1c-0.2,0-0.4,0.1-0.6,0.2c-0.1,0-0.1,0.1-0.1,0.1c-0.1,0-0.3,0-0.5,0.1c0,0-0.1,0-0.1,0
	c-0.2-0.1-0.4-0.2-0.7-0.4l-0.1-0.1c-1.1-0.6-1.9-0.2-2.3,0.2c-0.4,0.4-0.7,0.8-0.8,1.2l0,0c-0.1,0.3-0.2,0.6-0.2,0.8c0,0,0,0,0,0
	c0,0-0.1,0.1-0.1,0.1c-0.2,0.4-0.2,0.7-0.2,0.9l0,0c-0.1,0.3-0.1,0.6-0.1,0.8c0,0.6,0.1,1.1,0.2,1.6l0,0.1c0,0.1,0.1,0.2,0.1,0.2
	c0.1,0.3,0.2,0.7,0.4,1c0.2,0.3,0.5,0.6,0.7,0.7c0,0,0,0,0.1,0.1c0.2,0.4,0.5,0.6,0.7,0.7c0.1,0,0.1,0.1,0.2,0.1l0.1,0.1
	c0.2,0.1,0.4,0.2,0.5,0.2c0.1,0.1,0.2,0.1,0.3,0.2l0.3,0.3h0.3c0,0,0,0,0.1,0c0.1,0,0.2,0.1,0.3,0.1c0.1,0.1,0.4,0.3,0.6,0.3
	c0.2,0,0.3,0.1,0.5,0.1c0.1,0,0.1,0,0.2,0c0.4,0.3,1,0.4,1.4,0.4c0.1,0,0.1,0,0.2,0l0.1,0c0.5,0,0.9,0.1,1.4,0.2l0.1,0
	c0,0,0.1,0,0.1,0c0.2,0,0.4,0.1,0.7,0.1c0.1,0,0.1,0,0.2,0c-0.1,0.1-0.1,0.3-0.1,0.5c0,0.2-0.1,0.5-0.1,0.9c0,0.1,0,0.2,0,0.3
	c0,0.1-0.1,0.3-0.1,0.4v0.1l0,0.1c0.1,0.2,0.1,0.4,0.2,0.5l0,0c-0.1,0.2-0.1,0.5-0.1,0.8c0,0.4,0.2,0.9,0.3,1.2
	c0.1,0.2,0.3,0.6,0.7,0.8c0.1,0.1,0.3,0.1,0.5,0.1c0.1,0,0.2,0,0.3,0c0.2,0,0.5,0,0.7-0.1h0.1l0.2-0.1c0.1-0.1,0.2-0.1,0.3-0.2
	c0.1,0,0.3-0.1,0.5-0.2l0.1,0c0.2-0.2,0.5-0.4,0.6-0.6c0,0,0.1-0.1,0.1-0.1c0,0,0,0,0,0c0.1,0,0.3-0.1,0.5-0.3
	c0.1,0,0.1,0.1,0.2,0.1l0.1,0.1l0.1,0c0.3,0.2,0.5,0.2,0.7,0.2c0,0,0,0,0,0c0,0,0.1,0.1,0.2,0.1l0.1,0c0.6,0.2,1.1,0,1.4-0.1
	c0,0,0,0,0.1,0c0.9,0,1.1-0.7,1.3-1.5c0-0.1,0.1-0.2,0.1-0.3c0-0.1,0.1-0.2,0.1-0.3c0-0.1,0-0.1,0.1-0.2c0.1-0.2,0.3-0.4,0.4-0.8
	c0.1-0.4,0.1-0.8,0.1-1.2c0-0.1,0-0.2,0-0.4c0-0.1,0-0.3,0-0.4c0-0.1,0-0.2,0-0.3c0.1-0.4,0-0.9-0.4-1.2l0,0c0-0.1-0.1-0.1-0.1-0.2
	l-0.1-0.1c-0.2-0.2-0.4-0.4-0.6-0.5c0,0,0.1-0.1,0.1-0.1c0,0,0.1,0,0.1,0c0.5-0.1,0.9-0.5,1.1-0.6c0,0,0,0,0,0
	c0.2-0.1,0.3-0.1,0.5-0.3c0,0,0,0,0,0c0.3-0.1,0.5-0.3,0.6-0.4c0,0,0,0,0.1-0.1l0,0c0.1-0.1,0.5-0.2,0.7-0.6
	c0.2-0.1,0.3-0.3,0.4-0.6c0,0,0,0,0.1,0c0.3-0.2,0.8-0.4,1-0.9l0-0.1c0.1-0.1,0.2-0.1,0.3-0.2l0.1-0.1l0.1-0.2c0-0.1,0-0.1,0.1-0.2
	c0.2-0.1,0.4-0.2,0.6-0.5l0.1-0.1C89,54.1,89,54,89,53.9c0-0.1,0.1-0.1,0.1-0.2c0-0.1,0.1-0.2,0.1-0.2c0.2-0.1,0.3-0.2,0.3-0.3
	c0.1-0.1,0.2-0.2,0.3-0.3c0.1,0,0.1-0.1,0.2-0.2c0.1-0.1,0.1-0.2,0.2-0.2c0.1-0.1,0.2-0.2,0.4-0.4c0.1-0.2,0.2-0.4,0.2-0.6
	c0,0,0-0.1,0.1-0.1l0.2-0.1l0.2-0.3c0.1-0.2,0.1-0.3,0.2-0.4c0,0,0.1-0.1,0.1-0.2c0,0,0.1-0.1,0.1-0.1c0,0,0.1,0.1,0.1,0.1l0.3,0.3
	h0.3c0,0,0,0,0,0c0,0,0,0,0,0c0,0,0.1,0.1,0.2,0.2c0,0.1,0.1,0.1,0.1,0.2c0.1,0.3,0.4,0.5,0.6,0.6c0.1,0.1,0.2,0.2,0.3,0.3
	c0,0.1,0.1,0.2,0.2,0.2l0.1,0.1l0.2,0.1c0,0,0,0,0.1,0c0,0,0,0,0,0l0.1,0.1l0.1,0.1c0.1,0.1,0.2,0.2,0.3,0.2l0.1,0.1
	c0.2,0.2,0.5,0.3,0.6,0.4l0.1,0c0.1,0,0.3,0.1,0.4,0.1l0.1,0.1c0.2,0.2,0.5,0.3,0.7,0.3l0.1,0.1l0.1,0.1c0.2,0.1,0.3,0.2,0.5,0.2
	c0.1,0.1,0.3,0.3,0.6,0.3c0.4,0.3,1,0.4,1.4,0.5l0.2,0c0,0,0.1,0,0.1,0c0.2,0,0.4,0,0.7,0c0.2,0,0.3-0.1,0.4-0.2
	c0.1,0,0.3,0,0.4-0.1c0.2,0,0.3-0.1,0.4-0.2c0.5,0,0.7-0.3,0.9-0.4c0,0,0,0,0.1,0c0.2-0.1,0.5-0.3,0.8-0.7c0.1-0.1,0.3-0.5,0.4-1
	c0-0.1,0-0.2,0-0.3C103.7,51.9,103.8,51.6,103.7,51.4z M78.8,61.2c0,0-0.1,0.1-0.1,0.1c0,0,0,0,0,0c-0.1-0.1-0.1-0.2-0.2-0.3h0.3
	l0.1-0.1h0.3C79,61,78.9,61.1,78.8,61.2z"/>
<path class="st1" d="M83,60.9C83,60.9,83,60.8,83,60.9c-0.1-0.1-0.2-0.2-0.2-0.4c-0.2-0.2-0.3-0.2-0.6-0.1c-0.1,0-0.2,0.2-0.3,0.3
	c0,0.1-0.1,0.2-0.1,0.3c0,0.2,0,0.2,0.1,0.4c0.1,0.2,0,0.8-0.2,0.9c0,0-0.2,0-0.2,0c-0.1-0.1-0.1-0.2-0.1-0.3c0-0.1-0.2-0.8-0.4-0.7
	c-0.1,0.1-0.4,0.2-0.5,0.2c-0.2,0-0.2,0-0.3,0.1c-0.2,0.1-0.3,0.2-0.5,0.4c-0.1,0.1-0.2,0.3-0.4,0.5c-0.2,0.2-0.3,0.2-0.3,0.5
	c-0.2-0.1-0.3,0.1-0.4-0.1c0-0.1,0-0.1-0.1-0.2c-0.2-0.2-0.4-0.4-0.5-0.6c-0.1-0.2-0.2-0.5-0.5-0.5c-0.2-0.1-0.3,0-0.5-0.1
	c-0.2-0.1-0.2-0.1-0.3-0.2c-0.2,0-0.4,0-0.5,0c-0.5,0.1-0.3,0.8-0.5,1.1c0,0.1-0.1,0.2-0.1,0.3c0,0.2-0.1,0.5-0.1,0.7
	c0,0.2,0.1,0.3,0.1,0.5c0,0.1-0.1,0.2-0.1,0.3c0,0.2,0.2,0.2,0.3,0.3c0,0.1,0,0.2,0,0.3s0,0.2,0,0.2c0,0.1,0,0.1-0.1,0.2
	c0,0.1-0.1,0.3-0.1,0.4c0,0.2,0.1,0.5,0.2,0.7c0,0.1,0.1,0.3,0.2,0.3s0.2-0.1,0.3-0.1c0,0,0,0,0,0.1c0.1,0,0.1,0,0.2-0.1
	c0.1,0,0.1,0,0.2,0c0.1,0,0.1-0.1,0.2-0.2c0.1-0.1,0.3-0.1,0.4-0.2c0.2-0.1,0.3-0.3,0.5-0.5c0.1-0.1,0.2-0.3,0.4-0.4
	c0.1-0.1,0.3,0,0.4-0.2c0,0,0-0.1,0-0.2c0.1-0.2,0.6-0.1,0.8-0.1c0.1,0,0.2,0.1,0.3,0.1s0.2,0.2,0.3,0.2c0.2,0,0.2,0.1,0.4,0.2
	c0.1,0.1,0.2,0,0.4,0c0.2,0,0.2,0.2,0.4,0.2c0.3,0.1,0.6-0.2,1-0.2c0,0,0.3-1,0.3-1c0.1-0.2,0.1-0.5,0.2-0.7
	c0.1-0.2,0.2-0.3,0.3-0.5c0.1-0.4,0.1-0.9,0.1-1.3c0-0.2,0-0.5,0.1-0.8C83.1,60.9,83.1,60.9,83,60.9 M78.2,64.2L78.2,64.2
	c0,0.1,0,0.2,0,0.2c-0.1,0.1-0.3,0-0.4,0c0-0.1,0-0.1,0-0.2c0,0-0.1-0.1-0.2-0.1c-0.3-0.2-0.1-0.5-0.2-0.8c0-0.1,0-0.2-0.1-0.2
	c-0.1-0.1-0.1,0-0.2-0.1c0,0,0,0,0-0.1c0-0.1-0.2-0.4,0-0.3c0-0.1,0-0.2,0.1-0.2c0,0.1,0,0.2,0.1,0.2c0,0,0.1,0,0.1,0.1
	c0,0,0,0.1,0,0.2c0,0.2,0.1,0.1,0.2,0.2c0,0.1-0.1,0.2,0,0.2c0,0,0.2,0.2,0.2,0.2c0.1,0.1,0.2,0.1,0.4,0.2
	C78.2,63.9,78.4,64.1,78.2,64.2C78.3,64.1,78.2,64.1,78.2,64.2 M81.4,63.6c0,0-0.1,0-0.2,0c0,0,0,0.1,0,0.2c0,0,0,0.1-0.1,0.1
	c-0.1,0-0.1-0.1-0.2-0.2c0-0.1-0.1-0.2-0.1-0.4c0-0.2,0-0.2,0.2-0.3c0.1-0.1,0.2-0.2,0.2-0.3c0,0,0.1-0.2,0.2-0.1c0,0.1,0,0.2,0,0.2
	c0,0.2-0.1,0.3,0,0.5C81.5,63.5,81.5,63.6,81.4,63.6"/>
<path class="st2" d="M93.2,49.8c0.2,0.2,0.4,0.4,0.6,0.6c0.1,0.1,0,0.2,0.3,0.3c0,0,0.1,0,0.2,0c0,0,0,0.1,0,0.2
	c0.1,0.1,0.2,0.1,0.3,0.2s0,0.2,0.1,0.3c0.1,0,0.2,0,0.3,0.1c0.1,0.1,0.1,0.2,0.2,0.3c0.1,0.1,0.2,0,0.3,0.1c0.1,0,0.1,0.2,0.1,0.2
	c0.1,0.1,0.2,0.1,0.2,0.1c0.2,0.1,0.5,0.2,0.7,0.3c0.1,0.1,0.3,0.2,0.5,0.2c0.2,0,0.2,0.1,0.4,0.2c0.1,0.1,0.1,0,0.3,0
	c0.2,0,0.2,0.3,0.5,0.3s0.2,0,0.4,0.2c0.2,0.2,0.7,0.2,1,0.3c0.2,0,0.4,0,0.6,0c0.2,0,0.3-0.2,0.5-0.2c0.1,0,0.1,0,0.2,0
	c0.2,0,0.2-0.2,0.4-0.3c0.1,0,0.1,0,0.2,0s0.1,0,0.2-0.1c0.2-0.2,0.5-0.2,0.6-0.5c0.1-0.1,0.2-0.4,0.2-0.5s0-0.2,0-0.3
	c0-0.1,0.1-0.2,0-0.2c0-0.2-0.2-0.2-0.2-0.4c0-0.1,0-0.1,0-0.2s-0.1-0.1-0.2-0.1s-0.1-0.1-0.1-0.2c0-0.2,0-0.3-0.1-0.5
	c-0.1-0.1-0.2-0.2-0.3-0.4c-0.2-0.2-0.4-0.4-0.5-0.6c-0.3-0.3-0.5-0.6-0.7-0.9c-0.3-0.3-0.6-0.6-0.9-0.8c-0.1-0.1-0.2-0.2-0.4-0.3
	c-0.2-0.1-0.2,0-0.3-0.2C98.7,47,98.7,47,98.5,47c-0.1-0.2-0.2-0.4-0.4-0.5c-0.2-0.1-0.4-0.2-0.6-0.3c-0.1-0.1-0.1-0.1-0.2-0.2
	c-0.2-0.1-0.4-0.2-0.6-0.2c-0.2-0.1-0.4-0.1-0.6-0.2c-0.1,0,0-0.2-0.1-0.2c-0.1-0.1-0.4,0-0.5-0.1c0-0.4-0.8-0.4-1-0.5
	c-0.2-0.1-0.4-0.2-0.6-0.2c-0.2-0.1-0.5-0.1-0.8-0.2c-0.1,0-0.2-0.2-0.3-0.2s-0.3,0-0.4,0c-0.2,0-0.5-0.1-0.8-0.1
	c0-0.2,0-0.2-0.2-0.2c-0.1,0-0.2-0.1-0.3-0.1c0,0-0.4,0-0.4,0c0-0.4-1.2-0.7-1.5-0.7c-0.7-0.2-1.4-0.5-2.1-0.7c-0.1,0-0.3,0-0.4,0
	c-0.2-0.1-0.2-0.2-0.4-0.3s-0.4-0.1-0.5-0.1c-0.5-0.2-0.9-0.3-1.4-0.4c-0.6-0.1-1.1-0.3-1.7-0.4c-0.5-0.1-1.1-0.1-1.6-0.2
	c-0.3-0.1-0.6-0.3-1-0.4c-0.2,0-0.5,0-0.7,0s-0.2-0.1-0.4-0.2c-0.1,0-0.2,0-0.3-0.1c-0.1,0-0.1-0.1-0.2-0.1c-0.2,0-0.4,0-0.6,0
	c-0.3,0-0.7-0.1-1-0.1c-0.5-0.1-0.8-0.4-1.2-0.4c-0.4,0-0.8-0.1-1.2-0.1c-0.3,0-0.6-0.2-0.9-0.3c-0.4-0.1-0.8-0.1-1.2-0.3
	c-0.4-0.1-0.6-0.3-1-0.4c-0.1,0-0.2,0-0.4-0.1c-0.1,0-0.2-0.2-0.3-0.2c-0.7-0.1-1.5,0-2.1,0.4c-0.3,0.1-0.6,0.3-0.9,0.4
	c-0.1,0-0.2,0.1-0.4,0.1c-0.2,0.1-0.1,0.3-0.1,0.5c0,0.1,0,0.2,0,0.3c0,0.1-0.1,0.1,0,0.2c0,0.1,0.2,0.1,0.2,0.2
	c0.1,0.1,0.2,0.3,0.2,0.4c0.1,0.1,0.2,0.4,0.2,0.5c0.1,0.1,0.2,0,0.3,0.1c0.1,0,0.1,0.2,0.2,0.2c0.1,0.2,0.3,0.2,0.5,0.3
	c0.2,0.1,0.1,0.2,0.2,0.3c0,0,0,0,0.1,0c0.1,0,0.2,0.1,0.2,0.2s0,0.2,0.2,0.2c0,0,0.1,0,0.1,0c0,0,0.1,0.1,0.1,0.1
	c0.1,0.1,0.2,0.1,0.3,0.1c0.1,0,0.2,0.1,0.2,0.2c0,0,0.1,0,0.2,0.1c0.2,0,0.3,0.1,0.5,0.1c0.1,0,0.2,0,0.3,0.1
	c0.1,0,0.1,0.1,0.2,0.2s0.2,0,0.3,0.1c0.1,0,0.1,0.1,0.2,0.2c0.1,0,0.3,0.1,0.5,0.1c0.3,0,0.7,0,1,0c0.4,0,0.8,0.3,1.2,0.4
	c0.3,0.1,0.7,0.1,1,0.1c0.2,0,0.5,0.1,0.7,0.1c0.1,0,0.3,0.1,0.4,0.1c0.2,0.1,0.1,0.1,0.2,0.3c0,0.1,0.1,0,0.1,0.1
	c0.1,0.2,0,0.5-0.1,0.6c0,0.2-0.1,0.4-0.2,0.6c0,0.2,0,0.3-0.1,0.5c-0.1,0.2-0.2,0.3-0.4,0.5c-0.1,0.2-0.2,0.4-0.4,0.6
	c-0.1,0.1-0.2,0.2-0.2,0.4c-0.1,0.1,0,0.3-0.1,0.4c0,0.1-0.1,0.1-0.1,0.2c0,0.1,0,0.3,0,0.4s-0.2,0.3-0.3,0.4
	c-0.1,0.1-0.3,0.2-0.5,0.3C74,49.4,74,49.5,74,49.6s-0.2,0.2-0.3,0.3c0,0.1,0,0.1,0,0.2c0,0-0.2,0-0.2,0.1c0,0.1,0,0.1,0,0.2
	c0,0-0.1,0.1-0.2,0.1c-0.1,0.1-0.1,0.2-0.1,0.3c0,0-0.2,0-0.2,0s0,0.2-0.1,0.3c-0.1,0-0.2,0.1-0.3,0.2s-0.1,0.3-0.2,0.4
	c0,0.1-0.1,0.1-0.2,0.1c-0.1,0-0.2,0.1-0.3,0.2c0,0-0.2,0.5-0.2,0.5c-0.1,0-0.2,0-0.3,0c0,0-0.2,0.2-0.2,0.2c-0.1,0-0.3,0-0.4,0
	c-0.1,0-0.1,0.2-0.2,0.2c-0.2,0.1-0.5,0-0.7,0.1c0,0,0,0-0.1,0.1c-0.1,0-0.4-0.1-0.5-0.2c-0.3-0.1-0.6-0.3-0.9-0.5
	c-0.4-0.2-0.7-0.3-1,0c-0.2,0.2-0.4,0.5-0.5,0.8c-0.1,0.3-0.1,0.6-0.2,0.9c0,0.1-0.1,0.1-0.2,0.2c-0.1,0.1,0,0.4,0,0.5
	c0,0.2,0,0.4,0,0.6c0,0.4,0,0.8,0.2,1.2c0.1,0.3,0.2,0.7,0.4,1c0.2,0.3,0.5,0.5,0.7,0.7c0.1,0.1,0,0.2,0.2,0.3c0.1,0,0.2,0,0.2,0
	c0.1,0,0.2,0.1,0.2,0.2c0.1,0.1,0.3,0,0.5,0.1c0.1,0,0.1,0.2,0.2,0.2c0,0,0.1,0,0.2,0c0.1,0,0,0.1,0.1,0.2c0,0,0.2,0,0.2,0
	c0.1,0,0.2,0.1,0.4,0.1c0.2,0,0.3,0.3,0.5,0.3c0.3,0.1,0.6,0.1,0.9,0.2c0.1,0,0.1,0,0.2,0.1c0.2,0.2,0.8,0.2,1.1,0.2
	c0.5,0,1,0.1,1.5,0.2c0.2,0,0.4,0.1,0.7,0.1c0.2,0,0.5-0.1,0.7-0.2c0.1,0,0.2-0.1,0.4-0.1c0.1,0,0.3,0,0.4,0c0,0,0.1,0,0.1-0.1
	c0,0,0,0,0.1,0c0.1,0,0.2,0,0.4-0.1c0.1,0,0.2-0.1,0.3-0.1c0.1,0,0.2,0,0.4,0c0.1,0,0.2-0.2,0.4-0.2s0.4,0,0.5-0.1
	c0.1,0,0.2,0,0.2,0c0,0,0.1-0.1,0.2-0.1c0,0,0,0,0.1,0c0,0,0.1,0,0.2,0c0,0,0.1,0,0.1,0c0,0,0.1,0,0.1,0c0.1,0,0.2,0,0.2,0
	c0.1,0,0.2,0,0.3,0c0.2,0,0.5-0.1,0.7-0.2c0.2,0,0.3-0.1,0.4-0.2c0-0.1,0.1-0.1,0.1-0.2c0.1-0.1,0.2,0,0.3-0.1
	c0.1,0,0.1-0.1,0.2-0.1s0.1,0,0.2,0c0.1,0,0.1,0,0.2-0.1c0.1-0.1,0.4,0,0.5-0.1c0.2-0.1,0.2-0.2,0.4-0.4c0.2-0.2,0.3-0.1,0.5-0.2
	c0.2,0,0.4-0.2,0.5-0.3c0.1-0.1,0.1-0.2,0.2-0.2c0.1-0.1,0.2,0,0.2,0c0.1,0,0.1-0.1,0.2-0.2c0.1,0,0.1,0,0.2-0.1
	c0.2-0.1,0.3-0.2,0.5-0.4c0.1-0.1,0.4-0.2,0.5-0.4c0-0.2,0-0.1,0.2-0.2c0.1-0.1,0.1-0.2,0.1-0.3c0.1-0.1,0.2-0.2,0.4-0.3
	c0.1-0.1,0.5-0.2,0.6-0.4c0-0.2,0.1-0.4,0.2-0.5c0.1-0.1,0.2-0.1,0.4-0.2c0-0.1,0-0.2,0.1-0.2c0-0.1,0.1-0.2,0.2-0.3
	c0.1-0.1,0.3-0.1,0.4-0.2c0-0.1,0-0.2,0.1-0.3c0-0.1,0.1-0.2,0.2-0.2c0-0.1,0-0.2,0.1-0.3c0.1-0.2,0.2-0.3,0.4-0.4
	c0.1,0,0.1-0.1,0.1-0.1c0-0.1,0.2-0.1,0.2-0.2c0-0.1,0-0.1,0.1-0.2c0.1-0.1,0.2-0.1,0.2-0.2c0,0,0-0.1,0.1-0.2
	c0.1-0.1,0.2-0.2,0.3-0.3s0.1-0.3,0.1-0.5c0-0.1,0.1-0.1,0.1-0.1c0,0,0.1,0,0.1-0.1s0-0.1,0-0.1c0-0.1,0.2-0.1,0.3-0.2
	c0.1-0.2,0.1-0.4,0.2-0.5c0-0.1,0.2-0.1,0.2-0.2c0.1-0.1,0-0.2,0.1-0.3c0-0.1,0.1-0.1,0.2-0.2c0.2-0.1,0.3-0.5,0.5-0.5
	c0.1,0,0.3,0.2,0.4,0.2c0.2,0.1,0.2,0.3,0.4,0.4c0.1,0.1,0.2,0.2,0.2,0.2c0,0,0.1,0,0.1,0C92.9,49.7,93.1,49.7,93.2,49.8 M92.7,47.8
	c-0.1-0.2-0.3-0.3-0.4-0.5s-0.2-0.4-0.3-0.5c0,0-0.2-0.2-0.3-0.2s-0.2,0.1-0.4,0.2c-0.2,0.1-0.3,0.1-0.4,0.3
	c-0.1,0.3-0.2,0.6-0.2,0.9c-0.1,0.2-0.2,0.4-0.2,0.6c-0.1,0.2-0.2,0.3-0.4,0.5C90,49.2,90,49.3,90,49.5c0,0.2-0.2,0.2-0.3,0.3
	c0,0,0,0.1-0.1,0.2c-0.1,0.1-0.2,0.1-0.2,0.2c-0.1,0.1-0.1,0.2-0.1,0.4c-0.1,0.1-0.1,0.1-0.2,0.2c-0.2,0.1-0.2,0.4-0.3,0.5
	c-0.1,0.1-0.2,0.1-0.2,0.2c0,0,0,0.1,0,0.2c0,0-0.1,0-0.1,0c-0.1,0.1-0.1,0-0.1,0.2c-0.1,0.2-0.2,0.1-0.3,0.3
	c-0.1,0.1-0.1,0.2-0.2,0.3c-0.1,0.2-0.3,0.3-0.4,0.5c-0.1,0.2-0.2,0.3-0.3,0.5c-0.1,0.1-0.1,0.1-0.2,0.2c0,0,0,0.1,0,0.2
	s-0.1,0-0.2,0c-0.1,0.1-0.1,0.2-0.2,0.3s-0.2,0.1-0.2,0.2c-0.1,0.2,0,0.3-0.2,0.4s-0.2,0.2-0.4,0.4c-0.1,0.1-0.2,0.1-0.3,0.2
	s0,0.2-0.1,0.3c-0.1,0.2-0.2,0.2-0.4,0.3c-0.2,0.1-0.4,0.2-0.5,0.5c-0.1,0.2-0.2,0.1-0.4,0.2c-0.3,0.2-0.5,0.4-0.7,0.7
	c-0.1,0.1-0.1,0.2-0.2,0.2c-0.1,0-0.2,0-0.3,0c-0.2,0.1-0.4,0.2-0.5,0.4s-0.5,0-0.7,0.2c-0.1,0.1-0.1,0.1-0.2,0.2
	c-0.1,0-0.2,0-0.3,0.1c0,0-0.2,0.2-0.2,0.2c-0.2,0-0.2,0-0.4,0c-0.1,0.1-0.2,0.2-0.3,0.2c-0.2,0-0.4,0-0.5,0.1
	c-0.2,0.1-0.2,0.3-0.4,0.3c-0.2,0-0.2,0-0.3,0.1c-0.1,0-0.2,0.1-0.3,0.1c-0.1,0-0.2,0-0.3,0c-0.2,0-0.4,0-0.6,0s-0.5,0-0.7,0.1
	c-0.1,0.1-0.1,0.1-0.3,0.1c-0.1,0-0.2,0-0.3,0.1c-0.1,0.1,0,0.1-0.2,0.1s-0.5-0.1-0.7,0c0,0,0,0.1-0.1,0.1c-0.2,0.1-0.3-0.1-0.5,0
	s-0.3,0-0.5,0c-0.2,0-0.4-0.1-0.6-0.1c-0.2,0-0.5,0.1-0.7,0.2c-0.2,0-0.5,0-0.7-0.1c-0.1-0.1-0.1-0.1-0.2-0.1
	c-0.3,0-0.6-0.2-0.8-0.4c-0.1-0.1-0.2,0-0.4-0.1c0,0,0-0.1-0.1-0.1c-0.1,0-0.2,0-0.2-0.1c-0.1-0.1-0.1-0.2-0.2-0.2
	c-0.1,0-0.2,0-0.3,0c-0.2,0-0.4,0-0.5-0.1c0,0,0-0.1,0-0.2c0,0-0.1,0-0.2,0c-0.1,0-0.2-0.2-0.4-0.2c-0.2,0-0.4,0.1-0.5,0
	c0,0,0-0.1,0-0.1c-0.3-0.6-0.1-0.5,0.2-0.8c0.3-0.2,0.5-0.5,0.8-0.7c0.2-0.2,0.3-0.3,0.2-0.7c0.4-0.1,0.2-0.8,0-1
	c0-0.1-0.1-0.2-0.1-0.3c0-0.2,0.1-0.3,0.2-0.3c0,0,0.1-0.1,0.1-0.1c0,0,0.1,0,0.1,0c0,0,0.1,0,0.2,0c0.1,0,0.2,0,0.3,0
	c0,0,0.1,0,0.1,0c0-0.1,0-0.1,0.2-0.1c0,0,0.1,0,0.1,0c0,0,0,0,0-0.1c0-0.3,0.4-0.2,0.6-0.2c0.2,0,0.3-0.2,0.5-0.3
	c0.3-0.3,0.6-0.6,0.9-0.9c0,0,0.2,0,0.2,0c0.2-0.2,0.1-0.4,0.2-0.5c0.1-0.2,0.3-0.4,0.5-0.6c0.1-0.1,0.1,0,0.2-0.1
	c0.1-0.1,0-0.2,0.1-0.3s0.2-0.1,0.3-0.2c0.1-0.1,0.2-0.3,0.2-0.4c0-0.2,0-0.1,0.2-0.2c0.1-0.1,0-0.1,0.1-0.2c0-0.1,0.2-0.1,0.3-0.2
	c0.1,0,0.1-0.1,0.2-0.2c0.2-0.2,0.3-0.5,0.5-0.8c0-0.1,0.1-0.2,0.1-0.3c0.4-0.4,0.5-0.7,0.9-1.3c0.2-0.3,0.2-0.7,0.4-1.1
	c0.1-0.2,0.3-0.5,0.4-0.8c0.1-0.3,0-0.4-0.1-0.7c0-0.1,0-0.2,0.1-0.4c0-0.1,0.1-0.2,0.1-0.3c0-0.1-0.1-0.2,0-0.3
	c0-0.2,0-0.4-0.2-0.4c-0.2,0-0.3,0-0.4-0.1c-0.9-0.4-1.9-0.1-2.7-0.5c-0.7-0.4-1.2-0.5-2.1-0.5c-0.1,0-0.2,0-0.4,0c0,0-0.1,0-0.2,0
	c0,0,0-0.1-0.1-0.1c0,0-0.1,0-0.1-0.1c0,0-0.1-0.1-0.1-0.1c-0.1,0-0.3,0-0.4,0s-0.2,0-0.4,0c-0.1,0-0.1-0.1-0.1-0.1
	c-0.3-0.3-0.8-0.6-1.2-0.8c-0.2-0.7-1.9-1.1-1-2c0,0,0.1-0.1,0.2-0.2c0.2-0.2,0.5-0.3,0.8-0.3c0.4,0,0.8,0.2,1.2,0.2
	c0.2,0,0.4,0,0.6,0.1s0.3,0.2,0.5,0.2c0.2,0.1,0.6,0.1,0.8,0.2c0.3,0.2,0.6,0.4,1,0.4c0.2,0,0.4-0.1,0.5-0.1c0,0,0.1,0,0.2,0.1
	c0.2,0.1,0.4,0.1,0.6,0.2c0.1,0,0.1,0.1,0.2,0.1c0.1,0,0.2,0,0.3,0s0.2,0.1,0.2,0.2c0.1,0,0.2,0.1,0.3,0.1c0.3,0.1,0.6,0.1,0.9,0.2
	c0.2,0,0.5,0.2,0.8,0.2c0.5,0,0.7,0.5,1.1,0.5c0.2,0,0.4,0,0.6,0.1c0.2,0.1,0.3,0.2,0.5,0.2c0.5,0,1-0.2,1.5,0c0.1,0,0.2,0,0.2,0
	c0.2,0.1,0.2,0.2,0.4,0.2s0.3,0,0.5,0.1c0.2,0,0.5,0.1,0.8,0.2s0.6,0.3,1,0.4c0.7,0.1,1.2,0.2,1.8,0.4c0.7,0.3,1.4,0.7,2.2,0.8
	c0.3,0.1,0.6,0.1,0.9,0.2c0.2,0.1,0.5,0.2,0.7,0.3c0.1,0,0.2,0,0.2,0c0.1,0,0.1,0.2,0.2,0.2c0,0,0.1,0,0.2,0s0.1,0.1,0.1,0.1
	c0.1,0.1,0.2,0.1,0.4,0.1c0.1,0,0.2,0,0.2,0c0.1,0,0.1,0.1,0.2,0.1c0,0,0.2,0,0.3,0c0.2,0,0.5,0.1,0.7,0.3c0.1,0.1,0.2,0.2,0.3,0.2
	c0.4,0.1,0.7,0.2,1.1,0.3c0.1,0,0.1,0,0.2,0c0.1,0,0.2,0.2,0.2,0.2c0.2,0.1,0.4,0.1,0.6,0.2c0.2,0,0.2,0.2,0.3,0.3c0,0,0.2,0,0.2,0
	c0.1,0,0.1,0.1,0.2,0.1c0.1,0.1,0.2,0,0.3,0.1c0.1,0.1,0.1,0.2,0.2,0.2s0.2,0.1,0.3,0.1c0.3,0.1,0.6,0.2,0.8,0.4
	c0.4,0.3,0.7,0.7,1.1,0.9c0.2,0.1,0.3,0.2,0.5,0.4c0.1,0.2,0.2,0.5,0.3,0.5c0.2,0.1,0.4,0.1,0.5,0.2c0.2,0,0,0.3,0.4,0.3
	c0,0,0,0.1,0,0.1c0.5,0.1,0.5,0.2,0.7,0.7s0.6,0.6,0.8,1c0.2,0.3,0.3,0.8,0.1,1.1c-0.2,0.2-0.4,0-0.6,0.1c-0.1,0-0.2,0.2-0.3,0.2
	s-0.2-0.1-0.3-0.2c-0.1,0-0.2-0.1-0.3-0.1c-0.3-0.1-0.6-0.1-0.9-0.1c-0.2,0-0.2,0-0.4-0.1c-0.1-0.2-0.2-0.2-0.5-0.2c0,0-0.2,0-0.2,0
	c-0.1,0-0.1-0.1-0.2-0.2c-0.1-0.1-0.3,0-0.4-0.1c0,0,0-0.1-0.1-0.2c-0.1,0-0.1,0-0.2,0C97,51.2,97,51.1,96.9,51
	c-0.1-0.1-0.3-0.1-0.4-0.2c-0.2-0.1-0.2-0.2-0.3-0.4c-0.1-0.1-0.3-0.1-0.5-0.2c-0.1-0.1-0.1-0.2-0.1-0.3c-0.1-0.2-0.4-0.1-0.5-0.2
	c-0.2-0.1-0.2-0.3-0.3-0.5c-0.1-0.1-0.2-0.1-0.3-0.1c-0.1,0-0.1,0-0.2-0.2c-0.2-0.2-0.3-0.5-0.5-0.7c-0.1-0.2-0.3-0.2-0.5-0.2
	C93,48.1,92.9,47.9,92.7,47.8"/>
<path class="st2" d="M79.4,47.3c-0.1,0-0.2,0-0.4,0c-0.1,0-0.2,0-0.3,0.1c0,0,0,0.2,0,0.2c-0.1,0-0.2,0.1-0.3,0.1
	c-0.1,0-0.2,0.5-0.2,0.6s0,0.2,0,0.3s0,0.2,0,0.2c0,0.1,0.2,0,0.2,0c0.2,0,0.4,0,0.5-0.1c0.1,0,0.2-0.2,0.2-0.2c0,0,0.1-0.1,0.1-0.2
	c0.1-0.1,0.2-0.1,0.2-0.2c0-0.1,0-0.2,0-0.4c0-0.1,0-0.2-0.1-0.3C79.5,47.4,79.5,47.3,79.4,47.3"/>
<path class="st2" d="M84.8,48.3C84.8,48.2,84.8,48.2,84.8,48.3c0-0.1,0-0.1-0.1-0.1c-0.1,0-0.2,0-0.2,0c-0.1,0-0.2,0-0.2,0
	c0,0-0.1,0-0.1,0c0,0,0,0.1,0,0.1c0,0.1-0.1,0.2-0.2,0.3c0,0.1-0.1,0.2-0.2,0.2c0,0-0.1,0.1-0.1,0.1c0,0-0.1,0-0.1,0.1
	c0,0,0,0.1,0,0.2c0,0.1,0,0.2,0,0.2c0,0.1,0,0.1,0.1,0.2s0,0.2,0.1,0.2s0.2,0,0.2,0c0,0,0.1,0,0.2,0c0,0,0,0,0.1,0c0,0,0-0.1,0-0.1
	c0,0,0.1,0,0.2,0c0.1,0,0.1,0,0.2-0.1c0,0,0.1-0.1,0.1-0.1c0,0,0.1-0.1,0.1-0.1c0,0,0.1,0,0.1-0.1c0,0,0-0.1,0-0.2
	c0-0.1,0-0.2,0-0.3C85,48.5,85,48.4,84.8,48.3C84.9,48.3,84.8,48.3,84.8,48.3"/>
</svg>
