<?xml version="1.0" encoding="utf-8"?>
<!-- Generator: Adobe Illustrator 19.0.0, SVG Export Plug-In . SVG Version: 6.00 Build 0)  -->
<svg version="1.1" id="分離模式" xmlns="http://www.w3.org/2000/svg" xmlns:xlink="http://www.w3.org/1999/xlink" x="0px" y="0px" viewBox="0 0 100 100" style="enable-background:new 0 0 100 100;" xml:space="preserve">
	<path d="M9.1,9.1C-3,21.2-3,41,9.1,53.1L44.9,89l44-44L53.1,9.1C41-3,21.2-3,9.1,9.1z M15.4,16.8c0,0,12.6,0.6,16,3.9c3.3,3.3,3.3,8.7,0,12s-8.7,3.3-12,0C16,29.4,15.4,16.8,15.4,16.8z M61.7,31.8c2.4,2.4,2.4,6.4,0,8.8l-3.2,3.2l2.1,2.1c2.4,2.4,2.4,6.4,0,8.9L55.4,60c-2.4,2.4-6.4,2.4-8.9,0l-2.1-2.1l-3.2,3.2c-2.4,2.4-6.4,2.4-8.8,0l-3.5-3.5c-2.4-2.4-2.4-6.4,0-8.8l20.6-20.6c2.4-2.4,6.4-2.4,8.8,0L61.7,31.8z"/>
	<path d="M90.9,90.9c11.6-11.6,12.1-30.4,1.3-42.6l-43.9,44C60.5,103,79.3,102.6,90.9,90.9z"/>
</svg>