<?xml version="1.0" encoding="utf-8"?>
<!-- Generator: Adobe Illustrator 19.0.0, SVG Export Plug-In . SVG Version: 6.00 Build 0)  -->
<svg version="1.1" id="圖層_1" xmlns="http://www.w3.org/2000/svg" xmlns:xlink="http://www.w3.org/1999/xlink" x="0px" y="0px" viewBox="0 18 100 65" style="enable-background:new 0 18 100 65;" xml:space="preserve">
	<linearGradient id="gradient2" gradientUnits="userSpaceOnUse" x1="50.1167" y1="82.1667" x2="50.1167" y2="18.3279">
		<stop offset="0" style="stop-color:#FFAE00"/>
		<stop offset="1" style="stop-color:#FFC600"/>
	</linearGradient>
	<path style="fill:url(#gradient2);" d="M59.2,43.5c-1-0.6-2.1-0.7-3.3-0.3c-1.2,0.4-2.1,1.2-2.6,2.6c-0.7,1.8-0.6,4,0.2,6.9c0.6,2.2,1.6,3.8,2.7,4.8c1.2,1,2.4,1.3,3.8,0.9c1.4-0.4,2.3-1.5,2.7-3.2c0.3-1.6,0.1-3.4-0.5-5.6C61.5,46.9,60.5,44.9,59.2,43.5z M99.2,42.7c-1.5-6-4.8-11.5-9-16.1c-3.9-4.2-11.3-9.5-20.8-8.4c-11.9,1.4-15,13.3-26.9,12.6c-2.5-0.2-4.9-0.9-7.3-1c-2.9,0-7.2,0.2-9.9,1.4c-4.7,2.2-8.1,6.4-9.1,11.5c-1,5,1.9,10,1.7,15c-0.2,3.7-2.1,7.3-5.1,9.4c-2.1,1.5-4.6,2.3-6.9,3.5c-2.2,1.2-4.1,2.7-5.7,4.6C7,72.5,15,72.9,21.5,76.3c2.9,1.5,5.4,3.6,8.3,5s6.4,2.2,9.4,0.9c3.8-1.6,5.6-5.9,8.5-8.9c2.8-2.9,6.9-4.6,11-4.5c5,0.1,9.6,2.7,14.6,3.7c9.4,1.8,19.8-3.2,24.2-11.7C100.2,55.3,100.7,48.7,99.2,42.7z M47.4,64.8c-1.4,2.1-3.4,3.5-6.1,4.3c-2.8,0.8-5.7,0.7-8.6-0.4c-2.7-1.1-4.3-2.5-4.8-4.4c-0.2-0.6-0.1-1.4,0.2-2.3c0.3-0.9,0.3-1.8,0.1-2.5c0.5,0.4,1.1,0.8,1.6,1.2c1.3,0.9,2.5,1.6,3.6,2.1c2.6,1.2,5,1.5,7,0.9c0.6-0.2,1-0.5,1.4-1s0.5-1,0.3-1.6c-0.2-0.7-0.7-1.2-1.6-1.4c-0.7-0.2-2-0.3-3.9-0.4c-2.9-0.1-5.1-0.4-6.5-0.9c-2-0.8-3.2-2.1-3.8-4c-0.6-2.2-0.3-4.2,1.2-6.2c1.4-1.9,3.2-3.2,5.6-3.9c1.6-0.5,3.1-0.7,4.6-0.6c0.8,0.1,1.8,0.3,3.1,0.6c1,0.3,1.7,0.3,2.1,0.2c0.1,0.3,0.2,0.6,0.5,1c0.2,0.4,0.4,0.8,0.5,1.3c0.2,0.7,0.2,1.3,0.1,1.9c-0.2,0.7-0.7,1.2-1.5,1.4c-0.3,0.1-1.6,0-3.7-0.3c-2.1-0.3-3.6-0.4-4.4-0.1c-1.7,0.5-2.4,1.3-2.1,2.4c0.1,0.5,0.6,0.8,1.2,1c0.9,0.2,2.5,0.4,4.8,0.5c2.8,0.1,4.9,0.5,6.4,1.1c1.8,0.8,3,2.2,3.6,4.1C49.1,60.9,48.7,62.8,47.4,64.8z M67.9,57.5c-1.1,2.9-3.2,4.8-6.1,5.7c-3.1,0.9-5.8,0.6-8.3-0.8c-2.6-1.6-4.5-4.2-5.6-7.9s-1.1-7.1,0.1-10.1c1.2-3.2,3.4-5.3,6.5-6.2c2.3-0.7,4.6-0.6,7,0.2c0.2,0.1,0.9,0.4,2,1c0.6,0.3,1.1,0.4,1.5,0.2c0.6,1.9,0.8,3.1,0.6,3.5c0.2,0.1,0.6,0.6,1,1.5c0.6,1.1,1.2,2.5,1.6,4C69.1,51.7,69,54.7,67.9,57.5z M88.8,52.6c-1.4,2.1-3.4,3.5-6.1,4.3c-2.8,0.8-5.7,0.7-8.6-0.4c-2.7-1.1-4.3-2.5-4.8-4.3c-0.2-0.6-0.1-1.4,0.2-2.3c0.3-0.9,0.3-1.8,0.1-2.5c0.5,0.5,1.1,0.8,1.6,1.2c1.3,0.9,2.5,1.6,3.6,2.1c2.6,1.2,5,1.5,7,0.9c0.6-0.2,1-0.5,1.4-1s0.4-1,0.3-1.6c-0.2-0.7-0.7-1.2-1.6-1.4c-0.7-0.2-2-0.3-3.9-0.4c-2.9-0.1-5.1-0.4-6.5-0.9c-2-0.8-3.2-2.1-3.8-4C67.2,40.1,67.6,38,69,36c1.4-1.9,3.2-3.2,5.6-3.9c1.6-0.5,3.1-0.7,4.6-0.6c0.8,0.1,1.8,0.3,3.1,0.6c1,0.3,1.7,0.3,2.1,0.2c0.1,0.3,0.2,0.6,0.5,1c0.2,0.4,0.4,0.8,0.5,1.3c0.2,0.7,0.2,1.3,0.1,1.9c-0.2,0.7-0.7,1.2-1.5,1.4c-0.3,0.1-1.6,0-3.7-0.3c-2.1-0.3-3.6-0.4-4.4-0.1c-1.7,0.5-2.4,1.3-2.1,2.4c0.1,0.5,0.6,0.8,1.2,1c0.9,0.2,2.5,0.4,4.8,0.5c2.8,0.1,4.9,0.5,6.4,1.1c1.8,0.8,3,2.2,3.6,4.1C90.4,48.6,90.1,50.6,88.8,52.6z"/>
</svg>