<?xml version="1.0" encoding="utf-8"?>
<!-- Generator: Adobe Illustrator 19.0.0, SVG Export Plug-In . SVG Version: 6.00 Build 0)  -->
<svg version="1.1" id="圖層_1" xmlns="http://www.w3.org/2000/svg" xmlns:xlink="http://www.w3.org/1999/xlink" x="0px" y="0px" viewBox="0 0 89 100" style="enable-background:new 0 0 89 100;" xml:space="preserve">
	<path style="fill:#503017;" d="M70.5,52.6c0.8,0,1.7-0.1,2.5-0.3c1.7-0.4,3.3-1.2,4.8-2.3c1.5-1.1,2.9-2.5,4.1-4c1.2-1.5,2.3-3.3,3.3-5.1l0,0c0.3-0.5,0.8-0.7,1.3-0.4c0.4,0.2,0.6,0.7,0.5,1.1c-0.6,2-1.4,4.1-2.5,6c-1,1.9-2.3,3.8-3.9,5.5c-1.6,1.7-3.6,3.1-5.8,4.1c-1.1,0.5-2.3,0.9-3.5,1.2L70.5,52.6z"/>
	<path style="fill:#9C8071;" d="M75.9,88.3l-7.9-15L26.3,40.9l1.1,8L14.3,47L13,51.9c-1.4,7,3.9,6.9,3.9,6.9l1.9-5.9l16.9,2.5l13.7,5.3l4.9,7.5l17.8,21.2c-0.4,0.4-0.7,0.9-0.8,1.5c-0.6,1.9,0.6,4,2.5,4.5l2-7.1c0,0-0.1,0-0.1,0L75.9,88.3z"/>
	<path style="fill:#EB7172;" d="M3.4,19.6c-1.4,0.7-2.2,2.2-2.9,3.6c-0.2,0.4-0.4,0.8-0.3,1.2c0.2,1,1.7,1,2.7,0.7c2.5-0.7,5-1.4,7.3-2.6c-0.7-2-2.7-3.4-4.7-3.4C4.7,19.1,4,19.2,3.4,19.6z"/>
	<path style="fill:#CAAE9B;" d="M88.8,92.7l0.1-0.1l-10-13.7l-3.8-12.1c0-1.6-0.2-3.3-0.4-4.8c-1.5-8.3-7-15.5-14.8-19.2c0,0-0.5-0.3-1.4-0.9c-2.6-1.8-8.5-5.8-12.1-9.9c-0.9-1.1-1.7-2.1-2.3-3.2c-0.2-0.3-0.3-0.6-0.4-0.9c-1.4-3.6-7.3-2.7-11.4,1.4l-8.2,2.1c0,0,0.2,1.9,0.8,4.6c0.2,0.8,0.4,1.7,0.6,2.6c0.4,1.6,1,3.2,1.6,4.9c0.4,1,0.9,2.1,1.5,3c0.6,1.1,1.3,2.1,2.1,2.9c0,0,0,0,0,0c0.8,1.4,2,2.8,3.6,4.3l-12.1-1.8l-1.3,4.9c-1.4,7,3.9,6.9,3.9,6.9l1.9-5.9L43,60.3c1.7,1.1,3.4,2.1,5,3.1c5.7,3.4,10.6,5.8,10.6,5.8l6,6.7l20.7,18.4c-0.3,0.5-0.5,1-0.6,1.6c-0.3,2,1.1,3.9,3.1,4.1l1-7.3C88.8,92.7,88.8,92.7,88.8,92.7z"/>
	<path id="XMLID_92_" style="fill:#E56327;" d="M25.5,42.4c0,0.8,0.5,1.7,2.2,2.4c0,0,6.8-0.1,13-5.8c0,0,0,0,0,0c1.9-1.8,3.8-4.2,5.4-7.3c0,0,0.3-3.8-2.4-3.9c0,0-1.9,12.4-17.5,12.9C26.1,40.7,25.5,41.5,25.5,42.4z"/>
	<path id="XMLID_87_" style="fill:#623C1D;" d="M58.4,41.8c0.7,2,1.8,4.1,3.4,5C65.4,48.8,59,63.7,74.6,62c-1.5-8.3-7-15.5-14.8-19.2C59.8,42.7,59.3,42.4,58.4,41.8z"/>
	<path id="XMLID_86_" style="fill:#CD4F1D;" d="M25.5,42.4c0,0.8,0.5,1.7,2.2,2.4c0,0,6.8-0.1,13-5.8C40.5,39.1,31.9,44.2,25.5,42.4z"/>
	<path style="fill:#E8D4C2;" d="M42.4,27.1c0.5-1.8-5.5-14.2-7.5-16.8c-4-2.3-9.1-2.7-13.5-1.1c-2.3,0.9-4.5,2.3-6.9,2.4c-3.3,0.2-7.2-1.9-9.8,0.3c-0.6,0.5-1,1.1-1.3,1.7c-1.3,2.6-1.1,5.8,0.4,8.3c0.9,1.5,2.3,2.7,3.6,3.9c3.5,3,7.2,6,11.4,8c4.2,2,9,3.1,13.5,2.1C36.9,34.8,41.1,31.5,42.4,27.1z"/>
	<path style="fill:#A0774E;" d="M50.1,6.2c-0.1-1.1,0.2-1-0.9-0.9c-0.4,0-0.7,0.2-1.1,0.4c-1.9,1-4.8,2.2-6.5,3.4c-1.6,1.2-3,2.4-4.5,3.3c-0.2-0.2-0.4-0.4-0.6-0.6c-0.1-0.1-0.3-0.2-0.4-0.3C37,8.2,37.8,5,38.6,1.7C39,0.2,36.9-0.7,36,0.7c-1.8,2.7-3.8,5.2-5.8,7.8C28.4,8,26.4,8,24.5,8.4c-2.7,0.5-5.4,2.2-5.8,4.9c-0.3,2,0.8,4,2.2,5.5c1.3,1.6,2.9,2.9,3.9,4.7c0.8,1.6,1.1,3.6,2.4,4.9c1.3,1.3,3.3,1.6,5.1,2.1c0.5,0.1,1,0.3,1.3,0.7c0.2,0.3,0.3,0.6,0.4,0.8c0.4,0.6,1.1,0.8,1.8,0.8c3,0.2,5.6-2.3,6.5-5.1c0.8-2.2,0.7-4.6,0.5-7c2.8-3.3,4.3-7.9,6.4-11.7C49.7,8.2,50.2,7.2,50.1,6.2z"/>
	<path style="fill:#754C27;" d="M48.7,6.2c-2.8,1.8-5.6,3.7-8.5,5.5c-0.9,0.6-1.9,1.4-2.1,2.6c0.9,0.8,1.4,3.4,2.3,4.2C43.1,15,46.1,9.6,48.7,6.2z"/>
	<path style="fill:#2F2217;" d="M7.8,12.5c0-0.9-1.4-1.6-3.2-1.6s-2.1,0.7-2.1,1.6c0,0.6,0.1,1.2,0.8,1.4c0,0.1,0,0.2,0.1,0.4c-0.4,1.3-0.7,2.7-1,4c-0.1,0.3,0.1,0.6,0.4,0.7c0,0,0.1,0,0.1,0c0.3,0,0.5-0.2,0.5-0.4C3.7,17.3,4,16.2,4.3,15c0.2,0,0.5,0,0.7-0.2c0.2-0.2,0.4-0.5,0.4-0.7C6.8,13.9,7.8,13.3,7.8,12.5z"/>
	<path style="fill:#2F2217;" d="M29,19c0,0-0.1,0-0.1,0c-0.3-0.1-0.5-0.4-0.4-0.7c0.3-1.1,0.3-1.9,0-2.6c-0.2-0.7-0.9-1.4-1.6-1.4c0,0,0,0,0,0c-0.3,0-0.7,0.2-0.9,0.5c-0.1,0.1-0.2,0.4-0.1,0.7c0.1,0.3,0,0.6-0.3,0.7c-0.3,0.1-0.6,0-0.7-0.3c-0.2-0.6-0.1-1.2,0.3-1.7c0.4-0.6,1.1-1,1.8-1c1.2,0,2.3,0.9,2.7,2.1c0.4,1.2,0.2,2.4,0,3.2C29.5,18.9,29.3,19,29,19z"/>
</svg>