<?xml version="1.0" encoding="utf-8"?>
<!-- Generator: Adobe Illustrator 19.0.0, SVG Export Plug-In . SVG Version: 6.00 Build 0)  -->
<svg version="1.1" id="圖層_1" xmlns="http://www.w3.org/2000/svg" xmlns:xlink="http://www.w3.org/1999/xlink" x="0px" y="0px" viewBox="0 4 100 93" style="enable-background:new 0 4 100 93;" xml:space="preserve">
	<path style="opacity:0.14;" d="M43,73.8c-0.2,0-0.4-0.1-0.7-0.1c-3.5-3.3-10-6-17.7-7c-11.9-1.5-22.2,1.6-22.9,7c-0.5,3.8,4,7.8,10.9,10.3c3.6,5.4,23.2,13.4,37.2,15.2c15.7,2,28.9-0.5,29.6-5.6C80,88.4,58.7,75.8,43,73.8z"/>
	<path style="fill:#9C8071;" d="M18.2,36.9c-0.5,5.5-0.1,13.4-0.1,13.4l-1.3,0.2H16c-1.2,0.1-2.1,1.2-2.2,2.3l0,0c-0.1,1.6-0.2,3.1-0.2,4.7c-0.1,1.6-0.1,3.1-0.1,4.7c0,1.6,0,3.1,0.1,4.7c0.1,0.8,0.1,1.6,0.2,2.4c0.1,0.4,0.1,0.8,0.2,1.3c0.1,0.5,0.2,0.9,0.5,1.5l0,0c0.2,0.4,0.5,0.6,0.9,0.7l0,0l3.5,1.1c0.8,0.3,1.6-0.2,1.9-1s-0.2-1.6-1-1.9l-2.7-0.9c0,0,0-0.9,0-1.2c0-0.7,0-1.4,0.1-2.2c0.1-1.5,0.3-3,0.5-4.4c0.2-1.5,0.5-3,0.7-4.5c0.3-1.5,0,0,0.3-1.5l0,0l2.8,0.1c1.6,0.2,3.1-0.9,3.3-2.5l0.1-0.9l0,0c0.7-4.9,1.9-9.6,3.6-14C29.3,36.8,18.4,34.2,18.2,36.9z"/>
	<path style="fill:#382F27;" d="M22,76.4c-0.2-0.2,11.3-6.6,15.8-3.9c-0.2-0.1-2.4,1.2-2.4,1.2s-13,4.7-13.3,4.5L22,76.4z"/>
	<path style="fill:#CAAE9B;" d="M79.1,34.1c-1.2-8.6,8.9-20.6-12.2-20.6s-28,3.2-38.5-0.1c-1.3-0.4-2.6-0.7-4.1-0.7c-5.8,0-10.8,3.8-12.7,9.2c0.2,0-2,10.4-2.5,10.2c-0.4,2.2-0.7,4.4-1,6.5C7.5,44.3,8,52.1,8,52.1l-1.3,0.2L6,52.4c-1.2,0.1-2.1,1.2-2.2,2.3c-0.1,1.6-0.2,3.1-0.2,4.7c-0.1,1.6-0.1,3.1-0.1,4.7c0,1.6,0,3.1,0.1,4.7c0.1,0.8,0.1,1.6,0.2,2.4C3.9,71.6,3.9,72,4,72.5s0.2,0.9,0.5,1.5c0.2,0.4,0.5,0.6,0.9,0.7l0,0L9,75.9c0.8,0.3,1.6-0.2,1.9-1c0.3-0.8-0.2-1.6-1-1.9l-2.7-0.9c0,0.2,0,0,0,0c0-0.1-0.1-0.9-0.1-1.2c0-0.7,0-1.4,0.1-2.2c0.1-1.5,0.3-3,0.5-4.4c0.2-1.5,0.5-3,0.7-4.5c0.3-1.5,0,0,0.3-1.5l2.8,0.1c1.6,0.2,3.1-0.9,3.3-2.5l0.1-0.9c0.7-4.7,1.8-9.3,3.4-13.6c0.5,0.3,1.1,0.8,1.7,1.4c2.7,3,5.8,9.1,11.1,13.9l3.8,5.6l2.9,7.3l-2.9,7.1c0,0,0.6-2.9-4.8-1.3c-5.3,1.5-0.6,7.4,1.4,9.2c1.9,1.7,7.2-3.6,7.2-3.6s5.3-8.2,6.4-9.2c1-1,0-2.3,0-2.3L43.6,63c1.2,0.2,2.6,0.4,4,0.5h0.1c0.3,0,0.6,0,0.9,0c1.6,0,3.1-0.2,4.5-0.6c0.1,2,0.3,3.9,0.5,5.9c0.7,6.5,1.8,12.9,3,19.3l0.1,0.4c0,0.1,0,0.2,0.1,0.2l1.8,4.1c0.3,0.7,0.9,1.2,1.7,1.5l0,0c0,0,0,0,0.1,0c0.4,0.1,0.8,0.1,1.2,0c3,0,10.4,0.1,10.6,0c-1.7-5.8-6.4-6.6-9.4-6.4l-0.2-0.6C62.2,81,61.9,74.7,62,68.5c0-3.1,0.2-6.2,0.5-9.2c0.1-0.8,0.2-1.6,0.3-2.4C63.2,56,78.7,34,79.1,34.1z M12.2,44.3c0,0,0-0.1,0.1-0.2L12.2,44.3z"/>
	<path style="fill:#623C1D;" d="M9.4,30.5c0.3-1.4,0.7-2.8,1.1-4.2c0.1-0.3,0.2-0.5,0.3-0.8c0.1-1.2,0.4-2.4,0.8-3.5c0.2,0,0.3,0.1,0.5,0.1c2.1,0.6,3.7,2.7,3.7,5.1c0,2.6-1.8,4.7-4.1,5.2c-0.3,0.1-0.6,0.1-1,0.1c-0.6,0-1.1-0.1-1.6-0.3C9.1,31.6,9.3,31.1,9.4,30.5z"/>
	<path style="fill:#623C1D;" d="M34.4,24.6c-6.2-1.3-10.4-6-9.5-10.6c0.1-0.4,0.2-0.7,0.3-1c4.1,0.3,7.7,0.7,10,1c0.9-0.1,1.8,0,2.7,0.2c3.6,0.8,6.8,2.4,9.3,4.7C46,23.3,40.4,25.8,34.4,24.6z"/>
	<path style="fill:#382F27;" d="M41.6,78c0,0-2.1-2.2-2.1-2c0,0-0.4,0.2,0.3,0.5c3,5.6-3.1,9.8-5.5,11.1l-10-9.2L23.1,79l-1,0.5l11.3,11.4l2.6-1.8l0,0C45,84.1,41.6,78,41.6,78z"/>
	<path style="fill:#1F1810;" d="M36.2,75l-1.9,4.1l4.9-3.2C39.2,75.9,39.2,74.7,36.2,75z"/>
	<path style="fill:#1F1810;" d="M37.4,79.1l3.7-1.3c0,0-1.2-1.5-2-1.9L37.4,79.1z"/>
	<polygon style="fill:#1F1810;" points="41.6,78 38.4,80.3 42,80 "/>
	<path style="fill:#1F1810;" d="M34,75.2c0,0,1.3-0.4,2-0.1l-4,2.5L34,75.2z"/>
	<path style="fill:#585552;" d="M22.1,79.6c0,0,12.3-6.5,16.2-4.1c1.7,0.6,3.7,2.9,3.8,3.7c-0.1-0.1-1-4.5-4.4-5.4c-5.7-1.5-14.4,3.8-15.5,4.3C21.9,78.2,22.1,79.6,22.1,79.6z"/>
	<path style="fill:#811E1F;" d="M34.8,94.4c0.2-0.5,0.1-1.2-0.5-1.4c-1.5-0.5-3.1-0.9-4.8-1c-1.2-0.1-2.9-0.3-3.9,0.4c-1.3,0.8-0.8,1.8,0,2.7c-2.5-0.2-4.9-0.3-7.4,0c-2.3,0.3-5,1-5.3,3.7c-0.1,0.5,0.1,1,0.7,1.2c1.7,0.4,3.5,0.7,5.3,0.7c1,0,2-0.1,3-0.2c0.9-0.1,1.9-0.5,2.7-0.4c0.7,0.1,1.2,0.5,1.8,0.7c0.7,0.2,1.5,0.2,2.2,0.2c1.6-0.1,3.2-0.5,4.8-0.8c1.3,0.9,2.9-0.1,3.2-1.7C36.9,96.8,36.1,95.3,34.8,94.4z"/>
</svg>