<?xml version="1.0" encoding="utf-8"?>
<!-- Generator: Adobe Illustrator 19.0.0, SVG Export Plug-In . SVG Version: 6.00 Build 0)  -->
<svg version="1.1" id="圖層_1" xmlns="http://www.w3.org/2000/svg" xmlns:xlink="http://www.w3.org/1999/xlink" x="0px" y="0px" viewBox="-16 0 67 100" style="enable-background:new -16 0 67 100;" xml:space="preserve">
	<path style="fill:#503017;" d="M40.4,30.5L40.4,30.5H40c-0.4,0-0.9,0-0.9,0c-0.9,0-1.7,0.4-2.1,0.4c-1.7,0.4-3,0.9-4.7,1.7c-3.9,1.7-6.9,3.4-9.8,5.1C16.5,42,11.4,47.1,7.1,54c-4.3,6.4-7.7,13.7-9.8,21.8c-2.6,7.7-3.9,16.3-5.1,24.4l0,0c-0.4,2.1-2.1,3.9-4.3,3.4c-2.1-0.4-3.4-1.7-3.4-3.9c-0.4-9-0.4-18,0.4-27c1.3-9,3.4-18.4,6.9-27c3.9-8.6,9.4-17.1,16.3-24.4c3.4-3.4,7.7-6.9,12-9.8c2.1-1.3,4.7-2.6,6.9-3.9c1.3-0.4,2.6-1.3,3.9-1.7C31.8,5.5,32.2,5.5,33,5l1.3-0.4c0.4,0,0.9-0.4,1.3-0.4C42.9,2.9,49.7,7.6,51,14.9C52.4,22.4,47.7,29.2,40.4,30.5z"/>
</svg>