<?xml version="1.0" encoding="utf-8"?>
<!-- Generator: Adobe Illustrator 19.0.0, SVG Export Plug-In . SVG Version: 6.00 Build 0)  -->
<svg version="1.1" id="Layer_2" xmlns="http://www.w3.org/2000/svg" xmlns:xlink="http://www.w3.org/1999/xlink" x="0px" y="0px"
	 viewBox="0 0 100 100" style="enable-background:new 0 0 100 100;" xml:space="preserve">
<path style="fill:#5F4A2B;" d="M68.2,65.8c0,0,0.1,26.8-4.7,30c-6.6,4.5,5.6,3.5,8.5,3.3s6.7-34.7,6.7-34.7H68.4L68.2,65.8z"/>
<path style="fill:#5B4629;" d="M27.8,8.1l2.4-7.2c0,0,2.2,3.1,4.4,5.7l-2.1,2C31.9,9.3,28.4,8.1,27.8,8.1z"/>
<path style="fill:#7E613C;" d="M43.9,0.9c0.4,1.1-3.1,9.4-5.4,9.1c-0.9-0.2-2.4-1.6-3.9-3.3C32.4,4.1,30.2,1,30.2,1
	S43.6-0.2,43.9,0.9z"/>
<path style="fill:#FF768A;" d="M52.9,26.9c0.5,0.3-0.1,0.8-1.1,1s-2.3,0.3-3.5,0.4c-2.9,0.2-5.9,0.3-8.7,0s-4.8-1.3-3.5-2.1
	c2.6-0.5,6-0.3,9-0.1c1.5,0.1,3,0.2,4.6,0.3C51,26.4,52.4,26.6,52.9,26.9z"/>
<path style="fill:#5B4629;" d="M16.1,10.7c-1.4,0.8-1.1,2.4-2,4l-3.5-1.3c1.2-3.2,2.2-6.9,2.2-6.9L16.1,10.7z"/>
<path style="fill:#7E613C;" d="M12.8,6.5c0,0-0.9,3.7-2.1,6.9c-0.8,2.1-1.7,4-2.4,4.5c-2,1.2-8.2-5.4-8.2-6.6
	C0,10.2,12.8,6.5,12.8,6.5z"/>
<path style="fill:#7E613C;" d="M96,74.9c0.1-4.5,2.1-12.3-0.6-19.2c-0.7-1.8-1.8-3.6-3.3-5.2c-1.9-2.1-4.6-3.9-8.3-5.3
	c-17.5-6.9-19.1-1.9-41-5.5c-2-0.2-4.6-1.2-6.3-2.4c-0.1-2.1-0.3-2.3-0.3-2.3c3.2-1,6.3,0.3,10.4-0.9c1.6-0.5,4.8-2.4,4.2-4
	c0,0-0.8,0-3.4-1c-2.9-1.2-3.5-1.9-6.6-2.6c3,0,4.6-0.5,7.4-1.4c2.1-0.7,4.3-1.7,5.6-3.6s1.5-4.7-0.2-6.2c-1.9-1.8-4.9-1.1-7.5-1
	c-3,0.1-7.1-0.2-9.5-2c-2.2-1.7-2.7-2.3-4.9-4c-4-3.1-7.3-3.9-11.9-1.9C18.4,6.9,17,7.8,16,9c-1.6,1.9-2.1,2-2.3,4.5
	c-0.5,5.4-0.2,10.8,0.8,16.1c0.4,1.8,0.7,3.7,1.6,5.4c0.8,1.5,1.4,2.9,2.3,3.9c0,0.2,0.8,2.9,1.8,4.6c0.8,2.9,1.7,6.6,2.9,11.6
	c5.2,22.2,3.1,36.1,0.8,41.3s7.3,3.7,7.8,1.5c1.8-8.9,2.3-24.8,2.4-27.2c0,0,0.3-0.1,0.5,0c0.7,0.5,2.3,1.4,4.5,2.4
	c0.5,8.2,0.7,20.9-1.8,23.3c-5.2,5,5.1,3.1,7.6,2.7c1.5-0.2,2.2-13.5,2.4-23.6c7.3,1.1,17.1,0.3,27.9-7.2c0,0,0.4,0,0.4,0.3
	c1.5,10.9,14.8,10.1,14.8,10.1s3.9,13.8,1.2,17.6c-2.7,3.8,7.8,4,8.2,1.3C100.2,94.9,100.5,80,96,74.9z"/>
<path style="fill:#456848;" d="M36.4,34.9c-0.8,0.2-1.6,0.6-2.5,1.2c-0.8,0.6-1.4,1.3-2.1,2c-2.5,2.4-6.2,3.5-9.6,2.9
	c-0.7-0.1-1.2-0.3-1.8-0.6c-0.3,0-0.7-0.1-1-0.1c0,0-0.1-0.3-0.2-0.6c-0.3-0.2-0.6-0.5-0.8-0.8c-0.8,0.9-1.1,4.1,0.5,4.4
	c0.5,0.1,0.9,0.1,1.3,0.2c1,0.1,1.6,0.1,2.4,0.1c9.2,0,12.7-4.7,14-6.5c0.1-0.1,0.2-0.3,0.3-0.4C37.4,36.2,37,35.4,36.4,34.9z"/>
<path style="fill:#2A1A11;" d="M55.8,15.7c-0.7-1.1-2.2-1.1-3.5-1c-1.1,0.1-2.5,0.4-2.7,1.5c-0.1,0.5,0.2,1,0.4,1.5
	c0.5,0.9,1,1.9,1.9,2.3c0.3,0.1,0.6,0.2,0.9,0.2v0.4c-0.1,0.6-0.1,1.1-0.4,1.6c-0.1,0.3,0,0.6,0.3,0.7c0.1,0,0.1,0,0.2,0
	c0.2,0,0.4-0.1,0.5-0.3c0.3-0.6,0.4-1.3,0.4-1.9l0.1-0.7c0.8-0.3,1.4-0.9,1.8-1.6C56.1,17.5,56.3,16.5,55.8,15.7z"/>
<path style="fill:#FFFFFF;" d="M21.2,14.7c0.3-1,1.4-2.9,3.9-3.6c0.1,0,0.2,0,0.3-0.1c-0.6,0.6-1,1.4-1,2.3c0,1.4,0.9,2.6,2.2,3
	C23.8,17,21.2,14.7,21.2,14.7z"/>
<path d="M24.4,13.3c0-0.9,0.4-1.7,1-2.3c2.7-0.4,4.7,2.4,4.6,2.6c-1,1.6-2.2,2.4-3.4,2.7C25.3,15.9,24.4,14.7,24.4,13.3z"/>
<path style="fill:#5B4629;" d="M35.9,65.8l0.7-0.3c0.6,1.6-1.3,4.4-1.9,5.3c-0.1,0.1-0.1,0.2-0.2,0.2l-0.3-0.2l-0.3-0.2
	C34.6,69.6,36.3,67,35.9,65.8z"/>
<path style="fill:#5B4629;" d="M80.3,63.7L81,64c-1.4,3.5-4.4,4.3-5.3,4.5c-0.2,0-0.3,0.1-0.3,0.1v-0.3v-0.4
	C75.4,67.8,78.8,67.4,80.3,63.7z"/>
</svg>
