<?xml version="1.0" encoding="utf-8"?>
<!-- Generator: Adobe Illustrator 19.0.0, SVG Export Plug-In . SVG Version: 6.00 Build 0)  -->
<svg version="1.1" id="圖層_1" xmlns="http://www.w3.org/2000/svg" xmlns:xlink="http://www.w3.org/1999/xlink" x="0px" y="0px" viewBox="0 4 100 93" style="enable-background:new 0 4 100 93;" xml:space="preserve">
	<path style="fill:#A0774E;" d="M56.1,47.1c3.6,6.7,8.7,6.5,9.1,6.5c4.7-1.5,8.5-10.7,8.5-11.2c0.3-4.2-3.8-20.2-5.5-26.8c-4.9,1.3-8.3,3.4-8.3,3.4c-5.6,8-7,17.6-7.8,23.7c-0.2,1.3,0.2,2.7,0.9,4C54.2,46.6,55.4,46.3,56.1,47.1z"/>
	<path style="fill:#E2E1E1;" d="M70.8,36.3c-0.7-1.8-2.7-2.4-4.8-2.4c1.8,0.9,3.2,2.6,3.3,4.8c0.2,2.1-0.9,4.1-2.6,5.2c2.5,0.1,4.6-1,4.6-1S72.5,40.7,70.8,36.3z"/>
	<path style="fill:#E2E1E1;" d="M58.9,35.7l0.1-0.1L58.9,35.7z"/>
	<path style="fill:#201004;" d="M69.3,38.7c-0.2-2.2-1.5-4-3.3-4.8c-3,0-6.3,1-7,1.7l-0.1,0.1v0.1c1.7,6.3,5.1,7.9,7.8,8.1C68.4,42.8,69.4,40.8,69.3,38.7z"/>
	<path style="fill:#E8D4C2;" d="M76.6,24.8c0.3-1.7,1.6-6,2.8-9.6c-4.1-0.8-7.9-0.4-11.1,0.5c1.7,6.6,5.8,22.6,5.5,26.7c0,0.5-3.8,9.6-8.5,11.2c-0.4,0-5.5,0.2-9.1-6.5c-0.7-0.8-1.9-0.5-3-0.3C55.7,51.9,63,57,63,57l3.3,10.8c0,0,5.6,4.5,10.8,3.9c5.2-0.4,7.5-3.4,7.5-3.4l1.2-14c-1.2,0-2.3-0.2-3.1-0.3C79.6,52.9,76.1,27.8,76.6,24.8z"/>
	<path style="fill:#754C27;" d="M99.9,10.7C99.9,10.6,99.9,10.6,99.9,10.7C99.9,10.6,99.9,10.6,99.9,10.7z"/>
	<path style="fill:#754C27;" d="M99.9,10.7c0,0.1-0.1,0.3-0.2,0.5C99.8,11,99.8,10.8,99.9,10.7z"/>
	<path style="fill:#2F2217;" d="M82.1,65.1C82,63,79.2,61.5,76,61.7s-5.8,2.1-5.6,4.2c0.1,1.9,2.5,3.3,5.4,3.4c0,0.6,0,1.3,0,1.9c0,1.5,2.3,1.5,2.3,0c0-0.7,0-1.4,0-2.1C80.5,68.5,82.3,66.9,82.1,65.1z"/>
	<path style="fill:#A0774E;" d="M92.6,42.3c4-7.7-1.7-19.4-4.3-23.2c-3-2.2-6-3.4-9-3.9c-1.2,3.5-2.5,7.9-2.8,9.6c-0.5,3,3.1,28.1,6.1,29.2c0.8,0.1,1.9,0.3,3.1,0.3l0.1-1.4C85.9,52.8,88.5,49.7,92.6,42.3z"/>
	<path style="fill:#E2E1E1;" d="M90,32.2c-2,0.1-3.6,0.6-4.7,1.2c-2.7,1.3,2,5.7,2.1,8.2c0.6,0.1,2.6-1.9,2.9-2.1C91.8,36.8,90.2,32.3,90,32.2z"/>
	<path style="fill:#201004;" d="M86.9,32.9c-8.1,2.4-4.3,9.9-4.3,9.9c2.4,0.1,3.4,0.5,5.6-1.3c0.2-0.7,1.4-2.1,1.4-2.9C89.3,36,89.3,33.1,86.9,32.9z"/>
	<path style="fill:#75A8DA;" d="M69.9,42c-0.5,0.2-0.6,0.6-1,0.8c-0.2,0.1-0.7,0-1,0c-0.4,0-0.9,0-1.3,0.1c-0.4,0-0.7,0.3-0.7,0.7c0,0.1,0,0.1,0,0.2c0,0.2,0.1,0.5,0.4,0.6c0.9,0.4,1.6,0.2,2.6,0c0.7-0.2,1.4,0,2-0.4c0.4,0.1,1-0.1,1.1-0.7C72.1,42.4,70.9,41.7,69.9,42z"/>
	<path style="fill:#75A8DA;" d="M84.6,41.7c-0.1,0-0.2,0.1-0.3,0.1c-0.5-0.1-1.1-0.1-1.6,0.1c-0.9,0.3-0.5,1.6,0.4,1.4c0.1,0,0.2-0.1,0.3-0.1c0.6,0.4,1.6,0.3,2-0.4C85.7,42.2,85.2,41.5,84.6,41.7z M84.2,42L84.2,42L84.2,42L84.2,42z"/>
</svg>