<?xml version="1.0" encoding="utf-8"?>
<!-- Generator: Adobe Illustrator 19.0.0, SVG Export Plug-In . SVG Version: 6.00 Build 0)  -->
<svg version="1.1" id="分離模式" xmlns="http://www.w3.org/2000/svg" xmlns:xlink="http://www.w3.org/1999/xlink" x="0px" y="0px" viewBox="-10 0 100 100" style="enable-background:new -10 0 100 100;" xml:space="preserve">
	<path d="M67.3,75.1c-6.5,0-11.8,5.3-11.8,11.8c0,1.2,0.2,2.4,0.5,3.5l-0.1,0.1c-2.6,1.5-4,2.6-6.3,2.6c-5.5-0.1-11.3-4.8-16-9.5c0,0-0.8-0.8-1.2-1.2c2.3-9.9,2.2-21.5,2-26.1c4.5-1.9,9.3-8.4,12.7-13.7l0.7-1.1l-1.1-0.7c5.5-9,10.3-19.8,11.5-25.4c0.9-4,0.3-7.5-1.8-10c-2-2.4-5.1-3.7-9.1-3.7h-4.2C43,1.3,42.8,1,42.3,1c-1.6,0-1.2,0.8-1.8,0.8h-1c-0.6-1-1.7-1.7-3-1.7c-1.9,0-3.4,1.5-3.4,3.3s1.5,3.3,3.4,3.3c1.3,0,2.5-0.7,3-1.7h1c0.6,0,0.1,0.8,1.8,0.8c0.6,0,0.8-0.6,0.9-1.4h4.1c3.2,0,5.6,1,7.1,2.8c1.5,1.9,2,4.6,1.3,7.8c-1.3,6-6,16.2-11.2,24.6L43.3,39l-0.7,1c-5.5,8.7-9.2,11.8-10.8,11.8h-0.2c-1.5,0-5.3-3.1-10.8-11.8l-0.7-1L19,39.6C14,31.2,9.3,21,8,15c-0.7-3.2-0.3-5.9,1.3-7.8c1.5-1.8,3.9-2.8,7.1-2.8h1.9c0.1,0.8,0.3,1.4,0.9,1.4C20.8,5.8,20.4,5,21,5h1c0.6,1,1.7,1.7,3,1.7c1.9,0,3.4-1.5,3.4-3.3S26.9,0.1,25,0.1c-1.3,0-2.5,0.7-3,1.7h-1c-0.6,0-0.1-0.8-1.8-0.8c-0.4,0-0.7,0.4-0.8,0.9h-2c-4,0-7.1,1.3-9.1,3.7c-2,2.5-2.6,5.9-1.8,10c1.2,5.6,5.9,16.3,11.4,25.3l-1.1,0.7l0.7,1.1c3.4,5.3,8.2,11.9,12.7,13.8c0.1,3.9,0.3,13.4-1.3,22c-2.3-2-5.3-3.9-8.6-4.8c-1.2-0.3-2.4-0.5-3.7-0.5c-4.4,0-8.4,2-11.3,5.6C0.8,83.1,0,88.7,2.2,92.9c1.3,2.5,3.9,7,13.1,7l0,0c0.5,0,1.1,0,1.7,0c3.3-0.2,7.1-1.9,9.5-4.6c1.6-1.8,3-4.3,4.1-7.2c4.9,4.8,10.4,10,17.7,10c0.6,0,1.2,0,1.8-0.1c2.7-0.3,5.4-1.3,8.2-2.9l0,0c2.2,2.4,5.3,3.9,8.8,3.9c6.7-0.2,12-5.5,12-12C79.1,80.4,73.8,75.1,67.3,75.1z M22.7,91.9c-1.5,1.7-4,2.8-6,2.9c-0.5,0-0.9,0-1.4,0c-4.8,0-7.3-1.7-8.6-4.2c-1.2-2.4-0.6-5.9,1.6-8.6c1.9-2.4,4.5-3.7,7.3-3.7c0.8,0,1.6,0.1,2.3,0.3c3.1,0.8,6,3.1,8.6,5.5C25.6,87.5,24.3,90.1,22.7,91.9z M67.3,91.7c-2.8,0-5.1-2.3-5.1-5.1c0-2.8,2.3-5.1,5.1-5.1s5.1,2.3,5.1,5.1C72.4,89.4,70.1,91.7,67.3,91.7z"/>
</svg>