<?xml version="1.0" encoding="utf-8"?>
<!-- Generator: Adobe Illustrator 19.0.0, SVG Export Plug-In . SVG Version: 6.00 Build 0)  -->
<svg version="1.1" id="圖層_1" xmlns="http://www.w3.org/2000/svg" xmlns:xlink="http://www.w3.org/1999/xlink" x="0px" y="0px" viewBox="0 38 100 25" style="enable-background:new 0 38 100 25;" xml:space="preserve">
	<linearGradient id="gradient" gradientUnits="userSpaceOnUse" x1="50" y1="62.8125" x2="50" y2="38.0511">
		<stop offset="0" style="stop-color:#FFAE00"/>
		<stop offset="1" style="stop-color:#FFC600"/>
	</linearGradient>
	<path style="fill:url(#gradient);" d="M45.5,55.6l2.8-4l-3.4,0.5l3.4-3.1l-3.7-1.8L41.3,50h-1.1l3.3-3.4l5.2,0.2l-0.4-4.3l-3.8,1l-0.1-2h-4.5l0.1,2h-3.9L36,42.2l-7.2-0.7l0.2,3.6h3.1l-1.4,4v3.5l-2.9,0.7v3.4l2.9-1.3V60h-1.8l-0.4,2.9l6.1-0.9v-7l2.2-1.2l-0.3-1.7h2.9l-4.2,4.5l2.2,2.4l4.6-4.2l-5.5,8H41l2.3-4.2l2.3,2l4.8-1.6l-3.6-3.6L45.5,55.6z M35.9,49.9V51l-1.3,0.4v-2.2l1.3-2.6h3.2L35.9,49.9z M50.9,53.9L51,62l17.4,0.6l-0.2-9.2L50.9,53.9z M55.2,59.8l-0.1-3.3l8.8-0.3l0.1,3.3L55.2,59.8z M61.5,49.2l-0.1-1.8l6.6-0.2v-2.1l-6.6,0.3l-0.1-2.8L57,42.7v2.7l-2,0.1l0.6-2.2l-4.2,0.1l-1.8,6.2l4.3-0.1l0.5-1.9l2.7-0.1l0.1,2.5l-7.5,0.2l-0.5,3.1l8.1-1.2l4.2-0.1l7.6-0.3L69,48.6L61.5,49.2z M84.1,53.6l0.7,5.5l3.8,0.2l-0.7-5.5L84.1,53.6z M79,52.8l1,3.3l3.7,0.2L82.8,53L79,52.8z M78.6,53l-3.9-0.2l-0.3,5.8l9.1,2.7l0.2-3.9l-5.3-0.6L78.6,53z M85.2,43l0.2-2l-8-0.3l0.7-1l-4.3-1.6L69,44.9l1.8-0.2v1.1l13.1,0.6v1l-14.1-0.6l-0.6,2.5l14.6,0.1v1l-13.1-0.6l-0.1,2l17.1,0.8l1.4-8.4l-4.7,0.2L85.2,43z M80.4,44.2L75.1,44l0.8-1.2l5.2,0.2L80.4,44.2z M69.2,58.3l3.7,0.2l1.3-5.5l-3.7-0.2L69.2,58.3z M19.8,57.3l-0.2-3.2l8.1-0.9l-0.2-2.7l-8.1,0.9l-0.2-3.1l7.3-0.9l-0.2-2.2L19,46.1l-0.2-2.9l7.2-0.6l-0.1-4.3L8.2,42.9L8.3,45l6.2-1l0.2,2.9L9,48l0.2,2.2l5.7-1l0.2,3.1l-1,0.2c-0.8,0.1-1.7,0.2-2.3,0.4c-0.1,0-0.3,0.1-0.4,0.1l-2.8,0.5c-0.3,0-0.7,0-1,0c-1.4-0.1-2.9-0.8-3.4-2.1c-0.5-1.4,0-2.9,0.7-4.1c0.2-0.3,0.4-0.6,0.4-1c-0.1-0.5-0.9-0.7-1.5-0.7c-2.1,0.2-3.9,2.2-3.8,4.3c0,0.9,0.1,1.8,0.5,2.5c1,2,2.3,2.9,4.4,3.8c1.1,0.5,2.4,0.4,3.2,0.3c0.8-0.1,1.7-0.1,2.9-0.4c0.7-0.2,2-0.4,3.5-0.8l0.9-0.1l1.1,5.8l10.8-0.2l1.2-4.1L19.8,57.3z M90.6,60.9c0-0.2,4.1-0.4,4.1-0.4l0.6-4.4l-4.4-0.5C90.9,55.6,90.6,61.1,90.6,60.9z M99.7,39.7c-1.3-0.2-2.9,1.1-3.7,2.2c-0.5-0.4-2.3-1-2.2-0.9c-1.1-2.7-2.7-2.4-3.1-2.3c-0.4,0.1,0.9,3.2,0.9,3.2L91,54.6l4.5,0.6l2.4-11.7c0,0,1.4-1.9,1.8-2.7C100.1,40,100.1,39.8,99.7,39.7z M96,45.2c-0.1,0.6-0.6,1-1.3,1l-0.1,1.2h-0.4l0.1-1.2c-0.7-0.1-1.1-0.7-1.1-1.3c0.1-0.6,0.7-0.6,1.4-0.6C95.5,44.4,96.1,44.5,96,45.2z"/>
</svg>