<?xml version="1.0" encoding="utf-8"?>
<!-- Generator: Adobe Illustrator 19.0.0, SVG Export Plug-In . SVG Version: 6.00 Build 0)  -->
<svg version="1.1" id="圖層_1" xmlns="http://www.w3.org/2000/svg" xmlns:xlink="http://www.w3.org/1999/xlink" x="0px" y="0px" viewBox="0 0 100 25" style="enable-background:new 0 0 100 25;" xml:space="preserve">
	<path style="fill:#231815;" d="M43.5,8.6L40.2,12h1.1l3.3-2.8l3.7,1.8l-10.9,10l-2.2-2.4l4.2-4.5h-2.9l0.3,1.7l-2.2,1.2v7l-6.1,0.9l0.4-2.9h1.8v-4.6l-2.9,1.3v-3.4l2.9-0.7v-3.5l1.4-4h-3.1l-0.2-3.6l7.2,0.7l0.1,1.3h3.9l-0.1-2h4.5l0.1,2l3.8-1l0.4,4.3L43.5,8.6z M34.6,11.2v2.2l1.3-0.4v-1.1l3.2-3.3h-3.2 M45.6,22.6l-2.3-2L41,24.8h-4.5l7.2-10.5l4.6-0.7l-2.8,4l1.3-0.2l3.6,3.6L45.6,22.6z"/>
	<path style="fill:#231815;" d="M57.3,14.1l-8.1,1.2l0.5-3.1l7.5-0.2l-0.1-2.5l-2.7,0.1l-0.5,1.9l-4.3,0.1l1.8-6.2l4.2-0.1L55,7.5L57,7.4L57,4.7l4.3-0.1l0.1,2.8L68,7.1L68,9.2l-6.6,0.2l0.1,1.8l7.5-0.6l0.1,3.1L61.5,14L57.3,14.1z M51,24l-0.1-8.1l17.3-0.5l0.2,9.2L51,24z M63.9,18.2l-8.8,0.3l0.1,3.3l8.8-0.3L63.9,18.2z"/>
	<path style="fill:#231815;" d="M72.9,20.5l-3.7-0.2l1.3-5.5l3.7,0.2L72.9,20.5z M87.7,14.6l-17.1-0.8l0.1-2l13.1,0.6l0-1l-14.6-0.1l0.6-2.5l14.1,0.6l0-1L70.8,7.8l0-1.1L69,6.9l4.8-6.8l4.3,1.6l-0.7,1l8,0.3L85.2,5l-0.8,1.4l4.7-0.2L87.7,14.6z M83.5,23.3l-9.1-2.7l0.3-5.8l3.9,0.2l-0.2,3.8l5.3,0.6L83.5,23.3z M75.9,4.8L75.1,6l5.3,0.2L81.1,5L75.9,4.8z M80,18.1L79,14.8l3.8,0.2l0.9,3.3L80,18.1z M84.8,21.1l-0.7-5.5l3.8,0.2l0.7,5.5L84.8,21.1z"/>
	<path style="fill:#231815;" d="M19.8,19.3l-0.2-3.2l8.1-0.9l-0.2-2.7l-8.1,0.9l-0.2-3.1l7.3-0.9l-0.2-2.2L19,8.1l-0.2-2.9L26,4.6l-0.1-4.3L8.2,4.9L8.3,7L14.5,6l0.2,2.9L9,10l0.2,2.2l5.7-1l0.2,3.1l-1,0.2l0,0c-0.8,0.1-1.7,0.2-2.3,0.4c-0.1,0-0.3,0.1-0.4,0.1l-2.8,0.5l0,0c-0.3,0-0.7,0-1,0c-1.4-0.1-2.9-0.8-3.4-2.1C3.7,12,4.2,10.5,4.9,9.3c0.2-0.3,0.4-0.6,0.4-1C5.2,7.8,4.4,7.6,3.8,7.6C1.7,7.8-0.1,9.8,0,11.9c0,0.9,0.1,1.8,0.5,2.5c1,2,2.3,2.9,4.4,3.8c1.1,0.5,2.4,0.4,3.2,0.3c0.8-0.1,1.7-0.1,2.9-0.4c0.7-0.2,2-0.4,3.5-0.8l0.9-0.1l1.1,5.8l10.8-0.2l1.2-4.1L19.8,19.3z"/>
	<path style="fill:#231815;" d="M90.9,17.6c0,0-0.3,5.5-0.3,5.3c0-0.2,4.1-0.4,4.1-0.4l0.6-4.4L90.9,17.6z"/>
	<path d="M99.7,1.7c-1.3-0.2-2.9,1.1-3.7,2.2c-0.5-0.4-2.3-1-2.2-0.9c-1.1-2.7-2.7-2.4-3.1-2.3s0.9,3.2,0.9,3.2L91,16.6l4.5,0.6l2.4-11.7c0,0,1.4-1.9,1.8-2.7C100.1,2,100.1,1.8,99.7,1.7z M96,7.2c-0.1,0.6-0.6,1-1.3,1l-0.1,1.2l-0.4,0l0.1-1.2c-0.7-0.1-1.1-0.7-1.1-1.3c0.1-0.6,0.7-0.6,1.4-0.6C95.5,6.4,96.1,6.5,96,7.2z"/>
</svg>