<?xml version="1.0" encoding="utf-8"?>
<!-- Generator: Adobe Illustrator 19.0.0, SVG Export Plug-In . SVG Version: 6.00 Build 0)  -->
<svg version="1.1" id="圖層_1" xmlns="http://www.w3.org/2000/svg" xmlns:xlink="http://www.w3.org/1999/xlink" x="0px" y="0px" viewBox="0 0 100 12" style="enable-background:new 0 0 100 12;" xml:space="preserve">
	<path style="fill:#231815;" d="M5.6,8.3c0.1,0.1,0.2,0.3,0.2,0.5c0,0.2-0.1,0.4-0.2,0.5C5.5,9.4,5.3,9.5,5.2,9.5c0,0,0,0,0,0c-0.2,0-0.3-0.1-0.5-0.2C4.4,9.1,4.2,8.8,3.8,8.5c0,0,0,0,0,0c0,0,0,0,0,0v1.7c0,0.4,0,0.6-0.1,0.8c-0.1,0.2-0.2,0.3-0.4,0.4c-0.3,0.1-0.7,0.2-1.2,0.2c0,0,0,0,0,0c-0.2,0-0.3-0.1-0.5-0.2c-0.2-0.1-0.3-0.3-0.3-0.5c0-0.1,0-0.1,0-0.2c0-0.1,0-0.2,0.1-0.3c0.1-0.1,0.2-0.2,0.3-0.2h0c0.2,0,0.4,0,0.6,0c0.1,0,0.2,0,0.2-0.1s0.1-0.1,0.1-0.2V8.5c0,0,0,0,0,0c0,0,0,0,0,0c-0.3,0.3-0.8,0.6-1.4,1C0.8,9.5,0.7,9.6,0.6,9.6c0,0-0.1,0-0.1,0c-0.2,0-0.3-0.2-0.4-0.3C0,9.1,0,9,0,8.9c0-0.1,0-0.1,0-0.2c0.1-0.2,0.2-0.3,0.3-0.4c0.3-0.2,0.8-0.5,1.3-0.9c0.1-0.1,0.2-0.1,0.2-0.1c0,0,0.1,0,0.1,0c0.1,0,0.2,0.1,0.3,0.3c0,0,0,0,0,0c0,0,0,0,0,0V3.7c0-0.1,0-0.1-0.1-0.1H0.7c-0.2,0-0.3-0.1-0.5-0.2C0.1,3.3,0,3.2,0,3c0-0.2,0.1-0.3,0.2-0.5c0.1-0.1,0.3-0.2,0.5-0.2h1.6c0.1,0,0.1,0,0.1-0.1V1c0-0.2,0.1-0.4,0.2-0.5c0.1-0.1,0.3-0.2,0.5-0.2c0.2,0,0.4,0.1,0.5,0.2C3.7,0.6,3.8,0.8,3.8,1v1.2c0,0.1,0,0.1,0.1,0.1h1.2c0,0,0,0,0,0c0,0,0,0,0-0.1C5,2,4.8,1.7,4.5,1.3C4.4,1.2,4.4,1.1,4.4,1c0,0,0,0,0-0.1c0-0.2,0.1-0.3,0.2-0.3C4.7,0.5,4.8,0.5,5,0.5c0,0,0.1,0,0.1,0c0.2,0,0.3,0.1,0.4,0.2C5.6,0.8,5.8,1,5.9,1.1C6,1.2,6,1.4,6,1.5c0,0,0,0.1,0,0.1c0,0.2-0.2,0.3-0.3,0.4L5.4,2.3c0,0,0,0,0,0c0,0,0,0,0,0c0.2,0,0.3,0.1,0.4,0.2C5.9,2.6,6,2.7,6,2.9V3c0,0.2-0.1,0.4-0.2,0.5C5.6,3.6,5.5,3.6,5.3,3.6H3.9c-0.1,0-0.1,0-0.1,0.1v3.1h0c0,0,0,0,0,0C4.5,7.3,5.1,7.8,5.6,8.3z M0.4,5.2c0-0.1-0.1-0.2-0.1-0.3c0-0.1,0-0.1,0-0.2c0.1-0.2,0.2-0.3,0.3-0.3c0.1,0,0.2-0.1,0.3-0.1c0.1,0,0.1,0,0.2,0c0.2,0.1,0.3,0.2,0.4,0.3C1.7,5.1,1.9,5.4,2,5.7c0,0.1,0,0.2,0,0.2C2,6,2,6.1,2,6.2C1.9,6.3,1.8,6.5,1.6,6.5c-0.1,0-0.1,0-0.2,0c-0.1,0-0.1,0-0.2,0C1,6.5,0.9,6.4,0.9,6.2C0.7,5.9,0.6,5.6,0.4,5.2z M5.1,6.2C5,6.4,4.9,6.5,4.8,6.5c-0.1,0-0.1,0-0.2,0c-0.1,0-0.2,0-0.3-0.1C4.2,6.4,4.1,6.3,4,6.2C4,6.1,4,6.1,4,6C4,5.9,4,5.9,4,5.8c0.2-0.4,0.3-0.7,0.5-1.1c0.1-0.2,0.2-0.3,0.4-0.4C5,4.3,5,4.3,5.1,4.3c0.1,0,0.2,0,0.2,0c0.2,0.1,0.3,0.2,0.4,0.4c0,0.1,0,0.1,0,0.2c0,0.1,0,0.2-0.1,0.3C5.4,5.7,5.2,6,5.1,6.2z M11.3,3.4c0,0.1,0,0.2-0.1,0.3c-0.1,0.1-0.2,0.1-0.3,0.1c0,0-0.1,0-0.1,0.1c-0.2,1.7-0.7,3.1-1.3,4.3c0,0.1,0,0.1,0,0.2c0.4,0.6,0.9,1.2,1.5,1.6c0.1,0.1,0.2,0.2,0.2,0.4c0,0,0,0,0,0.1c0,0.2-0.1,0.3-0.2,0.4c-0.1,0.1-0.1,0.2-0.2,0.2c-0.1,0.2-0.3,0.2-0.5,0.3c0,0-0.1,0-0.1,0c-0.1,0-0.3,0-0.4-0.1C9.4,10.9,9,10.4,8.6,9.8c0,0-0.1,0-0.1,0c-0.6,0.7-1.2,1.2-2,1.7c-0.1,0.1-0.2,0.1-0.4,0.1c-0.1,0-0.1,0-0.2,0c-0.2,0-0.4-0.2-0.5-0.3C5.4,11.1,5.3,11,5.2,11c-0.1-0.1-0.1-0.2-0.1-0.3c0,0,0-0.1,0-0.1c0-0.2,0.1-0.3,0.3-0.3c0.9-0.4,1.7-1.1,2.3-1.9c0,0,0-0.1,0-0.2C7.4,7.5,7.2,6.9,7,6.2c0,0,0,0,0,0c0,0,0,0,0,0c0,0,0,0.1-0.1,0.1C6.8,6.5,6.7,6.5,6.5,6.5c0,0,0,0-0.1,0c-0.2,0-0.3-0.1-0.4-0.2c0,0-0.1-0.1-0.1-0.1C5.8,6.1,5.7,6,5.7,5.8c0,0,0-0.1,0-0.1c0-0.1,0-0.3,0.1-0.4C6.3,4.2,6.7,2.8,7,1c0-0.2,0.1-0.3,0.3-0.5c0.1-0.1,0.3-0.2,0.4-0.2c0,0,0.1,0,0.1,0l0.1,0c0.2,0,0.4,0.1,0.5,0.3C8.4,0.8,8.4,0.9,8.4,1c0,0,0,0.1,0,0.1C8.4,1.5,8.3,2,8.2,2.4c0,0.1,0,0.1,0.1,0.1h2.3c0.2,0,0.3,0.1,0.5,0.2c0.1,0.1,0.2,0.3,0.2,0.5V3.4z M9.3,4C9.4,3.9,9.3,3.9,9.3,4L7.9,3.9c-0.1,0-0.1,0-0.1,0.1c0,0,0,0.1,0,0.1c0,0.1,0,0.1,0,0.2C8,5.1,8.2,5.9,8.5,6.6c0,0,0,0,0,0c0,0,0,0,0,0C8.9,5.8,9.2,5,9.3,4z"/>
	<path style="fill:#231815;" d="M15.2,6c0.1,0,0.1,0,0.2,0c0.1,0,0.2,0,0.3,0.1c0.1,0.1,0.2,0.2,0.3,0.4c0,0,0,0.1,0,0.1c0,0.1,0,0.3-0.1,0.4c-0.1,0.2-0.2,0.3-0.4,0.3c-0.2,0.1-0.4,0.1-0.5,0.1c-0.1,0-0.1,0.1-0.1,0.1v2.6c0,0.3,0,0.6-0.1,0.8c-0.1,0.2-0.2,0.4-0.4,0.5c-0.2,0.1-0.6,0.2-1,0.3c0,0,0,0-0.1,0c-0.2,0-0.3-0.1-0.5-0.2c-0.2-0.1-0.3-0.3-0.3-0.5c0-0.1,0-0.1,0-0.2c0-0.1,0-0.2,0.1-0.3c0.1-0.1,0.2-0.2,0.4-0.2c0.1,0,0.2,0,0.3,0c0.1,0,0.1,0,0.2,0c0,0,0-0.1,0-0.2V7.9c0,0,0,0,0-0.1c0,0,0,0-0.1,0L13,8c-0.1,0-0.1,0-0.2,0c-0.1,0-0.2,0-0.3-0.1c-0.2-0.1-0.2-0.2-0.3-0.4v0c0,0,0-0.1,0-0.1c0-0.2,0-0.3,0.1-0.4c0.1-0.2,0.3-0.3,0.5-0.3c0.2,0,0.4-0.1,0.7-0.2c0.1,0,0.1-0.1,0.1-0.1V4c0-0.1,0-0.1-0.1-0.1h-0.5c-0.2,0-0.3-0.1-0.5-0.2c-0.1-0.1-0.2-0.3-0.2-0.5c0-0.2,0.1-0.3,0.2-0.5c0.1-0.1,0.3-0.2,0.5-0.2h0.5c0.1,0,0.1,0,0.1-0.1V1c0-0.2,0.1-0.4,0.2-0.5c0.1-0.1,0.3-0.2,0.5-0.2c0.2,0,0.3,0.1,0.5,0.2c0.1,0.1,0.2,0.3,0.2,0.5v1.5c0,0.1,0,0.1,0.1,0.1h0.3c0.2,0,0.3,0.1,0.5,0.2c0.1,0.1,0.2,0.3,0.2,0.5c0,0.2-0.1,0.3-0.2,0.5c-0.1,0.1-0.3,0.2-0.5,0.2h-0.3c-0.1,0-0.1,0-0.1,0.1v2c0,0,0,0,0,0c0,0,0,0,0.1,0L15.2,6z M21.6,7c0.3,0,0.6,0,0.8,0.1c0.1,0,0.2,0.1,0.2,0.2c0.1,0.1,0.1,0.2,0,0.3c-0.3,0.8-0.7,1.6-1.2,2.1c0,0,0,0.1,0,0.1c0.5,0.2,1,0.4,1.6,0.5c0.1,0,0.2,0.1,0.3,0.3c0,0.1,0,0.1,0,0.2c0,0.1,0,0.2-0.1,0.3c0,0,0,0,0,0c-0.1,0.2-0.3,0.3-0.5,0.4c-0.1,0.1-0.2,0.1-0.3,0.1c-0.1,0-0.2,0-0.2,0c-0.7-0.2-1.3-0.4-1.8-0.7c0,0-0.1,0-0.2,0c-0.5,0.3-1,0.5-1.6,0.7c-0.1,0-0.2,0-0.3,0c-0.1,0-0.2,0-0.3-0.1c-0.2-0.1-0.3-0.2-0.5-0.4c-0.1-0.1-0.1-0.2-0.1-0.3c0,0,0-0.1,0-0.1c0-0.1,0.1-0.2,0.3-0.3c0.5-0.1,0.9-0.3,1.3-0.5c0.1,0,0.1-0.1,0-0.1c-0.3-0.2-0.6-0.5-0.8-0.9c0,0,0,0,0,0c0,0,0,0,0,0c-0.4,0.9-1,1.6-1.7,2.2c-0.1,0.1-0.3,0.1-0.4,0.1c0,0-0.1,0-0.1,0c-0.2,0-0.3-0.1-0.5-0.3c0,0,0,0,0,0c-0.1-0.1-0.2-0.3-0.2-0.4c0-0.2,0.1-0.4,0.2-0.5c1-0.8,1.6-2,1.9-3.6c0-0.1,0-0.1-0.1-0.1h-0.8c-0.2,0-0.3-0.1-0.4-0.2c-0.1-0.1-0.2-0.3-0.2-0.4c0-0.2,0.1-0.3,0.2-0.4c0.1-0.1,0.3-0.2,0.4-0.2h0.9c0.1,0,0.1,0,0.1-0.1c0-0.2,0-0.3,0-0.4c0-0.1,0-0.1-0.1-0.1h-0.8c-0.2,0-0.3-0.1-0.4-0.2c-0.1-0.1-0.2-0.2-0.2-0.4c0-0.2,0.1-0.3,0.2-0.4c0.1-0.1,0.2-0.2,0.4-0.2H17c0.1,0,0.1,0,0.1-0.1c-0.1-0.2-0.1-0.4-0.2-0.7c0-0.1,0-0.1,0-0.2c0-0.1,0-0.2,0.1-0.2c0.1-0.1,0.2-0.2,0.3-0.3c0.1,0,0.1,0,0.2,0c0.1,0,0.2,0,0.3,0.1c0.2,0.1,0.3,0.2,0.3,0.3c0,0.1,0.1,0.2,0.1,0.3c0,0.1,0,0.1,0,0.2c0,0.1,0,0.2-0.1,0.3c-0.1,0.2-0.2,0.3-0.4,0.3c0,0,0,0,0,0h1.2c0.1,0,0.1,0,0.1-0.1c0-0.3-0.1-0.6-0.1-0.9c0,0,0-0.1,0-0.1c0-0.1,0-0.2,0.1-0.3C19,2.1,19.1,2,19.3,2c0,0,0.1,0,0.1,0c0.1,0,0.2,0,0.3,0.1C19.9,2.2,20,2.3,20,2.4c0,0.1,0,0.1,0.1,0.2c0,0.1,0,0.1,0,0.2c0,0.1,0,0.3-0.1,0.4c-0.1,0.2-0.3,0.3-0.5,0.3l-0.4,0.1c0,0,0,0,0,0c0,0,0,0,0,0h1.4c0.1,0,0.1,0,0.1-0.1c0.4-0.6,0.7-1.2,0.9-1.8c0,0,0,0,0,0c0,0,0,0,0,0C20.1,1.8,18.6,1.9,17,2h0c-0.2,0-0.3,0-0.4-0.1c-0.1-0.1-0.2-0.2-0.3-0.4c0,0,0-0.1,0-0.1c0-0.1,0-0.2,0.1-0.2c0.1-0.1,0.2-0.2,0.3-0.2c2-0.1,3.7-0.2,4.9-0.4c0.1,0,0.1,0,0.2,0c0.1,0,0.3,0,0.4,0.1c0.2,0.1,0.4,0.2,0.5,0.4c0.1,0.1,0.1,0.2,0.1,0.3c0,0,0,0.1,0,0.2c-0.1,0.1-0.2,0.2-0.3,0.3c-0.2,0-0.5,0.1-0.8,0.1c0,0,0,0,0,0c0,0,0,0,0,0l0.6,0.2c0.2,0,0.3,0.2,0.4,0.3c0,0.1,0,0.1,0,0.2c0,0.1,0,0.2-0.1,0.3c-0.2,0.3-0.4,0.6-0.6,0.9c0,0,0,0,0,0c0,0,0,0,0,0h0.5c0.2,0,0.3,0.1,0.4,0.2C23,3.9,23.1,4,23.1,4.2c0,0.2-0.1,0.3-0.2,0.4c-0.1,0.1-0.2,0.2-0.4,0.2h-3.3c-0.1,0-0.1,0-0.1,0.1c0,0.2,0,0.3,0,0.4c0,0.1,0,0.1,0.1,0.1h3.7c0.2,0,0.3,0.1,0.4,0.2c0.1,0.1,0.2,0.2,0.2,0.4c0,0.2-0.1,0.3-0.2,0.4c-0.1,0.1-0.3,0.2-0.4,0.2H19c-0.1,0-0.1,0-0.1,0.1c0,0,0,0.1,0,0.1c0,0.1,0,0.1,0,0.1c0,0.1,0,0.1,0.1,0.1H21.6z M21.1,8.1C21.1,8.1,21.1,8.1,21.1,8.1C21.1,8.1,21.1,8,21.1,8.1l-2-0.1c0,0,0,0,0,0c0,0,0,0,0,0c0.3,0.4,0.7,0.8,1.1,1.1c0,0,0.1,0,0.1,0C20.7,8.9,20.9,8.5,21.1,8.1z"/>
	<path style="fill:#231815;" d="M26.8,4.4c0.2,0.1,0.3,0.3,0.3,0.4c0,0,0,0.1,0,0.1c0,0.2,0,0.3-0.1,0.4l0,0c-0.1,0.2-0.3,0.3-0.4,0.3c0,0-0.1,0-0.1,0c-0.1,0-0.3,0-0.4-0.1c-0.3-0.2-0.7-0.4-1-0.6c-0.2-0.1-0.3-0.2-0.3-0.4c0,0,0-0.1,0-0.1c0-0.1,0-0.2,0.1-0.3C24.9,4,25,3.9,25.2,3.8c0.1,0,0.2,0,0.2,0c0.1,0,0.2,0,0.3,0.1C26.2,4,26.5,4.2,26.8,4.4z M26.6,7.4c0.1-0.2,0.2-0.3,0.4-0.3c0,0,0.1,0,0.1,0c0.1,0,0.2,0,0.3,0.1l0,0c0.2,0.1,0.3,0.3,0.3,0.5c0,0.1,0,0.1,0,0.2c0,0.1,0,0.3-0.1,0.4c-0.5,0.9-0.9,1.8-1.4,2.7c-0.1,0.2-0.2,0.3-0.4,0.3c0,0-0.1,0-0.1,0c-0.1,0-0.2,0-0.4-0.1L25.3,11c-0.2-0.1-0.3-0.3-0.3-0.5c0-0.1,0-0.1,0-0.2c0-0.1,0-0.3,0.1-0.4C25.6,9.2,26.1,8.3,26.6,7.4z M27.5,1.1c0.2,0.1,0.3,0.2,0.3,0.4c0,0,0,0.1,0,0.1c0,0.2,0,0.3-0.1,0.4l0,0c-0.1,0.2-0.3,0.2-0.4,0.3c0,0-0.1,0-0.1,0c-0.1,0-0.3,0-0.4-0.1c-0.3-0.2-0.6-0.4-1-0.6c-0.2-0.1-0.3-0.2-0.3-0.4c0,0,0-0.1,0-0.1c0-0.1,0-0.2,0.1-0.3c0.1-0.2,0.3-0.3,0.5-0.3c0.1,0,0.1,0,0.2,0c0.1,0,0.2,0,0.3,0.1C26.8,0.8,27.2,0.9,27.5,1.1z M34.3,7.6c0.1-0.1,0.3-0.1,0.4-0.1c0,0,0,0,0.1,0c0.2,0,0.3,0.1,0.5,0.2c0.1,0.1,0.2,0.2,0.2,0.4c0,0.2-0.1,0.4-0.3,0.5C34.8,8.8,34.4,9,34,9.3c-0.1,0-0.1,0.1,0,0.1c0.4,0.4,0.9,0.7,1.4,0.9c0.1,0.1,0.2,0.2,0.3,0.3c0,0,0,0.1,0,0.1c0,0.1,0,0.2-0.1,0.3c0,0-0.1,0.1-0.1,0.1c-0.1,0.2-0.3,0.3-0.5,0.3c-0.1,0-0.2,0-0.2,0c-0.1,0-0.2,0-0.3-0.1c-1.6-0.8-2.7-2.2-3.4-4.3c0-0.1-0.1-0.1-0.1-0.1H30c-0.1,0-0.1,0-0.1,0.1v2.6c0,0.1,0,0.1,0.1,0.1c0.1,0,0.3,0,0.6-0.1c0.3-0.1,0.6-0.1,0.8-0.1c0,0,0.1,0,0.1,0c0.1,0,0.2,0,0.4,0.1c0.1,0.1,0.2,0.3,0.2,0.4c0,0,0,0,0,0.1c0,0.2,0,0.3-0.1,0.4c-0.1,0.1-0.3,0.2-0.4,0.3c-0.7,0.1-1.7,0.3-3,0.5c0,0-0.1,0-0.1,0c-0.1,0-0.3,0-0.4-0.1c-0.2-0.1-0.3-0.3-0.3-0.5c0,0,0-0.1,0-0.1c0-0.1,0-0.2,0.1-0.4c0.1-0.2,0.3-0.2,0.4-0.3c0.1,0,0.1,0,0.1,0c0.1,0,0.1,0,0.1-0.1V2.4c0-0.2,0.1-0.4,0.2-0.5c0.1-0.1,0.3-0.2,0.5-0.2h1.7c0.1,0,0.1,0,0.1-0.1V1c0-0.2,0.1-0.4,0.2-0.5c0.1-0.1,0.3-0.2,0.5-0.2h0.1c0.2,0,0.4,0.1,0.5,0.2c0.1,0.1,0.2,0.3,0.2,0.5v0.6c0,0.1,0,0.1,0.1,0.1h1.8c0.2,0,0.4,0.1,0.5,0.2C35,2,35.1,2.2,35.1,2.4v4c0,0.2-0.1,0.4-0.2,0.5c-0.1,0.1-0.3,0.2-0.5,0.2h-1.8c0,0,0,0-0.1,0c0,0,0,0,0,0.1c0.2,0.4,0.4,0.8,0.6,1.2c0,0.1,0.1,0.1,0.1,0C33.6,8.1,33.9,7.9,34.3,7.6z M33.6,3C33.6,3,33.6,2.9,33.6,3L30,2.9c-0.1,0-0.1,0-0.1,0.1v0.6c0,0.1,0,0.1,0.1,0.1h3.5c0.1,0,0.1,0,0.1-0.1V3z M30,5C29.9,5,29.9,5,30,5l-0.1,0.7c0,0.1,0,0.1,0.1,0.1h3.5c0.1,0,0.1,0,0.1-0.1V5.1c0-0.1,0-0.1-0.1-0.1H30z"/>
	<path style="fill:#231815;" d="M39.1,4.4c0.2,0.1,0.3,0.3,0.3,0.4c0,0,0,0.1,0,0.1c0,0.2,0,0.3-0.1,0.4l0,0c-0.1,0.2-0.3,0.3-0.4,0.3c0,0-0.1,0-0.1,0c-0.1,0-0.3,0-0.4-0.1c-0.3-0.2-0.7-0.4-1-0.6c-0.2-0.1-0.3-0.2-0.3-0.4c0,0,0-0.1,0-0.1c0-0.1,0-0.2,0.1-0.3c0.1-0.2,0.3-0.3,0.5-0.3c0.1,0,0.2,0,0.2,0c0.1,0,0.2,0,0.3,0.1C38.4,4,38.8,4.2,39.1,4.4z M38.9,7.4c0.1-0.2,0.2-0.3,0.4-0.3c0,0,0.1,0,0.1,0c0.1,0,0.2,0,0.3,0.1l0,0C39.9,7.3,40,7.5,40,7.7c0,0.1,0,0.1,0,0.2c0,0.1,0,0.3-0.1,0.4c-0.5,0.9-0.9,1.8-1.4,2.7c-0.1,0.2-0.2,0.3-0.4,0.3c0,0-0.1,0-0.1,0c-0.1,0-0.2,0-0.4-0.1L37.5,11c-0.2-0.1-0.3-0.3-0.3-0.5c0-0.1,0-0.1,0-0.2c0-0.1,0-0.3,0.1-0.4C37.9,9.2,38.4,8.3,38.9,7.4z M39.8,1.1c0.2,0.1,0.3,0.2,0.3,0.4c0,0,0,0.1,0,0.1c0,0.2,0,0.3-0.1,0.4l0,0c-0.1,0.2-0.3,0.2-0.4,0.3c0,0-0.1,0-0.1,0c-0.1,0-0.3,0-0.4-0.1c-0.3-0.2-0.6-0.4-1-0.6c-0.2-0.1-0.3-0.2-0.3-0.4c0,0,0-0.1,0-0.1c0-0.1,0-0.2,0.1-0.3c0.1-0.2,0.3-0.3,0.5-0.3c0.1,0,0.1,0,0.2,0c0.1,0,0.2,0,0.3,0.1C39.1,0.8,39.5,0.9,39.8,1.1z M46.5,7.6c0.1-0.1,0.3-0.1,0.4-0.1c0,0,0,0,0.1,0c0.2,0,0.3,0.1,0.5,0.2c0.1,0.1,0.2,0.2,0.2,0.4c0,0.2-0.1,0.4-0.3,0.5c-0.3,0.2-0.7,0.5-1.1,0.7c-0.1,0-0.1,0.1,0,0.1c0.4,0.4,0.9,0.7,1.4,0.9c0.1,0.1,0.2,0.2,0.3,0.3c0,0,0,0.1,0,0.1c0,0.1,0,0.2-0.1,0.3c0,0-0.1,0.1-0.1,0.1c-0.1,0.2-0.3,0.3-0.5,0.3c-0.1,0-0.2,0-0.2,0c-0.1,0-0.2,0-0.3-0.1c-1.6-0.8-2.7-2.2-3.4-4.3c0-0.1-0.1-0.1-0.1-0.1h-0.9c-0.1,0-0.1,0-0.1,0.1v2.6c0,0.1,0,0.1,0.1,0.1c0.1,0,0.3,0,0.6-0.1c0.3-0.1,0.6-0.1,0.8-0.1c0,0,0.1,0,0.1,0c0.1,0,0.2,0,0.4,0.1c0.1,0.1,0.2,0.3,0.2,0.4c0,0,0,0,0,0.1c0,0.2,0,0.3-0.1,0.4c-0.1,0.1-0.3,0.2-0.4,0.3c-0.7,0.1-1.7,0.3-3,0.5c0,0-0.1,0-0.1,0c-0.1,0-0.3,0-0.4-0.1C40.1,11.2,40,11,40,10.8c0,0,0-0.1,0-0.1c0-0.1,0-0.2,0.1-0.4c0.1-0.2,0.3-0.2,0.4-0.3c0.1,0,0.1,0,0.1,0c0.1,0,0.1,0,0.1-0.1V2.4c0-0.2,0.1-0.4,0.2-0.5c0.1-0.1,0.3-0.2,0.5-0.2h1.7c0.1,0,0.1,0,0.1-0.1V1c0-0.2,0.1-0.4,0.2-0.5c0.1-0.1,0.3-0.2,0.5-0.2H44c0.2,0,0.4,0.1,0.5,0.2c0.1,0.1,0.2,0.3,0.2,0.5v0.6c0,0.1,0,0.1,0.1,0.1h1.8c0.2,0,0.4,0.1,0.5,0.2c0.1,0.1,0.2,0.3,0.2,0.5v4c0,0.2-0.1,0.4-0.2,0.5C47,7,46.8,7.1,46.6,7.1h-1.8c0,0,0,0-0.1,0c0,0,0,0,0,0.1c0.2,0.4,0.4,0.8,0.6,1.2c0,0.1,0.1,0.1,0.1,0C45.8,8.1,46.2,7.9,46.5,7.6z M45.9,3C45.9,3,45.8,2.9,45.9,3l-3.6-0.1c-0.1,0-0.1,0-0.1,0.1v0.6c0,0.1,0,0.1,0.1,0.1h3.5c0.1,0,0.1,0,0.1-0.1V3z M42.2,5C42.2,5,42.1,5,42.2,5l-0.1,0.7c0,0.1,0,0.1,0.1,0.1h3.5c0.1,0,0.1,0,0.1-0.1V5.1c0-0.1,0-0.1-0.1-0.1H42.2z"/>
	<path style="fill:#231815;" d="M58.2,4.9C58.2,4.9,58.2,4.9,58.2,4.9C58.3,4.9,58.3,4.9,58.2,4.9l0.4-0.2c0.2-0.1,0.3-0.2,0.6-0.2c0,0,0,0,0,0c0.2,0,0.4,0.1,0.5,0.2c1.3,1,2.3,1.8,3,2.4c0.1,0.1,0.2,0.3,0.2,0.5c0,0.2-0.1,0.4-0.2,0.5l-0.2,0.2c-0.1,0.1-0.3,0.2-0.5,0.2c0,0,0,0,0,0c-0.2,0-0.4-0.1-0.5-0.2c-0.8-0.8-1.8-1.7-3.2-2.8c0,0,0,0,0,0c0,0,0,0,0,0V11c0,0.2-0.1,0.4-0.2,0.5c-0.1,0.1-0.3,0.2-0.5,0.2h-0.2c-0.2,0-0.4-0.1-0.5-0.2c-0.1-0.1-0.2-0.3-0.2-0.5V5.8c0,0,0,0,0,0c0,0,0,0,0,0c-1,1.1-2.1,1.9-3.2,2.6c-0.1,0.1-0.2,0.1-0.4,0.1c-0.1,0-0.1,0-0.2,0c-0.2,0-0.3-0.2-0.5-0.3c-0.1-0.1-0.1-0.1-0.2-0.2c-0.1-0.1-0.1-0.2-0.1-0.3c0,0,0-0.1,0-0.1c0-0.2,0.1-0.3,0.3-0.4c0.9-0.5,1.8-1.2,2.6-2c0.8-0.8,1.5-1.6,2-2.5c0,0,0,0,0-0.1c0,0,0,0,0,0h-4.1c-0.2,0-0.4-0.1-0.5-0.2c-0.1-0.1-0.2-0.3-0.2-0.5V1.8c0-0.2,0.1-0.4,0.2-0.5c0.1-0.1,0.3-0.2,0.5-0.2H62c0.2,0,0.4,0.1,0.5,0.2c0.1,0.1,0.2,0.3,0.2,0.5v0.1c0,0.2-0.1,0.4-0.2,0.5c-0.1,0.1-0.3,0.2-0.5,0.2h-3c-0.1,0-0.1,0-0.1,0.1c-0.2,0.3-0.4,0.6-0.6,1c0,0,0,0.1,0,0.2V4.9z"/>
	<path style="fill:#231815;" d="M74.8,7.6c0.2,0,0.3,0.1,0.5,0.2c0.1,0.1,0.2,0.3,0.2,0.5c0,0.2-0.1,0.3-0.2,0.5c-0.1,0.1-0.3,0.2-0.5,0.2h-0.6C74.1,8.9,74,9,74,9v1.1c0,0.4,0,0.7-0.1,0.9c-0.1,0.2-0.3,0.4-0.5,0.5c-0.3,0.1-0.8,0.2-1.5,0.2c0,0,0,0,0,0c-0.2,0-0.4-0.1-0.5-0.2c-0.2-0.1-0.3-0.3-0.3-0.5c0,0,0,0,0,0c0-0.1,0-0.1,0-0.2c0-0.1,0-0.2,0.1-0.3c0.1-0.1,0.2-0.2,0.4-0.2h0c0.1,0,0.4,0,1,0c0.1,0,0.2,0,0.2-0.1c0,0,0.1-0.1,0.1-0.2V9c0-0.1,0-0.1-0.1-0.1h-5.6c-0.1,0-0.1,0-0.1,0.1v2c0,0.2-0.1,0.4-0.2,0.5c-0.1,0.1-0.3,0.2-0.5,0.2h0c-0.2,0-0.4-0.1-0.5-0.2c-0.1-0.1-0.2-0.3-0.2-0.5V9c0-0.1,0-0.1-0.1-0.1h-0.6c-0.2,0-0.3-0.1-0.5-0.2C64,8.6,64,8.4,64,8.3c0-0.2,0.1-0.3,0.2-0.5c0.1-0.1,0.3-0.2,0.5-0.2h0.6c0.1,0,0.1,0,0.1-0.1V3.8c0-0.2,0.1-0.4,0.2-0.5c0.1-0.1,0.3-0.2,0.5-0.2h2.8c0.1,0,0.1,0,0.1-0.1V2.4c0-0.1,0-0.1-0.1-0.1h-3.7c-0.2,0-0.4-0.1-0.5-0.2c-0.1-0.1-0.2-0.3-0.2-0.5c0-0.2,0.1-0.3,0.2-0.5c0.1-0.1,0.3-0.2,0.5-0.2h9.1c0.2,0,0.4,0.1,0.5,0.2c0.1,0.1,0.2,0.3,0.2,0.5c0,0.2-0.1,0.3-0.2,0.5c-0.1,0.1-0.3,0.2-0.5,0.2h-3.8c-0.1,0-0.1,0-0.1,0.1V3c0,0.1,0,0.1,0.1,0.1h2.9c0.2,0,0.4,0.1,0.5,0.2C74,3.4,74,3.6,74,3.8v3.7c0,0.1,0,0.1,0.1,0.1H74.8z M68.9,4.5C68.9,4.4,68.9,4.4,68.9,4.5l-2-0.1c-0.1,0-0.1,0-0.1,0.1v0.8c0,0.1,0,0.1,0.1,0.1h1.9c0.1,0,0.1,0,0.1-0.1V4.5z M66.9,6.6C66.8,6.6,66.8,6.6,66.9,6.6l-0.1,0.9c0,0.1,0,0.1,0.1,0.1h1.9c0.1,0,0.1,0,0.1-0.1V6.7c0-0.1,0-0.1-0.1-0.1H66.9z M72.6,4.5C72.6,4.4,72.6,4.4,72.6,4.5l-2.1-0.1c-0.1,0-0.1,0-0.1,0.1v0.8c0,0.1,0,0.1,0.1,0.1h2c0.1,0,0.1,0,0.1-0.1V4.5z M70.4,7.5C70.4,7.5,70.4,7.6,70.4,7.5l2.1,0.1c0.1,0,0.1,0,0.1-0.1V6.7c0-0.1,0-0.1-0.1-0.1h-2c-0.1,0-0.1,0-0.1,0.1V7.5z"/>
	<path style="fill:#231815;" d="M78,10.9c-0.1,0.2-0.3,0.2-0.5,0.3c0,0,0,0-0.1,0c-0.2,0-0.4-0.1-0.5-0.2l0,0c-0.2-0.1-0.2-0.3-0.2-0.5c0-0.2,0.1-0.3,0.2-0.4c0.4-0.4,0.7-0.9,0.9-1.5c0.1-0.2,0.2-0.3,0.3-0.4c0.1,0,0.2-0.1,0.3-0.1c0.1,0,0.1,0,0.2,0c0.2,0.1,0.3,0.2,0.4,0.3C79,8.6,79,8.7,79,8.8c0,0.1,0,0.2,0,0.2C78.7,9.8,78.4,10.4,78,10.9z M85.2,2.9C85.2,2.9,85.2,2.8,85.2,2.9l-0.7-0.1c-0.1,0-0.1,0-0.1,0.1c-0.7,1.8-1.8,3.2-3.2,4.4c-0.1,0.1-0.3,0.2-0.5,0.2c0,0,0,0-0.1,0c-0.2,0-0.4-0.1-0.5-0.2c0,0,0,0,0,0c-0.1-0.1-0.2-0.2-0.2-0.4c0-0.2,0.1-0.3,0.2-0.4c1.2-0.8,2.1-2,2.8-3.4c0,0,0,0,0-0.1c0,0,0,0-0.1,0H82c-0.1,0-0.1,0-0.1,0.1c-0.4,0.7-0.9,1.4-1.5,2c-0.6,0.6-1.2,1.2-1.9,1.6c-0.1,0.1-0.3,0.1-0.4,0.1c0,0-0.1,0-0.1,0c-0.2,0-0.4-0.1-0.5-0.3c0,0,0,0,0,0c-0.1-0.1-0.1-0.2-0.1-0.4c0,0,0,0,0-0.1c0-0.2,0.1-0.3,0.3-0.4c1.2-0.7,2.1-1.6,2.9-2.7c0,0,0,0,0,0c0,0,0,0,0,0h-0.8c-0.1,0-0.1,0-0.1,0.1c-0.4,0.5-0.8,0.9-1.2,1.3c-0.2,0.1-0.3,0.2-0.5,0.2c0,0,0,0,0,0c-0.2,0-0.4-0.1-0.6-0.2c0,0,0,0-0.1-0.1c-0.1-0.1-0.2-0.2-0.2-0.4s0.1-0.3,0.2-0.4c0.9-0.7,1.6-1.5,2.1-2.4c0.1-0.2,0.3-0.3,0.4-0.4c0.1,0,0.2-0.1,0.3-0.1c0.1,0,0.1,0,0.2,0l0,0c0.2,0,0.3,0.2,0.4,0.3c0,0.1,0,0.1,0,0.2c0,0.1,0,0.2-0.1,0.3c0,0.1-0.1,0.1-0.1,0.2c0,0,0,0,0,0c0,0,0,0,0,0H86c0.2,0,0.4,0.1,0.5,0.2c0.1,0.1,0.2,0.3,0.2,0.5c0,1-0.1,2-0.3,3.2c-0.1,0.7-0.2,1.1-0.4,1.4c-0.2,0.3-0.6,0.5-1,0.5c-0.2,0-0.5,0-0.8,0c-0.2,0-0.4-0.1-0.5-0.2c-0.1-0.1-0.3-0.3-0.3-0.5c0,0,0-0.1,0-0.1c0-0.1,0-0.2,0.1-0.3c0.1-0.1,0.2-0.2,0.3-0.2h0c0.2,0,0.3,0,0.5,0c0.2,0,0.3,0,0.4-0.1C84.9,5.7,85.1,4.7,85.2,2.9z M81.6,10.3h1.7c0.2,0,0.3,0,0.4-0.1c0.1-0.1,0.1-0.2,0.2-0.4c0-0.2,0.1-0.3,0.3-0.3c0.1,0,0.2-0.1,0.3-0.1c0.1,0,0.1,0,0.2,0c0.2,0.1,0.4,0.2,0.5,0.4c0.1,0.1,0.1,0.3,0.1,0.4c0,0,0,0.1,0,0.1c-0.1,0.5-0.3,0.8-0.5,1c-0.2,0.2-0.6,0.3-1.2,0.3h-2c-0.8,0-1.3-0.1-1.5-0.3c-0.3-0.2-0.4-0.7-0.4-1.3V8.8c0-0.2,0.1-0.4,0.2-0.5c0.1-0.1,0.3-0.2,0.5-0.2h0c0.2,0,0.4,0.1,0.5,0.2c0.1,0.1,0.2,0.3,0.2,0.5v1c0,0.2,0,0.3,0.1,0.3C81.1,10.2,81.3,10.3,81.6,10.3z M81.4,8.2c-0.2-0.1-0.2-0.2-0.2-0.4c0-0.1,0.1-0.2,0.2-0.3c0.1-0.1,0.3-0.2,0.5-0.2c0,0,0.1,0,0.1,0c0.2,0,0.3,0,0.4,0.1c0.3,0.2,0.7,0.4,0.9,0.6c0.1,0.1,0.2,0.3,0.2,0.5c0,0.2-0.1,0.3-0.2,0.5C83.1,9,83,9.1,82.8,9.1c0,0,0,0,0,0c-0.2,0-0.4-0.1-0.5-0.2C82,8.6,81.7,8.4,81.4,8.2z M84.8,9c-0.1-0.1-0.1-0.2-0.1-0.3c0,0,0-0.1,0-0.1c0-0.2,0.1-0.3,0.3-0.4c0.1-0.1,0.3-0.1,0.4-0.1c0,0,0.1,0,0.1,0c0.2,0,0.4,0.1,0.5,0.3c0.6,0.6,1,1.1,1.4,1.7c0.1,0.1,0.1,0.2,0.1,0.3c0,0.1,0,0.1,0,0.2c-0.1,0.2-0.2,0.3-0.4,0.4l-0.1,0c-0.1,0.1-0.2,0.1-0.3,0.1c-0.1,0-0.1,0-0.2,0c-0.2-0.1-0.3-0.2-0.4-0.3C85.8,10.2,85.4,9.6,84.8,9z"/>
	<path style="fill:#231815;" d="M93.2,6.6c0.1,0.1,0.2,0.3,0.2,0.5c0,0,0,0,0,0.1c0,0.2-0.1,0.3-0.2,0.5l0,0.1c-0.1,0.1-0.2,0.2-0.4,0.2c-0.2,0-0.3-0.1-0.4-0.2C92.2,7.5,92,7.2,91.8,7c0,0,0,0,0,0c0,0,0,0,0,0v4c0,0.2-0.1,0.4-0.2,0.5c-0.1,0.1-0.3,0.2-0.5,0.2h0c-0.2,0-0.4-0.1-0.5-0.2c-0.1-0.1-0.2-0.3-0.2-0.5V7.6c0,0,0,0,0,0c0,0,0,0,0,0C90,7.8,89.8,8,89.5,8.2c-0.1,0.1-0.2,0.1-0.3,0.1c-0.1,0-0.1,0-0.2,0c-0.2,0-0.3-0.2-0.4-0.3c0,0,0-0.1-0.1-0.1c-0.1-0.1-0.1-0.2-0.1-0.4c0-0.1,0-0.1,0-0.2c0-0.2,0.2-0.3,0.3-0.5c1.1-0.8,1.9-1.8,2.6-3c0,0,0,0,0,0c0,0,0,0,0,0h-2c-0.2,0-0.3-0.1-0.5-0.2c-0.1-0.1-0.2-0.3-0.2-0.5c0-0.2,0.1-0.3,0.2-0.5c0.1-0.1,0.3-0.2,0.5-0.2h0.8c0.1,0,0.1,0,0.1-0.1V1c0-0.2,0.1-0.4,0.2-0.5c0.1-0.1,0.3-0.2,0.5-0.2h0c0.2,0,0.4,0.1,0.5,0.2c0.1,0.1,0.2,0.3,0.2,0.5v1.5c0,0.1,0,0.1,0.1,0.1h0.4c0,0,0,0,0,0c0,0,0.1,0,0.1,0c0.1,0,0.2,0,0.3,0.1l0.2,0.1C93,2.8,93.1,2.9,93.2,3c0,0.1,0,0.1,0,0.2c0,0.1,0,0.2,0,0.2c-0.3,0.7-0.6,1.3-1,2c0,0,0,0.1,0,0.1C92.4,5.8,92.8,6.2,93.2,6.6z M98.2,10.4h0.5c0.1,0,0.1,0,0.2-0.1c0-0.1,0.1-0.3,0.1-0.6c0-0.1,0.1-0.2,0.2-0.3c0.1,0,0.1-0.1,0.2-0.1c0.1,0,0.1,0,0.2,0c0.2,0.1,0.3,0.2,0.4,0.3c0.1,0.1,0.1,0.3,0.1,0.4c0,0,0,0.1,0,0.1c-0.1,0.6-0.2,0.9-0.4,1.1c-0.2,0.2-0.5,0.3-0.8,0.3h-0.9c-0.5,0-0.9-0.1-1-0.3c-0.2-0.2-0.3-0.6-0.3-1.2V7.9c0-0.1,0-0.1-0.1-0.1h-0.4c-0.1,0-0.1,0-0.1,0.1c-0.1,0.8-0.3,1.5-0.6,2.1c-0.3,0.6-0.8,1-1.5,1.4c-0.1,0.1-0.2,0.1-0.3,0.1c-0.1,0-0.1,0-0.2,0c-0.2-0.1-0.3-0.2-0.5-0.3c-0.1-0.1-0.1-0.2-0.1-0.3c0,0,0-0.1,0-0.1c0-0.2,0.1-0.3,0.3-0.4c0.5-0.3,0.9-0.6,1.1-1c0.2-0.4,0.4-0.9,0.4-1.4c0-0.1,0-0.1-0.1-0.1c-0.2,0-0.4-0.1-0.5-0.2c-0.1-0.1-0.2-0.3-0.2-0.5V1.6c0-0.2,0.1-0.4,0.2-0.5c0.1-0.1,0.3-0.2,0.5-0.2h4c0.2,0,0.4,0.1,0.5,0.2c0.1,0.1,0.2,0.3,0.2,0.5v5.5c0,0.2-0.1,0.4-0.2,0.5c-0.1,0.1-0.3,0.2-0.5,0.2H98c-0.1,0-0.1,0-0.1,0.1V10c0,0.2,0,0.3,0,0.3C98,10.4,98.1,10.4,98.2,10.4z M95.2,2C95.2,2,95.1,2,95.2,2l-0.1,0.7c0,0.1,0,0.1,0.1,0.1h2.5c0.1,0,0.1,0,0.1-0.1V2.1c0-0.1,0-0.1-0.1-0.1H95.2z M95.2,3.9C95.2,3.9,95.1,3.9,95.2,3.9l-0.1,0.7c0,0.1,0,0.1,0.1,0.1h2.5c0.1,0,0.1,0,0.1-0.1V4c0-0.1,0-0.1-0.1-0.1H95.2z M95.2,5.8C95.2,5.8,95.1,5.9,95.2,5.8l-0.1,0.7c0,0.1,0,0.1,0.1,0.1h2.5c0.1,0,0.1,0,0.1-0.1V5.9c0-0.1,0-0.1-0.1-0.1H95.2z"/>
</svg>