<?xml version="1.0" encoding="utf-8"?>
<!-- Generator: Adobe Illustrator 19.0.0, SVG Export Plug-In . SVG Version: 6.00 Build 0)  -->
<svg version="1.1" id="圖層_1" xmlns="http://www.w3.org/2000/svg" xmlns:xlink="http://www.w3.org/1999/xlink" x="0px" y="0px" viewBox="0 0 100 100" style="enable-background:new 0 0 100 100;" xml:space="preserve">
	<path style="fill:#363636;" d="M100,50c0,27.6-22.4,50-50,50C22.4,100,0,77.6,0,50C0,22.4,22.4,0,50,0C77.6,0,100,22.4,100,50z"/>
	<circle style="fill:#2E2E2E;" cx="50.3" cy="49.7" r="38.8"/>
	<circle style="fill:#C2C2C2;" cx="50.3" cy="49.7" r="35"/>
	<circle style="fill:#8C8C8C;" cx="50.3" cy="49.7" r="30.6"/>
	<circle style="fill:#292929;" cx="50.3" cy="49.7" r="27.4"/>
	<polygon style="fill:#C2C2C2;" points="82.8,42.6 80.8,36.9 56,42.6 53.5,16.6 47.1,16.6 45.2,42.6 19.7,36.9 17.8,42.6 42,52.8 28.6,75.1 33.7,78.3 50.3,59.2 67.5,78.3 72.6,75.1 59.2,52.8 "/>
</svg>