<?xml version="1.0" encoding="utf-8"?>
<!-- Generator: Adobe Illustrator 19.0.0, SVG Export Plug-In . SVG Version: 6.00 Build 0)  -->
<svg version="1.1" id="分離模式" xmlns="http://www.w3.org/2000/svg" xmlns:xlink="http://www.w3.org/1999/xlink" x="0px"
	 y="0px" viewBox="0 32 100 38" style="enable-background:new 0 32 100 38;" xml:space="preserve">
<g>
	<path style="fill:#C7DADC;" d="M0,64h100v33H0V64z"/>
	<rect y="64" style="fill:#7EC3CB;" width="91.2" height="28.1"/>
	<path style="fill:#C1943D;" d="M19.1,75.6h21v1.9h-21C19.1,77.5,19.1,75.6,19.1,75.6z"/>
	<path style="fill:#C1943D;" d="M44.7,81.2h17.7v1.9H44.7V81.2z"/>
	<g>
		<path style="fill:#E6E6E6;" d="M39,75.22c-0.29-0.61-0.11-1.33-0.05-2.01c0.11-1.21-0.22-2.47-0.9-3.48
			c-0.63-0.92-4.32-1.38-5.8-1.61c-1.92-0.29-3.87-0.39-5.81-0.3c-1.42,0.07-2.88,0.25-4.13,0.93c-1.25,0.68-2.26,1.95-2.27,3.37
			c-0.02,2.01,2.2,3.51,4.17,3.9c0.69,0.14,1.41,0.09,2.11,0.04c2.17-0.15,4.33-0.3,6.5-0.46c0.67,0.16,1.32,0.37,1.93,0.69
			c0.38,0.19,0.73,0.43,1.13,0.57c0.4,0.14,0.86,0.17,1.23-0.04c0.17-0.1,0.33-0.26,0.38-0.45c0-0.02,0.01-0.03,0.01-0.05
			c0.03,0.04,0.07,0.08,0.12,0.11c0.2,0.15,0.47,0.16,0.72,0.17c0.38,0.01,0.85-0.04,0.98-0.39C39.45,75.88,39.16,75.55,39,75.22z
			 M37.02,75.71c-0.29-0.1-0.53-0.25-0.75-0.44c0.09-0.03,0.18-0.07,0.27-0.12c0.15-0.08,0.29-0.19,0.41-0.31
			c0.1,0.32,0.21,0.64,0.31,0.96C37.19,75.76,37.1,75.74,37.02,75.71z"/>
		<path style="fill:#1A1A1A;" d="M27.3,72.88c0.32-0.21,0.56-0.52,0.76-0.85c0.63-1.01,0.95-2.21,0.93-3.4
			c0-0.27-0.04-0.55-0.11-0.81c-0.81-0.03-1.62-0.02-2.43,0.01c-0.45,0.02-0.9,0.05-1.35,0.11c-0.08,0.18-0.1,0.39-0.03,0.63
			c0.1,0.36,0.31,0.68,0.35,1.05c0.05,0.4-0.09,0.8-0.14,1.2c-0.06,0.49,0.01,0.99,0.22,1.44c0.15,0.32,0.38,0.63,0.7,0.77
			C26.56,73.18,26.98,73.09,27.3,72.88z"/>
		<path style="fill:#DC7F20;" d="M26.93,68.97c0.2,0.14,0.47,0.15,0.71,0.07c-0.2,0.48-0.28,1.01-0.18,1.51
			c0.04,0.21,0.11,0.42,0.26,0.57c0.15,0.15,0.38,0.23,0.58,0.15c0.1-0.04,0.18-0.11,0.26-0.19c0.34-0.35,0.64-0.76,1.06-1.01
			c0.27-0.16,0.58-0.24,0.84-0.41c0.53-0.35,0.74-1.1,0.53-1.69c-1.44-0.15-2.88-0.2-4.33-0.14c-0.04,0.11-0.06,0.22-0.07,0.34
			C26.56,68.47,26.68,68.8,26.93,68.97z"/>
		<path style="fill:#1A1A1A;" d="M21.39,69.43c-0.01,0.12,0.01,0.24,0.07,0.37c0.15,0.36,0.64,0.4,0.94,0.65
			c0.28,0.22,0.38,0.61,0.63,0.87c0.2,0.21,0.5,0.33,0.79,0.31c0.07,0,0.14-0.02,0.18-0.07c0.05-0.06,0.04-0.14,0.03-0.21
			c-0.09-0.81-0.19-1.61-0.28-2.41c-0.03-0.23-0.08-0.49-0.2-0.67c-0.42,0.13-0.83,0.29-1.21,0.5
			C21.99,68.95,21.67,69.17,21.39,69.43z"/>
		<path style="fill:#DC7F20;" d="M23.34,69.26c0.11,0.19,0.27,0.35,0.4,0.53c0.14,0.21,0.25,0.46,0.48,0.57
			c0.26,0.13,0.58,0,0.81-0.18c0.19-0.15,0.34-0.33,0.46-0.53c0.28-0.49,0.3-1.15-0.04-1.6c-0.04-0.05-0.08-0.09-0.11-0.13
			c-0.7,0.08-1.39,0.2-2.04,0.43C23.17,68.61,23.16,68.93,23.34,69.26z"/>
		<path style="fill:#B3B3B3;" d="M29.14,75.84c0.51-1.01-0.56-2.51-1.27-2.14c-0.38,0.2-0.23,0.67-0.25,1.09
			c-0.01,0.24-0.08,0.46-0.32,0.6c-0.18,0.11-0.39,0.16-0.6,0.2c-1.08,0.2-2.21,0.09-3.29-0.01c-0.3-0.03-0.6-0.07-0.9-0.14
			c0.55,0.29,1.15,0.49,1.72,0.61c0.69,0.14,1.41,0.09,2.11,0.04c0.93-0.07,1.86-0.13,2.79-0.2C29.13,75.87,29.13,75.85,29.14,75.84
			z"/>
		<path style="fill:#B3B3B3;" d="M38,69.66c-0.77-0.87-4.3-1.31-5.74-1.53c-0.2-0.03-0.4-0.06-0.6-0.08
			c-0.11,0.34-0.15,0.67-0.1,0.9c0.17,0.74,1.77,2.2,3.32,2.2C35.92,71.15,37.3,70.55,38,69.66z"/>
		<path style="fill:#E6E6E6;" d="M28.11,74.79c0.02-0.42-0.13-0.89,0.25-1.09c0.71-0.37,1.77,1.13,1.27,2.14
			c-0.32,0.64-1.08,1.03-1.79,1.14c-2.82,0.45-5.02,0.26-7.23-1.59c-0.61-0.51-0.92-1.34-1-2.13c-0.09-0.79,0.2-1.65,0.85-2.12
			c-0.04,1.19-0.03,2.5,0.78,3.37c0.68,0.74,1.7,0.97,2.66,1.06c1.09,0.11,2.21,0.21,3.29,0.01c0.21-0.04,0.42-0.09,0.6-0.2
			C28.04,75.24,28.1,75.02,28.11,74.79z"/>
		<path style="fill:#1A1A1A;" d="M27.85,76.99c0.08-0.01,0.16-0.03,0.25-0.05c0.17-0.31,0.21-0.68,0.03-0.98
			c-0.14-0.23-0.36-0.36-0.62-0.45c-0.1,0.03-0.21,0.06-0.32,0.08c-1.08,0.2-2.21,0.09-3.29-0.01c-0.96-0.09-1.98-0.32-2.66-1.06
			c-0.77-0.84-0.82-2.06-0.78-3.21c-0.06-0.01-0.11-0.02-0.17-0.02c-0.52,0.49-0.75,1.26-0.67,1.98c0.09,0.79,0.39,1.62,1,2.13
			C22.83,77.24,25.03,77.44,27.85,76.99z"/>
		<path style="fill:#DC7F20;" d="M21.51,75.99c0.26-0.11,0.45-0.42,0.35-0.68c-0.18-0.49-0.97-0.32-1.35-0.68
			c-0.13-0.12-0.19-0.3-0.29-0.44s-0.27-0.28-0.44-0.24c-0.01,0-0.02,0.01-0.03,0.01c0.16,0.55,0.44,1.07,0.87,1.43
			c0.28,0.23,0.55,0.44,0.83,0.62C21.47,76,21.49,76,21.51,75.99z"/>
		<path style="fill:#DC7F20;" d="M23.65,76.36c-0.18,0.09-0.3,0.27-0.42,0.43l0.16-0.46c-0.13,0.13-0.2,0.32-0.21,0.51
			c0.45,0.14,0.9,0.24,1.37,0.29c0.01-0.04,0.02-0.08,0.03-0.12C24.63,76.55,24.06,76.15,23.65,76.36z"/>
		<path style="fill:#B3B3B3;" d="M38.38,70.98c0,0.95-1.4,2.17-3.34,2.17s-3.4-1.22-3.4-2.17s1.36-0.97,3.29-0.97
			C36.87,70.01,38.38,70.03,38.38,70.98z"/>
		<path style="fill:#E6E6E6;" d="M38.52,70.48c-0.16,1.39-2.15,2.46-3.53,2.46c-1.55,0-3.16-1.46-3.33-2.2
			c-0.1-0.47,0.17-1.33,0.64-1.9c0.31-0.38,0.8-1.21,1.38-1.42c0.49-0.18,2.47-0.34,3.08,0.05c0.48,0.32,0.66,0.59,0.93,1.1
			C37.99,69.11,38.52,69.58,38.52,70.48z"/>
		<path style="fill:#1A1A1A;" d="M34.87,67.23c-0.21,0.01-0.4,0.03-0.58,0.05c-0.02-0.02-0.04-0.03-0.06-0.05
			c-0.37-0.25-0.76-0.46-1.17-0.63c-0.25-0.1-0.58-0.17-0.75,0.03c-0.07,0.08-0.1,0.2-0.11,0.3c-0.07,0.38-0.21,1.49,0.12,1.87
			c-0.01,0.01-0.01,0.02-0.02,0.03c-0.08,0.1-0.16,0.21-0.23,0.33c0,0,0,0,0,0c0.26,0.19,1.34,0.23,1.62,0.07
			c0.28-0.15,0.49-0.42,0.66-0.69c0.16-0.25,0.3-0.52,0.42-0.8c0.06-0.14,0.11-0.28,0.11-0.43C34.88,67.3,34.88,67.26,34.87,67.23z"
			/>
		<path style="fill:#DC7F20;" d="M37.99,69.03c0.03,0,0.07-0.01,0.1-0.03c0.51-0.22,0.33-1.55,0.26-1.97
			c-0.02-0.11-0.04-0.22-0.11-0.3c-0.17-0.21-0.5-0.14-0.75-0.03c-0.4,0.16-0.78,0.37-1.13,0.61c-0.1-0.02-0.21-0.04-0.32-0.05
			c-0.47,0.38-0.81,0.88-0.86,1.33c-0.03,0.28,0.09,0.54,0.21,0.79c0.19,0.41,0.38,0.82,0.57,1.23c0.12,0.27,0.26,0.55,0.51,0.71
			c0.22,0.14,0.5,0.16,0.76,0.17c0.3,0.01,0.62,0.02,0.9-0.07c0.21-0.29,0.36-0.6,0.4-0.93C38.52,69.84,38.25,69.42,37.99,69.03z"/>
		<path style="fill:#1A1A1A;" d="M39.65,70.28c-1.3,0.07-2.72,0.38-3.93,0.89c-0.01,0,0,0.01,0.01,0.01
			c0.68-0.18,1.34-0.39,2.03-0.54c0.63-0.13,1.26-0.22,1.9-0.32C39.68,70.31,39.68,70.28,39.65,70.28z"/>
		<path style="fill:#1A1A1A;" d="M39.5,71.26c-1.25-0.14-2.58-0.1-3.82,0.07c-0.01,0-0.01,0.02,0,0.02
			c1.27-0.03,2.54-0.03,3.82-0.05C39.53,71.31,39.53,71.27,39.5,71.26z"/>
		<path style="fill:#1A1A1A;" d="M38.35,71.89c-0.89-0.19-1.86-0.38-2.77-0.43c-0.01,0-0.01,0.01,0,0.02
			c0.88,0.24,1.86,0.35,2.77,0.45C38.37,71.93,38.38,71.9,38.35,71.89z"/>
		<path style="fill:#1A1A1A;" d="M34.64,71.28c-0.69-0.2-1.44-0.24-2.15-0.12c-0.03,0-0.03,0.05,0.01,0.05
			c0.73-0.05,1.42,0,2.14,0.09C34.64,71.3,34.65,71.29,34.64,71.28z"/>
		<path style="fill:#1A1A1A;" d="M34.64,71.13c-0.83-0.35-1.89-0.37-2.78-0.23c-0.03,0.01-0.03,0.05,0.01,0.05
			c0.49-0.03,0.99-0.06,1.48-0.02c0.44,0.04,0.85,0.15,1.29,0.21C34.64,71.14,34.64,71.13,34.64,71.13z"/>
		<path style="fill:#1A1A1A;" d="M34.58,71.48c-0.92-0.08-1.9,0.08-2.78,0.36c-0.02,0.01-0.01,0.04,0.01,0.03
			c0.93-0.23,1.81-0.32,2.77-0.36C34.6,71.52,34.6,71.49,34.58,71.48z"/>
		<path style="fill:#191919;" d="M33.13,69.72c0.09,0.35,0.37,0.58,0.63,0.56c0.27-0.01,0.52-0.24,0.67-0.54
			c-0.13,0.06-0.22,0.2-0.34,0.28c-0.04,0.03-0.09,0.05-0.14,0.07c-0.15,0.05-0.31,0.07-0.46,0.01
			C33.35,70.04,33.21,69.91,33.13,69.72z"/>
		<path style="fill:#191919;" d="M35.41,69.82c0.09,0.35,0.37,0.58,0.63,0.56c0.27-0.01,0.52-0.24,0.67-0.54
			c-0.13,0.06-0.22,0.2-0.34,0.28c-0.04,0.03-0.09,0.05-0.14,0.07c-0.15,0.05-0.31,0.07-0.46,0.01
			C35.63,70.14,35.49,70.01,35.41,69.82z"/>
		<ellipse style="fill:#191919;" cx="35.05" cy="71.09" rx="0.52" ry="0.37"/>
	</g>
	<g>
		<path style="fill:#72716D;" d="M13.85,87.2c0.18-0.46,0.32-0.95,0.36-1.44c0.07-1.02-0.34-2.02-0.93-2.85
			c0.14,0.47,0.15,0.96,0.03,1.44c-0.02-0.08-0.05-0.17-0.08-0.24c-1.29-3.34-3.9-1.67-3.9-1.67c-2.44,1.62-0.25,4.25-0.25,4.25
			c1.91,2.82-0.59,3.9-0.59,3.9c-1.88,1.18-2.09,2.66-2.09,2.66c-0.73,4.59,3.64,5.38,3.64,5.38l0-0.48
			c-3.11-3.55,0.13-6.33,0.38-6.55l0.46-0.38C12.2,90.13,13.24,88.78,13.85,87.2z"/>
		<path style="fill:#63615A;" d="M8.66,95.83c-0.39,0.36-0.89,0.64-1.41,0.69c0.49,0.32,1.18,0.32,1.67,0.01
			C8.95,96.51,9.01,96.5,9,96.47c0-0.03-0.02-0.06-0.05-0.12c-0.07-0.18-0.16-0.44-0.18-0.63C8.75,95.76,8.69,95.8,8.66,95.83"/>
		<path style="fill:#63615A;" d="M6.37,94.92c0.5,0.14,1.06,0.18,1.55,0.03c0.23-0.07,0.46-0.18,0.57-0.39
			c-0.78,0.1-1.58-0.16-2.15-0.69C6.33,94.31,6.32,94.49,6.37,94.92"/>
		<path style="fill:#63615A;" d="M9.28,92.98c-0.71-0.31-1.34-0.62-2.01-1.02c-0.06,0.21,0.03,0.42,0.12,0.62
			c0.28,0.63,0.76,1.44,1.37,1.76c0.08-0.23,0.14-0.49,0.21-0.71C9.05,93.41,9.11,93.26,9.28,92.98"/>
		<path style="fill:#63615A;" d="M10.61,91.42c-0.52-0.19-0.84-0.66-1.17-1.11c0.28,0.17,0.56,0.33,0.87,0.42s0.78,0.15,1.08,0.03
			c-0.13,0.13-0.24,0.22-0.35,0.32c-0.2,0.18-0.21,0.2-0.42,0.35"/>
		<path style="fill:#63615A;" d="M13.86,87.16c-1.15,0.63-2.43-0.24-3.73-0.37c0.51,0.74,1.07,1.51,1.89,1.88
			c0.27,0.12,0.59,0.23,0.72,0.5c0.46-0.23,0.93-1.39,1.1-1.9C13.83,87.27,13.86,87.2,13.86,87.16"/>
		<path style="fill:#63615A;" d="M9.81,88.63c0.14,0.14,0.33,0.25,0.51,0.35c0.47,0.25,0.97,0.51,1.5,0.55
			c0.04,0,0.1,0.01,0.11,0.06c0,0.02-0.01,0.05-0.03,0.07c-0.09,0.1-0.23,0.13-0.36,0.13c-0.64,0.04-1.27-0.33-1.91-0.33
			C9.73,89.22,9.8,89.03,9.81,88.63"/>
	</g>
	<g>
		<path style="fill:#EAE0DC;" d="M22.7,86.1c0,0,0.15-2.89-0.48-3.34l-1.36,2.01L22.7,86.1z"/>
		<path style="fill:#5E5D5A;" d="M20.27,94.85l-0.21,3.7c0,0,0.28,1.22,0.73,1.29c0,0,1.15,0.24,1.05,0.98l-1.4-0.11
			c0,0-1.05-0.73-1.26-1.36l-0.84-2.93C18.36,96.42,20.42,93.86,20.27,94.85z"/>
		<path style="fill:#EAE0DC;" d="M16.28,86.55c0,0-0.63-2.44-0.47-3.33l0.12-0.33c0,0,1.59,0.72,1.62,0.77
			c0.03,0.05,0.77,0.93,0.77,0.93L16.28,86.55z"/>
		<path style="fill:#72716D;" d="M23.17,86.51l-1.89-1.75c0.57-0.79,0.94-1.93,0.94-1.93c0-0.14-0.1-0.07-0.1-0.07l-1.51,1.38
			c-0.49-0.27-1.64-0.1-2.04-0.03l-0.06-0.06c-0.54-0.58-2.48-1.38-2.48-1.38c-0.26,0.04-0.21,0.44-0.21,0.44
			c0.05-0.17,0.23-0.07,0.23-0.07c0.29,0.08,1.42,1.01,1.98,1.47c-0.65,0.62-1.88,1.83-1.75,2.03c0.02,0.03,0,0.29,0.02,0.35
			c0.14,0.49,0.14,1.85,0.14,1.85c0.07,0.77-0.94,0.94-0.94,0.94c-3.56,0.21-5.47,5.79-5.47,5.79c-0.58,1.99-0.17,2.99-0.17,2.99
			c0.02,0.13,0.05,0.31,0.1,0.43l0,0c0,0,0.47,2.23,3.63,2.27l2.09,0.17c0,0,0.03-1.36-1.15-1.19c-0.09,0.01-0.16,0.01-0.23,0
			l1.57-1.45c0.38,0.97,0.71,1.76,0.75,1.85c0.07,0.17,0.07,1.15,0.07,1.15l1.22,0.07c0.38-0.68-0.26-0.88-0.37-0.96l-0.06-3.61
			c0.73-0.71,2.54-2.49,2.6-2.6c0.94-1.88,1.08-1.85,1.08-1.85c-0.16-0.38-0.03-2.19-0.01-2.55c0.01,0,0.01,0,0.01,0l1.78-1.95
			C23.87,87.1,23.17,86.51,23.17,86.51z"/>
		<path style="fill:#EAE0DC;" d="M19.09,90.43c0,0-0.14,2.85-0.95,3.87c0,0-0.25,0.52-0.5,1.15c-0.32,0.81-0.17,1.79-0.17,1.79
			l2.94-2.56c0,0,1.12-1.33,0.84-3.11l-0.1-1.36C21.15,90.21,19.48,89.34,19.09,90.43z"/>
		<path style="fill:#E9E9F4;" d="M18.31,85.94c-0.04,0.02,0.99-0.46,1.39,0.38c0,0,0.08,0.23,0.07,0.31c0,0-0.24,0.41-0.74,0.36
			C19.02,87,18.21,86.83,18.31,85.94z"/>
		<path style="fill:#3D3D44;" d="M18.29,86.15c0,0,1.26-0.46,1.13,0.78C19.42,86.93,18.43,87.36,18.29,86.15z"/>
		<path style="fill:#E9E9F4;" d="M22.41,86.01c-0.6-0.52-1.28-0.07-1.28,0.49c0,0,0.09,0.31,0.2,0.37
			C21.33,86.86,22.29,87.13,22.41,86.01C22.41,86.01,22.52,86.1,22.41,86.01z"/>
		<path style="fill:#3D3D44;" d="M21.21,86.15c0,0,0.88-0.18,0.76,0.65c0,0-0.01,0.01-0.03,0.01c-0.25,0.12-0.3,0.12-0.6,0.06
			C21.34,86.87,20.97,86.73,21.21,86.15z"/>
		<path style="fill:#E9E9F4;" d="M21.98,87.58c0,0.4-0.56,1.12-1.22,1.12s-1.18-0.72-1.18-1.12c0-0.4,0.54-0.72,1.2-0.72
			C21.45,86.87,21.98,87.19,21.98,87.58z"/>
		<path style="fill:#83838E;" d="M20.79,87.62c0,0-0.13,0.82-0.78,0.7l-0.1-0.03l-0.07-0.07c0,0,0.31,0.11,0.48,0.01
			c0,0,0.36-0.15,0.38-0.63L20.79,87.62z"/>
		<path style="fill:#83838E;" d="M20.78,87.57c0,0,0.13,0.82,0.78,0.7l0.11-0.02l0.07-0.07c0,0-0.31,0.1-0.48,0.01
			c0,0-0.36-0.15-0.38-0.63L20.78,87.57z"/>
		<path style="fill:#3D3D44;" d="M21.24,87.28c0-0.12-0.2-0.21-0.46-0.22c-0.25,0-0.46,0.09-0.46,0.21c0,0.06,0.06,0.12,0.16,0.16
			c0.02,0.1,0.15,0.18,0.31,0.18c0.17,0,0.31-0.09,0.32-0.19C21.19,87.38,21.24,87.33,21.24,87.28z"/>
		<path style="fill:#3D3D44;" d="M22.17,86.65"/>
		<path style="fill:#3D3D44;" d="M22.17,86.65"/>
		<path style="fill:#3D3D44;" d="M22.17,86.65"/>
		<path style="fill:#63615A;" d="M16.44,88.26c0.08,0.07,0.22,0.19,0.3,0.25c0.72,0.62,1.74,0.89,2.67,0.71
			c-0.22,0.17-0.45,0.34-0.73,0.41c-0.18,0.04-0.36,0.03-0.54,0.02c-0.58-0.04-1.16-0.1-1.73-0.19c-0.08-0.01-0.21-0.02-0.19-0.1
			c0.01-0.04,0.07-0.09,0.09-0.12C16.5,89.03,16.45,88.69,16.44,88.26"/>
		<path style="fill:#63615A;" d="M15.43,89.7c0.06,0.29,0.25,0.63,0.51,0.88c0.61,0.6,1.37,1.06,2.19,1.32
			C18,92,17.81,92.01,17.64,92c-0.65-0.04-1.26-0.31-1.78-0.7c-0.52-0.39-0.95-0.9-1.33-1.43C14.82,89.74,15.43,89.66,15.43,89.7"/>
		<path style="fill:#63615A;" d="M13.05,90.76c-0.01,0.73,0.31,1.44,0.82,1.96c0.51,0.52,1.17,0.89,1.85,1.15
			c-0.71,0.21-1.49,0.03-2.12-0.37c-0.62-0.39-1.11-0.98-1.49-1.61c-0.02-0.04-0.07-0.08-0.04-0.12c0.06-0.08,0.08-0.1,0.12-0.15
			c0.26-0.27,0.49-0.57,0.78-0.8C13.04,90.74,13.09,90.73,13.05,90.76"/>
		<path style="fill:#63615A;" d="M10.11,95.26c0.61,0.26,1.23,0.79,1.73,1.22c0.12,0.11,0.24,0.22,0.32,0.36
			c0.09,0.15,0.13,0.32,0.17,0.49c0.12,0.57,0.16,1.17,0.11,1.75c-0.29-0.52-0.58-1.05-1.01-1.46c-0.43-0.41-1.1-0.71-1.69-0.64
			c-0.04-0.4,0.18-1.38,0.36-1.72"/>
		<path style="fill:#63615A;" d="M15.87,98.64c-0.17-0.67-0.51-1.29-0.87-1.88c-0.29-0.49-0.65-1.02-1.2-1.14
			c0.81,1.04,1.07,2.49,1.31,3.78c0.23-0.22,0.5-0.51,0.78-0.67"/>
		<path style="fill:#63615A;" d="M17.65,95.4c-0.28,0.62-1.07,1.28-1.75,1.21c0.11,0.28,0.38,0.47,0.66,0.56s0.59,0.09,0.89,0.08
			c0.05-0.54,0.13-1.32,0.21-1.85"/>
		<path style="fill:#63615A;" d="M11.38,92.76c-0.03,0.24,0.06,0.62,0.2,0.82c0.52,0.74,1.31,1.27,2.19,1.48
			c-0.31,0.1-0.65,0.09-0.96-0.02c-0.16-0.06-0.32-0.15-0.47-0.24c-0.23-0.14-0.45-0.27-0.68-0.41c-0.24-0.15-0.5-0.3-0.64-0.55
			c-0.04-0.07-0.07-0.16-0.07-0.24c0-0.06,0.01-0.12,0.03-0.18C11.03,93.26,11.28,92.9,11.38,92.76"/>
		<path style="fill:#63615A;" d="M17.72,95.25c0.1-0.15,0.2-0.41,0.29-0.57c0.14-0.23,0.17-0.47,0.16-0.55
			c-0.01-0.21-0.25-0.24-0.42-0.35c-0.54-0.36-0.8-1.11-1.41-1.32c-0.35-0.12-0.74-0.02-1.08,0.13c0.45-0.03,0.9,0.15,1.25,0.43
			s0.63,0.65,0.86,1.04C17.54,94.35,17.72,95.25,17.72,95.25z"/>
		<path style="fill:#63615A;" d="M16.3,86.51c0.31,0.44,0.85,0.82,1.39,0.82c0.22,0,0.45-0.04,0.66,0.02
			c-0.06,0.12-0.21,0.17-0.34,0.2c-0.55,0.15-1.1,0.38-1.58,0.67c-0.02-0.44-0.08-0.91-0.14-1.36c-0.01-0.1-0.03-0.21,0-0.36"/>
	</g>
	<polygon style="opacity:0.26;fill:#D7EEF4;enable-background:new    ;" points="32.9,64 20.9,64 0,83.5 0,97 12.3,97 	"/>
	<g>
		<path style="fill:#EFE2DF;" d="M52.82,73.16c0,0-3.75-0.53-3.85,0.65c0,0-0.85,6.85,0.47,7.61c0.44,0.04,0.69,0.02,1.12-0.09
			c0.1-0.02,0.21-0.08,0.23-0.19c0.01-0.06-0.01-0.12-0.03-0.17c-0.05-0.15-0.08-0.3-0.08-0.46c0.47,0.24,1.2,0.43,2.09,0.06
			c-0.01,0.09-0.04,0.18-0.06,0.27c-0.02,0.05-0.04,0.11-0.03,0.17c0.01,0.12,0.13,0.17,0.23,0.19c0.43,0.1,0.92,0.1,1.36,0.06
			c0.07-0.01,2.09-1.61,2.09-1.61C56.75,77.74,52.82,73.16,52.82,73.16z"/>
		<path style="fill:#A87144;" d="M49.22,80.54c-0.34-2.56,1.03-5.98,1.03-5.98l0.19-0.3L49,74.06c-1.04,1.33-1.41,2.67-1.47,3.83
			c-0.03,0.02-0.06,0.05-0.09,0.09c0,0-0.75,0.84,0.13,2.34c0,0-0.68,0.44-0.39,0.92c0,0,0.05,0.07,0.19,0.11
			c0.09,0.02,0.26-0.02,0.54,0.01c0,0,0.98,0.03,1.19,0.05c0.14,0.02,0.24,0.02,0.29,0.03c0.01,0,0.02,0,0.02,0
			c0.01,0,0.02,0,0.02,0c0.04,0,0-0.07-0.03-0.14L49.22,80.54z"/>
		<path style="fill:#A87144;" d="M59.1,81.26c0,0-0.17-1.21-0.62-2.28c0.1,0.05,0.19,0.12,0.27,0.21c-0.02-0.41-0.19-0.8-0.43-1.09
			c-0.24-0.29-0.55-0.49-0.87-0.63c-0.43-0.19-0.92-0.27-1.33-0.04c-0.11-1.09-0.5-2.31-1.44-3.52c0,0-1.19-1.51-1.93,0.14
			l0.68,0.37c0,0,1.37,3.42,1.03,5.98l-0.18,0.75c-0.04,0.07-0.07,0.14-0.03,0.14c0,0,0.01,0,0.02,0c0.01,0,0.02,0,0.02,0
			c0.05,0,0.15-0.01,0.29-0.03c0.21-0.03,1.19-0.05,1.19-0.05c0.28-0.03,0.45,0.01,0.54-0.01c0.02-0.01,0.04-0.01,0.06-0.02
			L59.1,81.26z"/>
		<path style="fill:#DBCBC6;" d="M50.34,74.33c0.54-0.41,1.21-0.4,1.85-0.38c0.41,0.02,0.86,0.05,1.18,0.37
			c0.34,0.36,0.43,0.96,0.43,1.5c0.01,0.6-0.06,1.24-0.38,1.7c-0.04-0.25-0.12-0.5-0.24-0.71c-0.26,0.9-0.88,1.64-1.63,1.94
			c0.02-0.45-0.1-0.9-0.33-1.24c-0.08,0.22-0.19,0.41-0.33,0.56c-0.65-0.92-0.93-2.22-0.72-3.4C50.17,74.67,50.21,74.43,50.34,74.33
			z"/>
	</g>
	<g>
		<path style="fill:#D59862;" d="M54.8,69.63c-0.02-0.03-0.03-0.05-0.05-0.08c0.04-0.68-0.05-2.63-0.05-2.63
			c-0.09-0.83-0.76-0.2-0.76-0.2c-0.39,0.4-1.01,0.85-1.51,1.19c-0.1,0.06-0.19,0.13-0.27,0.18c-0.06,0.04-0.11,0.07-0.16,0.1
			c-0.01,0-0.02,0-0.02,0l-2.59,0.72c-0.54-0.19-2.48-0.38-2.48-0.38c-0.83-0.11-0.38,0.69-0.38,0.69c0.53,0.85,1.05,2.29,1.1,2.42
			l0.34,1.83c0.77,1.56,2.68,0.69,2.68,0.69L53.06,74c1.36,0.93,2.11-0.92,2.11-0.92C55.62,71.79,54.8,69.63,54.8,69.63z"/>
		<path style="fill:#FFCFCF;" d="M48.76,69.38c0.06,0.02,0.03-0.19,0.03-0.19c-0.28-0.11-1.43-0.22-1.43-0.22
			c-0.47-0.06-0.21,0.39-0.21,0.39c0.32,0.51,0.63,1.38,0.63,1.38C47.92,70.67,48.59,69.64,48.76,69.38z"/>
		<path style="fill:#FFCFCF;" d="M54.32,67.49c-0.06-0.5-0.46-0.12-0.46-0.12c-0.23,0.24-0.61,0.51-0.9,0.71
			c-0.06,0.04-0.12,0.08-0.16,0.11c-0.17,0.11-0.29,0.18-0.29,0.18c0.18,0.1,1.84,0.76,1.84,0.76
			C54.38,68.82,54.32,67.49,54.32,67.49z"/>
		<path style="fill:#F9FDFF;" d="M51.26,70.86c-0.23,0.01-0.38,0.23-0.46,0.45c-0.07,0.18-0.11,0.38-0.23,0.54
			c-0.38,0.37-1.25,1.27-1.25,1.27c-0.46,0.4,0.6,1.18,0.68,1.23l1.41-0.15l1.33-0.13c0.07-0.06,0.98-0.86,0.47-1.2
			c0,0-0.8-0.64-1.27-1c-0.11-0.19-0.14-0.41-0.21-0.61C51.65,71.05,51.48,70.85,51.26,70.86z"/>
		<path style="fill:#CED5D8;" d="M51.25,72.6c0,0-0.27,1.45-1.24,1.61l0.01-0.1c0,0,0.71-0.04,1.13-1.55L51.25,72.6z"/>
		<path style="fill:#CED5D8;" d="M51.2,72.62c0,0,0.85,1.2,1.81,0.94l-0.05-0.09c0,0-0.66,0.26-1.68-0.93L51.2,72.62z"/>
		<path style="fill:#F7AE8B;" d="M51.67,72.07c-0.01-0.19-0.26-0.32-0.54-0.29c-0.28,0.02-0.5,0.19-0.49,0.38
			c0.01,0.1,0.09,0.19,0.2,0.24c0.03,0.16,0.19,0.27,0.38,0.26c0.19-0.01,0.33-0.17,0.33-0.34C51.63,72.25,51.68,72.16,51.67,72.07z
			"/>
		<path style="fill:#F9FDFF;" d="M48.25,71.62c0,0,0.87,0.88,1.81,0.3c0,0-0.21-1.38-1.17-0.91C48.85,71.03,48.32,71.33,48.25,71.62
			z"/>
		<path style="fill:#5E3B20;" d="M48.97,72.06c0.02,0,0.54-0.76-0.08-1.06c0,0-0.51,0.2-0.66,0.61
			C48.23,71.62,48.54,71.99,48.97,72.06z"/>
		<path style="fill:#F9FDFF;" d="M54.18,71.43c0,0-0.95,0.79-1.83,0.12c0,0,0.35-1.35,1.25-0.79
			C53.65,70.79,54.14,71.14,54.18,71.43z"/>
		<path style="fill:#5E3B20;" d="M53.09,71.83c0.02,0,0.43-0.84-0.25-1.09c0,0-0.43,0.3-0.5,0.81
			C52.34,71.55,52.66,71.87,53.09,71.83z"/>
	</g>
	<polygon style="opacity:0.3;fill:#D7EEF4;enable-background:new    ;" points="26.2,97 40.3,97 58,64 44.8,64 	"/>
</g>
</svg>
