<?xml version="1.0" encoding="utf-8"?>
<!-- Generator: Adobe Illustrator 19.0.0, SVG Export Plug-In . SVG Version: 6.00 Build 0)  -->
<svg version="1.1" id="圖層_1" xmlns="http://www.w3.org/2000/svg" xmlns:xlink="http://www.w3.org/1999/xlink" x="0px" y="0px" viewBox="0 0 100 89" style="enable-background:new 0 0 100 89;" xml:space="preserve">
	<path style="fill:#D59862;" d="M28,28.8l34.6-9.7c0,0,22.2,0.8,31.8,16.2c0,0,9.2,24.3,4.2,38.8c0,0-8.5,20.7-23.7,10.3l-27.1,1.7c0,0-21.5,9.7-30.1-7.7l-4.9-26.2C12.7,52.3,18.9,28.7,28,28.8z"/>
	<path style="fill:#D59862;" d="M33.2,31.1c1.2,0.3,2,0.5,2,0.5l-1.3-4.2C28.3,25.2,5.6,23,5.6,23c-9.3-1.3-4.2,7.8-4.2,7.8C7.6,40.7,13.8,58,13.8,58c3.3,0.3,2.5-1.6,1.3-3.1C19.9,51.4,29.8,36.3,33.2,31.1z"/>
	<path style="fill:#FFCFCF;" d="M26.5,32.6c0.7,0.2,0.4-2.1,0.4-2.1c-3.2-1.2-16.1-2.5-16.1-2.5c-5.3-0.7-2.4,4.4-2.4,4.4c3.5,5.7,7,15.5,7,15.5C17,46.7,24.6,35.5,26.5,32.6z"/>
	<path style="fill:#D59862;" d="M93.1,4.9c-1-9.4-8.6-2.2-8.6-2.2c-4.4,4.5-11.4,9.6-17,13.3c-1.1,0.7-2.2,1.4-3.1,2c-3.3,2.1-5.6,3.4-5.6,3.4c0.6,3.9,2.4,2,3.4,0.6c4.7,3.9,21.7,9.8,27.5,11.8c-0.1,1.2-0.1,1.9-0.1,1.9l3.9,0.1C94.4,29.9,93.1,4.9,93.1,4.9z"/>
	<path style="fill:#FFCFCF;" d="M88.9,11.3c-0.6-5.6-5.1-1.3-5.1-1.3c-2.6,2.7-15.3,11.2-15.3,11.2c10,2.2,20.7,8.6,20.7,8.6C89.7,26.3,88.9,11.3,88.9,11.3z"/>
	<path style="fill:#F9FDFF;" d="M54.5,49.2c-2.6,0.1-4.3,2.6-5.2,5c-0.8,2.1-1.3,4.3-2.5,6c-4.2,4.2-14,14.2-14,14.2c-5.2,4.5,6.8,13.2,7.6,13.8l15.8-1.6l15-1.4c0.8-0.7,11-9.6,5.3-13.5c0,0-9-7.2-14.2-11.3c-1.2-2.1-1.5-4.6-2.4-6.8C58.9,51.4,57,49.1,54.5,49.2z"/>
	<path  style="fill:#CED5D8;" d="M54.4,68.8c0,0-3,16.3-13.9,18.1l0.1-1.2c0,0,8-0.5,12.7-17.4L54.4,68.8z"/>
	<path  style="fill:#CED5D8;" d="M53.9,69c0,0,9.6,13.5,20.3,10.6l-0.6-1c0,0-7.4,2.9-18.9-10.4L53.9,69z"/>
	<path  style="fill:#F7AE8B;" d="M59.2,62.9c-0.2-2.1-2.9-3.6-6.1-3.3c-3.2,0.3-5.6,2.2-5.4,4.2c0.1,1.1,1,2.1,2.2,2.7c0.4,1.8,2.2,3.1,4.2,2.9c2.1-0.2,3.8-1.9,3.7-3.8C58.8,64.8,59.3,63.9,59.2,62.9z"/>
	<path  style="fill:#F9FDFF;" d="M20.8,57.7c0,0,9.7,9.9,20.3,3.4c0,0-2.4-15.5-13.1-10.3C27.5,51.1,21.6,54.5,20.8,57.7z"/>
	<path  style="fill:#5E3B20;" d="M28.8,62.7c0.2,0,6.1-8.6-0.9-11.9c0,0-5.7,2.2-7.4,6.8C20.6,57.7,24,61.9,28.8,62.7z"/>
	<path  style="fill:#F9FDFF;" d="M87.4,55.7c0,0-10.7,8.8-20.5,1.3c0,0,4-15.2,14.1-8.9C81.4,48.4,86.9,52.3,87.4,55.7z"/>
	<path  style="fill:#5E3B20;" d="M75.2,60.1c0.2,0,4.8-9.4-2.8-12.2c0,0-4.8,3.4-5.6,9.1C66.8,57,70.3,60.6,75.2,60.1z"/>
</svg>