<?xml version="1.0" encoding="utf-8"?>
<!-- Generator: Adobe Illustrator 19.0.0, SVG Export Plug-In . SVG Version: 6.00 Build 0)  -->
<svg version="1.1" id="分離模式" xmlns="http://www.w3.org/2000/svg" xmlns:xlink="http://www.w3.org/1999/xlink" x="0px"
	 y="0px" viewBox="0 32 100 38" style="enable-background:new 0 32 100 38;" xml:space="preserve">
<path style="fill:#C7DADC;" d="M0,32h100v33H0V32z"/>
<rect y="32" style="fill:#7EC3CB;" width="91.2" height="28.1"/>
<path style="fill:#C1943D;" d="M19.1,43.6h21v1.9h-21C19.1,45.5,19.1,43.6,19.1,43.6z"/>
<path style="fill:#C1943D;" d="M44.7,49.2h17.7v1.9H44.7V49.2z"/>
<g>
	<path style="fill:#E6E6E6;" d="M39.002,43.218c-0.292-0.612-0.11-1.33-0.049-2.006c0.109-1.21-0.215-2.47-0.896-3.476
		c-0.627-0.925-4.316-1.382-5.796-1.606c-1.921-0.291-3.87-0.39-5.81-0.297c-1.42,0.068-2.876,0.252-4.125,0.932
		c-1.249,0.68-2.259,1.951-2.273,3.372c-0.021,2.007,2.197,3.51,4.166,3.899c0.692,0.137,1.405,0.088,2.108,0.038
		c2.166-0.152,4.331-0.305,6.497-0.457c0.669,0.162,1.324,0.369,1.934,0.686c0.376,0.195,0.734,0.431,1.134,0.57
		c0.4,0.139,0.863,0.171,1.232-0.038c0.175-0.1,0.325-0.258,0.378-0.453c0.004-0.016,0.007-0.033,0.01-0.05
		c0.034,0.042,0.072,0.081,0.116,0.114c0.199,0.151,0.467,0.163,0.717,0.17c0.378,0.01,0.85-0.04,0.982-0.394
		C39.452,43.883,39.159,43.547,39.002,43.218z M37.021,43.715c-0.288-0.095-0.531-0.249-0.747-0.436
		c0.093-0.032,0.184-0.07,0.271-0.118c0.151-0.083,0.286-0.191,0.406-0.315c0.104,0.319,0.208,0.638,0.312,0.956
		C37.187,43.764,37.102,43.742,37.021,43.715z"/>
	<path style="fill:#1A1A1A;" d="M27.301,40.882c0.323-0.209,0.562-0.524,0.764-0.851c0.626-1.014,0.952-2.21,0.929-3.401
		c-0.005-0.267-0.038-0.548-0.11-0.81c-0.811-0.028-1.623-0.025-2.433,0.014c-0.449,0.022-0.901,0.055-1.348,0.111
		c-0.082,0.18-0.103,0.386-0.034,0.625c0.104,0.356,0.308,0.684,0.355,1.052c0.051,0.402-0.091,0.801-0.141,1.204
		c-0.062,0.489,0.014,0.994,0.217,1.443c0.146,0.324,0.375,0.633,0.704,0.766C26.558,41.179,26.978,41.09,27.301,40.882z"/>
	<path style="fill:#DC7F20;" d="M26.933,36.971c0.205,0.136,0.472,0.15,0.708,0.072c-0.2,0.477-0.283,1.005-0.185,1.51
		c0.04,0.207,0.114,0.415,0.261,0.566c0.147,0.151,0.379,0.232,0.575,0.155c0.101-0.039,0.183-0.115,0.259-0.192
		c0.345-0.348,0.638-0.761,1.06-1.01c0.269-0.158,0.579-0.241,0.838-0.414c0.532-0.354,0.74-1.098,0.526-1.692
		c-1.436-0.153-2.883-0.2-4.326-0.14c-0.038,0.109-0.064,0.221-0.072,0.336C26.556,36.47,26.676,36.8,26.933,36.971z"/>
	<path style="fill:#1A1A1A;" d="M21.387,37.433c-0.007,0.117,0.013,0.24,0.065,0.366c0.149,0.359,0.638,0.404,0.941,0.647
		c0.28,0.225,0.384,0.607,0.632,0.867c0.201,0.21,0.495,0.327,0.786,0.313c0.068-0.003,0.142-0.017,0.184-0.07
		c0.046-0.057,0.04-0.138,0.031-0.21c-0.095-0.805-0.189-1.61-0.284-2.414c-0.027-0.228-0.077-0.486-0.203-0.665
		c-0.42,0.127-0.826,0.29-1.213,0.5C21.99,36.948,21.673,37.174,21.387,37.433z"/>
	<path style="fill:#DC7F20;" d="M23.344,37.261c0.106,0.195,0.272,0.35,0.398,0.532c0.143,0.207,0.249,0.463,0.475,0.573
		c0.262,0.127,0.58,0.002,0.809-0.179c0.186-0.147,0.343-0.329,0.46-0.535c0.28-0.492,0.303-1.152-0.038-1.604
		c-0.036-0.048-0.075-0.09-0.115-0.129c-0.696,0.076-1.386,0.203-2.04,0.427C23.168,36.609,23.16,36.925,23.344,37.261z"/>
	<path style="fill:#B3B3B3;" d="M29.14,43.843c0.506-1.01-0.564-2.508-1.269-2.141c-0.378,0.197-0.23,0.668-0.252,1.086
		c-0.012,0.236-0.079,0.455-0.324,0.599c-0.183,0.107-0.392,0.158-0.6,0.196c-1.084,0.199-2.206,0.092-3.294-0.014
		c-0.297-0.029-0.601-0.071-0.899-0.138c0.553,0.286,1.145,0.493,1.717,0.606c0.692,0.137,1.405,0.088,2.108,0.038
		c0.931-0.066,1.863-0.131,2.794-0.197C29.126,43.867,29.134,43.855,29.14,43.843z"/>
	<path style="fill:#B3B3B3;" d="M37.996,37.659c-0.772-0.874-4.297-1.311-5.735-1.529c-0.198-0.03-0.397-0.057-0.596-0.083
		c-0.11,0.341-0.151,0.668-0.102,0.901c0.169,0.743,1.772,2.202,3.325,2.202C35.925,39.15,37.304,38.548,37.996,37.659z"/>
	<path style="fill:#E6E6E6;" d="M28.115,42.788c0.022-0.418-0.126-0.89,0.252-1.086c0.706-0.367,1.775,1.131,1.269,2.141
		c-0.322,0.643-1.077,1.03-1.787,1.143c-2.815,0.45-5.016,0.256-7.23-1.593c-0.612-0.511-0.919-1.341-1.005-2.134
		c-0.086-0.793,0.199-1.655,0.846-2.121c-0.043,1.19-0.029,2.496,0.777,3.372c0.676,0.736,1.703,0.966,2.659,1.059
		c1.089,0.106,2.21,0.214,3.294,0.014c0.208-0.038,0.418-0.09,0.6-0.196C28.036,43.243,28.103,43.024,28.115,42.788z"/>
	<path style="fill:#1A1A1A;" d="M27.85,44.986c0.081-0.013,0.164-0.03,0.245-0.05c0.169-0.31,0.213-0.683,0.034-0.98
		c-0.137-0.227-0.363-0.359-0.616-0.45c-0.105,0.033-0.214,0.057-0.323,0.077c-1.084,0.199-2.206,0.092-3.294-0.014
		c-0.956-0.093-1.983-0.323-2.659-1.059c-0.769-0.836-0.817-2.064-0.782-3.208c-0.056-0.009-0.111-0.016-0.166-0.021
		c-0.525,0.486-0.752,1.26-0.674,1.978c0.086,0.793,0.393,1.622,1.005,2.134C22.833,45.242,25.035,45.436,27.85,44.986z"/>
	<path style="fill:#DC7F20;" d="M21.515,43.988c0.261-0.109,0.452-0.416,0.353-0.681c-0.182-0.488-0.972-0.317-1.346-0.678
		c-0.128-0.124-0.192-0.298-0.292-0.445c-0.1-0.147-0.27-0.277-0.443-0.235c-0.012,0.003-0.023,0.009-0.034,0.014
		c0.158,0.551,0.437,1.069,0.868,1.429c0.277,0.231,0.553,0.436,0.831,0.618C21.472,44.004,21.494,43.997,21.515,43.988z"/>
	<path style="fill:#DC7F20;" d="M23.651,44.364c-0.179,0.094-0.301,0.267-0.415,0.434l0.156-0.461
		c-0.133,0.133-0.2,0.318-0.207,0.506c0.446,0.142,0.9,0.237,1.368,0.291c0.013-0.038,0.023-0.078,0.027-0.119
		C24.627,44.554,24.06,44.15,23.651,44.364z"/>
	<path style="fill:#B3B3B3;" d="M38.38,38.978c0,0.95-1.404,2.169-3.34,2.169c-1.936,0-3.399-1.219-3.399-2.169
		s1.356-0.973,3.292-0.973C36.869,38.005,38.38,38.028,38.38,38.978z"/>
	<path style="fill:#E6E6E6;" d="M38.519,38.478c-0.16,1.39-2.15,2.46-3.532,2.46c-1.554,0-3.156-1.459-3.325-2.202
		c-0.1-0.472,0.169-1.328,0.637-1.904c0.312-0.384,0.803-1.205,1.381-1.423c0.485-0.183,2.473-0.342,3.077,0.054
		c0.483,0.316,0.659,0.591,0.934,1.099C37.989,37.113,38.519,37.581,38.519,38.478z"/>
	<path style="fill:#1A1A1A;" d="M34.871,35.231c-0.205,0.011-0.402,0.03-0.578,0.052c-0.02-0.018-0.043-0.034-0.065-0.049
		c-0.367-0.25-0.759-0.462-1.168-0.633c-0.249-0.104-0.579-0.174-0.752,0.032c-0.07,0.083-0.095,0.195-0.114,0.302
		c-0.066,0.38-0.214,1.491,0.124,1.872c-0.006,0.008-0.013,0.017-0.02,0.025c-0.084,0.103-0.161,0.215-0.231,0.332
		c0.001,0.001,0.002,0.002,0.003,0.003c0.26,0.19,1.337,0.228,1.619,0.073c0.283-0.154,0.49-0.416,0.664-0.687
		c0.162-0.253,0.302-0.52,0.418-0.797c0.057-0.137,0.109-0.28,0.108-0.428C34.881,35.296,34.877,35.263,34.871,35.231z"/>
	<path style="fill:#DC7F20;" d="M37.99,37.033c0.034-0.004,0.067-0.012,0.098-0.025c0.51-0.217,0.334-1.55,0.26-1.973
		c-0.019-0.107-0.044-0.219-0.114-0.302c-0.173-0.206-0.503-0.136-0.752-0.032c-0.396,0.165-0.775,0.37-1.13,0.609
		c-0.098-0.022-0.205-0.04-0.319-0.054c-0.465,0.377-0.814,0.88-0.856,1.327c-0.026,0.276,0.093,0.542,0.209,0.794
		c0.189,0.41,0.378,0.821,0.568,1.231c0.123,0.267,0.259,0.549,0.508,0.705c0.223,0.141,0.501,0.156,0.765,0.168
		c0.297,0.013,0.619,0.016,0.897-0.071c0.214-0.285,0.358-0.599,0.396-0.931C38.519,37.841,38.252,37.421,37.99,37.033z"/>
	<path style="fill:#1A1A1A;" d="M39.652,38.277c-1.3,0.074-2.724,0.382-3.927,0.888c-0.008,0.003-0.003,0.014,0.005,0.012
		c0.679-0.175,1.344-0.387,2.031-0.535c0.628-0.135,1.264-0.217,1.897-0.324C39.684,38.314,39.679,38.275,39.652,38.277z"/>
	<path style="fill:#1A1A1A;" d="M39.501,39.264c-1.248-0.141-2.58-0.097-3.822,0.071c-0.012,0.002-0.01,0.019,0.002,0.019
		c1.274-0.033,2.545-0.029,3.819-0.046C39.525,39.306,39.525,39.266,39.501,39.264z"/>
	<path style="fill:#1A1A1A;" d="M38.351,39.891c-0.894-0.188-1.857-0.382-2.769-0.431c-0.012-0.001-0.014,0.015-0.003,0.018
		c0.882,0.237,1.858,0.353,2.766,0.452C38.371,39.933,38.377,39.896,38.351,39.891z"/>
	<path style="fill:#1A1A1A;" d="M34.638,39.281c-0.688-0.204-1.444-0.235-2.151-0.123c-0.033,0.005-0.027,0.053,0.006,0.051
		c0.727-0.047,1.419-0.004,2.139,0.093C34.644,39.303,34.651,39.285,34.638,39.281z"/>
	<path style="fill:#1A1A1A;" d="M34.637,39.127c-0.835-0.349-1.892-0.371-2.777-0.229c-0.032,0.005-0.026,0.052,0.006,0.049
		c0.494-0.035,0.986-0.059,1.481-0.016c0.436,0.038,0.855,0.148,1.287,0.208C34.641,39.14,34.644,39.13,34.637,39.127z"/>
	<path style="fill:#1A1A1A;" d="M34.585,39.484c-0.925-0.076-1.901,0.076-2.782,0.36c-0.022,0.007-0.009,0.039,0.013,0.033
		c0.931-0.229,1.814-0.317,2.768-0.36C34.603,39.517,34.604,39.485,34.585,39.484z"/>
	<path style="fill:#191919;" d="M33.13,37.724c0.089,0.353,0.367,0.576,0.635,0.562c0.268-0.014,0.517-0.238,0.674-0.541
		c-0.126,0.057-0.222,0.201-0.341,0.281c-0.045,0.03-0.092,0.051-0.14,0.067c-0.151,0.052-0.312,0.066-0.462,0.009
		C33.346,38.045,33.206,37.913,33.13,37.724z"/>
	<path style="fill:#191919;" d="M35.414,37.823c0.089,0.353,0.367,0.576,0.635,0.562c0.268-0.014,0.517-0.238,0.674-0.541
		c-0.126,0.057-0.222,0.201-0.341,0.281c-0.045,0.03-0.092,0.051-0.14,0.067c-0.151,0.052-0.312,0.066-0.462,0.009
		C35.63,38.144,35.491,38.013,35.414,37.823z"/>
	<ellipse style="fill:#191919;" cx="35.049" cy="39.093" rx="0.521" ry="0.367"/>
</g>
<g>
	<path style="fill:#72716D;" d="M13.853,55.201c0.179-0.464,0.323-0.945,0.357-1.441c0.069-1.018-0.339-2.022-0.93-2.854
		c0.143,0.467,0.145,0.964,0.032,1.437c-0.025-0.083-0.052-0.165-0.081-0.243c-1.286-3.344-3.896-1.667-3.896-1.667
		c-2.438,1.621-0.249,4.245-0.249,4.245c1.907,2.82-0.589,3.903-0.589,3.903c-1.876,1.176-2.09,2.659-2.09,2.659
		c-0.73,4.586,3.644,5.378,3.644,5.378l0.001-0.481c-3.111-3.551,0.128-6.332,0.381-6.552l0.462-0.375
		C12.2,58.131,13.244,56.782,13.853,55.201z"/>
	<path style="fill:#63615A;" d="M8.662,63.833c-0.385,0.365-0.885,0.642-1.413,0.687c0.493,0.322,1.175,0.324,1.671,0.007
		c0.027-0.017,0.085-0.023,0.08-0.055c-0.004-0.031-0.022-0.059-0.046-0.118c-0.075-0.183-0.161-0.443-0.179-0.63
		C8.746,63.758,8.69,63.8,8.662,63.833"/>
	<path style="fill:#63615A;" d="M6.367,62.922c0.497,0.141,1.059,0.182,1.553,0.033c0.226-0.068,0.458-0.179,0.57-0.386
		c-0.78,0.098-1.579-0.158-2.154-0.694C6.328,62.311,6.316,62.489,6.367,62.922"/>
	<path style="fill:#63615A;" d="M9.285,60.981c-0.714-0.306-1.34-0.617-2.005-1.018c-0.057,0.206,0.033,0.421,0.121,0.616
		c0.283,0.627,0.757,1.438,1.365,1.758c0.078-0.227,0.136-0.486,0.209-0.706C9.048,61.411,9.111,61.265,9.285,60.981"/>
	<path style="fill:#63615A;" d="M10.615,59.416c-0.522-0.189-0.844-0.661-1.166-1.113c0.276,0.168,0.562,0.327,0.873,0.415
		c0.311,0.088,0.781,0.149,1.082,0.03c-0.131,0.131-0.238,0.22-0.353,0.323c-0.198,0.176-0.207,0.201-0.423,0.353"/>
	<path style="fill:#63615A;" d="M13.862,55.161c-1.149,0.628-2.432-0.235-3.734-0.369c0.514,0.739,1.068,1.51,1.887,1.884
		c0.271,0.124,0.592,0.225,0.717,0.495c0.457-0.226,0.925-1.389,1.096-1.902C13.827,55.27,13.862,55.201,13.862,55.161"/>
	<path style="fill:#63615A;" d="M9.809,56.63c0.141,0.143,0.332,0.252,0.51,0.347c0.474,0.254,0.967,0.514,1.504,0.55
		c0.044,0.003,0.099,0.014,0.107,0.058c0.004,0.024-0.011,0.048-0.028,0.066c-0.088,0.098-0.229,0.128-0.361,0.135
		c-0.638,0.036-1.269-0.334-1.908-0.328c0.092-0.242,0.167-0.425,0.17-0.818"/>
</g>
<g>
	<path style="fill:#EAE0DC;" d="M22.704,54.096c0,0,0.153-2.886-0.475-3.344l-1.361,2.015L22.704,54.096z"/>
	<path style="fill:#5E5D5A;" d="M20.275,62.85l-0.209,3.698c0,0,0.279,1.221,0.733,1.291c0,0,1.151,0.244,1.047,0.977l-1.396-0.105
		c0,0-1.047-0.733-1.256-1.361l-0.837-2.931C18.356,64.42,20.42,61.863,20.275,62.85z"/>
	<path style="fill:#EAE0DC;" d="M16.28,54.546c0,0-0.628-2.442-0.471-3.332l0.122-0.331c0,0,1.587,0.715,1.622,0.768
		c0.035,0.052,0.768,0.925,0.768,0.925L16.28,54.546z"/>
	<path style="fill:#72716D;" d="M23.171,54.511l-1.886-1.747c0.572-0.789,0.944-1.934,0.944-1.934c0-0.14-0.105-0.07-0.105-0.07
		l-1.512,1.376c-0.493-0.274-1.635-0.1-2.04-0.026l-0.059-0.059c-0.541-0.576-2.477-1.378-2.477-1.378
		c-0.262,0.035-0.209,0.436-0.209,0.436c0.052-0.174,0.227-0.07,0.227-0.07c0.289,0.079,1.417,1.005,1.976,1.471
		c-0.654,0.623-1.878,1.83-1.749,2.035c0.019,0.03,0.005,0.288,0.022,0.347c0.136,0.49,0.135,1.851,0.135,1.851
		c0.074,0.766-0.942,0.942-0.942,0.942c-3.559,0.209-5.469,5.79-5.469,5.79c-0.576,1.989-0.174,2.987-0.174,2.987
		C9.869,66.59,9.9,66.768,9.95,66.896l-0.003-0.001c0,0,0.471,2.233,3.629,2.269l2.093,0.174c0,0,0.031-1.356-1.151-1.186
		c-0.088,0.013-0.164,0.012-0.228-0.001l1.575-1.45c0.377,0.971,0.712,1.758,0.751,1.854c0.07,0.174,0.065,1.151,0.065,1.151
		l1.221,0.066c0.384-0.68-0.262-0.876-0.37-0.96l-0.063-3.606c0.729-0.713,2.54-2.492,2.596-2.603
		c0.938-1.877,1.082-1.849,1.082-1.849c-0.157-0.377-0.035-2.188-0.009-2.549c0.006,0.001,0.009,0.002,0.009,0.002l1.779-1.954
		C23.869,55.104,23.171,54.511,23.171,54.511z"/>
	<path style="fill:#EAE0DC;" d="M19.093,58.426c0,0-0.144,2.854-0.946,3.866c0,0-0.249,0.524-0.501,1.153
		c-0.323,0.805-0.174,1.793-0.174,1.793l2.943-2.563c0,0,1.116-1.326,0.837-3.105l-0.105-1.361
		C21.147,58.21,19.477,57.344,19.093,58.426z"/>
	<path style="fill:#E9E9F4;" d="M18.305,53.941c-0.041,0.023,0.988-0.456,1.393,0.379c0,0,0.081,0.23,0.068,0.311
		c0,0-0.243,0.406-0.744,0.365C19.021,54.996,18.21,54.834,18.305,53.941z"/>
	<path style="fill:#3D3D44;" d="M18.291,54.152c0,0,1.256-0.462,1.125,0.781C19.416,54.932,18.435,55.36,18.291,54.152z"/>
	<path style="fill:#E9E9F4;" d="M22.412,54.008c-0.602-0.523-1.282-0.068-1.282,0.486c0,0,0.092,0.314,0.196,0.366
		C21.326,54.86,22.294,55.133,22.412,54.008C22.412,54.008,22.521,54.103,22.412,54.008z"/>
	<path style="fill:#3D3D44;" d="M21.208,54.145c0,0,0.877-0.177,0.759,0.654c0,0-0.008,0.005-0.028,0.015
		c-0.255,0.122-0.303,0.122-0.597,0.059C21.341,54.874,20.973,54.731,21.208,54.145z"/>
	<path style="fill:#E9E9F4;" d="M21.983,55.585c0,0.397-0.561,1.118-1.224,1.118s-1.177-0.722-1.177-1.118
		c0-0.397,0.538-0.718,1.201-0.718C21.446,54.866,21.983,55.188,21.983,55.585z"/>
	<path style="fill:#83838E;" d="M20.794,55.618c0,0-0.13,0.819-0.776,0.697l-0.102-0.026l-0.07-0.072c0,0,0.305,0.105,0.482,0.007
		c0,0,0.36-0.15,0.384-0.632L20.794,55.618z"/>
	<path style="fill:#83838E;" d="M20.779,55.574c0,0,0.13,0.819,0.776,0.697l0.107-0.025l0.066-0.074c0,0-0.305,0.105-0.482,0.007
		c0,0-0.36-0.15-0.384-0.632L20.779,55.574z"/>
	<path style="fill:#3D3D44;" d="M21.237,55.279c0.001-0.117-0.204-0.214-0.458-0.215c-0.254-0.002-0.46,0.092-0.46,0.209
		c0,0.064,0.063,0.122,0.16,0.161c0.019,0.102,0.151,0.182,0.314,0.183c0.172,0.001,0.311-0.086,0.319-0.195
		C21.189,55.385,21.237,55.335,21.237,55.279z"/>
	<path style="fill:#3D3D44;" d="M22.167,54.646"/>
	<path style="fill:#3D3D44;" d="M22.167,54.646"/>
	<path style="fill:#3D3D44;" d="M22.167,54.646"/>
	<path style="fill:#63615A;" d="M16.436,56.264c0.077,0.073,0.218,0.185,0.299,0.254c0.724,0.618,1.735,0.886,2.67,0.706
		c-0.222,0.169-0.453,0.343-0.725,0.406c-0.177,0.041-0.362,0.032-0.544,0.02c-0.58-0.038-1.157-0.101-1.731-0.19
		c-0.077-0.012-0.209-0.023-0.195-0.1c0.006-0.036,0.07-0.092,0.095-0.119C16.502,57.027,16.446,56.686,16.436,56.264"/>
	<path style="fill:#63615A;" d="M15.434,57.702c0.057,0.288,0.254,0.625,0.512,0.879c0.613,0.603,1.369,1.059,2.189,1.32
		c-0.137,0.102-0.321,0.112-0.492,0.102c-0.645-0.039-1.262-0.31-1.78-0.696c-0.518-0.386-0.953-0.899-1.327-1.426
		C14.82,57.739,15.434,57.658,15.434,57.702"/>
	<path style="fill:#63615A;" d="M13.048,58.759c-0.005,0.731,0.306,1.44,0.816,1.964c0.51,0.524,1.166,0.885,1.845,1.155
		c-0.708,0.207-1.492,0.026-2.117-0.367c-0.624-0.393-1.106-0.98-1.493-1.609c-0.025-0.04-0.072-0.084-0.042-0.121
		c0.063-0.078,0.079-0.103,0.122-0.146c0.263-0.267,0.486-0.573,0.781-0.805C13.041,58.74,13.09,58.73,13.048,58.759"/>
	<path style="fill:#63615A;" d="M10.114,63.26c0.607,0.255,1.229,0.79,1.726,1.221c0.122,0.106,0.241,0.218,0.325,0.356
		c0.09,0.149,0.134,0.32,0.17,0.49c0.121,0.574,0.158,1.166,0.11,1.75c-0.288-0.521-0.582-1.05-1.009-1.464
		c-0.428-0.414-1.104-0.714-1.695-0.64c-0.037-0.396,0.178-1.382,0.361-1.716"/>
	<path style="fill:#63615A;" d="M15.869,66.637c-0.169-0.672-0.514-1.285-0.866-1.882c-0.289-0.49-0.646-1.02-1.202-1.138
		c0.805,1.041,1.065,2.486,1.308,3.78c0.235-0.22,0.501-0.511,0.778-0.674"/>
	<path style="fill:#63615A;" d="M17.65,63.397c-0.282,0.62-1.074,1.283-1.752,1.214c0.106,0.28,0.377,0.472,0.663,0.56
		c0.286,0.088,0.592,0.087,0.891,0.085c0.048-0.535,0.13-1.318,0.21-1.85"/>
	<path style="fill:#63615A;" d="M11.376,60.761c-0.034,0.243,0.064,0.622,0.205,0.823c0.517,0.737,1.31,1.274,2.186,1.481
		c-0.31,0.099-0.654,0.091-0.958-0.024c-0.165-0.062-0.316-0.153-0.467-0.244c-0.226-0.136-0.452-0.272-0.678-0.408
		c-0.244-0.146-0.497-0.303-0.639-0.55c-0.042-0.074-0.074-0.157-0.075-0.242c-0.001-0.06,0.014-0.119,0.031-0.177
		C11.031,61.259,11.28,60.901,11.376,60.761"/>
	<path style="fill:#63615A;" d="M17.715,63.253c0.098-0.154,0.201-0.413,0.294-0.569c0.137-0.229,0.167-0.474,0.164-0.549
		c-0.01-0.205-0.247-0.237-0.417-0.351c-0.541-0.362-0.795-1.109-1.412-1.317c-0.353-0.119-0.745-0.024-1.083,0.134
		c0.451-0.026,0.897,0.154,1.253,0.432c0.356,0.278,0.629,0.648,0.858,1.037C17.538,62.352,17.715,63.253,17.715,63.253z"/>
	<path style="fill:#63615A;" d="M16.298,54.505c0.305,0.444,0.849,0.819,1.387,0.818c0.222,0,0.451-0.044,0.663,0.023
		c-0.059,0.123-0.209,0.166-0.341,0.201c-0.548,0.145-1.098,0.376-1.58,0.673c-0.02-0.445-0.08-0.908-0.142-1.358
		c-0.013-0.096-0.026-0.214,0-0.358"/>
</g>
<polygon style="opacity:0.26;fill:#D7EEF4;enable-background:new    ;" points="32.9,32 20.9,32 0,51.5 0,65 12.3,65 "/>
<g>
	<path style="fill:#EFE2DF;" d="M52.818,41.164c0,0-3.747-0.526-3.852,0.648c0,0-0.847,6.845,0.465,7.607
		c0.438,0.037,0.687,0.016,1.118-0.087c0.097-0.023,0.214-0.075,0.228-0.194c0.007-0.058-0.015-0.115-0.034-0.169
		c-0.05-0.147-0.078-0.305-0.085-0.464c0.474,0.241,1.196,0.433,2.093,0.061c-0.015,0.092-0.036,0.182-0.065,0.268
		c-0.019,0.054-0.04,0.111-0.034,0.169c0.013,0.12,0.13,0.171,0.228,0.194c0.431,0.102,0.923,0.097,1.361,0.059
		c0.068-0.006,2.092-1.608,2.092-1.608C56.75,45.741,52.818,41.164,52.818,41.164z"/>
	<path style="fill:#A87144;" d="M49.221,48.54c-0.344-2.556,1.026-5.978,1.026-5.978l0.193-0.305l-1.439-0.199
		c-1.036,1.332-1.409,2.67-1.469,3.829c-0.03,0.024-0.061,0.052-0.09,0.085c0,0-0.752,0.838,0.125,2.336c0,0-0.68,0.438-0.388,0.92
		c0,0,0.05,0.074,0.189,0.108c0.087,0.021,0.256-0.023,0.538,0.007c0,0,0.984,0.027,1.193,0.054c0.138,0.018,0.237,0.024,0.29,0.026
		c0.008,0.001,0.016,0.001,0.024,0.001c0.012,0,0.019,0,0.019,0c0.038-0.002,0.003-0.071-0.033-0.138L49.221,48.54z"/>
	<path style="fill:#A87144;" d="M59.1,49.255c0,0-0.169-1.214-0.624-2.281c0.101,0.048,0.194,0.117,0.273,0.209
		c-0.018-0.413-0.189-0.803-0.431-1.094c-0.241-0.291-0.549-0.491-0.868-0.632c-0.427-0.188-0.923-0.267-1.328-0.038
		c-0.106-1.086-0.499-2.307-1.445-3.524c0,0-1.191-1.509-1.926,0.136l0.68,0.368c0,0,1.371,3.422,1.026,5.978l-0.178,0.746
		c-0.036,0.067-0.071,0.135-0.033,0.138c0,0,0.007,0,0.019,0c0.008,0,0.016,0,0.024-0.001c0.053-0.002,0.152-0.008,0.29-0.026
		c0.209-0.027,1.193-0.054,1.193-0.054c0.282-0.03,0.451,0.014,0.538-0.007c0.024-0.006,0.045-0.013,0.064-0.021L59.1,49.255z"/>
	<path style="fill:#DBCBC6;" d="M50.342,42.328c0.537-0.41,1.213-0.4,1.847-0.376c0.414,0.016,0.862,0.047,1.177,0.373
		c0.343,0.355,0.426,0.956,0.433,1.504c0.008,0.599-0.061,1.237-0.376,1.697c-0.038-0.253-0.119-0.497-0.236-0.711
		c-0.262,0.903-0.881,1.641-1.629,1.939c0.023-0.446-0.1-0.901-0.335-1.244c-0.076,0.215-0.191,0.409-0.333,0.565
		c-0.653-0.918-0.927-2.216-0.72-3.403C50.17,42.673,50.211,42.428,50.342,42.328z"/>
</g>
<g>
	<path style="fill:#D59862;" d="M54.798,37.626c-0.017-0.028-0.035-0.054-0.053-0.08c0.044-0.679-0.052-2.633-0.052-2.633
		c-0.092-0.833-0.763-0.196-0.763-0.196c-0.389,0.404-1.015,0.854-1.513,1.185c-0.1,0.065-0.192,0.125-0.273,0.178
		c-0.057,0.036-0.108,0.069-0.157,0.1c-0.011-0.001-0.018-0.001-0.018-0.001l-2.591,0.724c-0.545-0.19-2.478-0.379-2.478-0.379
		c-0.83-0.114-0.376,0.692-0.376,0.692c0.53,0.848,1.05,2.286,1.097,2.417l0.342,1.832c0.772,1.555,2.684,0.69,2.684,0.69L53.058,42
		c1.362,0.926,2.114-0.92,2.114-0.92C55.616,39.79,54.798,37.626,54.798,37.626z"/>
	<path style="fill:#FFCFCF;" d="M48.756,37.376c0.063,0.017,0.033-0.188,0.033-0.188c-0.281-0.11-1.43-0.223-1.43-0.223
		c-0.472-0.065-0.214,0.394-0.214,0.394c0.316,0.506,0.626,1.381,0.626,1.381C47.921,38.667,48.587,37.641,48.756,37.376z"/>
	<path style="fill:#FFCFCF;" d="M54.319,35.486c-0.055-0.497-0.455-0.117-0.455-0.117c-0.232,0.241-0.606,0.51-0.903,0.708
		c-0.06,0.039-0.115,0.075-0.163,0.106c-0.174,0.112-0.295,0.183-0.295,0.183c0.184,0.099,1.841,0.763,1.841,0.763
		C54.385,36.815,54.319,35.486,54.319,35.486z"/>
	<path style="fill:#F9FDFF;" d="M51.256,38.856c-0.228,0.008-0.385,0.233-0.464,0.448c-0.067,0.183-0.112,0.385-0.227,0.538
		c-0.377,0.372-1.251,1.266-1.251,1.266c-0.459,0.403,0.604,1.179,0.68,1.23l1.409-0.145l1.335-0.128
		c0.069-0.06,0.976-0.857,0.47-1.2c0,0-0.803-0.642-1.266-1.002c-0.108-0.185-0.136-0.407-0.214-0.607
		C51.648,39.051,51.476,38.849,51.256,38.856z"/>
	<path style="fill:#CED5D8;" d="M51.248,40.599c0,0-0.267,1.448-1.241,1.613l0.012-0.103c0,0,0.71-0.041,1.133-1.549L51.248,40.599z
		"/>
	<path style="fill:#CED5D8;" d="M51.198,40.624c0,0,0.852,1.201,1.805,0.94l-0.054-0.088c0,0-0.661,0.262-1.68-0.928L51.198,40.624z
		"/>
	<path style="fill:#F7AE8B;" d="M51.673,40.075c-0.015-0.186-0.256-0.318-0.539-0.295c-0.283,0.023-0.5,0.192-0.485,0.378
		c0.008,0.102,0.086,0.187,0.2,0.239c0.035,0.16,0.193,0.273,0.375,0.259c0.191-0.015,0.335-0.167,0.329-0.341
		C51.633,40.248,51.68,40.164,51.673,40.075z"/>
	<path style="fill:#F9FDFF;" d="M48.25,39.618c0,0,0.865,0.877,1.808,0.303c0,0-0.214-1.381-1.167-0.913
		C48.847,39.03,48.319,39.328,48.25,39.618z"/>
	<path style="fill:#5E3B20;" d="M48.968,40.064c0.021,0.004,0.543-0.763-0.077-1.056c0,0-0.507,0.198-0.661,0.61
		C48.23,39.618,48.54,39.986,48.968,40.064z"/>
	<path style="fill:#F9FDFF;" d="M54.178,39.433c0,0-0.95,0.785-1.829,0.119c0,0,0.352-1.352,1.253-0.79
		C53.645,38.788,54.139,39.138,54.178,39.433z"/>
	<path style="fill:#5E3B20;" d="M53.093,39.828c0.021-0.002,0.429-0.836-0.253-1.087c0,0-0.427,0.301-0.496,0.813
		C52.344,39.554,52.661,39.873,53.093,39.828z"/>
</g>
<polygon style="opacity:0.3;fill:#D7EEF4;enable-background:new    ;" points="26.2,65 40.3,65 58,32 44.8,32 "/>
</svg>
