<?xml version="1.0" encoding="utf-8"?>
<!-- Generator: Adobe Illustrator 19.0.0, SVG Export Plug-In . SVG Version: 6.00 Build 0)  -->
<svg version="1.1" id="圖層_1" xmlns="http://www.w3.org/2000/svg" xmlns:xlink="http://www.w3.org/1999/xlink" x="0px" y="0px" viewBox="0 0 48 100" style="enable-background:new 0 0 48 100;" xml:space="preserve">
	<path style="fill:#72716D;" d="M45.6,31.2c1.1-2.8,1.9-5.7,2.1-8.7c0.4-6.1-2-12.2-5.6-17.2C43,8.2,43,11.2,42.3,14c-0.2-0.5-0.3-1-0.5-1.5c-7.7-20.1-23.5-10-23.5-10c-14.7,9.8-1.5,25.6-1.5,25.6c11.5,17-3.5,23.5-3.5,23.5C2,58.7,0.7,67.6,0.7,67.6C-3.7,95.2,22.7,100,22.7,100l0-2.9C3.9,75.7,23.4,59,25,57.6l2.8-2.3C35.6,48.9,41.9,40.8,45.6,31.2z"/>
	<path style="fill:#63615A;" d="M14.3,83.2C12,85.4,9,87.1,5.8,87.4c3,1.9,7.1,2,10.1,0c0.2-0.1,0.5-0.1,0.5-0.3c0-0.2-0.1-0.4-0.3-0.7c-0.5-1.1-1-2.7-1.1-3.8C14.8,82.8,14.5,83,14.3,83.2"/>
	<path style="fill:#63615A;" d="M0.5,77.7c3,0.8,6.4,1.1,9.4,0.2c1.4-0.4,2.8-1.1,3.4-2.3c-4.7,0.6-9.5-1-13-4.2C0.3,74.1,0.2,75.1,0.5,77.7"/>
	<path style="fill:#63615A;" d="M18.1,66.1C13.8,64.2,10,62.3,6,59.9c-0.3,1.2,0.2,2.5,0.7,3.7c1.7,3.8,4.6,8.7,8.2,10.6c0.5-1.4,0.8-2.9,1.3-4.3C16.6,68.6,17,67.8,18.1,66.1"/>
	<path style="fill:#63615A;" d="M26.1,56.6c-3.1-1.1-5.1-4-7-6.7c1.7,1,3.4,2,5.3,2.5c1.9,0.5,4.7,0.9,6.5,0.2c-0.8,0.8-1.4,1.3-2.1,1.9C27.5,55.6,27.4,55.8,26.1,56.6"/>
	<path style="fill:#63615A;" d="M45.6,31c-6.9,3.8-14.6-1.4-22.5-2.2c3.1,4.4,6.4,9.1,11.4,11.3c1.6,0.7,3.6,1.4,4.3,3c2.7-1.4,5.6-8.4,6.6-11.5C45.4,31.7,45.6,31.2,45.6,31"/>
	<path style="fill:#63615A;" d="M21.2,39.9c0.8,0.9,2,1.5,3.1,2.1c2.9,1.5,5.8,3.1,9.1,3.3c0.3,0,0.6,0.1,0.6,0.3c0,0.1-0.1,0.3-0.2,0.4c-0.5,0.6-1.4,0.8-2.2,0.8c-3.8,0.2-7.6-2-11.5-2C20.7,43.4,21.2,42.3,21.2,39.9"/>
</svg>