<?xml version="1.0" encoding="utf-8"?>
<!-- Generator: Adobe Illustrator 19.0.0, SVG Export Plug-In . SVG Version: 6.00 Build 0)  -->
<svg version="1.1" id="分離模式" xmlns="http://www.w3.org/2000/svg" xmlns:xlink="http://www.w3.org/1999/xlink" x="0px" y="0px" viewBox="0 0 100 100" style="enable-background:new 0 0 100 100;" xml:space="preserve">
	<path d="M22.7,25.4c-0.9-0.7-2.1-0.8-3-0.3c0.2-1-0.1-2.2-1-2.9c-1.2-1-3-0.8-4,0.5c-1,1.2-0.8,3,0.5,4c0.1,0.1,0.2,0.1,0.3,0.2L4.9,40.1c-0.1-0.1-0.2-0.2-0.3-0.3c-1.2-1-3-0.8-4,0.5c-1,1.2-0.8,3,0.5,4c0.9,0.7,2.1,0.8,3,0.3c-0.2,1,0.1,2.2,1,2.9c1.2,1,3,0.8,4-0.5c0.9-1.1,0.8-2.7-0.1-3.7L19.5,30c1.2,0.7,2.8,0.4,3.7-0.7C24.1,28.1,23.9,26.3,22.7,25.4z"/>
	<path d="M59.8,32.9c0.1,0,0.2,0,0.2,0c4.9,0,10.1-2.1,12.5-5.1c1.1-1.4,0.9-3.3-0.5-4.4s-3.3-0.9-4.4,0.5c-1.1,1.3-4.5,2.9-7.7,2.8c-3.1,0-5.4-1.1-6.4-2.2c-0.6-1.6-2.1-2.8-3.9-2.8c-1.5,0-2.8,0.8-3.6,2c-0.2,0.2-0.4,0.3-0.6,0.5c-0.9,1.2-3.3,2.4-6.6,2.4c-3.2,0-6.6-1.4-7.7-2.8c-1.1-1.4-3.1-1.6-4.4-0.5c-1.4,1.1-1.6,3.1-0.5,4.4c2.4,3,7.6,5.1,12.5,5.1c0.1,0,0.2,0,0.2,0c2.3,0,4.6-0.5,6.5-1.3v3.1c-1,1.2-3.3,2.3-6.6,2.4c-3.2,0-6.6-1.4-7.7-2.8C30,33,28,32.8,26.6,33.9C25.2,35,25,37,26.1,38.3c2.4,3,7.6,5.1,12.5,5.1c0.1,0,0.2,0,0.2,0c2.3,0,4.6-0.5,6.5-1.3v3.1c-1,1.2-3.3,2.3-6.6,2.4c-3.2,0-6.6-1.4-7.7-2.8c-1.1-1.4-3.1-1.6-4.4-0.5c-1.4,1.1-1.6,3.1-0.5,4.4c2.4,3,7.6,5.1,12.5,5.1c0.1,0,0.2,0,0.2,0c2.3,0,4.6-0.5,6.5-1.3v3.1c-1,1.2-3.3,2.3-6.6,2.4c-3.5,0-5.4-1.7-6.3-2.8c-1.1-1.4-3.1-1.6-4.4-0.5c-1.4,1.1-1.6,3.1-0.5,4.4c2.6,3.3,6.6,5.1,11.1,5.1c0.1,0,0.2,0,0.2,0c2.3,0,4.6-0.5,6.5-1.3V66c-1,1.2-3.3,2.3-6.6,2.4c-2.4,0.1-3.3-0.7-4.9-2.8c-1.1-1.4-3.1-1.6-4.4-0.5c-1.4,1.1-1.6,3.1-0.5,4.4c2.1,2.6,4.5,5.1,9.7,5.1c0.1,0,0.2,0,0.2,0c2.3,0,4.6-0.5,6.5-1.3v0.4c0,2.3,1.9,4.2,4.2,4.2s4.2-1.9,4.2-4.2V74c1.8,0.7,3.9,1.1,6.1,1.1c0.1,0,0.2,0,0.2,0c5.2,0,7.6-2.5,9.7-5.1c1.1-1.4,0.9-3.3-0.5-4.4s-3.3-0.9-4.4,0.5c-1.7,2.1-2.5,2.8-4.9,2.8c-2.8,0-5-1-6.2-2v-3.4c1.8,0.7,3.9,1.1,6.1,1.1c0.1,0,0.2,0,0.2,0c4.4,0,8.4-1.9,11.1-5.1c1.1-1.4,0.9-3.3-0.5-4.4c-1.4-1.1-3.3-0.9-4.4,0.5c-0.8,1.1-2.9,2.8-6.3,2.8c-2.8,0-5-1-6.2-2V53c1.8,0.7,3.9,1.1,6.1,1.1c0.1,0,0.2,0,0.2,0c4.9,0,10.1-2.1,12.5-5.1c1.1-1.4,0.9-3.3-0.5-4.4c-1.4-1.1-3.3-0.9-4.4,0.5c-1.1,1.3-4.5,2.8-7.7,2.8c-2.8,0-5-1-6.2-2v-3.4c1.8,0.7,3.9,1.1,6.1,1.1c0.1,0,0.2,0,0.2,0c4.9,0,10.1-2.1,12.5-5.1c1.1-1.4,0.9-3.3-0.5-4.4c-1.4-1.1-3.3-0.9-4.4,0.5c-1.1,1.3-4.5,2.8-7.7,2.8c-2.8,0-5-1-6.2-2V32C55.5,32.5,57.6,32.9,59.8,32.9z"/>
	<path d="M84.9,26.7c1.2-1,1.5-2.8,0.5-4s-2.8-1.5-4-0.5c-0.9,0.7-1.2,1.8-1,2.9c-1-0.5-2.1-0.4-3,0.3c-1.2,1-1.5,2.8-0.5,4c0.9,1.1,2.4,1.4,3.7,0.7L91,43.4c-0.9,1-1,2.6-0.1,3.7c1,1.2,2.8,1.5,4,0.5c0.9-0.7,1.2-1.8,1-2.9c1,0.5,2.1,0.4,3-0.3c1.2-1,1.5-2.8,0.5-4s-2.8-1.5-4-0.5c-0.1,0.1-0.2,0.2-0.3,0.3L84.6,26.8C84.7,26.8,84.8,26.7,84.9,26.7z"/>
</svg>